<svg width="45" height="46" viewBox="0 0 45 46" fill="none" xmlns="http://www.w3.org/2000/svg">
<rect y="0.5" width="45" height="45" rx="7.5" fill="#303030"/>
<g clip-path="url(#clip0_744_4155)">
<g clip-path="url(#clip1_744_4155)">
<path d="M21 18.2751L21 20.9749C21 21.2649 20.7649 21.5 20.4749 21.5L17.7751 21.5C17.4851 21.5 17.25 21.2649 17.25 20.9749L17.25 18.2751C17.25 17.9851 17.4851 17.75 17.7751 17.75L20.4749 17.75C20.7649 17.75 21 17.9851 21 18.2751Z" fill="#96D3FF"/>
</g>
</g>
<g clip-path="url(#clip2_744_4155)">
<g clip-path="url(#clip3_744_4155)">
<path d="M14.25 18.2751L14.25 20.9749C14.25 21.2649 14.0149 21.5 13.7249 21.5L11.0251 21.5C10.7351 21.5 10.5 21.2649 10.5 20.9749L10.5 18.2751C10.5 17.9851 10.7351 17.75 11.0251 17.75L13.7249 17.75C14.0149 17.75 14.25 17.9851 14.25 18.2751Z" fill="#96D3FF"/>
</g>
</g>
<g clip-path="url(#clip4_744_4155)">
<g clip-path="url(#clip5_744_4155)">
<path d="M27.75 18.2751L27.75 20.9749C27.75 21.2649 27.5149 21.5 27.2249 21.5L24.5251 21.5C24.2351 21.5 24 21.2649 24 20.9749L24 18.2751C24 17.9851 24.2351 17.75 24.5251 17.75L27.2249 17.75C27.5149 17.75 27.75 17.9851 27.75 18.2751Z" fill="#96D3FF"/>
</g>
</g>
<g clip-path="url(#clip6_744_4155)">
<g clip-path="url(#clip7_744_4155)">
<path d="M34.5 18.2751L34.5 20.9749C34.5 21.2649 34.2649 21.5 33.9749 21.5L31.2751 21.5C30.9851 21.5 30.75 21.2649 30.75 20.9749L30.75 18.2751C30.75 17.9851 30.9851 17.75 31.2751 17.75L33.9749 17.75C34.2649 17.75 34.5 17.9851 34.5 18.2751Z" fill="#96D3FF"/>
</g>
</g>
<g clip-path="url(#clip8_744_4155)">
<g clip-path="url(#clip9_744_4155)">
<path d="M21 11.5251L21 14.2249C21 14.5149 20.7649 14.75 20.4749 14.75L17.7751 14.75C17.4851 14.75 17.25 14.5149 17.25 14.2249L17.25 11.5251C17.25 11.2351 17.4851 11 17.7751 11L20.4749 11C20.7649 11 21 11.2351 21 11.5251Z" fill="#96D3FF"/>
</g>
</g>
<g clip-path="url(#clip10_744_4155)">
<g clip-path="url(#clip11_744_4155)">
<path d="M20.4749 28.25L17.7751 28.25C17.4851 28.25 17.25 28.0149 17.25 27.7249L17.25 25.0251C17.25 24.7351 17.4851 24.5 17.7751 24.5L20.4749 24.5C20.7649 24.5 21 24.7351 21 25.0251L21 27.7249C21 28.0149 20.7649 28.25 20.4749 28.25Z" fill="#96D3FF"/>
</g>
</g>
<g clip-path="url(#clip12_744_4155)">
<g clip-path="url(#clip13_744_4155)">
<path d="M13.7249 28.25L11.0251 28.25C10.7351 28.25 10.5 28.0149 10.5 27.7249L10.5 25.0251C10.5 24.7351 10.7351 24.5 11.0251 24.5L13.7249 24.5C14.0149 24.5 14.25 24.7351 14.25 25.0251L14.25 27.7249C14.25 28.0149 14.0149 28.25 13.7249 28.25Z" fill="#96D3FF"/>
</g>
</g>
<g clip-path="url(#clip14_744_4155)">
<g clip-path="url(#clip15_744_4155)">
<path d="M20.4749 35L17.7751 35C17.4851 35 17.25 34.7649 17.25 34.4749L17.25 31.7751C17.25 31.4851 17.4851 31.25 17.7751 31.25L20.4749 31.25C20.7649 31.25 21 31.4851 21 31.7751L21 34.4749C21 34.7649 20.7649 35 20.4749 35Z" fill="#96D3FF"/>
</g>
</g>
<rect x="24" y="28.25" width="3.75" height="3.75" rx="0.75" transform="rotate(-90 24 28.25)" fill="#95D3FF"/>
<rect x="30.75" y="28.25" width="3.75" height="3.75" rx="0.75" transform="rotate(-90 30.75 28.25)" fill="#95D3FF"/>
<rect x="24" y="35" width="3.75" height="3.75" rx="0.75" transform="rotate(-90 24 35)" fill="#95D3FF"/>
<rect x="24" y="14.75" width="3.75" height="3.75" rx="0.75" transform="rotate(-90 24 14.75)" fill="#95D3FF"/>
<rect x="0.375" y="0.875" width="44.25" height="44.25" rx="7.125" stroke="#606060" stroke-width="0.75"/>
<defs>
<clipPath id="clip0_744_4155">
<rect width="3.75" height="3.75" fill="white" transform="translate(17.25 17.75)"/>
</clipPath>
<clipPath id="clip1_744_4155">
<rect width="3.75" height="3.75" fill="white" transform="translate(17.25 17.75)"/>
</clipPath>
<clipPath id="clip2_744_4155">
<rect width="3.75" height="3.75" fill="white" transform="translate(10.5 17.75)"/>
</clipPath>
<clipPath id="clip3_744_4155">
<rect width="3.75" height="3.75" fill="white" transform="translate(10.5 17.75)"/>
</clipPath>
<clipPath id="clip4_744_4155">
<rect width="3.75" height="3.75" fill="white" transform="translate(24 17.75)"/>
</clipPath>
<clipPath id="clip5_744_4155">
<rect width="3.75" height="3.75" fill="white" transform="translate(24 17.75)"/>
</clipPath>
<clipPath id="clip6_744_4155">
<rect width="3.75" height="3.75" fill="white" transform="translate(30.75 17.75)"/>
</clipPath>
<clipPath id="clip7_744_4155">
<rect width="3.75" height="3.75" fill="white" transform="translate(30.75 17.75)"/>
</clipPath>
<clipPath id="clip8_744_4155">
<rect width="3.75" height="3.75" fill="white" transform="translate(17.25 11)"/>
</clipPath>
<clipPath id="clip9_744_4155">
<rect width="3.75" height="3.75" fill="white" transform="translate(17.25 11)"/>
</clipPath>
<clipPath id="clip10_744_4155">
<rect width="3.75" height="3.75" fill="white" transform="translate(17.25 24.5)"/>
</clipPath>
<clipPath id="clip11_744_4155">
<rect width="3.75" height="3.75" fill="white" transform="translate(17.25 24.5)"/>
</clipPath>
<clipPath id="clip12_744_4155">
<rect width="3.75" height="3.75" fill="white" transform="translate(10.5 24.5)"/>
</clipPath>
<clipPath id="clip13_744_4155">
<rect width="3.75" height="3.75" fill="white" transform="translate(10.5 24.5)"/>
</clipPath>
<clipPath id="clip14_744_4155">
<rect width="3.75" height="3.75" fill="white" transform="translate(17.25 31.25)"/>
</clipPath>
<clipPath id="clip15_744_4155">
<rect width="3.75" height="3.75" fill="white" transform="translate(17.25 31.25)"/>
</clipPath>
</defs>
</svg>
