<svg width="500" height="330" viewBox="0 0 500 330" fill="none" xmlns="http://www.w3.org/2000/svg">
<g clip-path="url(#clip0_1_54)">
<path d="M488 0H12C5.37258 0 0 5.37258 0 12V317.167C0 323.794 5.37258 329.167 12 329.167H488C494.627 329.167 500 323.794 500 317.167V12C500 5.37258 494.627 0 488 0Z" fill="#031E38"/>
<path d="M488 0H12C5.37258 0 0 5.37258 0 12V317.167C0 323.794 5.37258 329.167 12 329.167H488C494.627 329.167 500 323.794 500 317.167V12C500 5.37258 494.627 0 488 0Z" fill="#031E38"/>
<path d="M252.207 214.143C228.321 214.143 216.836 200.962 211.395 189.897C206.011 178.921 205.559 168.041 205.521 166.49C204.596 151.8 213.343 122.272 253.136 114.751C253.826 114.621 254.536 114.628 255.224 114.771C255.912 114.915 256.565 115.193 257.145 115.589C257.726 115.985 258.223 116.492 258.607 117.08C258.992 117.668 259.257 118.326 259.388 119.017C259.518 119.707 259.511 120.417 259.367 121.105C259.224 121.793 258.946 122.446 258.55 123.026C258.153 123.607 257.647 124.104 257.059 124.488C256.471 124.873 255.812 125.138 255.122 125.269C214.463 132.953 216.119 164.569 216.203 165.905C216.203 166.006 216.214 166.107 216.216 166.21C216.245 167.717 217.189 203.442 252.207 203.442C265.245 203.442 274.452 197.833 279.603 186.774C284.273 176.712 283.283 165.321 277.023 157.045C272.656 151.27 267.015 148.46 259.781 148.46C253.206 148.46 247.672 150.345 243.334 154.063C241.526 155.61 240.054 157.511 239.008 159.647C237.962 161.784 237.363 164.112 237.25 166.488C236.981 171.334 238.612 175.905 241.842 179.364C244.741 182.457 248.124 183.964 252.207 183.964C257.445 183.964 260.891 182.247 262.444 178.849C264.043 175.358 263.133 171.422 262.408 170.582C260.67 168.675 258.842 167.973 258.119 168.102C257.636 168.184 257.016 168.982 256.501 170.186C256.225 170.832 255.825 171.417 255.324 171.909C254.822 172.4 254.228 172.788 253.576 173.05C252.924 173.312 252.227 173.443 251.525 173.436C250.823 173.429 250.129 173.283 249.482 173.007C248.836 172.732 248.251 172.332 247.759 171.83C247.268 171.328 246.88 170.734 246.618 170.082C246.356 169.431 246.225 168.734 246.232 168.031C246.24 167.329 246.385 166.635 246.661 165.989C249.385 159.609 253.899 157.976 256.345 157.556C261.072 156.759 266.298 158.949 270.337 163.404C274.375 167.858 275.203 176.481 272.273 183.096C270.357 187.417 265.203 194.666 252.207 194.666C245.201 194.666 238.915 191.902 234.027 186.669C228.787 181.06 226.141 173.681 226.566 165.895C226.775 162.082 227.749 158.35 229.431 154.922C231.112 151.493 233.467 148.438 236.355 145.94C242.687 140.512 250.564 137.761 259.765 137.761C270.281 137.761 279.196 142.196 285.543 150.587C294.197 162.034 295.636 177.622 289.294 191.28C284.458 201.71 274.093 214.143 252.207 214.143Z" fill="url(#paint0_linear_1_54)"/>
</g>
<defs>
<linearGradient id="paint0_linear_1_54" x1="205.458" y1="164.399" x2="293.215" y2="164.399" gradientUnits="userSpaceOnUse">
<stop offset="0.18" stop-color="#0000FF"/>
<stop offset="1" stop-color="#FF00FF"/>
</linearGradient>
<clipPath id="clip0_1_54">
<rect width="500" height="330" fill="white"/>
</clipPath>
</defs>
</svg>
