<svg width="1645" height="1645" viewBox="0 0 1645 1645" fill="none" xmlns="http://www.w3.org/2000/svg">
<rect width="1645" height="1645" rx="68" fill="#031C34"/>
<path d="M198.27 1272C184.198 1272 174.015 1268.8 167.582 1262.42C161.194 1255.98 158 1245.85 158 1231.96C158 1230.57 158.463 1229.41 159.389 1228.49C160.315 1227.56 161.472 1227.1 162.86 1227.1C164.249 1227.1 165.406 1227.56 166.332 1228.49C167.258 1229.41 167.721 1230.57 167.721 1231.96C167.721 1243.21 169.988 1251.08 174.525 1255.57C179.107 1260.06 186.976 1262.28 198.27 1262.28H231.595C242.843 1262.28 250.758 1260.06 255.294 1255.57C259.876 1251.08 262.144 1243.21 262.144 1231.96C262.144 1220.71 259.876 1212.84 255.294 1208.35C250.758 1203.86 242.843 1201.64 231.595 1201.64H198.964C185.68 1201.64 176.006 1198.63 169.896 1192.62C163.832 1186.6 160.778 1176.97 160.778 1163.69C160.778 1150.4 163.832 1140.78 169.896 1134.76C176.006 1128.74 185.587 1125.73 198.732 1125.73H232.753C245.852 1125.73 255.48 1128.74 261.543 1134.76C267.653 1140.78 270.708 1150.36 270.708 1163.46C270.708 1164.84 270.245 1166 269.319 1166.93C268.393 1167.85 267.236 1168.32 265.848 1168.32C264.459 1168.32 263.302 1167.85 262.376 1166.93C261.45 1166 260.987 1164.84 260.987 1163.46C260.987 1153.13 258.859 1145.87 254.6 1141.7C250.388 1137.54 243.075 1135.45 232.753 1135.45H198.732C188.364 1135.45 181.097 1137.54 176.839 1141.7C172.627 1145.87 170.498 1153.23 170.498 1163.69C170.498 1174.2 172.627 1181.51 176.839 1185.67C181.097 1189.84 188.457 1191.92 198.964 1191.92H231.595C245.62 1191.92 255.85 1195.12 262.237 1201.55C268.671 1207.94 271.865 1218.07 271.865 1231.96C271.865 1245.85 268.671 1255.98 262.237 1262.42C255.85 1268.8 245.62 1272 231.595 1272H198.27Z" fill="#5BEBF3"/>
<path d="M354.254 1272.46C352.866 1272.46 351.709 1272 350.783 1271.07C349.857 1270.15 349.395 1268.99 349.395 1267.6V1135.22H298.711C297.322 1135.22 296.165 1134.76 295.239 1133.83C294.314 1132.91 293.851 1131.75 293.851 1130.36C293.851 1128.97 294.314 1127.82 295.239 1126.89C296.165 1125.97 297.322 1125.5 298.711 1125.5H409.798C411.187 1125.5 412.344 1125.97 413.27 1126.89C414.195 1127.82 414.658 1128.97 414.658 1130.36C414.658 1131.75 414.195 1132.91 413.27 1133.83C412.344 1134.76 411.187 1135.22 409.798 1135.22H359.115V1267.6C359.115 1268.99 358.652 1270.15 357.726 1271.07C356.8 1272 355.643 1272.46 354.254 1272.46Z" fill="#5BEBF3"/>
<path d="M552.825 1265.75C553.565 1267 553.982 1268.02 553.982 1268.76C553.982 1270.33 553.102 1271.54 551.436 1272.46C550.325 1273.06 549.353 1273.39 548.428 1273.39C546.854 1273.39 545.65 1272.65 544.724 1271.07L506.075 1210.44H460.252V1267.37C460.252 1270.61 458.632 1272.23 455.391 1272.23C452.151 1272.23 450.532 1270.61 450.532 1267.37V1130.59C450.532 1127.35 452.151 1125.73 455.391 1125.73H509.547C522.322 1125.73 532.042 1129.02 538.569 1135.59C545.141 1142.12 548.428 1151.79 548.428 1164.61V1171.56C548.428 1194.56 538.059 1207.34 517.415 1209.97L552.825 1265.75ZM460.252 1200.72H509.547C519.545 1200.72 526.951 1198.36 531.626 1193.68C536.347 1188.96 538.707 1181.6 538.707 1171.56V1164.61C538.707 1154.62 536.347 1147.21 531.626 1142.54C526.951 1137.81 519.545 1135.45 509.547 1135.45H460.252V1200.72Z" fill="#5BEBF3"/>
<path d="M708.808 1265.29C709.271 1266.21 709.503 1267.09 709.503 1267.83C709.503 1269.54 708.392 1270.84 706.263 1271.77C705.337 1272.09 704.55 1272.23 703.949 1272.23C702.236 1272.23 700.94 1271.26 700.014 1269.22L683.582 1230.57C683.12 1230.76 682.333 1230.8 681.268 1230.8H608.367C607.58 1230.8 607.025 1230.76 606.747 1230.57L590.084 1269.22C589.158 1271.26 587.77 1272.23 585.918 1272.23C585.594 1272.23 584.807 1272.09 583.604 1271.77C581.567 1270.84 580.595 1269.45 580.595 1267.6C580.595 1267.28 580.734 1266.54 581.058 1265.29L639.148 1129.44C640.073 1126.98 641.925 1125.73 644.702 1125.73H645.396C647.988 1125.73 649.839 1126.98 650.95 1129.44L708.808 1265.29ZM610.913 1221.08H679.417L645.396 1141.01L610.913 1221.08Z" fill="#5BEBF3"/>
<path d="M771.065 1272.46C769.676 1272.46 768.519 1272 767.593 1271.07C766.667 1270.15 766.204 1268.99 766.204 1267.6V1135.22H715.521C714.132 1135.22 712.975 1134.76 712.049 1133.83C711.124 1132.91 710.661 1131.75 710.661 1130.36C710.661 1128.97 711.124 1127.82 712.049 1126.89C712.975 1125.97 714.132 1125.5 715.521 1125.5H826.608C827.997 1125.5 829.154 1125.97 830.08 1126.89C831.005 1127.82 831.468 1128.97 831.468 1130.36C831.468 1131.75 831.005 1132.91 830.08 1133.83C829.154 1134.76 827.997 1135.22 826.608 1135.22H775.924V1267.6C775.924 1268.99 775.462 1270.15 774.536 1271.07C773.61 1272 772.453 1272.46 771.065 1272.46Z" fill="#5BEBF3"/>
<path d="M912.007 1272.23C895.621 1272.23 883.725 1268.48 876.227 1261.03C868.775 1253.53 865.025 1241.63 865.025 1225.25V1130.59C865.025 1129.2 865.488 1128.05 866.414 1127.12C867.34 1126.2 868.497 1125.73 869.886 1125.73C871.274 1125.73 872.431 1126.2 873.357 1127.12C874.283 1128.05 874.746 1129.2 874.746 1130.59V1225.25C874.746 1238.86 877.569 1248.44 883.17 1254.09C888.817 1259.69 898.399 1262.51 912.007 1262.51H939.779C953.479 1262.51 963.153 1259.69 968.708 1254.09C974.262 1248.44 977.038 1238.86 977.038 1225.25V1130.59C977.038 1129.2 977.501 1128.05 978.427 1127.12C979.353 1126.2 980.51 1125.73 981.898 1125.73C983.287 1125.73 984.444 1126.2 985.37 1127.12C986.296 1128.05 986.759 1129.2 986.759 1130.59V1225.25C986.759 1241.63 983.056 1253.53 975.651 1261.03C968.245 1268.48 956.257 1272.23 939.779 1272.23H912.007Z" fill="#5BEBF3"/>
<path d="M1168.9 1125.73C1171.95 1125.73 1173.52 1127.35 1173.52 1130.59V1267.37C1173.52 1270.61 1171.9 1272.23 1168.66 1272.23C1165.42 1272.23 1163.8 1270.61 1163.8 1267.37V1145.41L1111.5 1225.94C1110.25 1228.12 1108.31 1229.18 1105.71 1229.18C1103.08 1229.18 1101.13 1228.12 1099.93 1225.94L1047.39 1145.17V1267.37C1047.39 1270.61 1045.77 1272.23 1042.53 1272.23C1039.29 1272.23 1037.67 1270.61 1037.67 1267.37V1130.59C1037.67 1127.35 1039.29 1125.73 1042.53 1125.73C1045.13 1125.73 1047.07 1126.84 1048.32 1128.97L1105.71 1217.38L1163.11 1128.97C1164.31 1126.84 1166.26 1125.73 1168.9 1125.73Z" fill="#5BEBF3"/>
<path d="M1279.29 1272.23C1275.26 1272.23 1272.11 1269.68 1269.8 1264.59L1212.64 1129.2C1211.85 1127.21 1211.48 1125.5 1211.48 1124.11C1211.48 1120.87 1213.33 1118.42 1217.03 1116.71C1218.89 1115.78 1220.74 1115.32 1222.59 1115.32C1226.29 1115.32 1228.88 1117.4 1230.46 1121.57L1281.14 1241.45L1330.44 1121.57C1332.1 1117.4 1334.74 1115.32 1338.3 1115.32C1339.97 1115.32 1341.82 1115.78 1343.86 1116.71C1347.38 1118.42 1349.18 1121.06 1349.18 1124.58C1349.18 1126.29 1348.86 1127.82 1348.26 1129.2L1290.63 1264.59C1288.13 1269.68 1284.66 1272.23 1280.21 1272.23H1279.29Z" fill="#5BEBF3"/>
<path d="M1388.76 1272.23C1385.52 1272.23 1383.02 1271.44 1381.35 1269.82C1379.64 1268.2 1378.8 1265.75 1378.8 1262.51C1378.8 1249.87 1381.35 1239.27 1386.44 1230.71C1391.53 1222.15 1397.13 1215.62 1403.34 1211.13C1409.49 1206.69 1417.96 1201.32 1428.79 1195.16C1440.04 1188.82 1447.96 1184.19 1452.49 1181.18C1457.08 1178.18 1460.69 1174.84 1463.37 1171.23C1466.1 1167.58 1467.44 1163.22 1467.44 1158.13C1467.44 1151.98 1466.75 1147.21 1465.36 1143.92C1463.97 1140.59 1461.61 1138.23 1458.28 1136.84C1454.99 1135.45 1450.23 1134.76 1444.07 1134.76H1419.31C1411.9 1134.76 1406.48 1135.78 1403.11 1137.77C1399.68 1139.8 1397.55 1143.32 1396.63 1148.41C1395.98 1151.65 1394.91 1154.06 1393.39 1155.59C1391.81 1157.16 1389.5 1157.9 1386.44 1157.9C1383.2 1157.9 1380.7 1157.02 1379.04 1155.26C1377.32 1153.46 1376.63 1150.96 1376.95 1147.72C1378.62 1136.75 1382.97 1128.65 1389.91 1123.33C1396.86 1118 1406.62 1115.32 1419.31 1115.32H1444.07C1458.56 1115.32 1469.34 1118.84 1476.33 1125.87C1483.37 1132.86 1486.88 1143.65 1486.88 1158.13C1486.88 1166.79 1484.75 1174.24 1480.5 1180.49C1476.28 1186.74 1471.15 1191.88 1465.13 1195.86C1459.11 1199.88 1450.13 1205.3 1438.28 1212.06C1429.3 1217.15 1422.64 1221.22 1418.24 1224.23C1413.84 1227.24 1409.82 1231.08 1406.11 1235.8C1402.41 1240.48 1400 1246.17 1398.94 1252.79H1475.31C1478.37 1252.79 1480.77 1253.62 1482.49 1255.33C1484.15 1257.05 1485.03 1259.41 1485.03 1262.51C1485.03 1265.61 1484.15 1268.02 1482.49 1269.68C1480.77 1271.4 1478.37 1272.23 1475.31 1272.23H1388.76Z" fill="#5BEBF3"/>
<path fill-rule="evenodd" clip-rule="evenodd" d="M509.158 363.782L509.074 363.824L509.032 363.866C508.906 363.95 508.739 364.034 508.614 364.117L508.236 364.327L508.153 364.41H508.111L508.069 364.452L507.901 364.578L507.734 364.745H507.692L507.651 364.787C507.399 364.996 507.105 365.247 506.896 365.499L506.646 365.75L506.562 365.876L506.52 365.918L506.478 365.96L506.394 366.086L506.226 366.295L506.184 366.379H506.143C506.059 366.505 505.975 366.671 505.891 366.797H505.849L505.807 366.923L505.681 367.132L505.641 367.216L505.599 367.3L505.515 367.384L505.473 367.509L505.389 367.634L505.347 367.76L505.305 367.844V367.886L505.221 368.054L505.096 368.263L505.054 368.473L504.97 368.639V368.681L504.928 368.765L504.886 368.933L504.844 369.059L504.802 369.142L504.76 369.31V369.394V369.478L504.676 369.644L504.634 369.854V369.98L504.594 370.273V370.315L504.552 370.399V370.525V370.691L504.51 370.859V370.943V371.027C504.51 371.194 504.51 371.404 504.51 371.572V672.04C504.51 675.39 506.394 678.447 509.409 679.913L596.43 722.125L509.409 764.378L509.158 764.504L509.074 764.546H509.032C508.906 764.63 508.739 764.756 508.614 764.84L508.236 765.049L508.153 765.133H508.111L508.069 765.175L507.901 765.301L507.734 765.467H507.692L507.651 765.509C507.399 765.719 507.105 765.971 506.896 766.222L506.646 766.472L506.562 766.598L506.52 766.64L506.478 766.682L506.394 766.808L506.226 767.017L506.184 767.101H506.143C506.059 767.227 505.975 767.352 505.891 767.519H505.849L505.807 767.603L505.681 767.855L505.641 767.938L505.599 767.98L505.515 768.106L505.473 768.232L505.389 768.358L505.347 768.482L505.305 768.566V768.608L505.221 768.776L505.096 768.985L505.054 769.195L504.97 769.363V769.404L504.928 769.488L504.886 769.655L504.844 769.781L504.802 769.865L504.76 770.032V770.116V770.158L504.676 770.368L504.634 770.576V770.66L504.594 770.995V771.037L504.552 771.121V771.205V771.415L504.51 771.582V771.665V771.707C504.51 771.916 504.51 772.084 504.51 772.294V872.422C504.51 875.73 506.394 878.787 509.409 880.253L818.923 1030.51L819.048 1030.55L819.132 1030.59L819.3 1030.68L819.468 1030.76L819.593 1030.8L819.886 1030.93H819.97L820.179 1031.01L820.305 1031.05H820.389L820.515 1031.09L820.64 1031.14H820.724L820.849 1031.18L821.058 1031.22H821.1C821.268 1031.26 821.394 1031.3 821.561 1031.3H821.603L821.729 1031.35H821.938L822.063 1031.39H822.147H822.231H822.357H822.608H822.692C823.069 1031.39 823.404 1031.39 823.739 1031.35L824.073 1031.3L824.283 1031.26H824.325L824.493 1031.22L824.828 1031.14C825.037 1031.09 825.204 1031.05 825.372 1031.01L825.749 1030.89L825.833 1030.84L825.875 1030.8L826.001 1030.76L826.167 1030.72L826.293 1030.63L826.419 1030.59L826.461 1030.55L826.586 1030.51L1136.1 880.253C1139.12 878.787 1141 875.73 1141 872.422V772.21C1141 769.237 1139.45 766.431 1136.94 764.84C1136.65 764.672 1136.39 764.504 1136.1 764.378L1049.08 722.125L1136.1 679.913C1139.12 678.447 1141 675.39 1141 672.082L1141.5 371.362C1141.5 371.153 1141.5 370.985 1141.46 370.775V370.733V370.649V370.483L1141.42 370.273V370.189V370.106V370.064L1141.33 369.77V369.644L1141.29 369.436L1141.25 369.226L1141.21 369.184V369.101L1141.17 368.933L1141.13 368.807V368.723L1141.04 368.556V368.473L1141 368.431L1140.96 368.263L1140.87 368.054L1140.79 367.844L1140.71 367.634H1140.67V367.551L1140.58 367.426L1140.5 367.258L1140.46 367.174L1140.41 367.049L1140.37 366.965L1140.33 366.923L1140.16 366.671L1140.12 366.588C1140.04 366.42 1139.91 366.295 1139.83 366.169V366.127L1139.79 366.086L1139.62 365.876L1139.49 365.75V365.708L1139.45 365.666L1139.32 365.541L1139.12 365.29C1138.86 365.039 1138.61 364.787 1138.32 364.578V364.536H1138.28L1138.07 364.368L1137.9 364.243L1137.86 364.201H1137.82L1137.73 364.117L1137.4 363.866C1137.23 363.782 1137.11 363.698 1136.94 363.614L1136.81 363.573L1136.56 363.447L1044.77 318.848C1042.38 317.717 1039.57 317.717 1037.14 318.848L822.776 422.955L609.327 318.89C606.898 317.717 604.093 317.717 601.665 318.848L509.409 363.656L509.158 363.782ZM814.023 527.229L521.93 385.432V666.596L723.402 764.378C726.375 765.844 728.301 768.902 728.301 772.21V872.422C728.301 875.395 726.752 878.201 724.197 879.792C721.643 881.383 718.46 881.551 715.78 880.253L521.93 786.155V866.935L814.023 1008.73V724.805L612.678 629.87L612.552 629.786L612.385 629.702L612.218 629.618L612.134 629.576L612.05 629.534C611.924 629.45 611.756 629.366 611.631 629.241H611.589L611.505 629.2L611.296 629.032L611.129 628.906L611.087 628.865H611.045C610.919 628.739 610.751 628.613 610.626 628.487L610.333 628.236L610.208 628.069H610.166L610.124 628.027C609.873 627.776 609.621 627.482 609.369 627.147L609.327 627.106L609.203 626.938L609.077 626.687L609.035 626.645L608.993 626.603C608.909 626.436 608.825 626.309 608.742 626.142V626.1L608.7 626.017L608.532 625.766L608.49 625.64L608.448 625.556L608.406 625.472L608.364 625.347L608.24 625.053V625.012L608.198 624.97C608.156 624.803 608.072 624.635 608.03 624.425V624.342L607.946 624.09L607.862 623.84V623.798C607.779 623.421 607.736 623.002 607.695 622.625V622.583V622.541C607.695 622.374 607.695 622.164 607.695 621.954V521.784C607.695 518.769 609.202 515.963 611.757 514.372C614.311 512.781 617.494 512.614 620.216 513.912L814.023 608.01V527.229ZM831.486 1008.73L1123.58 866.935V786.155L929.729 880.253C927.049 881.551 923.867 881.383 921.312 879.792C918.758 878.201 917.208 875.395 917.208 872.422V772.21C917.208 768.902 919.135 765.844 922.108 764.378L1123.58 666.596L1124 385.224L831.486 527.229V608.01L1025.29 513.912C1028.02 512.614 1031.2 512.781 1033.75 514.372C1036.31 515.963 1037.81 518.769 1037.81 521.784V621.954C1037.81 622.164 1037.81 622.374 1037.81 622.541V622.583V622.625C1037.77 623.002 1037.73 623.421 1037.65 623.798V623.84L1037.56 624.09L1037.48 624.342V624.425C1037.44 624.635 1037.35 624.803 1037.31 624.97V625.012L1037.27 625.053L1037.14 625.347L1037.1 625.472L1037.06 625.556L1037.02 625.64L1036.98 625.766L1036.81 626.017L1036.77 626.1V626.142C1036.68 626.309 1036.6 626.436 1036.47 626.603V626.645L1036.43 626.687L1036.31 626.938L1036.18 627.106L1036.14 627.147H1036.1C1035.89 627.482 1035.64 627.776 1035.39 628.027L1035.34 628.069H1035.3L1035.18 628.236L1034.88 628.487C1034.76 628.613 1034.59 628.739 1034.46 628.865H1034.42L1034.38 628.906L1034.21 629.032L1034 629.2L1033.92 629.241H1033.88C1033.75 629.366 1033.58 629.45 1033.46 629.534L1033.38 629.576L1033.29 629.618L1033.12 629.702L1032.96 629.786L1032.83 629.87L831.486 724.805V1008.73ZM1029.1 731.84L934.672 777.696V858.477L1112.31 772.21L1029.1 731.84ZM616.405 731.84L533.195 772.21L710.839 858.477V777.696L616.405 731.84ZM719.59 581.543L636.589 621.829L822.776 709.604L1008.92 621.829L925.919 581.543L826.586 629.786L826.461 629.87H826.377L826.209 629.953L826.042 630.037L825.917 630.079L825.623 630.205L825.54 630.247L825.33 630.288L825.204 630.33H825.12L824.995 630.372L824.87 630.413H824.828L824.66 630.455L824.451 630.497L824.409 630.539C824.241 630.539 824.115 630.581 823.948 630.581H823.907L823.781 630.623L823.571 630.665H823.446H823.362H823.278H823.152H822.901H822.818C822.441 630.665 822.106 630.665 821.771 630.623L821.436 630.581L821.226 630.539H821.184L821.017 630.497L820.682 630.413C820.473 630.372 820.305 630.33 820.137 630.288L819.76 630.163L819.677 630.121H819.635L819.509 630.079L819.342 629.995L819.216 629.912L819.09 629.87H819.048L818.923 629.786L719.59 581.543ZM945.894 571.869L1020.39 608.01V535.73L945.894 571.869ZM625.115 608.01L699.615 571.869L625.115 535.73V608.01ZM1112.78 371.278L1040.96 336.394L826.586 440.501C824.158 441.674 821.352 441.674 818.923 440.501L605.475 336.394L533.195 371.53L822.776 512.069L1112.78 371.278Z" fill="#5BEBF3"/>
</svg>
