<svg width="105" height="117" viewBox="0 0 105 117" fill="none" xmlns="http://www.w3.org/2000/svg">
<path d="M1.06445 74.5657L18.0684 66.3118L35.0725 74.5658M1.06445 74.5657L35.0723 91.0736L35.0725 74.5658M1.06445 74.5657V91.0743L52.0761 115.837V65.8381L18.0684 49.804M35.0725 74.5658L1.06445 58.0585V8.5344M86.0839 49.8035L86.084 33.2956L69.08 41.5496M86.0839 49.8035L69.08 41.5496M86.0839 49.8035L52.0757 66.3119L18.0684 49.804M69.08 41.5496L52.0759 49.8041M18.0684 33.2961L35.0724 41.5501M18.0684 33.2961L18.0684 49.804M18.0684 33.2961L52.0759 49.8041M35.0724 41.5501L18.0684 49.804M35.0724 41.5501L52.0759 49.8041M52.0759 49.8041L52.0761 33.2964M52.0761 33.2964L1.06445 8.5344M52.0761 33.2964L103.166 8.49664L88.0375 1.15288L52.0763 18.6089L16.2712 1.15283L1.06445 8.5344M86.0846 66.3126L69.0806 74.5666L69.0806 91.0746L103.089 74.5667L86.0846 66.3126ZM103.087 91.4755L52.0751 114.768V65.1738L86.0827 50.1164V33.742L52.0751 49.2699V32.8956L103.087 9.60382V58.7269L69.0786 74.2545V90.6289L103.087 75.1011V91.4755Z" stroke="#5BEBF3" stroke-width="2" stroke-miterlimit="1.5" stroke-linecap="round" stroke-linejoin="round"/>
</svg>
