<svg width="208" height="253" viewBox="0 0 208 253" fill="none" xmlns="http://www.w3.org/2000/svg">
<path d="M70.2279 193.397C67.6932 189.581 64.3265 186.39 60.3808 184.062C59.7632 183.651 59.066 183.375 58.3347 183.252C57.6182 183.241 56.9105 183.412 56.2772 183.747C55.6439 184.082 55.1053 184.572 54.7113 185.17C53.6991 186.596 53.1377 188.292 53.0997 190.04C53.0617 191.787 53.5489 193.507 54.4982 194.975C55.482 196.413 56.7972 197.593 58.3328 198.417C59.8685 199.24 61.5798 199.683 63.3222 199.706C65.2586 199.844 67.1716 199.216 68.6507 197.959C69.3278 197.292 69.7625 196.418 69.8861 195.476C70.0097 194.533 69.8149 193.577 69.3326 192.758C69.1851 192.765 69.0416 192.808 68.9149 192.884C68.7881 192.959 68.682 193.065 68.606 193.192C68.5301 193.318 68.4867 193.462 68.4796 193.609C68.4725 193.756 68.5019 193.903 68.5653 194.037L70.2279 193.397Z" fill="#FFCC00"/>
<path d="M66.9874 213.475C66.1819 212.438 65.1248 211.623 63.9163 211.108C62.7079 210.594 61.3879 210.396 60.0817 210.534C59.5184 211.722 59.2513 213.029 59.3032 214.343C59.3552 215.657 59.7248 216.939 60.3801 218.079C60.7267 218.623 61.1771 219.093 61.7055 219.462C62.2339 219.831 62.8299 220.092 63.4595 220.231C64.089 220.37 64.7398 220.383 65.3744 220.269C66.009 220.156 66.6151 219.919 67.1579 219.571C67.6351 219.16 67.994 218.63 68.1976 218.034C68.4012 217.438 68.4421 216.799 68.3161 216.182C68.1901 215.565 67.9019 214.993 67.4809 214.524C67.06 214.056 66.5217 213.709 65.9217 213.518L66.9874 213.475Z" fill="#FFCC00"/>
<path d="M108.678 207.506C107.884 207.121 107.036 206.862 106.163 206.738H105.821C105.799 206.837 105.799 206.938 105.821 207.037C105.821 207.932 106.632 208.955 106.077 209.68C105.523 210.404 105.822 209.893 105.779 210.063C105.736 210.234 106.12 210.49 106.376 210.49C106.731 210.459 107.075 210.35 107.384 210.171C107.692 209.992 107.958 209.748 108.161 209.455C108.365 209.162 108.501 208.828 108.561 208.476C108.621 208.124 108.602 207.764 108.507 207.42L108.848 207.633L108.678 207.506Z" fill="#FFCC00"/>
<path d="M82.5025 150.13C80.9896 149.41 79.382 148.907 77.7281 148.638C77.5345 148.573 77.325 148.573 77.1314 148.638C77.0374 148.7 76.9581 148.781 76.8992 148.877C76.8402 148.973 76.8031 149.081 76.7903 149.192C76.4066 150.855 78.2823 152.816 77.2166 154.18C77.2166 154.393 76.7051 154.606 76.7051 154.904C76.7051 155.203 77.3019 155.672 77.8134 155.672C78.4802 155.614 79.1262 155.411 79.7056 155.076C80.285 154.741 80.7836 154.283 81.166 153.734C81.5484 153.184 81.8052 152.558 81.9183 151.898C82.0314 151.239 81.9981 150.562 81.8205 149.917L82.4599 150.301L82.5025 150.13Z" fill="#FFCC00"/>
<path d="M36.3822 189.9C35.9963 189.429 35.5072 189.054 34.9527 188.802C34.3983 188.551 33.7935 188.431 33.1851 188.451C33.0815 188.986 33.0815 189.536 33.1851 190.071C33.2616 190.336 33.4166 190.571 33.6297 190.746C33.8428 190.921 34.1039 191.028 34.3786 191.051C35.1033 191.051 35.6148 190.327 35.9559 189.644V190.241L36.3822 189.9Z" fill="#FFCC00"/>
<path d="M28.6204 193.61C28.301 193.511 27.9593 193.511 27.6399 193.61C27.2989 193.61 27.0858 193.951 26.83 194.164C26.2398 194.839 25.5829 195.453 24.8691 195.997L29.3451 196.21H29.7288C30.0698 196.423 30.0271 196.935 30.2403 197.318C30.4534 197.702 31.3485 197.787 31.9027 197.574C35.8245 195.997 30.1124 194.419 28.6204 193.61Z" fill="#FFCC00"/>
<path d="M28.1966 120.332C27.8938 120.177 27.556 120.104 27.2162 120.119C26.9025 120.23 26.6332 120.439 26.4488 120.716C25.8436 121.392 25.1725 122.006 24.4453 122.549L28.9639 122.762H29.3049C29.6886 122.762 29.6034 123.487 29.8591 123.87C30.1149 124.254 30.9248 124.339 31.479 124.126C35.5713 122.677 29.9017 121.1 28.1966 120.332Z" fill="#FFCC00"/>
<path d="M16.9826 166.882H15.6611C15.6211 167.322 15.7186 167.763 15.94 168.145C16.1615 168.526 16.496 168.83 16.8974 169.014C17.7499 169.269 18.8156 168.46 18.5172 167.607C18.2188 166.754 17.8778 166.371 18.5172 166.2L16.9826 166.882Z" fill="#FFCC00"/>
<path d="M59.3117 107.331C59.5113 107.559 59.6542 107.83 59.7288 108.123C59.8034 108.417 59.8077 108.723 59.7412 109.018C59.6746 109.313 59.5393 109.589 59.3461 109.821C59.1529 110.054 58.9075 110.238 58.6297 110.358C58.3355 110.429 58.0286 110.428 57.735 110.354C57.4415 110.281 57.1701 110.137 56.944 109.936C56.7178 109.735 56.5437 109.483 56.4364 109.2C56.329 108.917 56.2918 108.612 56.3277 108.312C56.397 108.018 56.5376 107.747 56.737 107.521C56.9364 107.294 57.1885 107.121 57.471 107.016C57.7534 106.91 58.0574 106.876 58.3562 106.916C58.655 106.957 58.9393 107.07 59.1839 107.246L59.3117 107.331Z" fill="#FFCC00"/>
<path d="M59.7387 159.721C60.7191 159.721 61.998 159.721 62.339 160.488C62.6801 161.255 61.6996 162.193 60.8897 162.662C60.0798 163.131 60.0797 163.088 59.7387 162.662C59.3977 162.236 60.0798 160.573 59.3125 159.934C59.3125 159.635 59.9092 159.678 59.9092 159.934L59.7387 159.721Z" fill="#FFCC00"/>
<path d="M47.9718 198.981C48.3458 198.944 48.7214 199.034 49.0375 199.237C48.6799 199.549 48.2564 199.776 47.7988 199.901C47.3412 200.027 46.8613 200.048 46.3946 199.962C45.8831 199.962 45.2436 199.962 45.0731 199.28C44.9025 198.598 45.0731 198.555 45.0731 198.171C45.0731 197.788 44.5615 196.552 45.0731 196.083C45.2343 195.947 45.4381 195.873 45.6486 195.873C45.8591 195.873 46.0629 195.947 46.2241 196.083C46.5283 196.382 46.7613 196.747 46.9061 197.148C47.2472 197.958 47.6308 198.811 47.9718 199.663V198.981Z" fill="#FFCC00"/>
<path d="M48.829 213.475C48.2322 212.963 47.337 213.816 47.5075 214.583C47.6472 214.936 47.86 215.255 48.1318 215.519C48.4037 215.784 48.7284 215.988 49.0848 216.118C49.3874 215.687 49.55 215.173 49.55 214.647C49.55 214.121 49.3874 213.607 49.0848 213.176L48.829 213.475Z" fill="#FFCC00"/>
<path d="M119.418 248.814C119.089 248.624 118.728 248.494 118.353 248.43C118.168 248.412 117.982 248.446 117.816 248.529C117.65 248.612 117.511 248.74 117.415 248.899C117.159 249.496 117.713 250.093 117.756 250.69C117.799 251.286 117.287 251.926 117.543 252.522C117.798 253.119 118.608 253.119 119.077 252.736C119.533 252.328 119.822 251.766 119.887 251.158C120.037 250.629 120.037 250.068 119.887 249.538C119.795 249.277 119.621 249.052 119.39 248.899C119.16 248.745 118.885 248.67 118.608 248.686L119.418 248.814Z" fill="#FFCC00"/>
<path d="M34.3776 205.887C34.4975 206.014 34.5643 206.182 34.5643 206.356C34.5643 206.531 34.4975 206.699 34.3776 206.825C34.2294 206.926 34.0628 206.997 33.8873 207.034C33.7117 207.07 33.5306 207.072 33.3544 207.038C33.1494 207.007 32.9575 206.918 32.8004 206.783C32.7097 206.703 32.6369 206.604 32.5872 206.494C32.5374 206.384 32.5117 206.264 32.5117 206.143C32.5117 206.022 32.5374 205.903 32.5872 205.792C32.6369 205.682 32.7097 205.584 32.8004 205.504C32.9761 205.329 33.2136 205.231 33.4611 205.231C33.7087 205.231 33.9462 205.329 34.1218 205.504C34.2781 205.688 34.3638 205.923 34.3638 206.164C34.3638 206.406 34.2781 206.64 34.1218 206.825L34.3776 205.887Z" fill="#FFCC00"/>
<path d="M8.0738 250.135C8.19662 250.269 8.26477 250.444 8.26477 250.625C8.26477 250.807 8.19662 250.982 8.0738 251.115C7.91315 251.188 7.73875 251.226 7.56228 251.226C7.38582 251.226 7.21142 251.188 7.05077 251.115C6.83855 251.089 6.63469 251.016 6.45392 250.902C6.27951 250.727 6.18164 250.489 6.18164 250.241C6.18164 249.994 6.27951 249.756 6.45392 249.581C6.63453 249.416 6.87018 249.325 7.11464 249.325C7.35911 249.325 7.59476 249.416 7.77537 249.581C7.93161 249.765 8.01747 250 8.01747 250.241C8.01747 250.483 7.93161 250.717 7.77537 250.902L8.0738 250.135Z" fill="#FFCC00"/>
<path d="M35.9965 201.326C36.0855 201.164 36.1305 200.981 36.1272 200.796C36.1238 200.611 36.0722 200.429 35.9776 200.27C35.8829 200.111 35.7484 199.979 35.5873 199.888C35.4261 199.796 35.244 199.749 35.0587 199.749C34.8371 200.09 34.7323 200.494 34.7603 200.9C34.7755 201.096 34.8547 201.281 34.9856 201.428C35.1166 201.574 35.292 201.673 35.4849 201.71C35.9112 201.71 36.2949 201.284 36.1244 200.943L35.9965 201.326Z" fill="#FFCC00"/>
<path d="M27.4726 150.215C27.5635 150.05 27.6086 149.863 27.6035 149.674C27.5984 149.485 27.5431 149.301 27.4434 149.14C27.3436 148.98 27.2028 148.849 27.0357 148.76C26.8685 148.672 26.681 148.63 26.4921 148.638C26.2897 148.988 26.1865 149.385 26.1937 149.789C26.211 149.991 26.2964 150.181 26.4358 150.328C26.5752 150.475 26.7603 150.571 26.961 150.599C27.3446 150.599 27.7283 150.173 27.5578 149.832L27.4726 150.215Z" fill="#FFCC00"/>
<path d="M43.4972 185.894C43.3279 185.461 43.0639 185.072 42.7246 184.755C42.3853 184.438 41.9793 184.201 41.5364 184.061L41.0675 186.278C40.9827 186.613 40.9827 186.965 41.0675 187.301C41.1287 187.462 41.2251 187.606 41.3497 187.725C41.4743 187.844 41.6239 187.933 41.7874 187.986C41.951 188.039 42.1244 188.055 42.2949 188.032C42.4654 188.01 42.6286 187.949 42.7726 187.855C43.0518 187.648 43.2649 187.365 43.386 187.04C43.5071 186.714 43.531 186.361 43.4547 186.022L43.4972 185.894Z" fill="#FFCC00"/>
<path d="M63.0634 175.451L67.1131 175.963C67.3263 176.602 66.3885 177.028 65.7065 177.071C65.0414 177.286 64.3254 177.286 63.6603 177.071C63.5031 176.999 63.3628 176.895 63.2483 176.766C63.1338 176.637 63.0476 176.485 62.9954 176.32C62.9432 176.155 62.926 175.982 62.945 175.81C62.9641 175.638 63.019 175.472 63.1061 175.323L63.0634 175.451Z" fill="#FFCC00"/>
<path d="M83.611 179.287C83.5717 179.05 83.474 178.826 83.3268 178.636C83.1795 178.446 82.9873 178.296 82.7674 178.199C82.5475 178.101 82.3069 178.06 82.0672 178.079C81.8275 178.098 81.5963 178.176 81.3944 178.307C81.0039 178.611 80.7368 179.046 80.6427 179.532C80.5487 180.018 80.6341 180.522 80.8829 180.95C80.96 181.149 81.0803 181.329 81.235 181.476C81.3898 181.624 81.5752 181.735 81.778 181.802C82.1055 181.866 82.445 181.822 82.745 181.676C83.045 181.53 83.2891 181.29 83.4405 180.992C83.6982 180.371 83.8287 179.704 83.8242 179.032L83.611 179.287Z" fill="#FFCC00"/>
<path d="M53.9418 160.019C53.9164 159.554 53.7528 159.107 53.4718 158.734C53.1909 158.362 52.8054 158.083 52.3646 157.931C51.9355 158.458 51.7222 159.128 51.7678 159.806C51.788 160.244 51.9544 160.663 52.2403 160.995C52.5262 161.327 52.915 161.554 53.345 161.639C54.2402 161.639 54.9223 160.403 54.2403 159.806L53.9418 160.019Z" fill="#FFCC00"/>
<path d="M59.0171 168.033C59.2495 168.244 59.4019 168.53 59.4485 168.84C59.4951 169.151 59.4331 169.468 59.2728 169.738L57.2267 169.482C57.1669 169.252 57.1618 169.01 57.2117 168.777C57.2616 168.544 57.3651 168.326 57.514 168.139C57.663 167.953 57.8533 167.804 58.0698 167.704C58.2863 167.605 58.523 167.557 58.7613 167.564L59.0171 168.033Z" fill="#FFCC00"/>
<path d="M76.2357 180.267H77.0455C76.9124 180.903 76.6355 181.501 76.2357 182.014C76.0332 182.257 75.759 182.429 75.4526 182.505C75.1462 182.582 74.8232 182.559 74.5305 182.441C73.9763 182.185 73.8058 181.205 74.5305 180.906C75.0859 180.582 75.7209 180.42 76.3636 180.437L76.2357 180.267Z" fill="#FFCC00"/>
<path d="M39.4931 215.265C39.638 215.487 39.7151 215.746 39.7151 216.011C39.7151 216.276 39.638 216.535 39.4931 216.757C39.3642 216.991 39.1716 217.183 38.9376 217.311C38.7036 217.439 38.4379 217.499 38.1716 217.482C37.8306 217.482 37.4043 217.183 37.4895 216.8C37.5499 216.669 37.6372 216.553 37.7454 216.459L39.1948 215.052L39.4078 215.35L39.4931 215.265Z" fill="#FFCC00"/>
<path d="M35.1015 224.772C34.5047 225.07 34.4621 225.88 34.59 226.519C34.7178 227.159 34.59 227.969 34.249 228.395C34.1691 228.433 34.0817 228.453 33.9932 228.453C33.9048 228.453 33.8174 228.433 33.7375 228.395C33.3112 228.395 33.3538 227.628 33.2685 227.159C33.1581 226.798 33.0005 226.454 32.7997 226.136C32.6215 225.731 32.5708 225.282 32.6546 224.848C32.7384 224.413 32.9525 224.015 33.2685 223.706C33.495 223.644 33.7344 223.649 33.9586 223.718C34.1828 223.787 34.3826 223.919 34.5347 224.098C34.6867 224.277 34.7846 224.496 34.8171 224.728C34.8495 224.96 34.8151 225.197 34.7178 225.411L35.1015 224.772Z" fill="#FFCC00"/>
<path d="M29.1735 221.829L28.4488 221.616C28.3167 221.771 28.2441 221.967 28.2441 222.17C28.2441 222.374 28.3167 222.57 28.4488 222.725C28.5989 222.865 28.7971 222.944 29.003 222.944C29.2088 222.944 29.407 222.865 29.5571 222.725C29.6371 222.661 29.7017 222.58 29.746 222.487C29.7904 222.395 29.8134 222.294 29.8134 222.192C29.8134 222.089 29.7904 221.988 29.746 221.896C29.7017 221.804 29.6371 221.723 29.5571 221.659L29.1735 221.829Z" fill="#FFCC00"/>
<path d="M16.2591 234.148L15.5343 233.893C15.413 234.06 15.3477 234.261 15.3477 234.468C15.3477 234.675 15.413 234.876 15.5343 235.043C15.6845 235.184 15.8826 235.263 16.0885 235.263C16.2944 235.263 16.4926 235.184 16.6427 235.043C16.7227 234.98 16.7872 234.899 16.8316 234.806C16.876 234.714 16.899 234.613 16.899 234.511C16.899 234.408 16.876 234.307 16.8316 234.215C16.7872 234.123 16.7227 234.042 16.6427 233.978L16.2591 234.148Z" fill="#FFCC00"/>
<path d="M37.4866 195.998C37.7849 196.339 38.467 195.998 38.6801 195.614C38.8933 195.23 38.6802 194.634 38.9785 194.165C39.0631 193.919 39.1977 193.694 39.3738 193.503C39.5499 193.312 39.7638 193.16 40.0017 193.056C40.1346 192.992 40.2803 192.959 40.4279 192.959C40.5755 192.959 40.7212 192.992 40.8542 193.056C40.9936 193.2 41.0961 193.376 41.1526 193.568C41.512 194.49 41.6007 195.496 41.4084 196.467C41.3179 196.946 41.0874 197.389 40.7461 197.738C40.4047 198.087 39.9677 198.327 39.4901 198.428C39.1482 198.481 38.7982 198.442 38.4771 198.313C38.1559 198.184 37.8755 197.971 37.6658 197.695C37.4561 197.42 37.3248 197.093 37.2857 196.749C37.2466 196.405 37.3014 196.057 37.444 195.742L37.4866 195.998Z" fill="#FFCC00"/>
<path d="M0.146372 139.301C0.487394 139.685 1.12681 139.301 1.33995 138.918C1.47852 138.441 1.59229 137.957 1.68091 137.468C1.7658 137.228 1.901 137.009 2.07742 136.825C2.25385 136.641 2.46753 136.497 2.70407 136.403C2.83025 136.318 2.97849 136.273 3.13024 136.273C3.28199 136.273 3.43037 136.318 3.55654 136.403C3.68348 136.549 3.77144 136.725 3.8123 136.914C4.18597 137.832 4.28953 138.838 4.11073 139.813C4.01206 140.296 3.77366 140.739 3.42502 141.088C3.07639 141.437 2.63295 141.675 2.14988 141.774C1.81083 141.809 1.46838 141.757 1.15509 141.622C0.841797 141.488 0.567973 141.276 0.359459 141.006C0.168857 140.729 0.0496889 140.409 0.0125093 140.074C-0.0246703 139.74 0.0213397 139.401 0.146372 139.088V139.301Z" fill="#FFCC00"/>
<path d="M31.6914 184.061C31.5308 183.793 31.2772 183.592 30.9787 183.498C30.6801 183.404 30.3574 183.422 30.0715 183.55C29.8067 183.708 29.5884 183.933 29.4387 184.202C29.2889 184.472 29.2132 184.776 29.2191 185.084C29.2191 185.383 29.2191 185.724 29.6027 185.766C29.9864 185.809 29.9437 185.766 30.1142 185.766L31.9045 184.36L31.6914 184.061Z" fill="#FFCC00"/>
<path d="M130.927 215.307C131.288 214.593 131.504 213.815 131.563 213.018C131.621 212.22 131.521 211.419 131.268 210.66C131.268 210.405 131.268 210.106 130.842 210.021C130.416 209.936 129.819 210.49 129.393 210.916C128.967 211.342 127.432 211.726 126.707 212.493C126.209 213.188 125.955 214.027 125.983 214.881C125.983 216.117 125.983 217.779 127.347 217.95C127.669 217.951 127.988 217.883 128.282 217.751C128.576 217.618 128.839 217.425 129.052 217.182C130.07 216.304 130.922 215.25 131.567 214.071L130.927 215.307Z" fill="#FFCC00"/>
<path d="M61.8715 134.784C62.5962 134.187 61.8716 132.994 61.2321 132.312C60.5927 131.629 60.2944 131.416 59.6976 131.502C59.1008 131.587 58.5892 132.653 58.4614 133.463L58.1629 135.551C58.098 135.692 58.0645 135.844 58.0645 135.999C58.0645 136.153 58.098 136.306 58.1629 136.446C58.2636 136.544 58.3849 136.617 58.5177 136.661C58.6505 136.706 58.7913 136.72 58.9302 136.702C60.391 136.775 61.8491 136.512 63.193 135.935L61.8715 134.784Z" fill="#FFCC00"/>
<path d="M77.0464 162.406C84.2505 157.632 77.9416 149.618 70.9507 152.218C63.9597 154.819 70.7801 166.541 77.0464 162.406Z" fill="#FFCC00"/>
<path d="M57.2667 206.783C57.34 207.085 57.3416 207.401 57.2715 207.705C57.2014 208.008 57.0615 208.291 56.8629 208.531C56.6643 208.771 56.4124 208.962 56.1273 209.087C55.8422 209.213 55.5317 209.271 55.2205 209.255C54.9421 208.323 54.9421 207.331 55.2205 206.399C55.3082 206.175 55.4413 205.971 55.6115 205.801C55.7816 205.63 55.9852 205.497 56.2093 205.409C56.4335 205.321 56.6734 205.28 56.914 205.289C57.1547 205.298 57.3908 205.357 57.6077 205.461L58.034 207.081L57.2667 206.783Z" fill="#FFCC00"/>
<path d="M86.8529 1.48631C86.8529 0.846894 86.2135 1.01741 85.9151 1.48631C85.6752 2.18832 85.5317 2.91966 85.4888 3.66031C85.4888 5.36542 85.0626 7.02791 84.8921 8.73303C84.6662 9.58507 84.6662 10.4813 84.8921 11.3333C85.1905 11.7596 85.7019 11.3334 86.0003 10.7792C86.2942 10.0367 86.5086 9.26502 86.6397 8.47727C87.3805 6.01677 87.3805 3.39263 86.6397 0.932129L86.0003 2.12577L86.8529 1.48631Z" fill="#FFCC00"/>
<path d="M30.6672 232.4C30.7662 232.504 30.8215 232.641 30.8215 232.784C30.8215 232.927 30.7662 233.064 30.6672 233.168C30.5556 233.261 30.4266 233.332 30.2876 233.376C30.1486 233.42 30.0024 233.436 29.8572 233.423C29.6318 233.465 29.4006 233.465 29.1752 233.423C28.9832 233.306 28.8314 233.133 28.74 232.928C28.6487 232.722 28.622 232.494 28.6637 232.272C28.725 232.045 28.8498 231.841 29.0235 231.682C29.1972 231.524 29.4124 231.418 29.644 231.377C29.745 231.334 29.8539 231.312 29.9638 231.312C30.0737 231.312 30.1826 231.334 30.2836 231.377C30.3209 231.413 30.3506 231.456 30.371 231.504C30.3913 231.551 30.4018 231.603 30.4018 231.654C30.4018 231.706 30.3913 231.757 30.371 231.805C30.3506 231.853 30.3209 231.896 30.2836 231.932L30.6672 232.4Z" fill="#FFCC00"/>
<path d="M29.0478 201.921L28.2805 201.708C28.1565 202.096 28.1565 202.514 28.2805 202.902C28.2805 203.285 29.0477 203.499 29.2609 203.158C29.3047 203.004 29.3047 202.842 29.2609 202.689V201.239L29.0478 201.921Z" fill="#FFCC00"/>
<path d="M34.5911 173.702C34.1055 173.271 33.541 172.938 32.9287 172.722C32.6203 172.616 32.2865 172.608 31.9735 172.7C31.6605 172.791 31.3837 172.978 31.181 173.233C30.9934 173.492 30.9029 173.809 30.9252 174.128C30.9789 174.615 31.2162 175.062 31.5885 175.379C31.9609 175.695 32.4404 175.858 32.9287 175.834C33.412 175.76 33.8472 175.5 34.1418 175.11C34.4364 174.72 34.5671 174.23 34.5059 173.745L34.5911 173.702Z" fill="#FFCC00"/>
<path d="M31.135 140.453C31.3634 140.464 31.585 140.535 31.778 140.657C31.9711 140.78 32.1291 140.951 32.2365 141.152C32.3439 141.354 32.397 141.581 32.3908 141.809C32.3845 142.038 32.319 142.261 32.2007 142.457C31.6948 142.564 31.1721 142.564 30.6662 142.457C30.5873 141.88 30.7075 141.293 31.0071 140.794L31.135 140.453Z" fill="#FFCC00"/>
<path d="M73.1703 215.222H71.8489C71.7639 215.543 71.7639 215.881 71.8489 216.203C72.1495 216.336 72.4901 216.349 72.7997 216.237C73.1093 216.126 73.3641 215.9 73.5113 215.606L73.1703 215.222Z" fill="#FFCC00"/>
<path d="M203.395 56.0921C204.185 55.9729 204.992 56.0593 205.739 56.3431C206.486 56.6268 207.147 57.0983 207.658 57.7119C207.733 57.7754 207.794 57.8535 207.838 57.9414C207.882 58.0294 207.908 58.1253 207.914 58.2234C207.914 58.5218 207.658 58.735 207.445 58.9055C206.081 59.9712 204.205 61.0369 202.756 60.1417C202.459 59.9229 202.221 59.6335 202.064 59.2996C201.907 58.9657 201.836 58.5979 201.857 58.2296C201.878 57.8613 201.991 57.5041 202.185 57.1904C202.379 56.8767 202.649 56.6164 202.969 56.4331L204.248 57.0725L203.395 56.0921Z" fill="#FFCC00"/>
</svg>
