<svg width="207" height="76" viewBox="0 0 207 76" fill="none" xmlns="http://www.w3.org/2000/svg">
<path fill-rule="evenodd" clip-rule="evenodd" d="M9.23749 40.0078L1 44.0068L17.4749 52.0048L17.475 44.0069L9.23749 40.0078Z" stroke="#5BEBF3" stroke-miterlimit="1.5" stroke-linecap="round" stroke-linejoin="round"/>
<path fill-rule="evenodd" clip-rule="evenodd" d="M42.186 40.0083L33.9484 44.0073L33.9485 52.0054L50.4235 44.0074L42.186 40.0083Z" stroke="#5BEBF3" stroke-miterlimit="1.5" stroke-linecap="round" stroke-linejoin="round"/>
<path fill-rule="evenodd" clip-rule="evenodd" d="M42.1828 24.0117L42.1828 32.0098L33.9453 28.0107L42.1828 24.0117Z" stroke="#5BEBF3" stroke-miterlimit="1.5" stroke-linecap="round" stroke-linejoin="round"/>
<path fill-rule="evenodd" clip-rule="evenodd" d="M9.23751 24.0117L17.475 28.0107L9.2375 32.0098L9.23751 24.0117Z" stroke="#5BEBF3" stroke-miterlimit="1.5" stroke-linecap="round" stroke-linejoin="round"/>
<path fill-rule="evenodd" clip-rule="evenodd" d="M17.4738 28.0113L9.23633 32.0103L25.7113 40.0082L42.1864 32.0102L33.949 28.0113L25.7114 32.0103L17.4738 28.0113Z" stroke="#5BEBF3" stroke-miterlimit="1.5" stroke-linecap="round" stroke-linejoin="round"/>
<path fill-rule="evenodd" clip-rule="evenodd" d="M1 52.0052L25.7124 64.0028V39.7784L9.23755 32.0102V24.0122L25.7124 32.0102V24.0122L1 12.0151V36.0093L17.4751 44.0073V52.0052L1 44.0073V52.0052Z" stroke="#5BEBF3" stroke-miterlimit="1.5" stroke-linecap="round" stroke-linejoin="round"/>
<path fill-rule="evenodd" clip-rule="evenodd" d="M50.4238 52.2L25.7114 63.4852V39.457L42.1863 32.1618V24.2285L25.7114 31.7517V23.8184L50.4238 12.5337V36.3335L33.9487 43.8566V51.7899L50.4238 44.2667V52.2Z" stroke="#5BEBF3" stroke-miterlimit="1.5" stroke-linecap="round" stroke-linejoin="round"/>
<path fill-rule="evenodd" clip-rule="evenodd" d="M25.7125 16.8962L8.36685 8.43881L1 12.0151L25.7125 24.0122L50.4628 11.9968L43.1337 8.43883L25.7125 16.8962Z" stroke="#5BEBF3" stroke-miterlimit="1.5" stroke-linecap="round" stroke-linejoin="round"/>
<path d="M71.234 44.4739C69.7546 44.4739 68.6839 44.138 68.0074 43.4664C67.3358 42.79 67 41.7242 67 40.2642C67 40.1182 67.0487 39.9965 67.146 39.8992C67.2434 39.8019 67.365 39.7532 67.511 39.7532C67.657 39.7532 67.7787 39.8019 67.876 39.8992C67.9734 39.9965 68.022 40.1182 68.022 40.2642C68.022 41.4468 68.2605 42.2741 68.7374 42.7462C69.2192 43.2182 70.0466 43.4519 71.234 43.4519H74.738C75.9206 43.4519 76.7528 43.2182 77.2297 42.7462C77.7115 42.2741 77.95 41.4468 77.95 40.2642C77.95 39.0816 77.7115 38.2543 77.2297 37.7822C76.7528 37.3101 75.9206 37.0765 74.738 37.0765H71.307C69.9103 37.0765 68.8932 36.7602 68.2508 36.1275C67.6132 35.4949 67.292 34.4826 67.292 33.0859C67.292 31.6891 67.6132 30.6769 68.2508 30.0442C68.8932 29.4115 69.9006 29.0952 71.2827 29.0952H74.8597C76.2369 29.0952 77.2493 29.4115 77.8868 30.0442C78.5292 30.6769 78.8504 31.6842 78.8504 33.0615C78.8504 33.2075 78.8017 33.3292 78.7044 33.4265C78.607 33.5238 78.4854 33.5725 78.3394 33.5725C78.1934 33.5725 78.0717 33.5238 77.9744 33.4265C77.877 33.3292 77.8283 33.2075 77.8283 33.0615C77.8283 31.9762 77.6045 31.2122 77.1568 30.7742C76.7139 30.3362 75.9449 30.1172 74.8597 30.1172H71.2827C70.1926 30.1172 69.4285 30.3362 68.9808 30.7742C68.5379 31.2122 68.314 31.986 68.314 33.0859C68.314 34.1906 68.5379 34.9595 68.9808 35.3975C69.4285 35.8355 70.2023 36.0545 71.307 36.0545H74.738C76.2126 36.0545 77.2881 36.3903 77.9597 37.0668C78.6362 37.7384 78.972 38.8042 78.972 40.2642C78.972 41.7242 78.6362 42.79 77.9597 43.4664C77.2881 44.138 76.2126 44.4739 74.738 44.4739H71.234Z" fill="#5BEBF3"/>
<path d="M87.6342 44.5225C87.4882 44.5225 87.3665 44.4738 87.2692 44.3764C87.1718 44.2791 87.1232 44.1574 87.1232 44.0114V30.0928H81.7942C81.6482 30.0928 81.5265 30.0442 81.4292 29.9468C81.3318 29.8495 81.2832 29.7278 81.2832 29.5818C81.2832 29.4358 81.3318 29.3142 81.4292 29.2168C81.5265 29.1195 81.6482 29.0708 81.7942 29.0708H93.4742C93.6202 29.0708 93.7418 29.1195 93.8392 29.2168C93.9365 29.3142 93.9852 29.4358 93.9852 29.5818C93.9852 29.7278 93.9365 29.8495 93.8392 29.9468C93.7418 30.0442 93.6202 30.0928 93.4742 30.0928H88.1452V44.0114C88.1452 44.1574 88.0965 44.2791 87.9992 44.3764C87.9018 44.4738 87.7802 44.5225 87.6342 44.5225Z" fill="#5BEBF3"/>
<path d="M108.513 43.8169C108.591 43.9483 108.635 44.0553 108.635 44.1332C108.635 44.2986 108.542 44.4252 108.367 44.5225C108.25 44.5858 108.148 44.6198 108.051 44.6198C107.885 44.6198 107.759 44.542 107.661 44.3765L103.598 38.0012H98.7798V43.9872C98.7798 44.3279 98.6094 44.4982 98.2688 44.4982C97.9281 44.4982 97.7578 44.3279 97.7578 43.9872V29.6062C97.7578 29.2655 97.9281 29.0952 98.2688 29.0952H103.963C105.306 29.0952 106.328 29.4408 107.014 30.1318C107.705 30.818 108.051 31.8351 108.051 33.1832V33.9132C108.051 36.3319 106.961 37.6751 104.79 37.9525L108.513 43.8169ZM98.7798 36.9792H103.963C105.014 36.9792 105.793 36.731 106.284 36.2394C106.781 35.743 107.029 34.9692 107.029 33.9132V33.1832C107.029 32.132 106.781 31.3533 106.284 30.8618C105.793 30.3654 105.014 30.1172 103.963 30.1172H98.7798V36.9792Z" fill="#5BEBF3"/>
<path d="M124.912 43.7682C124.961 43.8655 124.985 43.958 124.985 44.0358C124.985 44.2159 124.869 44.3522 124.645 44.4495C124.547 44.4836 124.465 44.4982 124.401 44.4982C124.221 44.4982 124.085 44.396 123.988 44.1819L122.26 40.1182C122.211 40.1376 122.129 40.1425 122.017 40.1425H114.352C114.269 40.1425 114.211 40.1376 114.181 40.1182L112.429 44.1819C112.332 44.396 112.186 44.4982 111.991 44.4982C111.957 44.4982 111.875 44.4836 111.748 44.4495C111.534 44.3522 111.432 44.2062 111.432 44.0115C111.432 43.9774 111.446 43.8996 111.48 43.7682L117.588 29.4845C117.685 29.2266 117.88 29.0952 118.172 29.0952H118.245C118.518 29.0952 118.712 29.2266 118.829 29.4845L124.912 43.7682ZM114.619 39.1205H121.822L118.245 30.7012L114.619 39.1205Z" fill="#5BEBF3"/>
<path d="M131.46 44.5225C131.314 44.5225 131.193 44.4738 131.095 44.3764C130.998 44.2791 130.949 44.1574 130.949 44.0114V30.0928H125.62C125.474 30.0928 125.353 30.0442 125.255 29.9468C125.158 29.8495 125.109 29.7278 125.109 29.5818C125.109 29.4358 125.158 29.3142 125.255 29.2168C125.353 29.1195 125.474 29.0708 125.62 29.0708H137.3C137.446 29.0708 137.568 29.1195 137.665 29.2168C137.763 29.3142 137.811 29.4358 137.811 29.5818C137.811 29.7278 137.763 29.8495 137.665 29.9468C137.568 30.0442 137.446 30.0928 137.3 30.0928H131.971V44.0114C131.971 44.1574 131.923 44.2791 131.825 44.3764C131.728 44.4738 131.606 44.5225 131.46 44.5225Z" fill="#5BEBF3"/>
<path d="M146.28 44.4982C144.557 44.4982 143.306 44.104 142.518 43.3205C141.734 42.5321 141.34 41.2813 141.34 39.5585V29.6062C141.34 29.4602 141.389 29.3385 141.486 29.2412C141.583 29.1438 141.705 29.0952 141.851 29.0952C141.997 29.0952 142.119 29.1438 142.216 29.2412C142.313 29.3385 142.362 29.4602 142.362 29.6062V39.5585C142.362 40.9893 142.659 41.9967 143.248 42.5905C143.841 43.1793 144.849 43.4762 146.28 43.4762H149.2C150.64 43.4762 151.657 43.1793 152.241 42.5905C152.825 41.9967 153.117 40.9893 153.117 39.5585V29.6062C153.117 29.4602 153.166 29.3385 153.263 29.2412C153.361 29.1438 153.482 29.0952 153.628 29.0952C153.774 29.0952 153.896 29.1438 153.993 29.2412C154.091 29.3385 154.139 29.4602 154.139 29.6062V39.5585C154.139 41.2813 153.75 42.5321 152.971 43.3205C152.193 44.104 150.932 44.4982 149.2 44.4982H146.28Z" fill="#5BEBF3"/>
<path d="M173.285 29.0952C173.607 29.0952 173.772 29.2655 173.772 29.6062V43.9872C173.772 44.3279 173.602 44.4982 173.261 44.4982C172.92 44.4982 172.75 44.3279 172.75 43.9872V31.1635L167.251 39.6315C167.119 39.8602 166.915 39.9722 166.642 39.9722C166.365 39.9722 166.16 39.8602 166.034 39.6315L160.51 31.1392V43.9872C160.51 44.3279 160.34 44.4982 159.999 44.4982C159.659 44.4982 159.488 44.3279 159.488 43.9872V29.6062C159.488 29.2655 159.659 29.0952 159.999 29.0952C160.272 29.0952 160.476 29.212 160.608 29.4359L166.642 38.7312L172.677 29.4359C172.804 29.212 173.008 29.0952 173.285 29.0952Z" fill="#5BEBF3"/>
<path d="M184.895 44.4979C184.472 44.4979 184.141 44.2303 183.898 43.695L177.887 29.46C177.805 29.2507 177.766 29.0706 177.766 28.9246C177.766 28.584 177.96 28.326 178.35 28.146C178.544 28.0486 178.739 28 178.934 28C179.323 28 179.595 28.219 179.761 28.657L185.09 41.2617L190.273 28.657C190.448 28.219 190.726 28 191.1 28C191.275 28 191.47 28.0486 191.684 28.146C192.054 28.326 192.244 28.6035 192.244 28.9733C192.244 29.1534 192.21 29.314 192.147 29.46L186.088 43.695C185.825 44.2303 185.46 44.4979 184.993 44.4979H184.895Z" fill="#5BEBF3"/>
<path d="M196.403 44.4979C196.063 44.4979 195.8 44.4153 195.625 44.2449C195.445 44.0746 195.357 43.8166 195.357 43.476C195.357 42.1474 195.625 41.0329 196.16 40.1326C196.695 39.2322 197.284 38.546 197.936 38.074C198.584 37.6068 199.474 37.0423 200.613 36.395C201.796 35.7283 202.628 35.2416 203.105 34.9253C203.587 34.6089 203.966 34.2585 204.248 33.8789C204.536 33.4944 204.677 33.037 204.677 32.5017C204.677 31.8544 204.604 31.3531 204.458 31.0076C204.312 30.6572 204.064 30.409 203.713 30.263C203.368 30.117 202.866 30.044 202.219 30.044H199.615C198.837 30.044 198.267 30.1511 197.912 30.3603C197.552 30.5745 197.328 30.9443 197.231 31.4796C197.163 31.8203 197.051 32.0734 196.89 32.234C196.725 32.3994 196.481 32.4773 196.16 32.4773C195.819 32.4773 195.557 32.3849 195.381 32.1999C195.201 32.0101 195.128 31.7473 195.162 31.4067C195.338 30.2533 195.795 29.4016 196.525 28.8419C197.255 28.2823 198.282 28 199.615 28H202.219C203.742 28 204.876 28.3698 205.611 29.1096C206.351 29.8444 206.721 30.9784 206.721 32.5017C206.721 33.4117 206.497 34.1952 206.049 34.8522C205.606 35.5092 205.066 36.0494 204.433 36.4679C203.801 36.8913 202.857 37.4607 201.611 38.1713C200.667 38.7066 199.966 39.1349 199.503 39.4512C199.041 39.7676 198.618 40.1715 198.228 40.6679C197.839 41.1594 197.586 41.758 197.474 42.454H205.504C205.825 42.454 206.078 42.5416 206.258 42.7217C206.434 42.9017 206.526 43.1499 206.526 43.476C206.526 43.802 206.434 44.0551 206.258 44.2303C206.078 44.4104 205.825 44.4979 205.504 44.4979H196.403Z" fill="#5BEBF3"/>
</svg>
