<svg width="1135" height="1324" viewBox="0 0 1135 1324" fill="none" xmlns="http://www.w3.org/2000/svg">
<g opacity="0.3" filter="url(#filter0_f_147_1636)">
<path fill-rule="evenodd" clip-rule="evenodd" d="M497.007 691.101C480.856 586.917 533.015 532.931 564.904 463.601C591.104 406.637 616.744 356.273 660.56 335.509C748.695 293.743 837.925 173.752 932.463 289.42C1032.12 411.351 1072.74 652.822 1045.66 806.684C1022.23 939.805 900.475 888.047 820.3 926.77C760.924 955.448 717.274 1049.4 647.871 998.811C574.947 945.653 515.949 813.298 497.007 691.101Z" fill="#FEAD3F"/>
</g>
<g opacity="0.3" filter="url(#filter1_f_147_1636)">
<path fill-rule="evenodd" clip-rule="evenodd" d="M822.852 139.647C920.108 234.938 966.195 424.176 896.291 517.813C828.64 608.433 675.454 465.634 564.848 485.249C473.095 501.52 434.904 652.585 339.665 616.526C229.616 574.86 143.065 442.529 126.806 319.4C110.775 197.994 167.751 79.3792 263.16 37.1401C342.261 2.12079 425.955 129.774 517.33 146.509C626.42 166.489 734.801 53.375 822.852 139.647Z" fill="#5BEBF3"/>
</g>
<g opacity="0.3" filter="url(#filter2_f_147_1636)">
<path fill-rule="evenodd" clip-rule="evenodd" d="M276.563 1230.61C199.317 1205.17 180.649 1107.75 144.29 1031.48C114.416 968.821 88.8766 909.974 90.0789 839.447C92.4972 697.587 41.5819 518.219 154.375 439.862C273.275 357.263 453.435 411.807 549.543 520.26C632.694 614.094 554.185 759.729 552.486 889.114C551.228 984.935 600.348 1088.9 541.114 1162.21C478.876 1239.24 367.164 1260.46 276.563 1230.61Z" fill="#CA37FE"/>
</g>
<defs>
<filter id="filter0_f_147_1636" x="413.977" y="160.438" width="719.877" height="933.071" filterUnits="userSpaceOnUse" color-interpolation-filters="sRGB">
<feFlood flood-opacity="0" result="BackgroundImageFix"/>
<feBlend mode="normal" in="SourceGraphic" in2="BackgroundImageFix" result="shape"/>
<feGaussianBlur stdDeviation="40" result="effect1_foregroundBlur_147_1636"/>
</filter>
<filter id="filter1_f_147_1636" x="44.1191" y="-48.9121" width="965.814" height="750.981" filterUnits="userSpaceOnUse" color-interpolation-filters="sRGB">
<feFlood flood-opacity="0" result="BackgroundImageFix"/>
<feBlend mode="normal" in="SourceGraphic" in2="BackgroundImageFix" result="shape"/>
<feGaussianBlur stdDeviation="40" result="effect1_foregroundBlur_147_1636"/>
</filter>
<filter id="filter2_f_147_1636" x="0.677734" y="319.894" width="666.994" height="1003.69" filterUnits="userSpaceOnUse" color-interpolation-filters="sRGB">
<feFlood flood-opacity="0" result="BackgroundImageFix"/>
<feBlend mode="normal" in="SourceGraphic" in2="BackgroundImageFix" result="shape"/>
<feGaussianBlur stdDeviation="40" result="effect1_foregroundBlur_147_1636"/>
</filter>
</defs>
</svg>
