<svg width="267" height="70" viewBox="0 0 267 70" fill="none" xmlns="http://www.w3.org/2000/svg">
<g clip-path="url(#clip0_697_592)">
<path d="M60.0167 21.2614H53.221L46.5 48.328H53.2584L57.4777 31.3787H64.2361L66.7751 21.2614H60.0167Z" fill="white"/>
<path d="M73.5343 21.2614L70.9953 31.3787L69.315 38.1734H62.5566L60.0176 48.328H66.7759H73.5717L77.791 31.3787L80.2927 21.2614H73.5343Z" fill="white"/>
<path d="M116.847 22.8667C116.847 23.4267 116.66 23.8373 116.25 24.2107C115.876 24.5467 115.428 24.7333 114.98 24.7333C114.532 24.7333 114.084 24.5467 113.711 24.2107C113.337 23.8747 113.113 23.4267 113.113 22.8667C113.113 22.3067 113.3 21.896 113.711 21.5227C114.084 21.1867 114.532 21 114.98 21C115.428 21 115.876 21.1867 116.25 21.5227C116.66 21.896 116.847 22.344 116.847 22.8667ZM87.0879 21.224H98.2896C101.389 21.224 103.816 22.12 105.384 23.6133C106.504 24.7707 107.139 26.1893 107.139 27.944V28.0187C107.139 31.528 104.973 33.3573 102.845 34.2907C106.056 35.2613 108.633 37.128 108.633 40.824V40.8987C108.633 45.528 104.712 48.2907 98.8124 48.2907H87.1252L87.0879 21.224ZM97.7669 33.32C101.426 33.32 104.002 31.64 104.002 28.4667V28.392C104.002 25.704 101.874 23.9867 97.9909 23.9867H90.1124V33.32H97.7669ZM98.8497 45.5653C102.957 45.5653 105.496 43.736 105.496 40.712V40.6373C105.496 37.688 103.032 36.008 98.2896 36.008H90.075V45.5653H98.8497ZM113.487 28.3173H116.474V48.328H113.487V28.3173ZM124.39 41.9813V30.968H119.872V28.3547H124.39V21.2613H127.377V28.3547H135.591V30.968H127.377V41.608C127.377 44.296 128.646 46.0133 131.073 45.976C132.754 45.9387 134.098 45.7893 135.33 45.2667V47.8053C134.284 48.3653 132.38 48.7013 130.364 48.664C126.742 48.5893 124.39 46.0507 124.39 41.9813ZM139.885 21.224H146.308L153.439 32.6853L160.571 21.224H166.993V48.2907H161.057V30.632L153.439 42.2053H153.29L145.71 30.744V48.2907H139.885V21.224ZM172.258 21.224H192.683V26.5253H178.158V32.0133H190.256V37.3147H178.195V42.9893H192.907V48.2907H172.296V21.224H172.258ZM204.034 34.552L194.998 21.2613H201.98L207.656 30.0347L213.369 21.2613H220.127L211.091 34.4773L220.5 48.328H213.518L207.432 39.032L201.308 48.328H194.55L204.034 34.552Z" fill="white"/>
</g>
<defs>
<clipPath id="clip0_697_592">
<rect width="174" height="28" fill="white" transform="translate(46.5 21)"/>
</clipPath>
</defs>
</svg>
