<svg width="300" height="90" viewBox="0 0 300 90" fill="none" xmlns="http://www.w3.org/2000/svg">
<g clip-path="url(#clip0_697_592)">
<path d="M23.3028 21.3127H11.586L-0.00195312 67.9794H11.6504L18.9251 38.7564H30.5774L34.9551 21.3127H23.3028Z" fill="white"/>
<path d="M46.6094 21.3127L42.2317 38.7564L39.3347 50.4714H27.6824L23.3047 67.9794H34.957H46.6738L53.9485 38.7564L58.2618 21.3127H46.6094Z" fill="white"/>
<path d="M121.286 24.0805C121.286 25.046 120.964 25.754 120.256 26.3977C119.612 26.977 118.839 27.2988 118.067 27.2988C117.294 27.2988 116.522 26.977 115.878 26.3977C115.234 25.8184 114.848 25.046 114.848 24.0805C114.848 23.1149 115.17 22.4069 115.878 21.7632C116.522 21.1839 117.294 20.8621 118.067 20.8621C118.839 20.8621 119.612 21.1839 120.256 21.7632C120.964 22.4069 121.286 23.1793 121.286 24.0805ZM69.9766 21.2483H89.2899C94.6332 21.2483 98.8178 22.7931 101.522 25.3678C103.453 27.3632 104.547 29.8092 104.547 32.8345V32.9632C104.547 39.0138 100.813 42.1678 97.1439 43.777C102.68 45.4506 107.122 48.669 107.122 55.0414V55.1701C107.122 63.1517 100.363 67.9149 90.1912 67.9149H70.0409L69.9766 21.2483ZM88.3886 42.1034C94.6976 42.1034 99.1397 39.2069 99.1397 33.7356V33.6069C99.1397 28.9724 95.4701 26.0115 88.7748 26.0115H75.1912V42.1034H88.3886ZM90.2555 63.2161C97.3371 63.2161 101.715 60.0621 101.715 54.8483V54.7195C101.715 49.6345 97.4658 46.7379 89.2899 46.7379H75.1268V63.2161H90.2555ZM115.492 33.4782H120.642V67.9793H115.492V33.4782ZM134.29 57.0368V38.0483H126.5V33.5425H134.29V21.3126H139.44V33.5425H153.603V38.0483H139.44V56.3931C139.44 61.0276 141.629 63.9885 145.813 63.9241C148.71 63.8598 151.028 63.6023 153.153 62.7011V67.0782C151.35 68.0437 148.067 68.623 144.59 68.5586C138.346 68.4299 134.29 64.0529 134.29 57.0368ZM161.007 21.2483H172.08L184.376 41.0092L196.672 21.2483H207.745V67.9149H197.509V37.469L184.376 57.423H184.118L171.05 37.6621V67.9149H161.007V21.2483ZM216.822 21.2483H252.037V30.3885H226.994V39.8506H247.852V48.9908H227.058V58.7747H252.423V67.9149H216.886V21.2483H216.822ZM271.607 44.2276L256.028 21.3126H268.067L277.852 36.4391L287.702 21.3126H299.354L283.775 44.0988L299.998 67.9793H287.959L277.466 51.9517L266.908 67.9793H255.256L271.607 44.2276Z" fill="white"/>
</g>
<defs>
<clipPath id="clip0_697_592">
<rect width="300" height="48.2759" fill="white" transform="translate(0 20.8621)"/>
</clipPath>
</defs>
</svg>
