<svg width="175" height="74" viewBox="0 0 175 74" fill="none" xmlns="http://www.w3.org/2000/svg">
<path d="M14.0929 23.2614H7.2972L0.576172 50.328H7.33454L11.5539 33.3787H18.3122L20.8513 23.2614H14.0929Z" fill="#FF0504"/>
<path d="M27.6105 23.2614L25.0714 33.3787L23.3912 40.1734H16.6328L14.0938 50.328H20.8521H27.6478L31.8671 33.3787L34.3689 23.2614H27.6105Z" fill="#125BFF"/>
<path d="M70.9233 24.8667C70.9233 25.4267 70.7366 25.8373 70.3259 26.2107C69.9525 26.5467 69.5044 26.7333 69.0563 26.7333C68.6083 26.7333 68.1602 26.5467 67.7868 26.2107C67.4134 25.8747 67.1894 25.4267 67.1894 24.8667C67.1894 24.3067 67.3761 23.896 67.7868 23.5227C68.1602 23.1867 68.6083 23 69.0563 23C69.5044 23 69.9525 23.1867 70.3259 23.5227C70.7366 23.896 70.9233 24.344 70.9233 24.8667ZM41.1641 23.224H52.3658C55.4649 23.224 57.892 24.12 59.4602 25.6133C60.5804 26.7707 61.2151 28.1893 61.2151 29.944V30.0187C61.2151 33.528 59.0495 35.3573 56.9211 36.2907C60.1323 37.2613 62.7087 39.128 62.7087 42.824V42.8987C62.7087 47.528 58.7881 50.2907 52.8885 50.2907H41.2014L41.1641 23.224ZM51.843 35.32C55.5023 35.32 58.0787 33.64 58.0787 30.4667V30.392C58.0787 27.704 55.9503 25.9867 52.0671 25.9867H44.1885V35.32H51.843ZM52.9259 47.5653C57.0332 47.5653 59.5722 45.736 59.5722 42.712V42.6373C59.5722 39.688 57.1078 38.008 52.3658 38.008H44.1512V47.5653H52.9259ZM67.5628 30.3173H70.5499V50.328H67.5628V30.3173ZM78.4658 43.9813V32.968H73.9478V30.3547H78.4658V23.2613H81.4529V30.3547H89.6675V32.968H81.4529V43.608C81.4529 46.296 82.7224 48.0133 85.1495 47.976C86.8297 47.9387 88.1739 47.7893 89.4061 47.2667V49.8053C88.3606 50.3653 86.4563 50.7013 84.44 50.664C80.8181 50.5893 78.4658 48.0507 78.4658 43.9813ZM93.9615 23.224H100.384L107.516 34.6853L114.647 23.224H121.07V50.2907H115.133V32.632L107.516 44.2053H107.366L99.7864 32.744V50.2907H93.9615V23.224ZM126.334 23.224H146.759V28.5253H132.234V34.0133H144.332V39.3147H132.271V44.9893H146.983V50.2907H126.372V23.224H126.334ZM158.11 36.552L149.074 23.2613H156.056L161.732 32.0347L167.445 23.2613H174.203L165.167 36.4773L174.577 50.328H167.594L161.508 41.032L155.384 50.328H148.626L158.11 36.552Z" fill="white"/>
</svg>
