<svg width="178" height="74" viewBox="0 0 178 74" fill="none" xmlns="http://www.w3.org/2000/svg">
<g clip-path="url(#clip0_919_708)">
<path d="M78.0891 39.6927C78.0891 42.6089 75.7473 43.5104 72.4921 43.5104H68.4805V30.2463H71.9811C75.4295 30.2463 77.5218 31.2077 77.5218 33.6251C77.5218 35.2767 76.3147 36.2181 75.0432 36.4854C76.5601 36.7726 78.0891 37.4987 78.0891 39.6927ZM71.0235 35.7035H72.5927C73.9849 35.7035 74.8943 35.0892 74.8943 33.8406C74.8943 32.4962 73.9648 32.1132 72.2225 32.1132H71.0154L71.0235 35.7035ZM75.4174 39.601C75.4174 38.0053 74.2746 37.4668 72.7859 37.4668H71.0235V41.6155H72.5042C74.1982 41.6116 75.4174 41.2645 75.4174 39.597V39.601Z" fill="white"/>
<path d="M83.1912 41.823C83.3894 41.8197 83.586 41.7875 83.7746 41.7272L84.2937 43.4546C83.7354 43.6803 83.1383 43.7969 82.5353 43.7976C81.0063 43.7976 80.1211 42.8961 80.1211 41.2086V29.2888L82.5997 29.0176V41.0331C82.6118 41.5916 82.7848 41.823 83.1912 41.823Z" fill="white"/>
<path d="M95.0359 38.4241C95.0359 41.6155 93.2373 43.7976 90.2074 43.7976C87.1775 43.7976 85.3789 41.7631 85.3789 38.4241C85.3789 35.2328 87.1815 33.0706 90.2074 33.0706C93.2332 33.0706 95.0359 35.1051 95.0359 38.4241ZM88.0104 38.4241C88.0104 40.8616 88.7629 41.9347 90.2154 41.9347C91.668 41.9347 92.4245 40.8416 92.4245 38.4241C92.4245 36.0067 91.668 34.9296 90.2356 34.9296C88.8031 34.9296 87.9943 36.0266 87.9943 38.4241H88.0104Z" fill="white"/>
<path d="M104.448 34.2594L103.325 35.7554C102.755 35.267 102.026 35.0005 101.273 35.0054C99.8406 35.0054 98.9675 36.0426 98.9675 38.48C98.9675 40.9174 99.8768 41.803 101.273 41.803C102.025 41.7895 102.747 41.5061 103.305 41.0052L104.448 42.6009C103.52 43.3699 102.345 43.7845 101.136 43.7697C98.1748 43.7697 96.3359 41.7352 96.3359 38.492C96.3359 35.2488 98.1748 33.0706 101.116 33.0706C102.339 33.0287 103.532 33.4542 104.448 34.2594Z" fill="white"/>
<path d="M106.15 43.5104V29.2888L108.629 29.0176V43.5104H106.15ZM115.095 43.5104H112.25L108.718 37.9614L112.146 33.3578H114.753L111.345 37.8298L115.095 43.5104Z" fill="white"/>
<path d="M123.818 34.2794L122.852 35.7554C122.122 35.2185 121.242 34.9176 120.333 34.8937C119.287 34.8937 118.724 35.2926 118.724 35.911C118.724 36.5293 119.126 36.8883 120.872 37.367C122.965 37.9255 124.144 38.7712 124.144 40.5584C124.144 42.6687 122.168 43.7817 119.826 43.7817C118.331 43.8246 116.874 43.3108 115.742 42.3416L117.002 40.9414C117.774 41.5803 118.744 41.9391 119.75 41.9586C120.872 41.9586 121.589 41.4799 121.589 40.7619C121.589 39.8762 121.186 39.609 119.267 39.0704C117.155 38.496 116.225 37.4987 116.225 36.0027C116.225 34.3113 117.794 33.0467 120.176 33.0467C121.497 33.0305 122.783 33.4658 123.818 34.2794V34.2794Z" fill="white"/>
<path d="M129.785 43.7976C127.773 43.7777 126.707 42.6487 126.707 40.4786V35.1051H125.098V33.3578H126.707V31.1159L129.182 30.8287V33.3618H131.564L131.314 35.1051H129.182V40.4028C129.182 41.4041 129.512 41.807 130.268 41.807C130.701 41.79 131.119 41.6517 131.475 41.4081L132.344 43.0038C131.594 43.5225 130.7 43.7996 129.785 43.7976V43.7976Z" fill="white"/>
<path d="M139.929 33.2222L139.503 35.6158C139.207 35.5356 138.901 35.4966 138.594 35.5001C137.354 35.5001 136.715 36.4016 136.328 38.109V43.5224H133.85V33.3579H135.998L136.232 35.3525C136.715 33.8964 137.704 33.0866 138.903 33.0866C139.25 33.0822 139.596 33.1279 139.929 33.2222Z" fill="white"/>
<path d="M149.735 39.1901H143.321C143.494 41.2645 144.484 41.9347 145.84 41.9347C146.768 41.918 147.665 41.6015 148.395 41.0331L149.421 42.4333C148.357 43.3181 147.012 43.8013 145.623 43.7976C142.448 43.7976 140.746 41.7073 140.746 38.4999C140.746 35.4083 142.392 33.0706 145.297 33.0706C148.202 33.0706 149.808 34.9894 149.808 38.1928C149.795 38.5199 149.759 38.9228 149.735 39.1901ZM147.345 37.4986C147.345 35.8312 146.745 34.8299 145.333 34.8299C144.17 34.8299 143.438 35.5998 143.321 37.6223H147.345V37.4986Z" fill="white"/>
<path d="M160.373 42.1301L159.85 43.7577C158.727 43.662 157.991 43.2591 157.584 42.2817C157.249 42.7733 156.791 43.171 156.256 43.4365C155.72 43.702 155.124 43.8264 154.526 43.7976C152.474 43.7976 151.215 42.5131 151.215 40.6701C151.215 38.464 152.901 37.2712 155.882 37.2712H157.162V36.7008C157.162 35.3764 156.558 34.9336 155.243 34.9336C154.316 34.9755 153.402 35.1571 152.531 35.4721L151.951 33.8006C153.136 33.339 154.396 33.093 155.669 33.0746C158.401 33.0746 159.6 34.3192 159.6 36.5652V40.8296C159.6 41.6474 159.87 41.9346 160.373 42.1301ZM157.154 40.7658V38.6954H156.124C154.514 38.6954 153.71 39.2698 153.71 40.4626C153.71 41.44 154.213 41.9985 155.162 41.9985C155.579 42.0023 155.989 41.8885 156.343 41.6702C156.697 41.4519 156.981 41.1382 157.162 40.7658H157.154Z" fill="white"/>
<path d="M175.982 36.1583V43.5104H173.5V36.5412C173.5 35.2767 172.997 34.9096 172.377 34.9096C171.524 34.9096 171.001 35.504 170.442 36.4455V43.5104H167.963V36.5412C167.963 35.2767 167.44 34.9096 166.84 34.9096C165.967 34.9096 165.444 35.504 164.885 36.4455V43.5104H162.406V33.3578H164.555L164.748 34.6823C165.065 34.1891 165.503 33.7839 166.021 33.5048C166.539 33.2257 167.12 33.0817 167.71 33.0866C168.254 33.0637 168.791 33.2182 169.239 33.5265C169.686 33.8348 170.02 34.28 170.188 34.794C170.965 33.7368 171.91 33.0866 173.266 33.0866C174.896 33.0706 175.982 34.2395 175.982 36.1583Z" fill="white"/>
<path d="M48.3203 23.7718C49.5092 25.4277 50.4699 27.2334 51.1772 29.1412L53.7161 28.3235C52.9095 26.1383 51.8077 24.0717 50.4408 22.1801L48.3203 23.7718Z" fill="#00C3FF"/>
<path d="M30.915 11.84C30.235 11.812 29.555 11.816 28.875 11.84L29.0681 14.4729C30.0923 14.437 31.1177 14.465 32.1382 14.5566C33.1589 14.653 34.1723 14.8142 35.1721 15.0393L35.8522 12.4862C34.711 12.2255 33.5536 12.0403 32.3877 11.9317C31.8968 11.8878 31.4019 11.8559 30.915 11.84Z" fill="#00C3FF"/>
<path d="M6.01108 48.4331C4.94446 46.2861 4.17955 44.0043 3.73767 41.6514L0.949219 42.0863C1.43954 44.7465 2.30224 47.3259 3.51234 49.7495L6.01108 48.4331Z" fill="#00C3FF"/>
<path d="M4.56641 21.841L7.03698 23.2013C8.27115 21.1451 9.78335 19.2661 11.5315 17.6164L9.64033 15.538C7.66337 17.3965 5.95581 19.5176 4.56641 21.841V21.841Z" fill="#00C3FF"/>
<path d="M1.07031 30.8526L3.85071 31.3393C4.34012 28.9917 5.15246 26.7219 6.26495 24.5935L3.79438 23.2372C2.53383 25.6378 1.61698 28.201 1.07031 30.8526V30.8526Z" fill="#00C3FF"/>
<path d="M19.1719 9.4784L20.2824 12.0514C22.5318 11.1764 24.8916 10.6113 27.2958 10.372L27.0946 7.57953C24.3769 7.84068 21.7098 8.47991 19.1719 9.4784V9.4784Z" fill="#00C3FF"/>
<path d="M10.832 14.4569L12.7232 16.5353C14.5638 14.9819 16.6092 13.6841 18.803 12.6777L17.6965 10.1047C15.2159 11.2328 12.9055 12.6976 10.832 14.4569V14.4569Z" fill="#00C3FF"/>
<path d="M52.682 55.6216L50.473 53.8784C48.9123 55.7078 47.1079 57.3182 45.1094 58.6654L46.6303 61.035C48.8919 59.5186 50.9287 57.6965 52.682 55.6216Z" fill="#00C3FF"/>
<path d="M18.3077 60.6042C16.134 59.5516 14.1155 58.2094 12.3083 56.615L10.377 58.6575C12.4131 60.458 14.6923 61.9685 17.1489 63.1453L18.3077 60.6042Z" fill="#00C3FF"/>
<path d="M59.487 39.4932C59.8499 35.7222 59.4673 31.9172 58.3604 28.2915L55.6726 29.1771C57.2123 34.3105 57.1576 39.7845 55.5156 44.8867L58.1753 45.8241C58.8459 43.768 59.2858 41.6449 59.487 39.4932V39.4932Z" fill="#00C3FF"/>
<path d="M43.0129 58.1229L41.5805 55.9009C39.8176 56.9418 37.9233 57.7467 35.9473 58.2945L36.575 60.8595C38.8358 60.2399 41.0015 59.3193 43.0129 58.1229V58.1229Z" fill="#00C3FF"/>
<path d="M8.03572 39.5571C7.83922 37.9097 7.81765 36.2464 7.97134 34.5945C8.00755 34.1956 8.05584 33.8445 8.10814 33.4775L5.48869 33.0148C5.42431 33.4536 5.36798 33.8964 5.32372 34.3512C5.14636 36.2196 5.17469 38.1016 5.40822 39.964L8.03572 39.5571Z" fill="#00C3FF"/>
<path d="M37.6426 11.3254C39.9626 12.0013 42.1776 12.9906 44.2254 14.2655L45.7947 11.9358C43.4863 10.491 40.9845 9.37511 38.3628 8.62073L37.6426 11.3254Z" fill="#00C3FF"/>
<path d="M26.1578 65.8221L26.4233 63.0296C24.145 62.7263 21.916 62.1309 19.7922 61.2584L18.6133 63.8275C21.0278 64.8211 23.5649 65.4918 26.1578 65.8221Z" fill="#00C3FF"/>
<path d="M12.333 54.4728L14.1598 52.55C12.7139 51.1062 11.4653 49.4807 10.4459 47.715L8.08398 48.9477C9.24339 50.9704 10.6726 52.8288 12.333 54.4728Z" fill="#00C3FF"/>
<path d="M47.1303 12.8214L45.5449 15.159C47.5131 16.549 49.2822 18.1969 50.8039 20.0578L53.0653 18.3504C51.3555 16.2431 49.358 14.3822 47.1303 12.8214V12.8214Z" fill="#00C3FF"/>
<path d="M49.8343 51.6404C51.2403 49.7796 52.3829 47.7368 53.2303 45.5689L50.7235 44.6793C49.9723 46.5724 48.9725 48.359 47.75 49.9929L49.8343 51.6404Z" fill="#00C3FF"/>
<path d="M51.9225 30.3939L49.3997 31.2236C50.0981 33.6196 50.3343 36.1248 50.0958 38.6077C49.9702 39.9892 49.7005 41.3542 49.291 42.6807L51.8018 43.5623C52.2857 42.0306 52.6067 40.4529 52.7595 38.855C53.0267 36.0075 52.7426 33.1356 51.9225 30.3939Z" fill="#7EE0FF"/>
<path d="M26.7902 59.1362L27.0357 56.5073C25.4786 56.2775 23.9539 55.8678 22.4929 55.2866L21.3984 57.6801C23.1283 58.3839 24.9393 58.8729 26.7902 59.1362V59.1362Z" fill="#7EE0FF"/>
<path d="M45.0624 31.1598L47.4445 30.362C46.8693 28.8642 46.1098 27.4426 45.1832 26.1294L43.1914 27.6333C43.9553 28.7303 44.5835 29.9142 45.0624 31.1598Z" fill="#7EE0FF"/>
<path d="M30.6574 18.3823C30.2189 18.3823 29.7803 18.3823 29.3457 18.3823L29.5268 20.8556C30.866 20.8176 32.205 20.9409 33.5143 21.2226L34.1541 18.8291C33.3658 18.6567 32.5676 18.5328 31.764 18.4581C31.4059 18.4222 31.0316 18.3983 30.6574 18.3823Z" fill="#7EE0FF"/>
<path d="M10.4863 25.0961L12.8161 26.3767C13.6921 24.9478 14.7466 23.6343 15.9546 22.4673L14.16 20.5085C12.7372 21.8709 11.502 23.4134 10.4863 25.0961V25.0961Z" fill="#7EE0FF"/>
<path d="M35.9551 17.6603C37.5698 18.1472 39.1153 18.8362 40.5542 19.7107L42.0309 17.5166C40.3458 16.488 38.5316 15.6833 36.6351 15.1231L35.9551 17.6603Z" fill="#7EE0FF"/>
<path d="M45.5446 24.0231L47.6611 22.4274C46.4095 20.9036 44.9605 19.5502 43.3517 18.4023L41.875 20.5964C43.2386 21.5811 44.4716 22.7324 45.5446 24.0231V24.0231Z" fill="#7EE0FF"/>
<path d="M42.6953 46.0197L44.6589 47.5635C45.613 46.2698 46.3997 44.8626 47.0007 43.3748L44.6388 42.545C44.1318 43.7754 43.4795 44.9417 42.6953 46.0197V46.0197Z" fill="#7EE0FF"/>
<path d="M16.8345 51.8599L15.0117 53.7827C16.5006 55.0797 18.1551 56.1768 19.9327 57.0458L21.0232 54.6523C19.5129 53.9017 18.1054 52.9633 16.8345 51.8599V51.8599Z" fill="#7EE0FF"/>
<path d="M14.4205 38.5638C14.2985 37.4425 14.289 36.312 14.3924 35.1889C14.4125 34.9934 14.4366 34.79 14.4608 34.5945L11.9942 34.1597C11.958 34.423 11.9258 34.6902 11.9017 34.9575C11.7785 36.2852 11.7919 37.6218 11.9419 38.9467L14.4205 38.5638Z" fill="#7EE0FF"/>
<path d="M10.2643 40.6302L7.63281 41.0291C8.00602 42.9637 8.63372 44.8414 9.49982 46.614L11.8537 45.3813C11.1248 43.8701 10.5908 42.2738 10.2643 40.6302V40.6302Z" fill="#7EE0FF"/>
<path d="M41.5527 53.1523L42.9852 55.3743C44.6172 54.2658 46.0958 52.9502 47.3831 51.4609L45.2988 49.8214C44.1969 51.0839 42.9382 52.2031 41.5527 53.1523V53.1523Z" fill="#7EE0FF"/>
<path d="M12.0341 27.769L9.70843 26.4924C8.8026 28.2418 8.13422 30.1023 7.7207 32.0255L10.3402 32.4842C10.7014 30.8478 11.2706 29.2634 12.0341 27.769V27.769Z" fill="#7EE0FF"/>
<path d="M34.4219 52.0673L35.0093 54.4608C36.5648 54.0213 38.0586 53.39 39.4556 52.5819L38.1036 50.4875C36.944 51.1572 35.708 51.6875 34.4219 52.0673V52.0673Z" fill="#7EE0FF"/>
<path d="M16.1427 44.7271L13.9297 45.876C14.7399 47.2624 15.7227 48.5424 16.8549 49.6857L18.5851 47.8706C17.6489 46.9219 16.8291 45.8667 16.1427 44.7271V44.7271Z" fill="#7EE0FF"/>
<path d="M29.3001 56.7187C29.0788 56.7187 28.8575 56.6908 28.6322 56.6748L28.3867 59.3037C30.4743 59.4553 32.5729 59.321 34.6235 58.9048L33.9958 56.3397C32.4512 56.6497 30.8749 56.7769 29.3001 56.7187V56.7187Z" fill="#7EE0FF"/>
<path d="M15.3672 19.4395L17.1497 21.3982C18.448 20.3264 19.8769 19.4204 21.4028 18.7014L20.3566 16.276C18.5618 17.1109 16.8845 18.1744 15.3672 19.4395V19.4395Z" fill="#7EE0FF"/>
<path d="M21.8281 15.6497L22.8743 18.0791C24.4504 17.4766 26.0971 17.0745 27.7752 16.8824L27.5861 14.2535C25.6133 14.4665 23.6774 14.9359 21.8281 15.6497V15.6497Z" fill="#7EE0FF"/>
<path d="M28.5528 66.0216C31.0636 66.1011 33.5754 65.9004 36.041 65.4232L35.4535 62.7305C33.3148 63.1705 31.1296 63.3486 28.9471 63.261C28.5971 63.261 28.3436 63.2172 27.9935 63.1892L27.748 66.0096C28.0161 66.0248 28.2848 66.0248 28.5528 66.0096V66.0216Z" fill="#00C3FF"/>
</g>
<defs>
<clipPath id="clip0_919_708">
<rect width="177" height="74" fill="white" transform="translate(0.0761719)"/>
</clipPath>
</defs>
</svg>
