<svg width="360" height="112" viewBox="0 0 360 112" fill="none" xmlns="http://www.w3.org/2000/svg">
<path d="M169.334 58.7655C169.334 61.7604 166.953 62.6864 163.642 62.6864H159.562V49.0637H163.122C166.629 49.0637 168.757 50.0511 168.757 52.5339C168.757 54.2301 167.529 55.197 166.236 55.4715C167.779 55.7665 169.334 56.5121 169.334 58.7655ZM162.149 54.6685H163.744C165.16 54.6685 166.085 54.0375 166.085 52.7552C166.085 51.3744 165.14 50.9811 163.368 50.9811H162.14L162.149 54.6685ZM166.617 58.6713C166.617 57.0325 165.455 56.4794 163.941 56.4794H162.149V60.7403H163.654C165.377 60.7362 166.617 60.3797 166.617 58.6672V58.6713Z" fill="white"/>
<path d="M174.523 60.9534C174.724 60.95 174.924 60.9169 175.116 60.855L175.644 62.6291C175.076 62.8609 174.469 62.9806 173.856 62.9814C172.301 62.9814 171.4 62.0555 171.4 60.3224V48.0805L173.921 47.8019V60.1421C173.933 60.7157 174.109 60.9534 174.523 60.9534Z" fill="white"/>
<path d="M186.569 57.4627C186.569 60.7403 184.74 62.9814 181.658 62.9814C178.577 62.9814 176.748 60.8919 176.748 57.4627C176.748 54.1851 178.581 51.9645 181.658 51.9645C184.735 51.9645 186.569 54.054 186.569 57.4627ZM179.424 57.4627C179.424 59.966 180.189 61.0681 181.667 61.0681C183.144 61.0681 183.913 59.9455 183.913 57.4627C183.913 54.9799 183.144 53.8737 181.687 53.8737C180.23 53.8737 179.408 55.0004 179.408 57.4627H179.424Z" fill="white"/>
<path d="M196.14 53.1854L194.998 54.7218C194.419 54.2202 193.677 53.9465 192.911 53.9515C191.455 53.9515 190.567 55.0168 190.567 57.52C190.567 60.0233 191.492 60.9329 192.911 60.9329C193.677 60.919 194.411 60.6279 194.978 60.1135L196.14 61.7523C195.196 62.542 194.002 62.9678 192.772 62.9527C189.761 62.9527 187.891 60.8632 187.891 57.5323C187.891 54.2014 189.761 51.9645 192.752 51.9645C193.996 51.9213 195.209 52.3584 196.14 53.1854Z" fill="white"/>
<path d="M197.871 62.6864V48.0805L200.392 47.8019V62.6864H197.871ZM206.967 62.6864H204.074L200.482 56.9874L203.968 52.2595H206.62L203.154 56.8522L206.967 62.6864Z" fill="white"/>
<path d="M215.839 53.2058L214.857 54.7217C214.115 54.1702 213.22 53.8612 212.296 53.8367C211.232 53.8367 210.659 54.2464 210.659 54.8815C210.659 55.5165 211.068 55.8852 212.844 56.3769C214.972 56.9505 216.171 57.819 216.171 59.6545C216.171 61.8218 214.162 62.9649 211.78 62.9649C210.26 63.009 208.778 62.4813 207.627 61.4859L208.908 60.0478C209.694 60.704 210.679 61.0725 211.703 61.0926C212.844 61.0926 213.573 60.6009 213.573 59.8634C213.573 58.9539 213.163 58.6794 211.211 58.1263C209.063 57.5363 208.118 56.5121 208.118 54.9757C208.118 53.2385 209.714 51.9398 212.136 51.9398C213.479 51.9231 214.787 52.3702 215.839 53.2058Z" fill="white"/>
<path d="M221.908 62.9813C219.862 62.9608 218.777 61.8014 218.777 59.5726V54.0539H217.141V52.2594H218.777V49.9569L221.294 49.6619V52.2635H223.716L223.463 54.0539H221.294V59.4947C221.294 60.5231 221.629 60.9369 222.399 60.9369C222.838 60.9194 223.264 60.7774 223.626 60.5272L224.51 62.166C223.747 62.6987 222.838 62.9834 221.908 62.9813Z" fill="white"/>
<path d="M232.224 52.1201L231.79 54.5783C231.489 54.4959 231.178 54.456 230.865 54.4595C229.605 54.4595 228.954 55.3854 228.562 57.1389V62.6986H226.041V52.2594H228.226L228.463 54.3079C228.954 52.8125 229.961 51.9808 231.18 51.9808C231.533 51.9762 231.885 52.0232 232.224 52.1201Z" fill="white"/>
<path d="M242.196 58.2493H235.674C235.849 60.3798 236.856 61.0681 238.235 61.0681C239.179 61.051 240.091 60.7259 240.833 60.1422L241.877 61.5802C240.795 62.4889 239.426 62.9852 238.014 62.9814C234.786 62.9814 233.055 60.8346 233.055 57.5405C233.055 54.3653 234.728 51.9645 237.683 51.9645C240.637 51.9645 242.27 53.9351 242.27 57.2251C242.257 57.561 242.221 57.9748 242.196 58.2493ZM239.765 56.5122C239.765 54.7996 239.156 53.7713 237.719 53.7713C236.537 53.7713 235.792 54.562 235.674 56.6392H239.765V56.5122Z" fill="white"/>
<path d="M253.014 61.2688L252.482 62.9404C251.341 62.842 250.592 62.4282 250.179 61.4245C249.837 61.9294 249.372 62.3378 248.827 62.6105C248.283 62.8832 247.677 63.0109 247.069 62.9813C244.982 62.9813 243.701 61.6621 243.701 59.7693C243.701 57.5036 245.416 56.2786 248.448 56.2786H249.749V55.6927C249.749 54.3325 249.135 53.8777 247.797 53.8777C246.855 53.9208 245.925 54.1073 245.039 54.4308L244.45 52.7142C245.655 52.24 246.936 51.9874 248.231 51.9685C251.009 51.9685 252.229 53.2468 252.229 55.5534V59.9331C252.229 60.773 252.503 61.068 253.014 61.2688ZM249.741 59.8676V57.7412H248.693C247.057 57.7412 246.238 58.3312 246.238 59.5562C246.238 60.56 246.75 61.1336 247.715 61.1336C248.139 61.1375 248.556 61.0206 248.916 60.7964C249.276 60.5723 249.565 60.2501 249.749 59.8676H249.741Z" fill="white"/>
<path d="M268.886 55.1355V62.6864H266.362V55.5288C266.362 54.2301 265.85 53.8531 265.22 53.8531C264.352 53.8531 263.82 54.4636 263.252 55.4305V62.6864H260.731V55.5288C260.731 54.2301 260.199 53.8531 259.589 53.8531C258.701 53.8531 258.169 54.4636 257.601 55.4305V62.6864H255.08V52.2594H257.265L257.462 53.6196C257.784 53.1132 258.229 52.697 258.756 52.4103C259.283 52.1236 259.874 51.9758 260.473 51.9808C261.027 51.9573 261.573 52.116 262.028 52.4326C262.484 52.7493 262.823 53.2065 262.994 53.7343C263.784 52.6486 264.745 51.9808 266.124 51.9808C267.781 51.9644 268.886 53.1648 268.886 55.1355Z" fill="white"/>
<path d="M139.062 42.4143C140.271 44.115 141.249 45.9695 141.968 47.9289L144.55 47.089C143.729 44.8447 142.609 42.7223 141.219 40.7795L139.062 42.4143Z" fill="white"/>
<path d="M121.36 30.16C120.668 30.1313 119.977 30.1354 119.285 30.16L119.482 32.8641C120.523 32.8273 121.566 32.856 122.604 32.9501C123.642 33.049 124.672 33.2146 125.689 33.4458L126.381 30.8237C125.22 30.556 124.043 30.3657 122.857 30.2542C122.358 30.2092 121.855 30.1764 121.36 30.16Z" fill="white"/>
<path d="M96.0363 67.7421C94.9516 65.537 94.1738 63.1936 93.7244 60.7771L90.8887 61.2237C91.3873 63.9559 92.2646 66.6049 93.4952 69.0941L96.0363 67.7421Z" fill="white"/>
<path d="M94.5664 40.4313L97.0789 41.8284C98.3339 39.7166 99.8718 37.7868 101.65 36.0926L99.7263 33.958C97.7159 35.8667 95.9794 38.0452 94.5664 40.4313Z" fill="white"/>
<path d="M91.0098 49.6865L93.8373 50.1863C94.335 47.7753 95.1611 45.4441 96.2924 43.2582L93.78 41.8652C92.4981 44.3308 91.5657 46.9632 91.0098 49.6865Z" fill="white"/>
<path d="M109.42 27.7346L110.549 30.3772C112.837 29.4785 115.237 28.8981 117.682 28.6523L117.477 25.7844C114.713 26.0526 112.001 26.7091 109.42 27.7346Z" fill="white"/>
<path d="M100.938 32.8477L102.861 34.9822C104.733 33.3868 106.813 32.054 109.044 31.0204L107.918 28.3778C105.396 29.5364 103.046 31.0408 100.938 32.8477Z" fill="white"/>
<path d="M143.498 75.125L141.251 73.3346C139.664 75.2135 137.829 76.8674 135.797 78.251L137.344 80.6847C139.643 79.1272 141.715 77.256 143.498 75.125Z" fill="white"/>
<path d="M108.54 80.2422C106.329 79.1611 104.277 77.7827 102.439 76.1451L100.475 78.2428C102.545 80.092 104.863 81.6433 107.361 82.852L108.54 80.2422Z" fill="white"/>
<path d="M150.418 58.5606C150.787 54.6877 150.398 50.7799 149.272 47.0562L146.538 47.9657C148.104 53.2378 148.049 58.8598 146.379 64.0998L149.084 65.0626C149.766 62.951 150.213 60.7705 150.418 58.5606Z" fill="white"/>
<path d="M133.666 77.6938L132.209 75.4117C130.416 76.4808 128.49 77.3073 126.48 77.87L127.119 80.5044C129.418 79.868 131.62 78.9225 133.666 77.6938Z" fill="white"/>
<path d="M98.0934 58.6262C97.8936 56.9343 97.8716 55.226 98.0279 53.5295C98.0648 53.1198 98.1139 52.7593 98.167 52.3824L95.5032 51.9071C95.4377 52.3578 95.3804 52.8125 95.3354 53.2796C95.1551 55.1985 95.1839 57.1314 95.4214 59.0441L98.0934 58.6262Z" fill="white"/>
<path d="M128.203 29.6314C130.562 30.3255 132.815 31.3416 134.898 32.6509L136.493 30.2583C134.146 28.7745 131.602 27.6284 128.936 26.8536L128.203 29.6314Z" fill="white"/>
<path d="M116.524 85.6011L116.794 82.7331C114.477 82.4216 112.21 81.8101 110.05 80.9141L108.852 83.5526C111.307 84.573 113.887 85.2619 116.524 85.6011Z" fill="white"/>
<path d="M102.464 73.945L104.321 71.9702C102.851 70.4875 101.581 68.8181 100.545 67.0046L98.1426 68.2706C99.3216 70.348 100.775 72.2566 102.464 73.945Z" fill="white"/>
<path d="M137.851 31.1678L136.238 33.5687C138.24 34.9962 140.039 36.6887 141.586 38.5999L143.886 36.8463C142.147 34.6821 140.116 32.7709 137.851 31.1678Z" fill="white"/>
<path d="M140.6 71.0362C142.03 69.125 143.192 67.027 144.054 64.8005L141.504 63.8868C140.74 65.8311 139.724 67.666 138.48 69.3441L140.6 71.0362Z" fill="white"/>
<path d="M142.725 49.2153L140.159 50.0675C140.87 52.5283 141.11 55.1012 140.867 57.6511C140.74 59.0701 140.465 60.4719 140.049 61.8342L142.602 62.7396C143.094 61.1665 143.421 59.5462 143.576 57.9051C143.848 54.9807 143.559 52.0312 142.725 49.2153Z" fill="white" fill-opacity="0.6"/>
<path d="M117.167 78.7344L117.416 76.0345C115.833 75.7985 114.282 75.3777 112.797 74.7808L111.684 77.239C113.443 77.9618 115.284 78.4641 117.167 78.7344Z" fill="white" fill-opacity="0.6"/>
<path d="M135.748 50.0019L138.171 49.1825C137.586 47.6443 136.814 46.1843 135.871 44.8356L133.846 46.3802C134.623 47.5067 135.261 48.7227 135.748 50.0019Z" fill="white" fill-opacity="0.6"/>
<path d="M121.1 36.8792C120.654 36.8792 120.208 36.8792 119.766 36.8792L119.95 39.4193C121.312 39.3803 122.673 39.5068 124.005 39.7962L124.655 37.338C123.854 37.1609 123.042 37.0337 122.225 36.957C121.861 36.9201 121.48 36.8955 121.1 36.8792Z" fill="white" fill-opacity="0.6"/>
<path d="M100.586 43.7745L102.955 45.0896C103.846 43.6221 104.918 42.2731 106.147 41.0745L104.322 39.0629C102.875 40.462 101.619 42.0462 100.586 43.7745Z" fill="white" fill-opacity="0.6"/>
<path d="M126.488 36.1376C128.13 36.6377 129.702 37.3453 131.165 38.2435L132.667 35.9901C130.953 34.9337 129.109 34.1072 127.18 33.5319L126.488 36.1376Z" fill="white" fill-opacity="0.6"/>
<path d="M136.24 42.6724L138.392 41.0336C137.119 39.4686 135.646 38.0786 134.01 36.8997L132.508 39.153C133.895 40.1644 135.148 41.3469 136.24 42.6724Z" fill="white" fill-opacity="0.6"/>
<path d="M133.342 65.2633L135.339 66.8489C136.309 65.5202 137.109 64.075 137.72 62.547L135.318 61.6948C134.803 62.9584 134.139 64.1563 133.342 65.2633Z" fill="white" fill-opacity="0.6"/>
<path d="M107.043 71.2615L105.189 73.2362C106.704 74.5683 108.386 75.6951 110.194 76.5876L111.303 74.1294C109.767 73.3585 108.336 72.3948 107.043 71.2615Z" fill="white" fill-opacity="0.6"/>
<path d="M104.588 57.606C104.464 56.4544 104.454 55.2934 104.559 54.1399C104.579 53.9392 104.604 53.7302 104.629 53.5295L102.12 53.0829C102.083 53.3533 102.051 53.6278 102.026 53.9023C101.901 55.2658 101.915 56.6386 102.067 57.9993L104.588 57.606Z" fill="white" fill-opacity="0.6"/>
<path d="M100.362 59.7283L97.6855 60.138C98.0651 62.1249 98.7034 64.0533 99.5842 65.8738L101.978 64.6078C101.237 63.0557 100.694 61.4163 100.362 59.7283Z" fill="white" fill-opacity="0.6"/>
<path d="M132.18 72.5889L133.636 74.8709C135.296 73.7324 136.8 72.3812 138.109 70.8517L135.989 69.1678C134.869 70.4645 133.589 71.614 132.18 72.5889Z" fill="white" fill-opacity="0.6"/>
<path d="M102.162 46.5194L99.7968 45.2084C98.8756 47.005 98.1959 48.9158 97.7754 50.891L100.439 51.3621C100.807 49.6814 101.385 48.0542 102.162 46.5194Z" fill="white" fill-opacity="0.6"/>
<path d="M124.93 71.4745L125.527 73.9327C127.109 73.4813 128.628 72.833 130.049 72.003L128.674 69.8521C127.495 70.5398 126.238 71.0844 124.93 71.4745Z" fill="white" fill-opacity="0.6"/>
<path d="M106.338 63.9359L104.088 65.1159C104.912 66.5398 105.911 67.8543 107.063 69.0285L108.822 67.1644C107.87 66.19 107.036 65.1063 106.338 63.9359Z" fill="white" fill-opacity="0.6"/>
<path d="M119.72 76.2516C119.495 76.2516 119.27 76.223 119.041 76.2066L118.791 78.9065C120.914 79.0622 123.048 78.9243 125.134 78.4968L124.495 75.8624C122.924 76.1808 121.321 76.3114 119.72 76.2516Z" fill="white" fill-opacity="0.6"/>
<path d="M105.549 37.9649L107.362 39.9765C108.682 38.8758 110.135 37.9453 111.687 37.2069L110.623 34.7159C108.798 35.5734 107.092 36.6656 105.549 37.9649Z" fill="white" fill-opacity="0.6"/>
<path d="M112.121 34.0726L113.185 36.5677C114.788 35.9489 116.462 35.5359 118.169 35.3386L117.977 32.6387C115.97 32.8574 114.002 33.3396 112.121 34.0726Z" fill="white" fill-opacity="0.6"/>
<path d="M118.959 85.806C121.512 85.8876 124.067 85.6815 126.574 85.1914L125.977 82.4259C123.802 82.8778 121.58 83.0608 119.36 82.9708C119.004 82.9708 118.746 82.9257 118.39 82.8971L118.141 85.7937C118.413 85.8093 118.686 85.8093 118.959 85.7937V85.806Z" fill="white"/>
</svg>
