<svg width="263" height="387" viewBox="0 0 263 387" fill="none" xmlns="http://www.w3.org/2000/svg">
<path d="M146.996 210.739C147.888 207.454 148.043 204.012 147.449 200.661C147.372 200.108 147.183 199.576 146.895 199.098C146.541 198.679 146.089 198.354 145.579 198.152C145.069 197.95 144.517 197.877 143.972 197.939C142.643 198.063 141.382 198.587 140.357 199.441C139.331 200.296 138.589 201.441 138.228 202.727C137.888 204.012 137.862 205.36 138.151 206.658C138.441 207.956 139.037 209.165 139.89 210.185C140.326 210.775 140.876 211.271 141.508 211.644C142.14 212.016 142.841 212.257 143.569 212.352C144.295 212.434 145.028 212.264 145.643 211.869C146.258 211.474 146.718 210.879 146.945 210.185C146.88 210.091 146.794 210.015 146.693 209.962C146.592 209.909 146.48 209.881 146.366 209.881C146.252 209.881 146.14 209.909 146.039 209.962C145.938 210.015 145.851 210.091 145.786 210.185L146.996 210.739Z" fill="#02FFFC"/>
<path d="M77.3075 296.657C78.2632 293.296 78.4184 289.758 77.7609 286.327C77.6835 285.774 77.495 285.242 77.2066 284.764C76.8557 284.342 76.404 284.014 75.8933 283.811C75.3825 283.609 74.8288 283.538 74.2835 283.605C72.9608 283.749 71.71 284.279 70.688 285.131C69.666 285.983 68.9188 287.118 68.5393 288.393C68.1938 289.681 68.1693 291.035 68.468 292.335C68.7667 293.635 69.3793 294.842 70.2525 295.851C70.6643 296.453 71.202 296.959 71.8285 297.333C72.4549 297.707 73.155 297.941 73.8806 298.018C74.6082 298.11 75.3449 297.944 75.9622 297.548C76.5795 297.151 77.0381 296.551 77.2571 295.851C77.198 295.757 77.1159 295.68 77.019 295.626C76.9221 295.573 76.8135 295.545 76.7028 295.545C76.5921 295.545 76.483 295.573 76.386 295.626C76.2891 295.68 76.207 295.757 76.148 295.851L77.3075 296.657Z" fill="#02FFFC"/>
<path d="M133.796 218.902C133.983 217.92 133.919 216.906 133.611 215.955C133.303 215.004 132.76 214.145 132.032 213.46C131.073 213.737 130.194 214.238 129.467 214.921C128.74 215.604 128.185 216.451 127.849 217.39C127.703 217.86 127.652 218.354 127.7 218.844C127.748 219.333 127.895 219.808 128.13 220.241C128.365 220.673 128.684 221.054 129.068 221.36C129.453 221.667 129.895 221.894 130.369 222.026C132.334 222.429 134.35 219.96 133.241 218.297L133.796 218.902Z" fill="#02FFFC"/>
<path d="M128.101 200.913C127.916 200.258 127.645 199.632 127.295 199.048C126.69 199.401 126.589 200.51 125.884 200.51H125.531C125.531 200.51 125.531 200.913 125.531 201.064C125.727 201.25 125.961 201.39 126.217 201.477C126.472 201.563 126.744 201.593 127.012 201.564C127.28 201.536 127.539 201.449 127.771 201.31C128.003 201.172 128.201 200.985 128.353 200.762V201.064L128.101 200.913Z" fill="#02FFFC"/>
<path d="M177.839 196.175C177.507 194.941 176.979 193.767 176.277 192.698C176.255 192.621 176.217 192.549 176.165 192.489C176.113 192.428 176.048 192.379 175.975 192.345C175.896 192.309 175.81 192.29 175.723 192.29C175.636 192.29 175.55 192.309 175.471 192.345C174.312 192.95 174.161 195.016 172.851 195.067C172.622 194.99 172.374 194.99 172.145 195.067C171.843 195.067 172.145 195.772 172.145 196.074C172.509 196.38 172.932 196.608 173.388 196.744C173.844 196.88 174.323 196.921 174.796 196.864C175.268 196.807 175.724 196.654 176.135 196.415C176.546 196.175 176.903 195.853 177.184 195.47V196.074L177.839 196.175Z" fill="#02FFFC"/>
<path d="M205.153 76.3433C204.8 75.1158 204.274 73.9451 203.59 72.8664C203.53 72.7322 203.423 72.6245 203.288 72.5639C203.142 72.5099 202.981 72.5099 202.834 72.5639C201.675 73.219 201.474 75.2852 200.164 75.3356C199.932 75.2835 199.691 75.2835 199.459 75.3356C199.156 75.5875 199.459 76.0914 199.459 76.3938C199.82 76.707 200.242 76.9412 200.699 77.0813C201.156 77.2215 201.637 77.2644 202.112 77.2075C202.586 77.1505 203.044 76.9948 203.455 76.7506C203.865 76.5063 204.221 76.1788 204.498 75.7891V76.3938L205.153 76.3433Z" fill="#02FFFC"/>
<path d="M132.083 189.524C132.148 189.066 132.115 188.6 131.984 188.157C131.854 187.713 131.629 187.303 131.327 186.954C130.991 187.204 130.701 187.511 130.47 187.861C130.357 188.033 130.297 188.235 130.297 188.44C130.297 188.646 130.357 188.848 130.47 189.02C130.873 189.473 131.528 189.373 132.083 189.02L131.83 189.423L132.083 189.524Z" fill="#02FFFC"/>
<path d="M125.985 186.803C125.912 186.552 125.773 186.326 125.582 186.147C125.353 186.071 125.106 186.071 124.877 186.147C124.181 186.138 123.488 186.054 122.811 185.896L124.978 188.617C124.978 188.919 124.977 189.171 124.625 189.473C124.272 189.776 124.927 190.33 125.33 190.582C128.303 192.245 126.338 188.163 125.985 186.803Z" fill="#02FFFC"/>
<path d="M168.01 150.017C167.999 149.888 167.96 149.762 167.896 149.649C167.832 149.536 167.745 149.437 167.64 149.361C167.535 149.285 167.414 149.232 167.287 149.206C167.159 149.18 167.028 149.182 166.901 149.211C166.222 149.202 165.546 149.117 164.886 148.959L167.002 151.68C167.002 151.983 166.75 152.235 166.649 152.537C166.549 152.839 166.649 153.394 167.304 153.646C170.328 155.46 168.413 151.378 168.01 150.017Z" fill="#02FFFC"/>
<path d="M135.609 166.848L135.004 166.042C134.742 166.243 134.548 166.52 134.449 166.836C134.35 167.151 134.35 167.49 134.45 167.805C134.513 167.956 134.614 168.089 134.743 168.19C134.871 168.291 135.024 168.357 135.186 168.382C135.347 168.408 135.513 168.391 135.667 168.334C135.82 168.277 135.956 168.182 136.062 168.057C136.062 167.704 136.465 167.049 136.818 167.251L135.609 166.848Z" fill="#02FFFC"/>
<path d="M149.266 177.834C149.243 178.065 149.165 178.286 149.036 178.479C148.907 178.672 148.733 178.83 148.529 178.94C148.325 179.049 148.097 179.107 147.865 179.107C147.633 179.108 147.405 179.051 147.2 178.943C146.999 178.82 146.833 178.648 146.718 178.442C146.603 178.236 146.544 178.004 146.546 177.769C146.548 177.533 146.611 177.302 146.729 177.098C146.847 176.894 147.016 176.724 147.219 176.605C147.422 176.486 147.653 176.422 147.889 176.419C148.124 176.416 148.357 176.474 148.563 176.588C148.769 176.702 148.943 176.867 149.066 177.068C149.189 177.268 149.258 177.498 149.266 177.733V177.834Z" fill="#02FFFC"/>
<path d="M161.11 187.911C161.714 188.365 162.369 189.12 161.966 189.776C161.563 190.431 160.706 190.229 160 189.776C159.848 189.744 159.705 189.677 159.583 189.581C159.46 189.485 159.362 189.362 159.295 189.221C159.295 188.516 160.706 188.415 160.706 187.659C160.706 186.903 161.109 187.659 160.958 188.012L161.11 187.911Z" fill="#02FFFC"/>
<path d="M37.4976 386.154C37.433 385.608 37.2451 385.084 36.9483 384.621C36.6515 384.159 36.2537 383.769 35.7844 383.483C35.5386 383.372 35.2706 383.317 35.0007 383.322C34.7309 383.327 34.4658 383.392 34.2244 383.513C33.983 383.634 33.7717 383.807 33.6056 384.02C33.4396 384.232 33.3233 384.479 33.2648 384.743C33.208 384.879 33.1787 385.024 33.1787 385.171C33.1787 385.318 33.208 385.464 33.2648 385.6L33.7182 386.003C34.2638 386.511 34.9886 386.783 35.734 386.759C36.1127 386.733 36.4661 386.561 36.7201 386.278C36.974 385.996 37.108 385.626 37.0941 385.247L37.4976 386.154Z" fill="#02FFFC"/>
<path d="M35.6328 304.771C35.3082 304.798 35.004 304.941 34.7759 305.174C34.6019 305.439 34.4664 305.728 34.373 306.031C34.0202 306.736 33.2135 306.988 32.7096 307.593C32.3875 308.171 32.2188 308.821 32.2188 309.483C32.2188 310.144 32.3875 310.795 32.7096 311.372C32.7096 311.675 32.7101 312.027 33.214 312.078C33.4291 312.131 33.6541 312.131 33.8692 312.078C35.3809 311.473 36.2874 312.934 37.6984 312.783C38.3313 312.615 38.9205 312.312 39.4251 311.894C39.9296 311.477 40.3379 310.955 40.6215 310.364C40.8418 309.644 40.8726 308.879 40.7113 308.144C40.5501 307.408 40.202 306.726 39.7007 306.164C39.1993 305.602 38.5617 305.178 37.8491 304.934C37.1365 304.69 36.3734 304.634 35.6328 304.771Z" fill="#02FFFC"/>
<path d="M256.854 161.607C256.537 161.658 256.24 161.798 255.998 162.01C255.834 162.299 255.699 162.602 255.595 162.917C255.242 163.572 254.435 163.875 253.931 164.429C253.609 165.016 253.44 165.675 253.44 166.344C253.44 167.013 253.609 167.672 253.931 168.259C253.945 168.411 253.999 168.556 254.088 168.68C254.176 168.804 254.296 168.902 254.435 168.964C254.647 169.041 254.879 169.041 255.09 168.964C256.602 168.41 257.509 169.821 258.92 169.67C259.56 169.518 260.157 169.221 260.664 168.802C261.171 168.382 261.575 167.852 261.843 167.251C262.075 166.528 262.114 165.757 261.958 165.014C261.801 164.27 261.455 163.581 260.952 163.012C260.449 162.443 259.807 162.014 259.089 161.768C258.37 161.522 257.601 161.466 256.854 161.607Z" fill="#02FFFC"/>
<path d="M132.485 200.811C132.667 201.016 132.804 201.256 132.888 201.517C132.521 201.485 132.167 201.363 131.859 201.161C131.552 200.958 131.299 200.682 131.124 200.358C131.124 200.055 130.62 199.602 131.124 199.3C131.628 198.997 131.578 198.947 131.779 198.796C131.981 198.645 132.435 197.687 132.989 197.738C133.154 197.763 133.303 197.849 133.406 197.98C133.509 198.111 133.558 198.277 133.543 198.443C133.588 198.744 133.588 199.049 133.543 199.35L132.636 201.215L132.485 200.811Z" fill="#02FFFC"/>
<path d="M124.724 208.471C124.724 207.866 123.766 207.765 123.464 208.471C123.351 208.734 123.294 209.017 123.294 209.302C123.294 209.588 123.351 209.871 123.464 210.134C123.865 210.102 124.247 209.95 124.562 209.699C124.876 209.447 125.108 209.107 125.228 208.723L124.724 208.471Z" fill="#02FFFC"/>
<path d="M123.061 199.955C123.038 199.663 122.933 199.384 122.759 199.149C122.679 199.04 122.572 198.955 122.447 198.901C122.323 198.848 122.188 198.829 122.054 198.846C121.6 198.846 121.499 199.602 121.197 199.955C120.895 200.308 120.24 200.308 120.038 200.711C120.008 200.82 120.002 200.935 120.019 201.047C120.037 201.159 120.078 201.266 120.14 201.361C120.202 201.456 120.283 201.537 120.378 201.599C120.473 201.661 120.581 201.701 120.693 201.719C121.152 201.771 121.614 201.664 122.003 201.416C122.372 201.233 122.685 200.955 122.91 200.61C123.045 200.447 123.119 200.242 123.119 200.031C123.119 199.819 123.045 199.614 122.91 199.451L123.061 199.955Z" fill="#02FFFC"/>
<path d="M121.903 196.378C121.857 196.507 121.764 196.615 121.643 196.68C121.522 196.746 121.381 196.763 121.248 196.731C120.999 196.655 120.785 196.494 120.643 196.277C120.6 196.129 120.6 195.972 120.643 195.823C120.643 195.636 120.717 195.457 120.85 195.325C120.982 195.192 121.161 195.118 121.348 195.118C121.535 195.154 121.703 195.254 121.823 195.401C121.943 195.549 122.007 195.734 122.004 195.924C121.97 196.103 121.876 196.264 121.739 196.383C121.602 196.502 121.429 196.571 121.248 196.579L121.903 196.378Z" fill="#02FFFC"/>
<path d="M83.1542 203.432C83.1423 203.498 83.117 203.562 83.0798 203.619C83.0426 203.676 82.9942 203.724 82.9377 203.762C82.8812 203.8 82.818 203.825 82.7513 203.838C82.6846 203.85 82.6158 203.849 82.5495 203.835C82.4121 203.799 82.2838 203.736 82.1712 203.649C82.0587 203.563 81.9642 203.454 81.8944 203.331C81.8581 203.182 81.8581 203.026 81.8944 202.877C81.8657 202.773 81.8614 202.663 81.8821 202.556C81.9028 202.449 81.9479 202.349 82.0138 202.263C82.0796 202.176 82.1644 202.106 82.2617 202.058C82.359 202.01 82.4662 201.985 82.5748 201.985C82.6834 201.985 82.7906 202.01 82.8879 202.058C82.9852 202.106 83.0699 202.176 83.1358 202.263C83.2016 202.349 83.2467 202.449 83.2674 202.556C83.2881 202.663 83.2839 202.773 83.2551 202.877C83.2423 203.056 83.1628 203.222 83.0318 203.344C82.9009 203.465 82.7282 203.533 82.5495 203.532L83.1542 203.432Z" fill="#02FFFC"/>
<path d="M125.328 195.017C125.461 194.982 125.583 194.914 125.682 194.819C125.781 194.724 125.855 194.606 125.895 194.474C125.935 194.343 125.941 194.204 125.913 194.07C125.884 193.935 125.822 193.81 125.732 193.707C125.423 193.737 125.135 193.881 124.926 194.11C124.843 194.229 124.799 194.369 124.799 194.513C124.799 194.657 124.843 194.798 124.926 194.917C124.926 195.169 125.581 195.169 125.682 194.917L125.328 195.017Z" fill="#02FFFC"/>
<path d="M150.475 164.53C150.608 164.495 150.73 164.427 150.829 164.332C150.928 164.237 151.001 164.118 151.041 163.987C151.082 163.856 151.088 163.716 151.059 163.582C151.031 163.448 150.969 163.323 150.878 163.219C150.569 163.25 150.282 163.393 150.072 163.623C149.99 163.741 149.945 163.882 149.945 164.026C149.945 164.17 149.99 164.311 150.072 164.429C150.072 164.681 150.727 164.681 150.828 164.429L150.475 164.53Z" fill="#02FFFC"/>
<path d="M137.93 191.59C138.093 191.279 138.179 190.933 138.179 190.582C138.179 190.231 138.093 189.885 137.93 189.574L136.419 190.431C136.164 190.523 135.951 190.701 135.814 190.935C135.757 191.053 135.727 191.181 135.725 191.312C135.723 191.443 135.749 191.572 135.802 191.692C135.854 191.812 135.932 191.918 136.03 192.005C136.128 192.092 136.243 192.156 136.368 192.194C136.624 192.256 136.894 192.236 137.138 192.136C137.382 192.037 137.589 191.863 137.729 191.64L137.93 191.59Z" fill="#02FFFC"/>
<path d="M153.752 197.637L155.466 200.207C155.466 200.661 154.509 200.207 154.106 200.207C153.672 199.878 153.354 199.419 153.198 198.897C153.198 198.393 153.198 197.738 153.904 197.738L153.752 197.637Z" fill="#02FFFC"/>
<path d="M161.814 211.394C161.93 211.251 162.008 211.083 162.043 210.903C162.077 210.723 162.066 210.538 162.011 210.363C161.956 210.188 161.859 210.03 161.728 209.902C161.597 209.774 161.436 209.681 161.26 209.63C160.887 209.558 160.501 209.619 160.169 209.803C159.838 209.988 159.581 210.283 159.446 210.638C159.32 210.945 159.32 211.289 159.446 211.595C159.578 211.814 159.776 211.986 160.011 212.085C160.247 212.185 160.507 212.207 160.756 212.15C161.235 211.978 161.679 211.722 162.067 211.394H161.814Z" fill="#02FFFC"/>
<path d="M158.033 184.687C158.295 184.441 158.478 184.123 158.559 183.773C158.639 183.423 158.615 183.057 158.487 182.721C157.979 182.764 157.499 182.977 157.127 183.326C156.868 183.542 156.695 183.844 156.639 184.177C156.584 184.51 156.649 184.852 156.824 185.14C157.277 185.695 158.336 185.443 158.336 184.788L158.033 184.687Z" fill="#02FFFC"/>
<path d="M155.971 191.59C155.973 191.833 155.888 192.069 155.731 192.254C155.573 192.439 155.354 192.561 155.114 192.598L154.257 191.288C154.37 191.15 154.513 191.04 154.674 190.964C154.835 190.888 155.011 190.849 155.189 190.849C155.368 190.849 155.544 190.888 155.705 190.964C155.866 191.04 156.008 191.15 156.121 191.288L155.971 191.59Z" fill="#02FFFC"/>
<path d="M56.2455 318.629L54.7335 320.644C54.6447 320.719 54.5727 320.812 54.5207 320.916C54.4687 321.02 54.4382 321.133 54.4315 321.249C54.3614 321.479 54.3614 321.725 54.4315 321.955C54.7338 322.761 55.288 323.769 56.1446 323.718C57.0013 323.668 57.5051 322.509 57.9082 321.652C58.7145 320.04 62.9477 317.47 61.3352 315.353C59.7226 313.237 57.1526 317.47 56.2455 318.629Z" fill="#02FFFC"/>
<path d="M157.681 207.665L158.185 208.068C157.746 208.294 157.266 208.431 156.774 208.471C156.532 208.483 156.292 208.416 156.092 208.28C155.892 208.143 155.742 207.945 155.665 207.715C155.665 207.262 156.018 206.657 156.471 206.859C156.936 207.02 157.34 207.318 157.63 207.715L157.681 207.665Z" fill="#02FFFC"/>
<path d="M119.03 204.289C119.003 204.485 118.916 204.668 118.781 204.812C118.645 204.956 118.469 205.055 118.275 205.095C118.071 205.146 117.857 205.134 117.659 205.062C117.462 204.991 117.29 204.862 117.166 204.692C117.166 204.692 117.166 204.087 117.166 203.987H117.519H119.081L119.03 204.289Z" fill="#02FFFC"/>
<path d="M111.371 206.203C111.125 206.168 110.873 206.207 110.649 206.315C110.425 206.422 110.238 206.594 110.111 206.808C109.758 207.161 109.355 207.614 108.851 207.564C108.347 207.513 108.851 207.564 108.548 207.564C108.246 207.564 108.548 207.01 109.002 206.707C109.455 206.405 109.002 206.203 109.355 205.951C109.477 205.633 109.702 205.366 109.995 205.192C110.287 205.019 110.63 204.949 110.967 204.994C111.125 205.083 111.252 205.216 111.333 205.378C111.413 205.54 111.444 205.722 111.421 205.901C111.377 206.077 111.29 206.239 111.167 206.371C111.043 206.503 110.888 206.602 110.716 206.657L111.371 206.203Z" fill="#02FFFC"/>
<path d="M110.114 201.365V200.811C109.955 200.795 109.795 200.837 109.665 200.93C109.535 201.022 109.444 201.159 109.408 201.315C109.378 201.468 109.408 201.628 109.492 201.759C109.577 201.891 109.709 201.984 109.861 202.02C110.214 202.02 110.516 201.718 110.416 201.416L110.114 201.365Z" fill="#02FFFC"/>
<path d="M96.5557 200.107V199.552C96.3906 199.534 96.2241 199.574 96.0858 199.667C95.9475 199.759 95.8462 199.897 95.7997 200.056C95.7853 200.136 95.787 200.218 95.8047 200.296C95.8223 200.375 95.8561 200.45 95.9031 200.516C95.9501 200.581 96.0095 200.637 96.0784 200.679C96.1473 200.722 96.2236 200.75 96.3035 200.762C96.3791 200.763 96.4544 200.748 96.5231 200.717C96.5919 200.685 96.6525 200.639 96.7009 200.581C96.7493 200.523 96.784 200.454 96.8024 200.381C96.8209 200.308 96.8231 200.231 96.8079 200.157L96.5557 200.107Z" fill="#02FFFC"/>
<path d="M129.111 193.203C129.111 193.555 129.564 193.807 129.968 193.707C130.371 193.606 130.572 193.304 130.925 193.152C131.106 193.067 131.304 193.023 131.505 193.023C131.705 193.023 131.903 193.067 132.084 193.152C132.192 193.19 132.287 193.257 132.359 193.346C132.43 193.435 132.474 193.543 132.487 193.656C132.516 193.789 132.516 193.927 132.487 194.059C132.13 194.734 131.588 195.293 130.925 195.672C130.616 195.869 130.258 195.974 129.892 195.974C129.526 195.974 129.167 195.869 128.859 195.672C128.66 195.501 128.508 195.281 128.42 195.033C128.332 194.786 128.309 194.52 128.355 194.261C128.421 194.008 128.547 193.776 128.723 193.582C128.898 193.389 129.118 193.242 129.363 193.152L129.111 193.203Z" fill="#02FFFC"/>
<path d="M142.969 143.467C142.969 143.819 143.423 144.071 143.776 143.97C144.128 143.87 144.43 143.567 144.783 143.416C144.964 143.331 145.163 143.287 145.363 143.287C145.564 143.287 145.761 143.331 145.943 143.416C146.041 143.461 146.125 143.531 146.187 143.62C146.25 143.709 146.287 143.812 146.295 143.92C146.295 143.92 146.295 144.222 146.295 144.374C145.955 145.031 145.429 145.574 144.783 145.936C144.48 146.146 144.119 146.259 143.75 146.259C143.381 146.259 143.021 146.146 142.718 145.936C142.518 145.765 142.367 145.545 142.278 145.297C142.19 145.05 142.168 144.784 142.214 144.525C142.271 144.268 142.394 144.031 142.57 143.837C142.747 143.642 142.971 143.498 143.221 143.416L142.969 143.467Z" fill="#02FFFC"/>
<path d="M133.088 184.131C133.159 183.91 133.147 183.67 133.054 183.457C132.962 183.244 132.795 183.071 132.584 182.972C132.358 182.905 132.119 182.897 131.889 182.95C131.66 183.003 131.448 183.115 131.274 183.275C131.217 183.346 131.186 183.435 131.186 183.527C131.186 183.618 131.217 183.707 131.274 183.779C131.328 183.81 131.389 183.826 131.451 183.826C131.513 183.826 131.573 183.81 131.627 183.779L133.34 184.131H133.088Z" fill="#02FFFC"/>
<path d="M142.565 162.716C143.152 162.567 143.704 162.303 144.188 161.94C144.672 161.577 145.08 161.121 145.388 160.599C145.457 160.404 145.457 160.19 145.388 159.995C145.388 159.541 144.632 159.642 144.128 159.642C143.624 159.642 142.716 158.936 141.91 158.886C141.262 158.965 140.65 159.227 140.147 159.642C139.391 160.247 138.585 161.204 139.089 161.96C139.242 162.146 139.434 162.297 139.651 162.401C139.869 162.505 140.107 162.561 140.348 162.565C141.365 162.741 142.405 162.741 143.422 162.565L142.565 162.716Z" fill="#02FFFC"/>
<path d="M176.528 176.623C177.284 176.623 177.586 175.767 177.636 175.011C177.687 174.255 177.637 174.003 177.334 173.751C177.032 173.499 176.125 173.751 175.621 174.003L174.261 174.86C174.261 174.86 173.807 175.162 173.807 175.414C173.766 175.501 173.745 175.595 173.745 175.691C173.745 175.787 173.766 175.882 173.807 175.968C174.473 176.813 175.315 177.501 176.276 177.984L176.528 176.623Z" fill="#02FFFC"/>
<path d="M154.761 77.7047C161.11 79.4685 162.47 71.9096 157.582 69.138C152.694 66.3665 149.217 76.193 154.761 77.7047Z" fill="#02FFFC"/>
<path d="M132.84 209.983C132.689 210.163 132.5 210.308 132.287 210.407C132.073 210.507 131.841 210.558 131.606 210.558C131.37 210.558 131.138 210.507 130.925 210.407C130.711 210.308 130.522 210.163 130.371 209.983C130.778 209.343 131.379 208.849 132.085 208.572C132.79 208.572 133.748 208.572 133.798 209.479L133.092 210.537L132.84 209.983Z" fill="#02FFFC"/>
<path d="M10.3852 303.41L9.73005 302.553C8.77347 303.363 7.65753 303.964 6.45445 304.317C5.8508 304.447 5.26053 304.633 4.69085 304.871C4.39845 305.01 4.14684 305.222 3.9613 305.487C3.77576 305.752 3.66288 306.061 3.63281 306.383C3.63281 307.542 5.09366 308.147 6.25268 308.096C6.99249 308.078 7.71914 307.897 8.38105 307.566C9.04296 307.235 9.62393 306.762 10.0825 306.181C10.5245 305.583 10.7629 304.859 10.7629 304.115C10.7629 303.371 10.5245 302.647 10.0825 302.049L8.87316 302.855L10.3852 303.41Z" fill="#02FFFC"/>
<path d="M83.0022 0.503705C83.3045 0.100569 83.0016 -0.100981 82.4473 0.0501952C81.9115 0.219302 81.4152 0.493405 80.9864 0.856486L77.7612 3.07375C77.1565 3.47688 76.4509 3.98075 76.3501 4.43428C76.2493 4.8878 76.703 4.93823 77.207 4.78706C77.7979 4.60152 78.358 4.32982 78.8697 3.98077C80.6334 2.97293 82.7497 1.46117 83.1529 0.201365H82.1453L83.0022 0.503705Z" fill="#02FFFC"/>
<path d="M104.774 207.514C104.774 207.514 104.774 207.866 104.32 207.866C104.103 207.81 103.909 207.687 103.766 207.514C103.612 207.405 103.504 207.243 103.463 207.06C103.423 206.893 103.441 206.717 103.514 206.561C103.588 206.405 103.712 206.279 103.866 206.203C104.02 206.115 104.194 206.068 104.371 206.068C104.548 206.068 104.721 206.115 104.875 206.203C105.028 206.312 105.136 206.473 105.177 206.657V207.01L104.774 207.514Z" fill="#02FFFC"/>
<path d="M211.903 151.983C212.592 151.298 213.201 150.537 213.717 149.715C213.717 149.463 213.314 149.413 213.062 149.362C212.712 149.335 212.361 149.379 212.029 149.493C211.697 149.606 211.391 149.786 211.131 150.023C210.872 150.259 210.663 150.545 210.519 150.865C210.374 151.185 210.296 151.531 210.29 151.882C210.217 152.077 210.217 152.292 210.29 152.486C210.406 152.576 210.548 152.625 210.694 152.625C210.84 152.625 210.982 152.576 211.097 152.486C211.343 152.357 211.551 152.166 211.702 151.932L211.903 151.983Z" fill="#02FFFC"/>
<path d="M121.5 191.337V190.783C121.176 190.839 120.887 191.02 120.694 191.287C120.694 191.539 120.694 191.993 121.047 191.942H121.349L122.206 191.186L121.5 191.337Z" fill="#02FFFC"/>
<path d="M140.494 180.403C140.595 179.921 140.595 179.424 140.494 178.942C140.396 178.716 140.234 178.525 140.028 178.39C139.822 178.256 139.581 178.185 139.335 178.186C139.081 178.22 138.849 178.346 138.68 178.539C138.543 178.668 138.435 178.823 138.361 178.997C138.287 179.17 138.25 179.356 138.252 179.544C138.254 179.733 138.296 179.918 138.373 180.09C138.451 180.261 138.562 180.415 138.702 180.541C138.842 180.667 139.007 180.762 139.186 180.821C139.364 180.88 139.553 180.902 139.741 180.884C139.928 180.866 140.11 180.81 140.274 180.718C140.438 180.627 140.582 180.502 140.696 180.353L140.494 180.403Z" fill="#02FFFC"/>
<path d="M157.681 161.808C157.791 161.939 157.863 162.097 157.891 162.266C157.919 162.435 157.901 162.608 157.839 162.767C157.778 162.926 157.674 163.067 157.54 163.173C157.406 163.279 157.246 163.347 157.077 163.37C156.757 163.16 156.468 162.906 156.22 162.614C156.497 162.268 156.892 162.034 157.329 161.959L157.681 161.808Z" fill="#02FFFC"/>
<path d="M240.074 245.208C240.326 244.855 239.57 244.502 239.318 244.855C239.066 245.208 239.318 245.712 239.621 246.014C239.795 245.905 239.932 245.745 240.013 245.556C240.094 245.367 240.115 245.158 240.074 244.956V245.208Z" fill="#02FFFC"/>
<path d="M135.91 223.337L135.306 222.531C135.058 222.634 134.835 222.789 134.65 222.984C134.731 223.216 134.893 223.41 135.106 223.531C135.32 223.651 135.57 223.69 135.809 223.639L135.91 223.337Z" fill="#02FFFC"/>
<path d="M221.783 217.542L221.178 216.736C220.945 216.84 220.739 216.995 220.573 217.19C220.654 217.419 220.818 217.608 221.033 217.721C221.249 217.833 221.498 217.859 221.732 217.794L221.783 217.542Z" fill="#02FFFC"/>
<path d="M178.139 210.084C178.569 210.484 178.898 210.981 179.099 211.532C179.3 212.084 179.369 212.675 179.298 213.258C179.326 213.391 179.326 213.529 179.298 213.662C179.298 213.662 178.895 213.662 178.643 213.662C177.383 213.41 175.821 212.906 175.62 211.596C175.608 211.321 175.661 211.048 175.777 210.799C175.892 210.549 176.066 210.332 176.284 210.164C176.501 209.996 176.756 209.882 177.026 209.833C177.296 209.784 177.574 209.801 177.837 209.882L178.139 210.94V210.084Z" fill="#02FFFC"/>
<path d="M2.52434 335.308C2.97196 335.706 3.31283 336.21 3.51533 336.773C3.71782 337.337 3.77535 337.942 3.68326 338.533C3.73386 338.663 3.73386 338.807 3.68326 338.937C3.58106 338.986 3.46941 339.011 3.35601 339.011C3.24261 339.011 3.13095 338.986 3.02875 338.937C1.71856 338.685 0.155918 338.13 0.00474163 336.87C-0.0160698 336.592 0.0318693 336.312 0.143763 336.056C0.255656 335.801 0.428333 335.576 0.646944 335.402C0.865556 335.228 1.12347 335.11 1.39803 335.059C1.67259 335.007 1.95557 335.024 2.22231 335.107L2.4739 336.165L2.52434 335.308Z" fill="#02FFFC"/>
</svg>
