<svg width="204" height="74" viewBox="0 0 204 74" fill="none" xmlns="http://www.w3.org/2000/svg">
<g clip-path="url(#clip0_919_659)">
<path d="M62.7 31.013C62.7 25.0681 59.0507 21.0162 53.3035 21.0162H38.5605V52.2894H45.3305V40.8158H50.1858L55.6192 52.2894H63.1445L57.0459 40.0054C60.8288 38.5755 62.7 35.212 62.7 31.013ZM55.7093 31.9986C55.7093 34.0167 54.4659 35.093 52.4579 35.093H45.3305V26.9173H52.4549C54.4597 26.9173 55.7061 27.9936 55.7061 30.0117L55.7093 31.9986Z" fill="white"/>
<path d="M164.019 42.0699H163.885L160.901 35.7934L152.397 21H145.002V52.2919H151.371V31.2221H151.505L154.485 37.4986L162.993 52.2919H170.388V21H164.019V42.0699Z" fill="white"/>
<path d="M110.309 21.0063L103.539 21V21.0063V26.4224L109.961 47.8708V52.2919H116.734V46.8665L110.309 25.4211V21.0063Z" fill="white"/>
<path d="M129.529 21.0063L122.756 21V21.0063V26.4224L129.181 47.8708V52.2919H135.951V46.8665L129.529 25.4211V21.0063Z" fill="white"/>
<path d="M89.7822 21H78.4928L77.1716 25.4149L70.75 46.8635V52.289H77.5199V47.8678L83.7149 27.1796H84.5602L90.7551 47.8678V52.289H97.5283V46.8635L91.1034 25.4149L89.7822 21Z" fill="white"/>
<path d="M200.545 36.4661C199.004 34.9726 196.643 33.9713 193.465 33.4624L190.356 32.9711C189.02 32.7615 188.087 32.4549 187.559 32.0512C187.03 31.6476 186.757 30.9373 186.757 29.9205C186.757 28.0431 188.24 27.0544 191.208 27.0544H200.741V21H191.192C187.69 21.0626 184.945 21.9303 182.955 23.6032C180.966 25.2772 179.971 27.5456 179.971 30.3241C179.971 32.9555 180.742 35.0487 182.287 36.513C183.832 37.9773 186.219 38.9035 189.458 39.2915L192.529 39.6951C193.866 39.8724 194.798 40.2531 195.327 40.8372C195.871 41.4429 196.159 42.239 196.129 43.0555C196.149 43.5845 196.048 44.111 195.832 44.5938C195.617 45.0764 195.292 45.5022 194.885 45.8371C194.056 46.5213 192.839 46.8645 191.233 46.8665C188.174 46.8665 185.576 45.6566 183.437 43.237L179.029 47.7646C182.03 51.1417 185.934 52.8302 190.742 52.8302C193.266 52.8302 195.442 52.4035 197.269 51.5504C198.977 50.8031 200.426 49.5628 201.434 47.9867C202.401 46.3973 202.895 44.5622 202.858 42.6988C202.86 40.0393 202.089 37.9617 200.545 36.4661Z" fill="white"/>
<path d="M0.945312 21V26.4224H4.96129V52.289H21.4355C22.5416 52.2994 23.6363 52.0622 24.6402 51.5943C25.6075 51.1408 26.4719 50.4923 27.1798 49.6889C27.9085 48.8534 28.4748 47.8875 28.8489 46.8415C29.2534 45.7292 29.4566 44.5529 29.4487 43.3684C29.4487 39.2414 26.9963 36.8447 24.4754 35.953V35.7058C26.5984 34.9236 28.2427 32.7333 28.2427 29.0444C28.2427 26.6226 27.5228 24.6806 26.0826 23.2184C24.6423 21.7561 22.6301 21.0261 20.0461 21.0282L0.945312 21ZM11.7313 26.7415H18.4577C18.8406 26.707 19.2264 26.7575 19.5878 26.8895C19.9492 27.0215 20.2774 27.2317 20.5493 27.5054C20.8211 27.779 21.0299 28.1094 21.1611 28.4732C21.2922 28.8369 21.3424 29.2253 21.3081 29.6107V30.9561C21.3435 31.3418 21.2941 31.7306 21.1634 32.0949C21.0326 32.4592 20.8238 32.7901 20.5517 33.064C20.2796 33.3378 19.951 33.5481 19.589 33.6796C19.2272 33.8112 18.8409 33.8609 18.4577 33.8253H11.7313V26.7415ZM22.4209 43.7345C22.4433 44.1172 22.3858 44.5004 22.2519 44.8594C22.1181 45.2182 21.9108 45.5451 21.6437 45.8183C21.0614 46.334 20.3014 46.5989 19.527 46.5567H11.7313V39.3853H19.5301C20.3043 39.3447 21.0637 39.6096 21.6469 40.1238C21.914 40.3971 22.1211 40.7238 22.2551 41.0827C22.3888 41.4416 22.4465 41.8249 22.4241 42.2076L22.4209 43.7345Z" fill="white"/>
</g>
<defs>
<clipPath id="clip0_919_659">
<rect width="203" height="32" fill="white" transform="translate(0.0761719 21)"/>
</clipPath>
</defs>
</svg>
