<svg width="360" height="48" viewBox="0 0 360 48" fill="none" xmlns="http://www.w3.org/2000/svg">
<g clip-path="url(#clip0_436_5229)">
<path d="M143.613 18.3871C143.613 12.8138 140.198 9.01514 134.818 9.01514H121.02V38.3338H127.356V27.5773H131.9L136.986 38.3338H144.029L138.321 26.8175C141.862 25.477 143.613 22.3237 143.613 18.3871ZM137.07 19.3111C137.07 21.2031 135.906 22.2122 134.027 22.2122H127.356V14.5474H134.024C135.901 14.5474 137.067 15.5565 137.067 17.4485L137.07 19.3111Z" fill="white"/>
<path d="M238.444 28.7531H238.319L235.526 22.8688L227.566 9H220.645V38.3362H226.606V18.5832H226.731L229.521 24.4675L237.484 38.3362H244.405V9H238.444V28.7531Z" fill="white"/>
<path d="M188.174 9.00587L181.838 9V9.00587V14.0835L187.848 34.1914V38.3362H194.188V33.2498L188.174 13.1448V9.00587Z" fill="white"/>
<path d="M206.162 9.00587L199.822 9V9.00587V14.0835L205.836 34.1914V38.3362H212.172V33.2498L206.162 13.1448V9.00587Z" fill="white"/>
<path d="M168.962 9H158.395L157.159 13.1389L151.148 33.247V38.3334H157.485V34.1886L163.283 14.7933H164.074L169.872 34.1886V38.3334H176.212V33.247L170.198 13.1389L168.962 9Z" fill="white"/>
<path d="M272.63 23.4995C271.187 22.0993 268.978 21.1606 266.003 20.6835L263.094 20.2229C261.843 20.0264 260.97 19.7389 260.475 19.3605C259.981 18.9821 259.725 18.3163 259.725 17.3629C259.725 15.6029 261.113 14.676 263.891 14.676H272.814V9H263.876C260.599 9.05867 258.029 9.87218 256.167 11.4405C254.305 13.0099 253.374 15.1365 253.374 17.7413C253.374 20.2083 254.095 22.1707 255.541 23.5435C256.987 24.9163 259.221 25.7845 262.253 26.1483L265.127 26.5267C266.378 26.6929 267.251 27.0498 267.746 27.5973C268.256 28.1652 268.525 28.9116 268.496 29.677C268.516 30.173 268.421 30.6666 268.219 31.1192C268.017 31.5716 267.714 31.9708 267.333 32.2848C266.557 32.9262 265.417 33.248 263.914 33.2498C261.051 33.2498 258.619 32.1156 256.618 29.8472L252.492 34.0918C255.301 37.2578 258.955 38.8408 263.455 38.8408C265.817 38.8408 267.853 38.4408 269.564 37.641C271.162 36.9404 272.519 35.7776 273.462 34.3C274.367 32.81 274.83 31.0896 274.795 29.3426C274.797 26.8493 274.075 24.9016 272.63 23.4995Z" fill="white"/>
<path d="M85.8145 9V14.0835H89.5733V38.3334H104.992C106.028 38.3432 107.052 38.1208 107.992 37.6822C108.897 37.257 109.706 36.649 110.369 35.8958C111.051 35.1126 111.581 34.207 111.931 33.2264C112.31 32.1836 112.5 31.0808 112.493 29.9704C112.493 26.1013 110.197 23.8544 107.838 23.0184V22.7867C109.825 22.0533 111.364 20 111.364 16.5416C111.364 14.2712 110.69 12.4506 109.342 11.0797C107.994 9.70889 106.111 9.02444 103.692 9.0264L85.8145 9ZM95.9097 14.3827H102.205C102.564 14.3503 102.925 14.3977 103.263 14.5214C103.601 14.6451 103.909 14.8422 104.163 15.0988C104.417 15.3553 104.613 15.665 104.736 16.0061C104.858 16.3471 104.905 16.7112 104.873 17.0725V18.3339C104.906 18.6955 104.86 19.06 104.738 19.4015C104.615 19.743 104.42 20.0532 104.165 20.31C103.911 20.5667 103.603 20.7638 103.264 20.8872C102.926 21.0105 102.564 21.0571 102.205 21.0237H95.9097V14.3827ZM105.915 30.3136C105.936 30.6724 105.882 31.0316 105.757 31.3682C105.631 31.7046 105.437 32.011 105.187 32.2672C104.642 32.7506 103.931 32.999 103.206 32.9594H95.9097V26.2363H103.209C103.934 26.1982 104.644 26.4465 105.19 26.9285C105.44 27.1848 105.634 27.491 105.76 27.8275C105.885 28.164 105.939 28.5233 105.918 28.8821L105.915 30.3136Z" fill="white"/>
</g>
<defs>
<clipPath id="clip0_436_5229">
<rect width="190" height="30" fill="white" transform="translate(85 9)"/>
</clipPath>
</defs>
</svg>
