<svg width="208" height="253" viewBox="0 0 208 253" fill="none" xmlns="http://www.w3.org/2000/svg">
<path d="M70.2279 192.465C67.6932 188.649 64.3265 185.457 60.3808 183.13C59.7632 182.719 59.066 182.443 58.3347 182.32C57.6182 182.309 56.9105 182.479 56.2772 182.815C55.6439 183.15 55.1053 183.639 54.7113 184.238C53.6991 185.663 53.1377 187.36 53.0997 189.107C53.0617 190.855 53.5489 192.574 54.4982 194.042C55.482 195.481 56.7972 196.661 58.3328 197.485C59.8685 198.308 61.5798 198.75 63.3222 198.774C65.2586 198.911 67.1716 198.284 68.6507 197.026C69.3278 196.36 69.7625 195.486 69.8861 194.543C70.0097 193.601 69.8149 192.645 69.3326 191.826C69.1851 191.832 69.0416 191.876 68.9149 191.951C68.7881 192.027 68.682 192.133 68.606 192.259C68.5301 192.386 68.4867 192.529 68.4796 192.677C68.4725 192.824 68.5019 192.971 68.5653 193.105L70.2279 192.465Z" fill="#FFCC00"/>
<path d="M66.9874 212.543C66.1819 211.506 65.1248 210.691 63.9163 210.176C62.7079 209.661 61.3879 209.464 60.0817 209.602C59.5184 210.79 59.2513 212.097 59.3032 213.411C59.3552 214.725 59.7248 216.007 60.3801 217.147C60.7267 217.691 61.1771 218.16 61.7055 218.53C62.2339 218.899 62.8299 219.16 63.4595 219.299C64.089 219.437 64.7398 219.45 65.3744 219.337C66.009 219.224 66.6151 218.987 67.1579 218.639C67.6351 218.228 67.994 217.697 68.1976 217.102C68.4012 216.506 68.4421 215.867 68.3161 215.25C68.1901 214.633 67.9019 214.061 67.4809 213.592C67.06 213.124 66.5217 212.777 65.9217 212.586L66.9874 212.543Z" fill="#FFCC00"/>
<path d="M108.678 206.573C107.884 206.189 107.036 205.93 106.163 205.806H105.821C105.799 205.904 105.799 206.006 105.821 206.105C105.821 207 106.632 208.023 106.077 208.747C105.523 209.472 105.822 208.961 105.779 209.131C105.736 209.302 106.12 209.557 106.376 209.557C106.731 209.527 107.075 209.418 107.384 209.239C107.692 209.06 107.958 208.816 108.161 208.523C108.365 208.23 108.501 207.895 108.561 207.544C108.621 207.192 108.602 206.832 108.507 206.488L108.848 206.701L108.678 206.573Z" fill="#FFCC00"/>
<path d="M82.5025 149.198C80.9896 148.477 79.382 147.975 77.7281 147.706C77.5345 147.641 77.325 147.641 77.1314 147.706C77.0374 147.768 76.9581 147.849 76.8992 147.945C76.8402 148.041 76.8031 148.148 76.7903 148.26C76.4066 149.923 78.2823 151.883 77.2166 153.247C77.2166 153.461 76.7051 153.674 76.7051 153.972C76.7051 154.271 77.3019 154.739 77.8134 154.739C78.4802 154.682 79.1262 154.479 79.7056 154.144C80.285 153.809 80.7836 153.351 81.166 152.801C81.5484 152.252 81.8052 151.625 81.9183 150.966C82.0314 150.306 81.9981 149.63 81.8205 148.985L82.4599 149.368L82.5025 149.198Z" fill="#FFCC00"/>
<path d="M36.3822 188.968C35.9963 188.497 35.5072 188.122 34.9527 187.87C34.3983 187.619 33.7935 187.499 33.1851 187.519C33.0815 188.054 33.0815 188.604 33.1851 189.139C33.2616 189.404 33.4166 189.639 33.6297 189.814C33.8428 189.989 34.1039 190.095 34.3786 190.119C35.1033 190.119 35.6148 189.394 35.9559 188.712V189.309L36.3822 188.968Z" fill="#FFCC00"/>
<path d="M28.6204 192.678C28.301 192.579 27.9593 192.579 27.6399 192.678C27.2989 192.678 27.0858 193.019 26.83 193.232C26.2398 193.907 25.5829 194.521 24.8691 195.065L29.3451 195.278H29.7288C30.0698 195.491 30.0271 196.003 30.2403 196.386C30.4534 196.77 31.3485 196.855 31.9027 196.642C35.8245 195.065 30.1124 193.487 28.6204 192.678Z" fill="#FFCC00"/>
<path d="M28.1966 119.4C27.8938 119.245 27.556 119.172 27.2162 119.187C26.9025 119.298 26.6332 119.507 26.4488 119.784C25.8436 120.46 25.1725 121.074 24.4453 121.617L28.9639 121.83H29.3049C29.6886 121.83 29.6034 122.555 29.8591 122.938C30.1149 123.322 30.9248 123.407 31.479 123.194C35.5713 121.745 29.9017 120.168 28.1966 119.4Z" fill="#FFCC00"/>
<path d="M16.9826 165.95H15.6611C15.6211 166.39 15.7186 166.831 15.94 167.213C16.1615 167.594 16.496 167.898 16.8974 168.082C17.7499 168.337 18.8156 167.527 18.5172 166.675C18.2188 165.822 17.8778 165.439 18.5172 165.268L16.9826 165.95Z" fill="#FFCC00"/>
<path d="M59.3117 106.4C59.5113 106.627 59.6542 106.898 59.7288 107.192C59.8034 107.485 59.8077 107.791 59.7412 108.086C59.6746 108.382 59.5393 108.657 59.3461 108.89C59.1529 109.122 58.9075 109.306 58.6297 109.426C58.3355 109.497 58.0286 109.496 57.735 109.422C57.4415 109.349 57.1701 109.206 56.944 109.005C56.7178 108.804 56.5437 108.551 56.4364 108.268C56.329 107.985 56.2918 107.68 56.3277 107.38C56.397 107.087 56.5376 106.815 56.737 106.589C56.9364 106.363 57.1885 106.189 57.471 106.084C57.7534 105.978 58.0574 105.944 58.3562 105.984C58.655 106.025 58.9393 106.138 59.1839 106.314L59.3117 106.4Z" fill="#FFCC00"/>
<path d="M59.7387 158.789C60.7191 158.789 61.998 158.789 62.339 159.556C62.6801 160.323 61.6996 161.261 60.8897 161.73C60.0798 162.199 60.0797 162.156 59.7387 161.73C59.3977 161.304 60.0798 159.641 59.3125 159.002C59.3125 158.703 59.9092 158.746 59.9092 159.002L59.7387 158.789Z" fill="#FFCC00"/>
<path d="M47.9718 198.049C48.3458 198.012 48.7214 198.102 49.0375 198.305C48.6799 198.617 48.2564 198.844 47.7988 198.969C47.3412 199.095 46.8613 199.116 46.3946 199.03C45.8831 199.03 45.2436 199.03 45.0731 198.348C44.9025 197.666 45.0731 197.623 45.0731 197.239C45.0731 196.856 44.5615 195.62 45.0731 195.151C45.2343 195.015 45.4381 194.941 45.6486 194.941C45.8591 194.941 46.0629 195.015 46.2241 195.151C46.5283 195.45 46.7613 195.815 46.9061 196.216C47.2472 197.026 47.6308 197.879 47.9718 198.731V198.049Z" fill="#FFCC00"/>
<path d="M48.829 212.542C48.2322 212.031 47.337 212.884 47.5075 213.651C47.6472 214.003 47.86 214.323 48.1318 214.587C48.4037 214.852 48.7284 215.055 49.0848 215.185C49.3874 214.755 49.55 214.241 49.55 213.715C49.55 213.188 49.3874 212.675 49.0848 212.244L48.829 212.542Z" fill="#FFCC00"/>
<path d="M119.418 247.882C119.089 247.691 118.728 247.562 118.353 247.498C118.168 247.479 117.982 247.514 117.816 247.597C117.65 247.68 117.511 247.808 117.415 247.967C117.159 248.564 117.713 249.161 117.756 249.757C117.799 250.354 117.287 250.994 117.543 251.59C117.798 252.187 118.608 252.187 119.077 251.803C119.533 251.396 119.822 250.834 119.887 250.226C120.037 249.697 120.037 249.136 119.887 248.606C119.795 248.345 119.621 248.12 119.39 247.967C119.16 247.813 118.885 247.738 118.608 247.754L119.418 247.882Z" fill="#FFCC00"/>
<path d="M34.3776 204.955C34.4975 205.082 34.5643 205.25 34.5643 205.424C34.5643 205.599 34.4975 205.766 34.3776 205.893C34.2294 205.994 34.0628 206.065 33.8873 206.101C33.7117 206.138 33.5306 206.14 33.3544 206.106C33.1494 206.074 32.9575 205.986 32.8004 205.85C32.7097 205.77 32.6369 205.672 32.5872 205.562C32.5374 205.451 32.5117 205.332 32.5117 205.211C32.5117 205.09 32.5374 204.97 32.5872 204.86C32.6369 204.75 32.7097 204.651 32.8004 204.571C32.9761 204.397 33.2136 204.299 33.4611 204.299C33.7087 204.299 33.9462 204.397 34.1218 204.571C34.2781 204.756 34.3638 204.99 34.3638 205.232C34.3638 205.474 34.2781 205.708 34.1218 205.893L34.3776 204.955Z" fill="#FFCC00"/>
<path d="M8.0738 249.203C8.19662 249.336 8.26477 249.511 8.26477 249.693C8.26477 249.874 8.19662 250.049 8.0738 250.183C7.91315 250.256 7.73875 250.294 7.56228 250.294C7.38582 250.294 7.21142 250.256 7.05077 250.183C6.83855 250.157 6.63469 250.084 6.45392 249.97C6.27951 249.794 6.18164 249.557 6.18164 249.309C6.18164 249.062 6.27951 248.824 6.45392 248.648C6.63453 248.484 6.87018 248.392 7.11464 248.392C7.35911 248.392 7.59476 248.484 7.77537 248.648C7.93161 248.833 8.01747 249.067 8.01747 249.309C8.01747 249.551 7.93161 249.785 7.77537 249.97L8.0738 249.203Z" fill="#FFCC00"/>
<path d="M35.9965 200.394C36.0855 200.231 36.1305 200.049 36.1272 199.863C36.1238 199.678 36.0722 199.497 35.9776 199.338C35.8829 199.179 35.7484 199.047 35.5873 198.955C35.4261 198.864 35.244 198.816 35.0587 198.817C34.8371 199.158 34.7323 199.562 34.7603 199.968C34.7755 200.164 34.8547 200.349 34.9856 200.495C35.1166 200.642 35.292 200.741 35.4849 200.778C35.9112 200.778 36.2949 200.351 36.1244 200.01L35.9965 200.394Z" fill="#FFCC00"/>
<path d="M27.4726 149.283C27.5635 149.117 27.6086 148.931 27.6035 148.742C27.5984 148.553 27.5431 148.368 27.4434 148.208C27.3436 148.047 27.2028 147.916 27.0357 147.828C26.8685 147.74 26.681 147.698 26.4921 147.706C26.2897 148.055 26.1865 148.453 26.1937 148.857C26.211 149.059 26.2964 149.249 26.4358 149.396C26.5752 149.543 26.7603 149.639 26.961 149.667C27.3446 149.667 27.7283 149.241 27.5578 148.9L27.4726 149.283Z" fill="#FFCC00"/>
<path d="M43.4972 184.962C43.3279 184.529 43.0639 184.14 42.7246 183.823C42.3853 183.506 41.9793 183.269 41.5364 183.129L41.0675 185.346C40.9827 185.681 40.9827 186.033 41.0675 186.369C41.1287 186.529 41.2251 186.674 41.3497 186.793C41.4743 186.911 41.6239 187.001 41.7874 187.054C41.951 187.107 42.1244 187.123 42.2949 187.1C42.4654 187.077 42.6286 187.017 42.7726 186.923C43.0518 186.716 43.2649 186.433 43.386 186.108C43.5071 185.782 43.531 185.429 43.4547 185.09L43.4972 184.962Z" fill="#FFCC00"/>
<path d="M63.0634 174.519L67.1131 175.031C67.3263 175.67 66.3885 176.096 65.7065 176.139C65.0414 176.354 64.3254 176.354 63.6603 176.139C63.5031 176.067 63.3628 175.963 63.2483 175.834C63.1338 175.704 63.0476 175.553 62.9954 175.388C62.9432 175.223 62.926 175.049 62.945 174.878C62.9641 174.706 63.019 174.54 63.1061 174.391L63.0634 174.519Z" fill="#FFCC00"/>
<path d="M83.611 178.355C83.5717 178.118 83.474 177.894 83.3268 177.704C83.1795 177.514 82.9873 177.364 82.7674 177.267C82.5475 177.169 82.3069 177.128 82.0672 177.147C81.8275 177.166 81.5963 177.244 81.3944 177.375C81.0039 177.679 80.7368 178.114 80.6427 178.6C80.5487 179.086 80.6341 179.59 80.8829 180.018C80.96 180.217 81.0803 180.397 81.235 180.544C81.3898 180.692 81.5752 180.803 81.778 180.87C82.1055 180.934 82.445 180.89 82.745 180.744C83.045 180.598 83.2891 180.358 83.4405 180.06C83.6982 179.439 83.8287 178.772 83.8242 178.1L83.611 178.355Z" fill="#FFCC00"/>
<path d="M53.9418 159.087C53.9164 158.622 53.7528 158.174 53.4718 157.802C53.1909 157.43 52.8054 157.15 52.3646 156.999C51.9355 157.526 51.7222 158.196 51.7678 158.874C51.788 159.312 51.9544 159.731 52.2403 160.063C52.5262 160.395 52.915 160.622 53.345 160.707C54.2402 160.707 54.9223 159.471 54.2403 158.874L53.9418 159.087Z" fill="#FFCC00"/>
<path d="M59.0171 167.101C59.2495 167.312 59.4019 167.598 59.4485 167.908C59.4951 168.219 59.4331 168.536 59.2728 168.806L57.2267 168.55C57.1669 168.32 57.1618 168.078 57.2117 167.845C57.2616 167.612 57.3651 167.394 57.514 167.207C57.663 167.021 57.8533 166.872 58.0698 166.772C58.2863 166.673 58.523 166.625 58.7613 166.632L59.0171 167.101Z" fill="#FFCC00"/>
<path d="M76.2357 179.334H77.0455C76.9124 179.971 76.6355 180.569 76.2357 181.082C76.0332 181.325 75.759 181.497 75.4526 181.573C75.1462 181.65 74.8232 181.627 74.5305 181.509C73.9763 181.253 73.8058 180.272 74.5305 179.974C75.0859 179.65 75.7209 179.488 76.3636 179.505L76.2357 179.334Z" fill="#FFCC00"/>
<path d="M39.4931 214.333C39.638 214.554 39.7151 214.814 39.7151 215.079C39.7151 215.343 39.638 215.603 39.4931 215.825C39.3642 216.058 39.1716 216.25 38.9376 216.379C38.7036 216.507 38.4379 216.566 38.1716 216.549C37.8306 216.549 37.4043 216.251 37.4895 215.867C37.5499 215.737 37.6372 215.621 37.7454 215.526L39.1948 214.119L39.4078 214.418L39.4931 214.333Z" fill="#FFCC00"/>
<path d="M35.1015 223.839C34.5047 224.138 34.4621 224.948 34.59 225.587C34.7178 226.226 34.59 227.036 34.249 227.463C34.1691 227.501 34.0817 227.52 33.9932 227.52C33.9048 227.52 33.8174 227.501 33.7375 227.463C33.3112 227.463 33.3538 226.695 33.2685 226.226C33.1581 225.866 33.0005 225.522 32.7997 225.203C32.6215 224.799 32.5708 224.349 32.6546 223.915C32.7384 223.481 32.9525 223.083 33.2685 222.774C33.495 222.712 33.7344 222.716 33.9586 222.786C34.1828 222.855 34.3826 222.987 34.5347 223.166C34.6867 223.345 34.7846 223.563 34.8171 223.796C34.8495 224.028 34.8151 224.265 34.7178 224.479L35.1015 223.839Z" fill="#FFCC00"/>
<path d="M29.1735 220.897L28.4488 220.684C28.3167 220.839 28.2441 221.035 28.2441 221.239C28.2441 221.442 28.3167 221.638 28.4488 221.793C28.5989 221.934 28.7971 222.012 29.003 222.012C29.2088 222.012 29.407 221.934 29.5571 221.793C29.6371 221.729 29.7017 221.648 29.746 221.555C29.7904 221.463 29.8134 221.362 29.8134 221.26C29.8134 221.157 29.7904 221.056 29.746 220.964C29.7017 220.872 29.6371 220.791 29.5571 220.727L29.1735 220.897Z" fill="#FFCC00"/>
<path d="M16.2591 233.216L15.5343 232.961C15.413 233.128 15.3477 233.329 15.3477 233.536C15.3477 233.743 15.413 233.944 15.5343 234.111C15.6845 234.252 15.8826 234.331 16.0885 234.331C16.2944 234.331 16.4926 234.252 16.6427 234.111C16.7227 234.048 16.7872 233.967 16.8316 233.874C16.876 233.782 16.899 233.681 16.899 233.579C16.899 233.476 16.876 233.375 16.8316 233.283C16.7872 233.191 16.7227 233.11 16.6427 233.046L16.2591 233.216Z" fill="#FFCC00"/>
<path d="M37.4866 195.066C37.7849 195.407 38.467 195.066 38.6801 194.682C38.8933 194.299 38.6802 193.702 38.9785 193.233C39.0631 192.987 39.1977 192.762 39.3738 192.571C39.5499 192.381 39.7638 192.228 40.0017 192.125C40.1346 192.06 40.2803 192.027 40.4279 192.027C40.5755 192.027 40.7212 192.06 40.8542 192.125C40.9936 192.268 41.0961 192.444 41.1526 192.636C41.512 193.558 41.6007 194.564 41.4084 195.535C41.3179 196.015 41.0874 196.457 40.7461 196.806C40.4047 197.155 39.9677 197.395 39.4901 197.496C39.1482 197.55 38.7982 197.51 38.4771 197.381C38.1559 197.252 37.8755 197.039 37.6658 196.763C37.4561 196.488 37.3248 196.161 37.2857 195.817C37.2466 195.474 37.3014 195.125 37.444 194.81L37.4866 195.066Z" fill="#FFCC00"/>
<path d="M0.146372 138.369C0.487394 138.753 1.12681 138.369 1.33995 137.986C1.47852 137.509 1.59229 137.025 1.68091 136.536C1.7658 136.296 1.901 136.077 2.07742 135.893C2.25385 135.709 2.46753 135.565 2.70407 135.47C2.83025 135.386 2.97849 135.341 3.13024 135.341C3.28199 135.341 3.43037 135.386 3.55654 135.47C3.68348 135.617 3.77144 135.793 3.8123 135.982C4.18597 136.9 4.28953 137.906 4.11073 138.881C4.01206 139.364 3.77366 139.807 3.42502 140.156C3.07639 140.504 2.63295 140.743 2.14988 140.842C1.81083 140.876 1.46838 140.824 1.15509 140.69C0.841797 140.556 0.567973 140.344 0.359459 140.074C0.168857 139.797 0.0496889 139.477 0.0125093 139.142C-0.0246703 138.807 0.0213397 138.469 0.146372 138.156V138.369Z" fill="#FFCC00"/>
<path d="M31.6914 183.13C31.5308 182.861 31.2772 182.66 30.9787 182.566C30.6801 182.472 30.3574 182.49 30.0715 182.618C29.8067 182.776 29.5884 183.001 29.4387 183.271C29.2889 183.54 29.2132 183.844 29.2191 184.153C29.2191 184.451 29.2191 184.792 29.6027 184.835C29.9864 184.877 29.9437 184.835 30.1142 184.835L31.9045 183.428L31.6914 183.13Z" fill="#FFCC00"/>
<path d="M130.927 214.375C131.288 213.661 131.504 212.883 131.563 212.086C131.621 211.288 131.521 210.487 131.268 209.728C131.268 209.473 131.268 209.174 130.842 209.089C130.416 209.004 129.819 209.558 129.393 209.984C128.967 210.411 127.432 210.794 126.707 211.562C126.209 212.256 125.955 213.095 125.983 213.949C125.983 215.185 125.983 216.847 127.347 217.018C127.669 217.019 127.988 216.951 128.282 216.819C128.576 216.687 128.839 216.493 129.052 216.251C130.07 215.372 130.922 214.318 131.567 213.139L130.927 214.375Z" fill="#FFCC00"/>
<path d="M61.8715 133.852C62.5962 133.255 61.8716 132.062 61.2321 131.379C60.5927 130.697 60.2944 130.484 59.6976 130.57C59.1008 130.655 58.5892 131.721 58.4614 132.531L58.1629 134.619C58.098 134.76 58.0645 134.912 58.0645 135.067C58.0645 135.221 58.098 135.374 58.1629 135.514C58.2636 135.612 58.3849 135.685 58.5177 135.729C58.6505 135.774 58.7913 135.788 58.9302 135.77C60.391 135.843 61.8491 135.58 63.193 135.003L61.8715 133.852Z" fill="#FFCC00"/>
<path d="M77.0464 161.474C84.2505 156.7 77.9416 148.686 70.9507 151.286C63.9597 153.886 70.7801 165.609 77.0464 161.474Z" fill="#FFCC00"/>
<path d="M57.2667 205.851C57.34 206.153 57.3416 206.469 57.2715 206.773C57.2014 207.076 57.0615 207.359 56.8629 207.599C56.6643 207.839 56.4124 208.03 56.1273 208.155C55.8422 208.281 55.5317 208.338 55.2205 208.323C54.9421 207.391 54.9421 206.399 55.2205 205.467C55.3082 205.243 55.4413 205.039 55.6115 204.868C55.7816 204.698 55.9852 204.565 56.2093 204.477C56.4335 204.388 56.6734 204.348 56.914 204.357C57.1547 204.366 57.3908 204.424 57.6077 204.529L58.034 206.149L57.2667 205.851Z" fill="#FFCC00"/>
<path d="M86.8529 0.554182C86.8529 -0.0852348 86.2135 0.0852764 85.9151 0.554182C85.6752 1.25619 85.5317 1.98753 85.4888 2.72818C85.4888 4.43329 85.0626 6.09579 84.8921 7.8009C84.6662 8.65294 84.6662 9.54915 84.8921 10.4012C85.1905 10.8275 85.7019 10.4012 86.0003 9.84708C86.2942 9.10454 86.5086 8.33289 86.6397 7.54514C87.3805 5.08464 87.3805 2.4605 86.6397 0L86.0003 1.19364L86.8529 0.554182Z" fill="#FFCC00"/>
<path d="M30.6672 231.468C30.7662 231.572 30.8215 231.709 30.8215 231.852C30.8215 231.995 30.7662 232.133 30.6672 232.236C30.5556 232.33 30.4266 232.4 30.2876 232.444C30.1486 232.488 30.0024 232.504 29.8572 232.492C29.6318 232.533 29.4006 232.533 29.1752 232.492C28.9832 232.374 28.8314 232.201 28.74 231.996C28.6487 231.79 28.622 231.562 28.6637 231.341C28.725 231.114 28.8498 230.909 29.0235 230.75C29.1972 230.592 29.4124 230.486 29.644 230.445C29.745 230.402 29.8539 230.38 29.9638 230.38C30.0737 230.38 30.1826 230.402 30.2836 230.445C30.3209 230.481 30.3506 230.524 30.371 230.572C30.3913 230.62 30.4018 230.671 30.4018 230.723C30.4018 230.774 30.3913 230.826 30.371 230.873C30.3506 230.921 30.3209 230.964 30.2836 231L30.6672 231.468Z" fill="#FFCC00"/>
<path d="M29.0478 200.989L28.2805 200.776C28.1565 201.164 28.1565 201.581 28.2805 201.97C28.2805 202.353 29.0477 202.566 29.2609 202.225C29.3047 202.072 29.3047 201.91 29.2609 201.756V200.307L29.0478 200.989Z" fill="#FFCC00"/>
<path d="M34.5911 172.77C34.1055 172.339 33.541 172.006 32.9287 171.789C32.6203 171.684 32.2865 171.676 31.9735 171.767C31.6605 171.859 31.3837 172.045 31.181 172.301C30.9934 172.56 30.9029 172.877 30.9252 173.196C30.9789 173.682 31.2162 174.129 31.5885 174.446C31.9609 174.763 32.4404 174.926 32.9287 174.901C33.412 174.827 33.8472 174.568 34.1418 174.178C34.4364 173.787 34.5671 173.298 34.5059 172.812L34.5911 172.77Z" fill="#FFCC00"/>
<path d="M31.135 139.521C31.3634 139.532 31.585 139.602 31.778 139.725C31.9711 139.848 32.1291 140.018 32.2365 140.22C32.3439 140.422 32.397 140.648 32.3908 140.877C32.3845 141.106 32.319 141.329 32.2007 141.524C31.6948 141.631 31.1721 141.631 30.6662 141.524C30.5873 140.947 30.7075 140.361 31.0071 139.862L31.135 139.521Z" fill="#FFCC00"/>
<path d="M73.1703 214.29H71.8489C71.7639 214.611 71.7639 214.949 71.8489 215.271C72.1495 215.404 72.4901 215.417 72.7997 215.305C73.1093 215.194 73.3641 214.968 73.5113 214.674L73.1703 214.29Z" fill="#FFCC00"/>
<path d="M203.395 55.1602C204.185 55.041 204.992 55.1274 205.739 55.4112C206.486 55.6949 207.147 56.1664 207.658 56.78C207.733 56.8435 207.794 56.9216 207.838 57.0095C207.882 57.0975 207.908 57.1934 207.914 57.2916C207.914 57.59 207.658 57.8031 207.445 57.9736C206.081 59.0393 204.205 60.105 202.756 59.2098C202.459 58.991 202.221 58.7016 202.064 58.3677C201.907 58.0338 201.836 57.6661 201.857 57.2977C201.878 56.9294 201.991 56.5722 202.185 56.2585C202.379 55.9448 202.649 55.6845 202.969 55.5012L204.248 56.1407L203.395 55.1602Z" fill="#FFCC00"/>
</svg>
