<svg width="202" height="298" viewBox="0 0 202 298" fill="none" xmlns="http://www.w3.org/2000/svg">
<path d="M113.311 162.375C113.999 159.844 114.118 157.192 113.66 154.61C113.601 154.184 113.456 153.774 113.233 153.406C112.961 153.083 112.612 152.832 112.219 152.677C111.826 152.521 111.401 152.465 110.98 152.513C109.956 152.608 108.984 153.012 108.193 153.67C107.403 154.329 106.831 155.211 106.552 156.202C106.291 157.192 106.27 158.231 106.493 159.231C106.716 160.231 107.176 161.162 107.834 161.948C108.17 162.403 108.594 162.785 109.081 163.072C109.568 163.359 110.109 163.545 110.669 163.618C111.229 163.681 111.794 163.55 112.268 163.246C112.742 162.942 113.097 162.483 113.272 161.948C113.222 161.876 113.156 161.817 113.078 161.776C113 161.736 112.913 161.714 112.825 161.714C112.738 161.714 112.651 161.736 112.573 161.776C112.495 161.817 112.429 161.876 112.379 161.948L113.311 162.375Z" fill="#02FFFC"/>
<path d="M59.5908 228.575C60.3275 225.986 60.4471 223.26 59.9403 220.616C59.8806 220.19 59.7353 219.78 59.513 219.412C59.2426 219.086 58.8944 218.834 58.5007 218.678C58.107 218.521 57.6801 218.467 57.2598 218.519C56.2402 218.629 55.276 219.038 54.4882 219.695C53.7004 220.351 53.1244 221.225 52.8319 222.207C52.5656 223.2 52.5467 224.243 52.7769 225.245C53.0072 226.247 53.4794 227.177 54.1525 227.954C54.47 228.418 54.8845 228.808 55.3673 229.096C55.8502 229.384 56.3899 229.564 56.9492 229.623C57.51 229.695 58.078 229.567 58.5538 229.261C59.0296 228.956 59.3832 228.493 59.5519 227.954C59.5064 227.882 59.4431 227.822 59.3684 227.781C59.2937 227.74 59.21 227.718 59.1247 227.718C59.0393 227.718 58.9552 227.74 58.8805 227.781C58.8058 227.822 58.7425 227.882 58.697 227.954L59.5908 228.575Z" fill="#02FFFC"/>
<path d="M103.136 168.665C103.28 167.908 103.231 167.127 102.994 166.394C102.756 165.661 102.338 165 101.777 164.471C101.038 164.685 100.36 165.071 99.7992 165.597C99.2387 166.124 98.8111 166.776 98.5522 167.5C98.4394 167.862 98.4003 168.243 98.4374 168.62C98.4745 168.997 98.5873 169.363 98.7684 169.696C98.9495 170.029 99.1954 170.323 99.492 170.559C99.7885 170.795 100.129 170.97 100.494 171.072C102.009 171.383 103.563 169.48 102.709 168.199L103.136 168.665Z" fill="#02FFFC"/>
<path d="M98.7467 154.804C98.6038 154.3 98.3947 153.817 98.1251 153.367C97.6589 153.639 97.5811 154.493 97.0373 154.493H96.7656C96.7656 154.493 96.7656 154.804 96.7656 154.92C96.9166 155.063 97.0968 155.172 97.2939 155.239C97.4909 155.305 97.7001 155.328 97.907 155.306C98.1138 155.284 98.3136 155.217 98.4921 155.11C98.6706 155.004 98.8238 154.859 98.9411 154.688V154.92L98.7467 154.804Z" fill="#02FFFC"/>
<path d="M137.087 151.153C136.83 150.202 136.423 149.298 135.882 148.474C135.865 148.415 135.836 148.36 135.796 148.313C135.756 148.266 135.706 148.228 135.65 148.203C135.589 148.175 135.522 148.16 135.455 148.16C135.388 148.16 135.322 148.175 135.261 148.203C134.368 148.669 134.251 150.26 133.241 150.299C133.065 150.24 132.874 150.24 132.697 150.299C132.464 150.299 132.697 150.843 132.697 151.076C132.978 151.312 133.304 151.487 133.656 151.592C134.007 151.697 134.376 151.728 134.741 151.684C135.105 151.641 135.456 151.523 135.773 151.338C136.09 151.153 136.365 150.905 136.582 150.61V151.076L137.087 151.153Z" fill="#02FFFC"/>
<path d="M158.139 58.8229C157.868 57.8771 157.462 56.975 156.935 56.1439C156.888 56.0405 156.806 55.9575 156.702 55.9108C156.589 55.8692 156.465 55.8692 156.352 55.9108C155.459 56.4156 155.304 58.0076 154.294 58.0464C154.115 58.0063 153.929 58.0063 153.75 58.0464C153.517 58.2405 153.75 58.6288 153.75 58.8617C154.028 59.1031 154.354 59.2836 154.706 59.3915C155.059 59.4995 155.429 59.5326 155.795 59.4887C156.161 59.4448 156.514 59.3249 156.83 59.1366C157.147 58.9484 157.421 58.6961 157.634 58.3958V58.8617L158.139 58.8229Z" fill="#02FFFC"/>
<path d="M101.814 146.029C101.865 145.676 101.839 145.317 101.738 144.975C101.638 144.634 101.465 144.318 101.231 144.049C100.972 144.242 100.749 144.478 100.571 144.747C100.484 144.88 100.438 145.035 100.438 145.194C100.438 145.353 100.484 145.508 100.571 145.641C100.881 145.99 101.387 145.912 101.814 145.641L101.62 145.951L101.814 146.029Z" fill="#02FFFC"/>
<path d="M97.1152 143.932C97.0585 143.739 96.9514 143.564 96.8046 143.427C96.6282 143.368 96.4371 143.368 96.2607 143.427C95.7244 143.42 95.1903 143.355 94.668 143.233L96.3385 145.33C96.3385 145.563 96.3382 145.757 96.0663 145.99C95.7944 146.223 96.2994 146.65 96.6102 146.844C98.902 148.125 97.3871 144.98 97.1152 143.932Z" fill="#02FFFC"/>
<path d="M129.508 115.589C129.499 115.489 129.469 115.392 129.42 115.305C129.371 115.218 129.304 115.142 129.222 115.083C129.141 115.024 129.049 114.983 128.95 114.963C128.852 114.944 128.751 114.945 128.653 114.968C128.13 114.96 127.609 114.895 127.1 114.773L128.731 116.87C128.731 117.103 128.537 117.297 128.459 117.53C128.381 117.763 128.459 118.19 128.964 118.384C131.295 119.782 129.819 116.637 129.508 115.589Z" fill="#02FFFC"/>
<path d="M104.533 128.557L104.067 127.936C103.865 128.091 103.716 128.305 103.639 128.548C103.563 128.791 103.563 129.052 103.64 129.295C103.688 129.411 103.766 129.513 103.865 129.591C103.965 129.669 104.082 129.72 104.207 129.739C104.332 129.759 104.459 129.746 104.578 129.702C104.696 129.658 104.801 129.585 104.883 129.489C104.883 129.217 105.193 128.712 105.465 128.867L104.533 128.557Z" fill="#02FFFC"/>
<path d="M115.06 137.022C115.042 137.199 114.981 137.37 114.882 137.519C114.783 137.667 114.649 137.789 114.492 137.874C114.334 137.958 114.158 138.002 113.98 138.003C113.801 138.003 113.625 137.96 113.467 137.876C113.312 137.782 113.184 137.649 113.096 137.49C113.007 137.332 112.961 137.153 112.963 136.971C112.964 136.79 113.013 136.612 113.104 136.455C113.195 136.298 113.325 136.167 113.482 136.075C113.638 135.983 113.816 135.934 113.998 135.931C114.18 135.929 114.359 135.974 114.518 136.062C114.677 136.149 114.811 136.276 114.906 136.431C115.001 136.586 115.054 136.763 115.06 136.944V137.022Z" fill="#02FFFC"/>
<path d="M124.19 144.786C124.656 145.136 125.161 145.718 124.85 146.223C124.539 146.728 123.879 146.572 123.335 146.223C123.217 146.198 123.107 146.147 123.013 146.073C122.919 145.999 122.843 145.904 122.791 145.796C122.791 145.252 123.879 145.174 123.879 144.592C123.879 144.01 124.19 144.592 124.073 144.864L124.19 144.786Z" fill="#02FFFC"/>
<path d="M28.9034 297.533C28.8536 297.112 28.7087 296.709 28.4799 296.352C28.2512 295.996 27.9445 295.696 27.5828 295.475C27.3933 295.389 27.1867 295.347 26.9787 295.351C26.7707 295.355 26.5664 295.405 26.3803 295.498C26.1942 295.591 26.0313 295.724 25.9033 295.888C25.7753 296.052 25.6856 296.243 25.6406 296.446C25.5968 296.55 25.5742 296.662 25.5742 296.776C25.5742 296.889 25.5968 297.001 25.6406 297.106L25.9901 297.417C26.4107 297.808 26.9694 298.018 27.5439 297.999C27.8359 297.979 28.1083 297.846 28.304 297.629C28.4998 297.411 28.6031 297.126 28.5923 296.834L28.9034 297.533Z" fill="#02FFFC"/>
<path d="M27.4676 234.827C27.2174 234.848 26.9829 234.958 26.8071 235.138C26.673 235.342 26.5685 235.564 26.4965 235.798C26.2246 236.341 25.6028 236.535 25.2143 237.001C24.966 237.446 24.8359 237.948 24.8359 238.457C24.8359 238.967 24.966 239.468 25.2143 239.913C25.2143 240.146 25.2147 240.418 25.6031 240.457C25.769 240.498 25.9423 240.498 26.1081 240.457C27.2735 239.991 27.9722 241.117 29.0599 241C29.5477 240.871 30.0019 240.637 30.3909 240.315C30.7798 239.994 31.0945 239.592 31.3131 239.137C31.483 238.582 31.5066 237.992 31.3824 237.426C31.2581 236.859 30.9897 236.333 30.6033 235.9C30.2168 235.467 29.7253 235.141 29.176 234.953C28.6268 234.765 28.0385 234.722 27.4676 234.827Z" fill="#02FFFC"/>
<path d="M197.993 124.519C197.748 124.558 197.519 124.666 197.332 124.829C197.206 125.052 197.102 125.286 197.022 125.528C196.75 126.033 196.128 126.266 195.74 126.693C195.492 127.145 195.361 127.653 195.361 128.169C195.361 128.684 195.492 129.192 195.74 129.644C195.75 129.761 195.792 129.873 195.86 129.969C195.928 130.064 196.021 130.14 196.128 130.188C196.291 130.247 196.47 130.247 196.633 130.188C197.798 129.76 198.498 130.848 199.585 130.731C200.079 130.614 200.539 130.385 200.93 130.062C201.32 129.739 201.631 129.33 201.839 128.867C202.017 128.31 202.047 127.716 201.927 127.144C201.806 126.571 201.539 126.039 201.151 125.601C200.764 125.163 200.269 124.832 199.715 124.643C199.161 124.453 198.568 124.41 197.993 124.519Z" fill="#02FFFC"/>
<path d="M102.124 154.726C102.264 154.883 102.37 155.069 102.434 155.269C102.151 155.245 101.879 155.151 101.642 154.995C101.404 154.839 101.21 154.626 101.075 154.376C101.075 154.143 100.687 153.794 101.075 153.561C101.463 153.328 101.425 153.289 101.58 153.173C101.735 153.056 102.085 152.319 102.512 152.357C102.639 152.377 102.754 152.444 102.834 152.545C102.913 152.646 102.951 152.773 102.939 152.901C102.974 153.133 102.974 153.368 102.939 153.6L102.24 155.037L102.124 154.726Z" fill="#02FFFC"/>
<path d="M96.141 160.627C96.141 160.161 95.403 160.084 95.1699 160.627C95.0834 160.83 95.0391 161.048 95.0391 161.268C95.0391 161.488 95.0834 161.706 95.1699 161.909C95.4792 161.884 95.774 161.767 96.0163 161.573C96.2586 161.38 96.4378 161.118 96.5299 160.822L96.141 160.627Z" fill="#02FFFC"/>
<path d="M94.8601 154.066C94.8422 153.841 94.7612 153.626 94.6268 153.445C94.5652 153.361 94.4825 153.295 94.3869 153.254C94.2912 153.213 94.1866 153.199 94.0834 153.212C93.7338 153.212 93.6559 153.794 93.4229 154.066C93.1898 154.338 92.6849 154.338 92.5295 154.648C92.5066 154.733 92.5017 154.821 92.5153 154.907C92.5289 154.994 92.5606 155.076 92.6082 155.149C92.6559 155.223 92.7183 155.285 92.7918 155.333C92.8652 155.38 92.9481 155.411 93.0345 155.425C93.3879 155.465 93.7445 155.383 94.0445 155.192C94.3286 155.051 94.5697 154.836 94.7434 154.571C94.8477 154.445 94.9047 154.287 94.9047 154.124C94.9047 153.961 94.8477 153.803 94.7434 153.678L94.8601 154.066Z" fill="#02FFFC"/>
<path d="M93.9669 151.31C93.9314 151.409 93.8601 151.493 93.7668 151.543C93.6735 151.593 93.5648 151.607 93.4619 151.581C93.2704 151.523 93.1054 151.399 92.9958 151.232C92.9623 151.118 92.9623 150.997 92.9958 150.883C92.9958 150.738 93.0531 150.6 93.1551 150.498C93.2571 150.396 93.3954 150.339 93.5397 150.339C93.6836 150.366 93.8129 150.444 93.9053 150.557C93.9976 150.671 94.0473 150.814 94.0447 150.96C94.0186 151.098 93.9465 151.222 93.8408 151.314C93.735 151.405 93.6017 151.459 93.4619 151.465L93.9669 151.31Z" fill="#02FFFC"/>
<path d="M64.0995 156.745C64.0903 156.796 64.0708 156.845 64.0422 156.889C64.0135 156.933 63.9761 156.97 63.9326 156.999C63.8891 157.028 63.8404 157.048 63.7889 157.058C63.7375 157.068 63.6845 157.067 63.6334 157.055C63.5275 157.028 63.4286 156.979 63.3418 156.913C63.255 156.846 63.1822 156.762 63.1284 156.667C63.1004 156.552 63.1004 156.433 63.1284 156.318C63.1063 156.237 63.103 156.152 63.1189 156.07C63.1349 155.988 63.1697 155.911 63.2204 155.844C63.2712 155.778 63.3365 155.724 63.4115 155.687C63.4865 155.65 63.5692 155.63 63.6529 155.63C63.7366 155.63 63.8192 155.65 63.8942 155.687C63.9692 155.724 64.0346 155.778 64.0853 155.844C64.136 155.911 64.1708 155.988 64.1868 156.07C64.2027 156.152 64.1995 156.237 64.1773 156.318C64.1675 156.455 64.1061 156.584 64.0052 156.677C63.9042 156.771 63.7712 156.823 63.6334 156.823L64.0995 156.745Z" fill="#02FFFC"/>
<path d="M96.6075 150.261C96.7099 150.234 96.8037 150.182 96.8801 150.109C96.9565 150.036 97.0131 149.944 97.0442 149.843C97.0753 149.742 97.08 149.634 97.0579 149.531C97.0359 149.428 96.9881 149.331 96.9185 149.252C96.6801 149.275 96.4586 149.386 96.2969 149.562C96.2334 149.654 96.1992 149.762 96.1992 149.873C96.1992 149.984 96.2334 150.092 96.2969 150.184C96.2969 150.378 96.802 150.378 96.8797 150.184L96.6075 150.261Z" fill="#02FFFC"/>
<path d="M115.992 126.771C116.095 126.744 116.188 126.691 116.265 126.618C116.341 126.545 116.398 126.454 116.429 126.353C116.46 126.251 116.465 126.144 116.443 126.041C116.421 125.937 116.373 125.841 116.303 125.761C116.065 125.785 115.843 125.895 115.682 126.072C115.618 126.163 115.584 126.271 115.584 126.382C115.584 126.494 115.618 126.602 115.682 126.693C115.682 126.887 116.187 126.887 116.264 126.693L115.992 126.771Z" fill="#02FFFC"/>
<path d="M106.321 147.621C106.447 147.381 106.513 147.115 106.513 146.844C106.513 146.573 106.447 146.307 106.321 146.067L105.156 146.727C104.96 146.799 104.795 146.936 104.69 147.116C104.646 147.207 104.623 147.306 104.621 147.406C104.62 147.507 104.64 147.607 104.68 147.699C104.721 147.791 104.781 147.874 104.856 147.941C104.932 148.007 105.021 148.057 105.117 148.086C105.315 148.134 105.522 148.118 105.71 148.042C105.899 147.965 106.058 147.831 106.166 147.659L106.321 147.621Z" fill="#02FFFC"/>
<path d="M118.519 152.28L119.84 154.26C119.84 154.61 119.102 154.26 118.791 154.26C118.457 154.007 118.212 153.653 118.092 153.251C118.092 152.863 118.092 152.358 118.636 152.358L118.519 152.28Z" fill="#02FFFC"/>
<path d="M124.732 162.88C124.821 162.77 124.882 162.64 124.908 162.501C124.935 162.363 124.926 162.22 124.884 162.085C124.842 161.951 124.767 161.829 124.666 161.73C124.565 161.632 124.441 161.56 124.305 161.521C124.018 161.465 123.72 161.512 123.464 161.654C123.209 161.796 123.011 162.024 122.907 162.297C122.81 162.534 122.81 162.799 122.907 163.035C123.008 163.204 123.161 163.336 123.343 163.413C123.524 163.489 123.725 163.507 123.917 163.462C124.286 163.33 124.628 163.133 124.927 162.88H124.732Z" fill="#02FFFC"/>
<path d="M121.818 142.302C122.019 142.112 122.161 141.867 122.223 141.598C122.285 141.328 122.266 141.046 122.168 140.788C121.776 140.82 121.406 140.985 121.119 141.254C120.919 141.42 120.786 141.653 120.743 141.909C120.701 142.166 120.751 142.429 120.886 142.651C121.235 143.078 122.051 142.884 122.051 142.38L121.818 142.302Z" fill="#02FFFC"/>
<path d="M120.229 147.621C120.231 147.808 120.166 147.99 120.044 148.132C119.923 148.275 119.754 148.369 119.569 148.397L118.908 147.388C118.996 147.282 119.105 147.197 119.23 147.138C119.354 147.08 119.49 147.05 119.627 147.05C119.764 147.05 119.9 147.08 120.024 147.138C120.149 147.197 120.258 147.282 120.345 147.388L120.229 147.621Z" fill="#02FFFC"/>
<path d="M43.3568 245.504L42.1913 247.057C42.1229 247.115 42.0673 247.186 42.0273 247.266C41.9872 247.346 41.9637 247.434 41.9585 247.523C41.9045 247.7 41.9045 247.89 41.9585 248.067C42.1916 248.688 42.6187 249.465 43.2791 249.426C43.9394 249.387 44.3278 248.494 44.6385 247.834C45.26 246.591 48.5232 244.611 47.2801 242.981C46.0371 241.35 44.056 244.611 43.3568 245.504Z" fill="#02FFFC"/>
<path d="M121.546 160.006L121.934 160.317C121.596 160.492 121.226 160.597 120.847 160.628C120.66 160.637 120.476 160.586 120.321 160.48C120.167 160.375 120.051 160.222 119.992 160.045C119.992 159.696 120.264 159.23 120.614 159.385C120.972 159.509 121.283 159.74 121.507 160.045L121.546 160.006Z" fill="#02FFFC"/>
<path d="M91.7536 157.405C91.7326 157.556 91.6655 157.697 91.5611 157.808C91.4568 157.92 91.3208 157.996 91.1713 158.027C91.0141 158.065 90.8489 158.057 90.6967 158.001C90.5445 157.946 90.4119 157.847 90.3164 157.716C90.3164 157.716 90.3164 157.25 90.3164 157.172H90.5886H91.7925L91.7536 157.405Z" fill="#02FFFC"/>
<path d="M85.8494 158.88C85.6596 158.854 85.466 158.883 85.2932 158.966C85.1204 159.049 84.9761 159.181 84.8783 159.346C84.6064 159.618 84.2957 159.968 83.9072 159.929C83.5188 159.89 83.907 159.929 83.6739 159.929C83.4409 159.929 83.6738 159.502 84.0234 159.269C84.373 159.036 84.0236 158.88 84.2956 158.686C84.3894 158.441 84.5631 158.235 84.7887 158.101C85.0143 157.968 85.2783 157.914 85.5384 157.949C85.6596 158.017 85.7577 158.12 85.82 158.245C85.8823 158.369 85.9058 158.509 85.8878 158.647C85.8546 158.783 85.7872 158.908 85.692 159.01C85.5968 159.112 85.4773 159.187 85.3444 159.23L85.8494 158.88Z" fill="#02FFFC"/>
<path d="M84.8809 155.153V154.726C84.7585 154.713 84.6353 154.745 84.5352 154.817C84.4351 154.888 84.3647 154.994 84.337 155.114C84.3136 155.232 84.3368 155.355 84.402 155.456C84.4671 155.557 84.5692 155.63 84.6865 155.657C84.9584 155.657 85.1914 155.424 85.1137 155.191L84.8809 155.153Z" fill="#02FFFC"/>
<path d="M74.4281 154.183V153.756C74.3008 153.742 74.1724 153.773 74.0659 153.844C73.9593 153.915 73.8812 154.021 73.8454 154.144C73.8343 154.205 73.8355 154.268 73.8492 154.329C73.8628 154.39 73.8888 154.447 73.925 154.498C73.9612 154.549 74.0071 154.592 74.0602 154.624C74.1132 154.657 74.1721 154.678 74.2337 154.688C74.292 154.689 74.35 154.677 74.403 154.653C74.456 154.629 74.5027 154.593 74.54 154.548C74.5773 154.503 74.604 154.451 74.6183 154.394C74.6325 154.338 74.6342 154.279 74.6225 154.222L74.4281 154.183Z" fill="#02FFFC"/>
<path d="M99.5241 148.863C99.5241 149.135 99.8738 149.329 100.185 149.252C100.495 149.174 100.65 148.941 100.922 148.824C101.062 148.759 101.215 148.725 101.37 148.725C101.524 148.725 101.676 148.759 101.816 148.824C101.899 148.853 101.973 148.905 102.028 148.974C102.083 149.042 102.117 149.125 102.127 149.213C102.149 149.315 102.149 149.421 102.127 149.523C101.851 150.043 101.433 150.474 100.922 150.766C100.685 150.918 100.409 150.999 100.126 150.999C99.844 150.999 99.5678 150.918 99.3301 150.766C99.1764 150.634 99.0597 150.464 98.9916 150.274C98.9234 150.083 98.9064 149.878 98.9418 149.679C98.9925 149.484 99.0895 149.305 99.2249 149.156C99.3602 149.007 99.5295 148.893 99.7185 148.824L99.5241 148.863Z" fill="#02FFFC"/>
<path d="M110.206 110.541C110.206 110.813 110.555 111.007 110.827 110.93C111.099 110.852 111.332 110.619 111.604 110.503C111.744 110.437 111.897 110.403 112.051 110.403C112.206 110.403 112.358 110.437 112.498 110.503C112.574 110.537 112.639 110.591 112.687 110.66C112.734 110.728 112.763 110.808 112.77 110.891C112.77 110.891 112.77 111.124 112.77 111.24C112.507 111.747 112.102 112.166 111.604 112.444C111.37 112.606 111.092 112.693 110.808 112.693C110.523 112.693 110.246 112.606 110.012 112.444C109.858 112.312 109.741 112.143 109.673 111.952C109.605 111.761 109.588 111.556 109.623 111.357C109.667 111.159 109.762 110.977 109.898 110.827C110.035 110.677 110.208 110.565 110.4 110.503L110.206 110.541Z" fill="#02FFFC"/>
<path d="M102.59 141.874C102.644 141.703 102.635 141.519 102.564 141.354C102.492 141.19 102.364 141.057 102.201 140.981C102.027 140.929 101.843 140.923 101.665 140.964C101.488 141.005 101.325 141.091 101.191 141.214C101.147 141.269 101.123 141.337 101.123 141.408C101.123 141.479 101.147 141.547 101.191 141.602C101.233 141.626 101.28 141.639 101.327 141.639C101.375 141.639 101.422 141.626 101.463 141.602L102.784 141.874H102.59Z" fill="#02FFFC"/>
<path d="M109.895 125.373C110.347 125.258 110.772 125.055 111.146 124.775C111.519 124.495 111.833 124.144 112.07 123.742C112.124 123.591 112.124 123.427 112.07 123.276C112.07 122.927 111.488 123.005 111.099 123.005C110.711 123.005 110.011 122.461 109.39 122.422C108.89 122.483 108.419 122.685 108.03 123.005C107.448 123.471 106.826 124.208 107.215 124.791C107.333 124.934 107.481 125.05 107.649 125.13C107.816 125.211 108 125.254 108.186 125.257C108.97 125.392 109.771 125.392 110.555 125.257L109.895 125.373Z" fill="#02FFFC"/>
<path d="M136.075 136.089C136.658 136.089 136.89 135.429 136.929 134.847C136.968 134.264 136.93 134.07 136.696 133.876C136.463 133.682 135.764 133.876 135.376 134.07L134.327 134.73C134.327 134.73 133.977 134.963 133.977 135.157C133.946 135.224 133.93 135.297 133.93 135.371C133.93 135.445 133.946 135.517 133.977 135.584C134.49 136.235 135.14 136.765 135.88 137.137L136.075 136.089Z" fill="#02FFFC"/>
<path d="M119.295 59.8719C124.189 61.2308 125.237 55.4067 121.47 53.2712C117.702 51.1357 115.022 58.7071 119.295 59.8719Z" fill="#02FFFC"/>
<path d="M102.399 161.792C102.283 161.931 102.137 162.043 101.973 162.119C101.808 162.196 101.629 162.236 101.448 162.236C101.266 162.236 101.087 162.196 100.923 162.119C100.758 162.043 100.613 161.931 100.496 161.792C100.81 161.299 101.273 160.919 101.817 160.705C102.361 160.705 103.099 160.705 103.138 161.404L102.594 162.22L102.399 161.792Z" fill="#02FFFC"/>
<path d="M8.00577 233.778L7.50078 233.118C6.76341 233.743 5.90319 234.206 4.97581 234.477C4.51049 234.578 4.05549 234.721 3.61636 234.904C3.39097 235.011 3.19701 235.175 3.05399 235.379C2.91097 235.583 2.82395 235.821 2.80078 236.069C2.80078 236.962 3.92686 237.428 4.82028 237.389C5.39055 237.375 5.95069 237.236 6.46092 236.981C6.97114 236.726 7.41897 236.361 7.77248 235.914C8.11313 235.453 8.29691 234.895 8.29691 234.322C8.29691 233.749 8.11313 233.191 7.77248 232.73L6.84025 233.351L8.00577 233.778Z" fill="#02FFFC"/>
<path d="M63.9804 0.388106C64.2135 0.0774886 63.98 -0.077806 63.5527 0.0386756C63.1397 0.168973 62.7571 0.38017 62.4265 0.659925L59.9404 2.36833C59.4743 2.67895 58.9304 3.06718 58.8527 3.41662C58.775 3.76607 59.1248 3.80492 59.5132 3.68844C59.9687 3.54549 60.4005 3.33614 60.7949 3.06719C62.1545 2.29065 63.7858 1.12583 64.0966 0.155152H63.3199L63.9804 0.388106Z" fill="#02FFFC"/>
<path d="M80.7645 159.89C80.7645 159.89 80.7646 160.162 80.415 160.162C80.2474 160.119 80.0978 160.024 79.9878 159.89C79.8693 159.806 79.786 159.682 79.7545 159.54C79.7234 159.411 79.7374 159.276 79.7939 159.156C79.8504 159.036 79.9458 158.939 80.0651 158.88C80.1832 158.812 80.3175 158.776 80.4539 158.776C80.5903 158.776 80.7242 158.812 80.8423 158.88C80.9607 158.964 81.0436 159.088 81.0751 159.23V159.502L80.7645 159.89Z" fill="#02FFFC"/>
<path d="M163.342 117.103C163.873 116.575 164.342 115.989 164.741 115.356C164.741 115.162 164.43 115.123 164.236 115.084C163.966 115.063 163.695 115.097 163.439 115.184C163.183 115.272 162.947 115.411 162.747 115.593C162.547 115.775 162.387 115.996 162.275 116.242C162.164 116.488 162.104 116.755 162.099 117.025C162.042 117.176 162.042 117.341 162.099 117.491C162.188 117.561 162.298 117.598 162.41 117.598C162.523 117.598 162.632 117.561 162.721 117.491C162.91 117.391 163.071 117.244 163.187 117.064L163.342 117.103Z" fill="#02FFFC"/>
<path d="M93.6583 147.426V146.999C93.4083 147.042 93.1856 147.182 93.0371 147.387C93.0371 147.581 93.0369 147.931 93.3088 147.892H93.5421L94.2022 147.31L93.6583 147.426Z" fill="#02FFFC"/>
<path d="M108.299 139.001C108.376 138.63 108.376 138.246 108.299 137.875C108.223 137.701 108.098 137.554 107.939 137.45C107.781 137.347 107.595 137.292 107.405 137.293C107.21 137.319 107.03 137.416 106.9 137.565C106.795 137.664 106.711 137.784 106.654 137.917C106.598 138.051 106.569 138.195 106.57 138.34C106.572 138.485 106.604 138.628 106.664 138.76C106.724 138.892 106.81 139.01 106.917 139.107C107.025 139.204 107.152 139.278 107.29 139.323C107.428 139.369 107.573 139.385 107.718 139.372C107.862 139.358 108.002 139.315 108.129 139.244C108.256 139.174 108.366 139.078 108.454 138.962L108.299 139.001Z" fill="#02FFFC"/>
<path d="M121.547 124.674C121.631 124.775 121.687 124.897 121.708 125.027C121.73 125.157 121.716 125.29 121.668 125.413C121.621 125.535 121.541 125.643 121.437 125.725C121.334 125.807 121.211 125.859 121.08 125.877C120.834 125.715 120.611 125.519 120.42 125.295C120.633 125.028 120.938 124.848 121.275 124.79L121.547 124.674Z" fill="#02FFFC"/>
<path d="M185.059 188.933C185.253 188.662 184.67 188.39 184.476 188.662C184.282 188.933 184.476 189.322 184.709 189.555C184.844 189.471 184.949 189.348 185.012 189.202C185.074 189.056 185.091 188.895 185.059 188.739V188.933Z" fill="#02FFFC"/>
<path d="M104.764 172.082L104.298 171.461C104.107 171.54 103.935 171.66 103.793 171.81C103.855 171.988 103.98 172.138 104.144 172.231C104.309 172.324 104.501 172.354 104.686 172.315L104.764 172.082Z" fill="#02FFFC"/>
<path d="M170.96 167.617L170.493 166.996C170.314 167.076 170.155 167.196 170.027 167.345C170.089 167.522 170.216 167.668 170.382 167.754C170.548 167.841 170.74 167.861 170.921 167.811L170.96 167.617Z" fill="#02FFFC"/>
<path d="M137.317 161.87C137.648 162.179 137.901 162.561 138.056 162.986C138.212 163.411 138.264 163.867 138.21 164.316C138.231 164.419 138.231 164.525 138.21 164.627C138.21 164.627 137.899 164.627 137.705 164.627C136.734 164.433 135.53 164.045 135.374 163.035C135.365 162.824 135.406 162.613 135.495 162.421C135.584 162.229 135.718 162.061 135.886 161.932C136.054 161.802 136.25 161.715 136.458 161.677C136.667 161.64 136.881 161.653 137.083 161.715L137.317 162.53V161.87Z" fill="#02FFFC"/>
<path d="M1.94586 258.356C2.2909 258.663 2.55367 259.051 2.70976 259.485C2.86585 259.919 2.9102 260.385 2.8392 260.841C2.87821 260.941 2.87821 261.052 2.8392 261.152C2.76042 261.19 2.67436 261.209 2.58695 261.209C2.49953 261.209 2.41347 261.19 2.33469 261.152C1.32474 260.958 0.120188 260.53 0.00365504 259.56C-0.0123873 259.345 0.0245661 259.13 0.110818 258.933C0.19707 258.735 0.330176 258.562 0.498691 258.428C0.667206 258.294 0.866013 258.204 1.07766 258.164C1.2893 258.124 1.50743 258.137 1.71305 258.201L1.90698 259.016L1.94586 258.356Z" fill="#02FFFC"/>
</svg>
