<svg width="300" height="90" viewBox="0 0 300 90" fill="none" xmlns="http://www.w3.org/2000/svg">
<g clip-path="url(#clip0_689_1630)">
<path d="M0 34.706H9.70187V30.934C9.70187 26.3413 12.7583 24 17.9575 24H32.8598V29.3126H21.12C19.8866 29.3126 19.3512 29.8531 19.3512 30.7994V34.706H32.6983V40.604H19.3512V63.7482H9.70187V40.604H0V34.706Z" fill="white"/>
<path d="M79.3019 47.4037V47.6739C79.3019 57.8046 72.5476 63.9738 56.4666 63.9738C40.3858 63.9738 33.5781 57.8046 33.5781 47.6739V47.4037C33.5781 37.2727 40.3858 31.1038 56.4666 31.1038C72.5476 31.1038 79.3019 37.2727 79.3019 47.4037ZM69.6535 47.629V47.4485C69.6535 40.695 65.5796 38.3536 56.4666 38.3536C47.3538 38.3536 43.28 40.695 43.28 47.4485V47.629C43.28 54.3826 47.3538 56.7246 56.4666 56.7246C65.5796 56.7246 69.6535 54.3826 69.6535 47.629Z" fill="white"/>
<path d="M114.577 53.4374C114.577 58.751 110.717 63.9739 99.139 63.9739C88.0961 63.9739 81.5566 59.5158 81.5566 50.9155V31.329H91.2048V49.9254C91.2048 54.1581 94.3684 56.9494 102.73 56.9494C108.359 56.9494 114.577 56.0938 114.577 51.9516V31.329H124.225V63.7485H114.577V53.4374Z" fill="white"/>
<path d="M137.451 41.6402C137.451 36.3266 141.31 31.1037 152.889 31.1037C163.985 31.1037 170.471 35.5617 170.471 44.162V63.7483H160.822V45.1522C160.822 40.9193 157.66 38.1282 149.298 38.1282C143.562 38.1282 137.451 39.1184 137.451 43.126V63.7483H127.803V31.329H137.451V41.6402Z" fill="white"/>
<path d="M209.116 24.0698H218.711V63.7482H209.116V54.6535C209.116 58.7955 205.042 63.9735 192.982 63.9735C178.723 63.9735 172.934 57.4443 172.934 47.6288V47.4483C172.934 37.6327 178.723 31.1035 192.982 31.1035C205.042 31.1035 209.116 36.2816 209.116 40.4245V24.0698ZM196.037 37.9029C187.031 37.9029 182.582 40.2889 182.582 47.4483V47.6288C182.582 54.7881 187.031 57.1744 196.037 57.1744C202.898 57.1744 209.116 56.3644 209.116 53.1219V41.9552C209.116 38.7136 202.898 37.9029 196.037 37.9029Z" fill="white"/>
<path d="M246.839 31.1038C248.179 31.1038 248.822 31.1487 249.681 31.3292V39.3439C243.14 38.0827 231.99 38.3529 231.99 43.4861V63.7484H222.342V31.3292H231.99V42.0003C231.99 36.4174 235.85 31.1038 246.839 31.1038Z" fill="white"/>
<path d="M256.96 66V59.1557H262.696C268.592 59.1557 271.379 58.0751 273.953 55.1933H268.699L250.742 31.3292H261.731L276.579 51.2764L289.015 31.3292H299.468L283.976 55.1933C278.402 63.9738 274.113 66 256.96 66Z" fill="white"/>
</g>
<defs>
<clipPath id="clip0_689_1630">
<rect width="300" height="42" fill="white" transform="translate(0 24)"/>
</clipPath>
</defs>
</svg>
