<svg width="267" height="70" viewBox="0 0 267 70" fill="none" xmlns="http://www.w3.org/2000/svg">
<g clip-path="url(#clip0_689_1630)">
<path d="M43.5 27.6471H49.3211V24.9528C49.3211 21.6723 51.155 19.9999 54.2745 19.9999H63.2159V23.7947H56.172C55.4319 23.7947 55.1107 24.1807 55.1107 24.8566V27.6471H63.119V31.8599H55.1107V48.3915H49.3211V31.8599H43.5V27.6471Z" fill="white"/>
<path d="M91.0807 36.7168V36.9099C91.0807 44.1461 87.0282 48.5526 77.3796 48.5526C67.7311 48.5526 63.6465 44.1461 63.6465 36.9099V36.7168C63.6465 29.4805 67.7311 25.0741 77.3796 25.0741C87.0282 25.0741 91.0807 29.4805 91.0807 36.7168ZM85.2917 36.8778V36.7489C85.2917 31.9249 82.8474 30.2525 77.3796 30.2525C71.9119 30.2525 69.4676 31.9249 69.4676 36.7489V36.8778C69.4676 41.7018 71.9119 43.3747 77.3796 43.3747C82.8474 43.3747 85.2917 41.7018 85.2917 36.8778Z" fill="white"/>
<path d="M112.246 41.0267C112.246 44.8221 109.93 48.5527 102.983 48.5527C96.3573 48.5527 92.4336 45.3684 92.4336 39.2254V25.235H98.2225V38.5181C98.2225 41.5414 100.121 43.5352 105.138 43.5352C108.515 43.5352 112.246 42.9241 112.246 39.9654V25.235H118.035V48.3918H112.246V41.0267Z" fill="white"/>
<path d="M125.971 32.6001C125.971 28.8047 128.286 25.074 135.233 25.074C141.891 25.074 145.783 28.2583 145.783 34.4014V48.3916H139.993V35.1087C139.993 32.0851 138.096 30.0915 133.079 30.0915C129.637 30.0915 125.971 30.7988 125.971 33.6614V48.3916H120.182V25.235H125.971V32.6001Z" fill="white"/>
<path d="M168.969 20.0499H174.726V48.3915H168.969V41.8954C168.969 44.8539 166.525 48.5525 159.289 48.5525C150.733 48.5525 147.26 43.8888 147.26 36.8777V36.7488C147.26 29.7376 150.733 25.0739 159.289 25.0739C166.525 25.0739 168.969 28.7725 168.969 31.7318V20.0499ZM161.122 29.9307C155.718 29.9307 153.049 31.6349 153.049 36.7488V36.8777C153.049 41.9915 155.718 43.696 161.122 43.696C165.239 43.696 168.969 43.1174 168.969 40.8013V32.8251C168.969 30.5097 165.239 29.9307 161.122 29.9307Z" fill="white"/>
<path d="M191.603 25.0741C192.407 25.0741 192.793 25.1062 193.308 25.2351V30.9599C189.383 30.0591 182.693 30.2521 182.693 33.9186V48.3917H176.904V25.2351H182.693V32.8574C182.693 28.8696 185.009 25.0741 191.603 25.0741Z" fill="white"/>
<path d="M197.676 50V45.1112H201.117C204.655 45.1112 206.327 44.3393 207.872 42.2809H204.719L193.945 25.2351H200.539L209.448 39.4831L216.909 25.2351H223.181L213.886 42.2809C210.541 48.5527 207.968 50 197.676 50Z" fill="white"/>
</g>
<defs>
<clipPath id="clip0_689_1630">
<rect width="180" height="30" fill="white" transform="translate(43.5 20)"/>
</clipPath>
</defs>
</svg>
