<svg width="217" height="74" viewBox="0 0 217 74" fill="none" xmlns="http://www.w3.org/2000/svg">
<g clip-path="url(#clip0_919_615)">
<path d="M1 28.1766H7.98535V24.9434C7.98535 21.0068 10.186 18.9999 13.9294 18.9999H24.659V23.5536H16.2064C15.3183 23.5536 14.9329 24.0169 14.9329 24.828V28.1766H24.5428V33.232H14.9329V53.0698H7.98535V33.232H1V28.1766Z" fill="#88E1A1"/>
<path d="M58.0969 39.0602V39.2919C58.0969 47.9753 53.2338 53.2632 41.6555 53.2632C30.0773 53.2632 25.1758 47.9753 25.1758 39.2919V39.0602C25.1758 30.3766 30.0773 25.0889 41.6555 25.0889C53.2338 25.0889 58.0969 30.3766 58.0969 39.0602ZM51.15 39.2534V39.0987C51.15 33.31 48.2169 31.3031 41.6555 31.3031C35.0943 31.3031 32.1611 33.31 32.1611 39.0987V39.2534C32.1611 45.0422 35.0943 47.0496 41.6555 47.0496C48.2169 47.0496 51.15 45.0422 51.15 39.2534" fill="#88E1A1"/>
<path d="M83.4951 44.232C83.4951 48.7865 80.7165 53.2633 72.38 53.2633C64.4291 53.2633 59.7207 49.4421 59.7207 42.0705V25.282H66.6674V41.2217C66.6674 44.8497 68.9452 47.2423 74.9655 47.2423C79.0184 47.2423 83.4951 46.509 83.4951 42.9585V25.282H90.442V53.0701H83.4951V44.232Z" fill="#88E1A1"/>
<path d="M99.9645 34.1201C99.9645 29.5656 102.743 25.0889 111.08 25.0889C119.069 25.0889 123.739 28.91 123.739 36.2817V53.0699H116.791V37.1304C116.791 33.5022 114.515 31.1099 108.494 31.1099C104.364 31.1099 99.9645 31.9586 99.9645 35.3937V53.0699H93.0176V25.282H99.9645V34.1201Z" fill="#88E1A1"/>
<path d="M151.563 19.0598H158.472V53.0698H151.563V45.2744C151.563 48.8246 148.63 53.2629 139.946 53.2629C129.68 53.2629 125.512 47.6665 125.512 39.2532V39.0985C125.512 30.6851 129.68 25.0887 139.946 25.0887C148.63 25.0887 151.563 29.527 151.563 33.0781V19.0598ZM142.146 30.9167C135.662 30.9167 132.459 32.9619 132.459 39.0985V39.2532C132.459 45.3898 135.662 47.4351 142.146 47.4351C147.086 47.4351 151.563 46.7408 151.563 43.9616V34.3901C151.563 31.6116 147.086 30.9167 142.146 30.9167" fill="#88E1A1"/>
<path d="M178.722 25.089C179.687 25.089 180.15 25.1274 180.768 25.2821V32.1519C176.059 31.0709 168.031 31.3025 168.031 35.7023V53.0701H161.084V25.2821H168.031V34.4288C168.031 29.6435 170.81 25.089 178.722 25.089Z" fill="#88E1A1"/>
<path d="M186.01 55V49.1335H190.14C194.385 49.1335 196.392 48.2072 198.245 45.7371H194.462L181.533 25.2821H189.445L200.136 42.3798L209.09 25.2821H216.616L205.461 45.7371C201.448 53.2632 198.36 55 186.01 55Z" fill="#88E1A1"/>
</g>
<defs>
<clipPath id="clip0_919_615">
<rect width="216" height="36" fill="white" transform="translate(1 19)"/>
</clipPath>
</defs>
</svg>
