<svg width="300" height="90" viewBox="0 0 300 90" fill="none" xmlns="http://www.w3.org/2000/svg">
<g clip-path="url(#clip0_689_1659)">
<path d="M48.6782 13.3346H112.319V77.7273C120.462 69.4874 125.5 58.1052 125.5 45.5318C125.5 20.3841 105.351 0 80.5012 0C55.651 0 35.5 20.385 35.5 45.5318C35.5 58.1048 40.5376 69.4853 48.6804 77.7244L48.6782 13.3346Z" fill="white"/>
<path d="M47.7715 77.7273V90H113.226V77.7273H47.7715Z" fill="white"/>
</g>
<path d="M162.094 45.9849C162.094 47.9564 162.436 49.4407 163.12 50.438C163.816 51.4238 164.802 51.9108 166.078 51.8992C167.376 51.8992 168.368 51.4354 169.052 50.5076C169.736 49.5799 170.084 48.1941 170.096 46.3502C170.119 44.46 169.789 42.9988 169.104 41.9667C168.432 40.9346 167.458 40.4127 166.182 40.4011C164.837 40.3663 163.816 40.836 163.12 41.8101C162.436 42.7726 162.094 44.1642 162.094 45.9849ZM175.227 54.9955C175.239 56.1552 175.053 57.2047 174.671 58.144C174.3 59.095 173.731 59.9009 172.966 60.562C172.201 61.223 171.244 61.7332 170.096 62.0927C168.948 62.4522 167.62 62.632 166.112 62.632C164.93 62.6436 163.822 62.5334 162.79 62.3015C161.758 62.0695 160.859 61.7158 160.094 61.2404C159.328 60.7649 158.702 60.1561 158.215 59.4139C157.74 58.6833 157.461 57.8309 157.38 56.8568C157.368 56.7408 157.403 56.6307 157.484 56.5263C157.577 56.4335 157.682 56.3871 157.798 56.3871H162.129C162.28 56.3871 162.401 56.4277 162.494 56.5089C162.587 56.5901 162.651 56.7061 162.686 56.8568C162.825 57.5642 163.196 58.1151 163.799 58.5093C164.413 58.9036 165.243 59.1008 166.286 59.1008C167.434 59.1008 168.374 58.7645 169.104 58.0919C169.846 57.4193 170.218 56.364 170.218 54.926V52.8212C169.615 53.6213 168.867 54.2534 167.974 54.7172C167.092 55.1695 166.083 55.3956 164.947 55.3956C163.59 55.3956 162.39 55.1579 161.346 54.6824C160.302 54.207 159.433 53.5576 158.737 52.7342C158.041 51.9108 157.513 50.9367 157.154 49.8118C156.806 48.687 156.632 47.4809 156.632 46.1937C156.632 44.918 156.818 43.7178 157.189 42.5929C157.56 41.4564 158.087 40.4707 158.772 39.6357C159.467 38.8008 160.314 38.1398 161.311 37.6527C162.32 37.1541 163.445 36.9047 164.686 36.9047C165.822 36.9047 166.837 37.0961 167.73 37.4788C168.623 37.8615 169.377 38.4181 169.991 39.1487L169.922 37.6179C169.91 37.502 169.951 37.3976 170.044 37.3048C170.136 37.2004 170.241 37.1483 170.357 37.1483H174.775C174.891 37.1483 174.995 37.2004 175.088 37.3048C175.181 37.3976 175.227 37.502 175.227 37.6179L175.088 46.5938L175.227 54.9955ZM183.212 46.0893C183.212 48.1535 183.554 49.7075 184.238 50.7512C184.934 51.7949 185.919 52.3109 187.195 52.2993C188.494 52.2993 189.485 51.8065 190.17 50.8207C190.854 49.835 191.202 48.3796 191.213 46.4546C191.237 44.5063 190.906 43.0104 190.222 41.9667C189.549 40.9114 188.575 40.3779 187.299 40.3663C185.954 40.3315 184.934 40.807 184.238 41.7927C183.554 42.7784 183.212 44.2106 183.212 46.0893ZM195.997 55.5H191.509C191.393 55.5 191.289 55.4536 191.196 55.3608C191.103 55.2681 191.057 55.1579 191.057 55.0303L191.109 53.3604C190.483 54.1374 189.712 54.7462 188.795 55.1869C187.879 55.6276 186.847 55.8479 185.699 55.8479C184.4 55.8479 183.252 55.6044 182.255 55.1173C181.269 54.6302 180.44 53.9634 179.767 53.1169C179.106 52.2703 178.602 51.273 178.254 50.1249C177.918 48.9653 177.75 47.7186 177.75 46.385C177.75 45.063 177.935 43.8163 178.306 42.6451C178.677 41.4738 179.205 40.4591 179.889 39.601C180.585 38.7428 181.432 38.0644 182.429 37.5657C183.438 37.0555 184.563 36.8004 185.804 36.8004C186.94 36.8004 187.955 37.0033 188.848 37.4092C189.741 37.8035 190.494 38.3717 191.109 39.1139L191.039 37.6179C191.028 37.502 191.068 37.3976 191.161 37.3048C191.254 37.2004 191.358 37.1483 191.474 37.1483H195.997C196.113 37.1483 196.217 37.2004 196.31 37.3048C196.403 37.3976 196.449 37.502 196.449 37.6179L196.241 46.3502L196.449 55.0303C196.449 55.1579 196.403 55.2681 196.31 55.3608C196.217 55.4536 196.113 55.5 195.997 55.5ZM204.555 55.5H200.067C199.951 55.5 199.841 55.4536 199.737 55.3608C199.644 55.2681 199.604 55.1579 199.615 55.0303L199.859 43.0278L199.615 31.0252C199.604 30.9092 199.644 30.8049 199.737 30.7121C199.841 30.6077 199.951 30.5555 200.067 30.5555H204.555C204.671 30.5555 204.776 30.6077 204.868 30.7121C204.961 30.8049 205.008 30.9092 205.008 31.0252L204.764 43.0278L205.008 55.0303C205.008 55.1579 204.961 55.2681 204.868 55.3608C204.776 55.4536 204.671 55.5 204.555 55.5ZM213.096 46.0893C213.096 48.1535 213.438 49.7075 214.123 50.7512C214.818 51.7949 215.804 52.3109 217.08 52.2993C218.379 52.2993 219.37 51.8065 220.054 50.8207C220.739 49.835 221.086 48.3796 221.098 46.4546C221.121 44.5063 220.791 43.0104 220.107 41.9667C219.434 40.9114 218.46 40.3779 217.184 40.3663C215.839 40.3315 214.818 40.807 214.123 41.7927C213.438 42.7784 213.096 44.2106 213.096 46.0893ZM225.882 55.5H221.394C221.278 55.5 221.173 55.4536 221.081 55.3608C220.988 55.2681 220.941 55.1579 220.941 55.0303L220.994 53.3604C220.367 54.1374 219.596 54.7462 218.68 55.1869C217.764 55.6276 216.732 55.8479 215.584 55.8479C214.285 55.8479 213.137 55.6044 212.14 55.1173C211.154 54.6302 210.325 53.9634 209.652 53.1169C208.991 52.2703 208.487 51.273 208.139 50.1249C207.802 48.9653 207.634 47.7186 207.634 46.385C207.634 45.063 207.82 43.8163 208.191 42.6451C208.562 41.4738 209.09 40.4591 209.774 39.601C210.47 38.7428 211.316 38.0644 212.314 37.5657C213.322 37.0555 214.447 36.8004 215.688 36.8004C216.825 36.8004 217.839 37.0033 218.732 37.4092C219.625 37.8035 220.379 38.3717 220.994 39.1139L220.924 37.6179C220.912 37.502 220.953 37.3976 221.046 37.3048C221.139 37.2004 221.243 37.1483 221.359 37.1483H225.882C225.998 37.1483 226.102 37.2004 226.195 37.3048C226.288 37.3976 226.334 37.502 226.334 37.6179L226.125 46.3502L226.334 55.0303C226.334 55.1579 226.288 55.2681 226.195 55.3608C226.102 55.4536 225.998 55.5 225.882 55.5ZM245.242 55.5H240.163C240.024 55.5 239.89 55.4594 239.763 55.3782C239.635 55.2971 239.543 55.1985 239.485 55.0825L236.458 49.0464L233.24 55.0825C233.182 55.2101 233.089 55.3145 232.961 55.3956C232.834 55.4652 232.701 55.5 232.561 55.5H227.969C227.865 55.5 227.789 55.4536 227.743 55.3608C227.697 55.2681 227.697 55.1811 227.743 55.0999L233.101 45.9501L228.004 37.5483C227.957 37.4672 227.957 37.3802 228.004 37.2874C228.05 37.1946 228.126 37.1483 228.23 37.1483H233.275C233.414 37.1483 233.547 37.1888 233.675 37.27C233.802 37.3512 233.895 37.4498 233.953 37.5657L236.945 43.3235L239.815 37.5657C239.873 37.4498 239.96 37.3512 240.076 37.27C240.204 37.1888 240.337 37.1483 240.476 37.1483H244.929C245.034 37.1483 245.109 37.1946 245.155 37.2874C245.202 37.3802 245.202 37.4672 245.155 37.5483L240.233 45.9849L245.486 55.0999C245.532 55.1811 245.532 55.2681 245.486 55.3608C245.439 55.4536 245.358 55.5 245.242 55.5ZM264.429 37.5831L256.358 61.1186C256.311 61.2462 256.23 61.3505 256.114 61.4317C255.998 61.5129 255.871 61.5535 255.732 61.5535H251.574C251.458 61.5535 251.365 61.5071 251.296 61.4143C251.226 61.3331 251.215 61.2346 251.261 61.1186L253.14 55.674L245.834 37.5831C245.787 37.4788 245.793 37.3802 245.851 37.2874C245.909 37.1946 245.996 37.1483 246.112 37.1483H251.209C251.348 37.1483 251.476 37.1946 251.591 37.2874C251.707 37.3686 251.789 37.4672 251.835 37.5831L255.766 48.9073L259.019 37.6005C259.066 37.473 259.141 37.3686 259.245 37.2874C259.361 37.1946 259.483 37.1483 259.611 37.1483H264.116C264.232 37.1483 264.319 37.1946 264.377 37.2874C264.446 37.3802 264.464 37.4788 264.429 37.5831Z" fill="white"/>
<defs>
<clipPath id="clip0_689_1659">
<rect width="90" height="90" fill="white" transform="translate(35.5)"/>
</clipPath>
</defs>
</svg>
