<svg width="267" height="70" viewBox="0 0 267 70" fill="none" xmlns="http://www.w3.org/2000/svg">
<g clip-path="url(#clip0_689_1659)">
<path d="M79.5284 18.1118H113.47V52.4545C117.813 48.0599 120.5 41.9895 120.5 35.2836C120.5 21.8715 109.754 11 96.5007 11C83.2472 11 72.5 21.872 72.5 35.2836C72.5 41.9892 75.1867 48.0588 79.5296 52.453L79.5284 18.1118Z" fill="white"/>
<path d="M79.0449 52.4546V59H113.954V52.4546H79.0449Z" fill="white"/>
</g>
<path d="M139.95 35.4253C139.95 36.4767 140.133 37.2684 140.498 37.8003C140.869 38.326 141.394 38.5858 142.075 38.5796C142.767 38.5796 143.296 38.3322 143.661 37.8374C144.026 37.3426 144.212 36.6035 144.218 35.6201C144.23 34.612 144.054 33.8327 143.689 33.2822C143.33 32.7318 142.811 32.4535 142.13 32.4473C141.413 32.4287 140.869 32.6792 140.498 33.1987C140.133 33.7121 139.95 34.4543 139.95 35.4253ZM146.955 40.231C146.961 40.8494 146.862 41.4092 146.658 41.9102C146.46 42.4173 146.157 42.8472 145.749 43.1997C145.34 43.5522 144.83 43.8244 144.218 44.0161C143.605 44.2078 142.897 44.3037 142.093 44.3037C141.462 44.3099 140.872 44.2511 140.321 44.1274C139.771 44.0037 139.292 43.8151 138.883 43.5615C138.475 43.3079 138.141 42.9832 137.881 42.5874C137.628 42.1978 137.479 41.7432 137.436 41.2236C137.43 41.1618 137.448 41.103 137.492 41.0474C137.541 40.9979 137.597 40.9731 137.659 40.9731H139.969C140.049 40.9731 140.114 40.9948 140.164 41.0381C140.213 41.0814 140.247 41.1432 140.266 41.2236C140.34 41.6009 140.538 41.8947 140.859 42.105C141.187 42.3153 141.629 42.4204 142.186 42.4204C142.798 42.4204 143.299 42.241 143.689 41.8823C144.085 41.5236 144.283 40.9608 144.283 40.1938V39.0713C143.961 39.498 143.562 39.8351 143.086 40.0825C142.616 40.3237 142.078 40.4443 141.472 40.4443C140.748 40.4443 140.108 40.3175 139.551 40.064C138.995 39.8104 138.531 39.464 138.16 39.0249C137.789 38.5858 137.507 38.0662 137.315 37.4663C137.13 36.8664 137.037 36.2231 137.037 35.5366C137.037 34.8563 137.136 34.2161 137.334 33.6162C137.532 33.0101 137.813 32.4844 138.178 32.0391C138.549 31.5938 139.001 31.2412 139.533 30.9814C140.071 30.7155 140.671 30.5825 141.333 30.5825C141.939 30.5825 142.48 30.6846 142.956 30.8887C143.432 31.0928 143.834 31.3896 144.162 31.7793L144.125 30.9629C144.119 30.901 144.14 30.8454 144.19 30.7959C144.239 30.7402 144.295 30.7124 144.357 30.7124H146.713C146.775 30.7124 146.831 30.7402 146.88 30.7959C146.93 30.8454 146.955 30.901 146.955 30.9629L146.88 35.75L146.955 40.231ZM151.213 35.481C151.213 36.5819 151.395 37.4106 151.76 37.9673C152.131 38.5239 152.657 38.7992 153.337 38.793C154.03 38.793 154.559 38.5301 154.924 38.0044C155.289 37.4787 155.474 36.7025 155.48 35.6758C155.493 34.6367 155.317 33.8389 154.952 33.2822C154.593 32.7194 154.073 32.4349 153.393 32.4287C152.676 32.4102 152.131 32.6637 151.76 33.1895C151.395 33.7152 151.213 34.479 151.213 35.481ZM158.032 40.5H155.638C155.576 40.5 155.521 40.4753 155.471 40.4258C155.422 40.3763 155.397 40.3175 155.397 40.2495L155.425 39.3589C155.091 39.7733 154.68 40.098 154.191 40.333C153.702 40.568 153.152 40.6855 152.54 40.6855C151.847 40.6855 151.235 40.5557 150.703 40.2959C150.177 40.0361 149.735 39.6805 149.376 39.229C149.023 38.7775 148.754 38.2456 148.569 37.6333C148.389 37.0148 148.3 36.3499 148.3 35.6387C148.3 34.9336 148.399 34.2687 148.597 33.644C148.795 33.0194 149.076 32.4782 149.441 32.0205C149.812 31.5628 150.264 31.201 150.795 30.9351C151.333 30.6629 151.933 30.5269 152.595 30.5269C153.201 30.5269 153.743 30.6351 154.219 30.8516C154.695 31.0618 155.097 31.3649 155.425 31.7607L155.388 30.9629C155.382 30.901 155.403 30.8454 155.453 30.7959C155.502 30.7402 155.558 30.7124 155.62 30.7124H158.032C158.094 30.7124 158.149 30.7402 158.199 30.7959C158.248 30.8454 158.273 30.901 158.273 30.9629L158.162 35.6201L158.273 40.2495C158.273 40.3175 158.248 40.3763 158.199 40.4258C158.149 40.4753 158.094 40.5 158.032 40.5ZM162.596 40.5H160.203C160.141 40.5 160.082 40.4753 160.026 40.4258C159.977 40.3763 159.955 40.3175 159.961 40.2495L160.091 33.8481L159.961 27.4468C159.955 27.3849 159.977 27.3293 160.026 27.2798C160.082 27.2241 160.141 27.1963 160.203 27.1963H162.596C162.658 27.1963 162.714 27.2241 162.763 27.2798C162.813 27.3293 162.837 27.3849 162.837 27.4468L162.708 33.8481L162.837 40.2495C162.837 40.3175 162.813 40.3763 162.763 40.4258C162.714 40.4753 162.658 40.5 162.596 40.5ZM167.151 35.481C167.151 36.5819 167.334 37.4106 167.699 37.9673C168.07 38.5239 168.596 38.7992 169.276 38.793C169.969 38.793 170.497 38.5301 170.862 38.0044C171.227 37.4787 171.413 36.7025 171.419 35.6758C171.431 34.6367 171.255 33.8389 170.89 33.2822C170.531 32.7194 170.012 32.4349 169.332 32.4287C168.614 32.4102 168.07 32.6637 167.699 33.1895C167.334 33.7152 167.151 34.479 167.151 35.481ZM173.97 40.5H171.577C171.515 40.5 171.459 40.4753 171.41 40.4258C171.36 40.3763 171.335 40.3175 171.335 40.2495L171.363 39.3589C171.029 39.7733 170.618 40.098 170.129 40.333C169.641 40.568 169.09 40.6855 168.478 40.6855C167.785 40.6855 167.173 40.5557 166.641 40.2959C166.115 40.0361 165.673 39.6805 165.314 39.229C164.962 38.7775 164.693 38.2456 164.507 37.6333C164.328 37.0148 164.238 36.3499 164.238 35.6387C164.238 34.9336 164.337 34.2687 164.535 33.644C164.733 33.0194 165.014 32.4782 165.379 32.0205C165.75 31.5628 166.202 31.201 166.734 30.9351C167.272 30.6629 167.872 30.5269 168.534 30.5269C169.14 30.5269 169.681 30.6351 170.157 30.8516C170.633 31.0618 171.035 31.3649 171.363 31.7607L171.326 30.9629C171.32 30.901 171.342 30.8454 171.391 30.7959C171.441 30.7402 171.496 30.7124 171.558 30.7124H173.97C174.032 30.7124 174.088 30.7402 174.137 30.7959C174.187 30.8454 174.211 30.901 174.211 30.9629L174.1 35.6201L174.211 40.2495C174.211 40.3175 174.187 40.3763 174.137 40.4258C174.088 40.4753 174.032 40.5 173.97 40.5ZM184.296 40.5H181.587C181.513 40.5 181.442 40.4784 181.374 40.4351C181.306 40.3918 181.256 40.3392 181.225 40.2773L179.611 37.0581L177.895 40.2773C177.864 40.3454 177.814 40.401 177.746 40.4443C177.678 40.4814 177.607 40.5 177.533 40.5H175.083C175.028 40.5 174.988 40.4753 174.963 40.4258C174.938 40.3763 174.938 40.3299 174.963 40.2866L177.82 35.4067L175.102 30.9258C175.077 30.8825 175.077 30.8361 175.102 30.7866C175.127 30.7371 175.167 30.7124 175.223 30.7124H177.913C177.987 30.7124 178.058 30.734 178.126 30.7773C178.194 30.8206 178.244 30.8732 178.275 30.9351L179.871 34.0059L181.401 30.9351C181.432 30.8732 181.479 30.8206 181.541 30.7773C181.609 30.734 181.68 30.7124 181.754 30.7124H184.129C184.185 30.7124 184.225 30.7371 184.25 30.7866C184.274 30.8361 184.274 30.8825 184.25 30.9258L181.624 35.4253L184.426 40.2866C184.451 40.3299 184.451 40.3763 184.426 40.4258C184.401 40.4753 184.358 40.5 184.296 40.5ZM194.529 30.9443L190.224 43.4966C190.199 43.5646 190.156 43.6203 190.094 43.6636C190.032 43.7069 189.964 43.7285 189.89 43.7285H187.673C187.611 43.7285 187.562 43.7038 187.524 43.6543C187.487 43.611 187.481 43.5584 187.506 43.4966L188.508 40.5928L184.611 30.9443C184.587 30.8887 184.59 30.8361 184.621 30.7866C184.652 30.7371 184.698 30.7124 184.76 30.7124H187.478C187.552 30.7124 187.62 30.7371 187.682 30.7866C187.744 30.8299 187.787 30.8825 187.812 30.9443L189.909 36.9839L191.644 30.9536C191.668 30.8856 191.708 30.8299 191.764 30.7866C191.826 30.7371 191.891 30.7124 191.959 30.7124H194.362C194.424 30.7124 194.47 30.7371 194.501 30.7866C194.538 30.8361 194.547 30.8887 194.529 30.9443Z" fill="white"/>
<defs>
<clipPath id="clip0_689_1659">
<rect width="48" height="48" fill="white" transform="translate(72.5 11)"/>
</clipPath>
</defs>
</svg>
