<svg width="154" height="74" viewBox="0 0 154 74" fill="none" xmlns="http://www.w3.org/2000/svg">
<g clip-path="url(#clip0_919_560)">
<path d="M8.27592 17.2971H47.875V57.3636C52.9417 52.2366 56.0762 45.1544 56.0762 37.3309C56.0762 21.6835 43.539 9 28.0769 9C12.6146 9 0.0761719 21.684 0.0761719 37.3309C0.0761719 45.1541 3.2107 52.2353 8.27732 57.3619L8.27592 17.2971Z" fill="white"/>
<path d="M7.71094 57.3636V65H48.4382V57.3636H7.71094Z" fill="white"/>
</g>
<path d="M77.0286 37.9395C77.0286 39.4024 77.2825 40.5038 77.7902 41.2439C78.3065 41.9753 79.0379 42.3367 79.9845 42.3281C80.9482 42.3281 81.684 41.9839 82.1917 41.2955C82.6994 40.6071 82.9575 39.5788 82.9661 38.2106C82.9833 36.808 82.7381 35.7237 82.2304 34.9579C81.7313 34.192 81.0085 33.8048 80.0619 33.7962C79.0637 33.7704 78.3065 34.1189 77.7902 34.8417C77.2825 35.5559 77.0286 36.5885 77.0286 37.9395ZM86.7739 44.6257C86.7825 45.4862 86.6448 46.2649 86.3608 46.962C86.0855 47.6676 85.6638 48.2656 85.0959 48.7561C84.5279 49.2466 83.818 49.6252 82.9661 49.892C82.1142 50.1587 81.1289 50.2921 80.0103 50.2921C79.1326 50.3007 78.3108 50.219 77.5449 50.0469C76.7791 49.8748 76.1122 49.6123 75.5442 49.2595C74.9763 48.9067 74.5116 48.4549 74.1502 47.9042C73.7974 47.3621 73.5909 46.7296 73.5307 46.0068C73.522 45.9207 73.5479 45.839 73.6081 45.7615C73.6769 45.6927 73.7544 45.6583 73.8404 45.6583H77.0544C77.1663 45.6583 77.2566 45.6884 77.3255 45.7486C77.3943 45.8089 77.4417 45.8949 77.4675 46.0068C77.5707 46.5317 77.8461 46.9404 78.2936 47.233C78.7496 47.5256 79.3649 47.6719 80.1393 47.6719C80.9913 47.6719 81.6883 47.4223 82.2304 46.9232C82.7811 46.4241 83.0565 45.6411 83.0565 44.574V43.0122C82.609 43.606 82.054 44.075 81.3914 44.4192C80.7374 44.7548 79.9888 44.9226 79.1455 44.9226C78.1387 44.9226 77.248 44.7462 76.4736 44.3933C75.6991 44.0405 75.0537 43.5587 74.5374 42.9477C74.0211 42.3367 73.6296 41.6139 73.3629 40.7792C73.1047 39.9445 72.9756 39.0496 72.9756 38.0944C72.9756 37.1479 73.1133 36.2572 73.3887 35.4226C73.664 34.5793 74.0556 33.8478 74.5633 33.2283C75.0796 32.6087 75.7077 32.1182 76.4478 31.7568C77.1964 31.3868 78.0311 31.2018 78.9518 31.2018C79.7951 31.2018 80.5481 31.3437 81.2107 31.6277C81.8733 31.9117 82.4326 32.3247 82.8887 32.8668L82.837 31.731C82.8284 31.6449 82.8586 31.5675 82.9274 31.4986C82.9962 31.4212 83.0737 31.3825 83.1597 31.3825H86.4383C86.5243 31.3825 86.6018 31.4212 86.6706 31.4986C86.7394 31.5675 86.7739 31.6449 86.7739 31.731L86.6706 38.3913L86.7739 44.6257ZM92.6985 38.017C92.6985 39.5487 92.9523 40.7018 93.46 41.4762C93.9763 42.2507 94.7077 42.6336 95.6543 42.625C96.6181 42.625 97.3538 42.2593 97.8615 41.5279C98.3692 40.7964 98.6273 39.7165 98.636 38.288C98.6532 36.8424 98.4079 35.7323 97.9002 34.9579C97.4011 34.1748 96.6783 33.779 95.7317 33.7704C94.7336 33.7446 93.9763 34.0974 93.46 34.8288C92.9523 35.5602 92.6985 36.623 92.6985 38.017ZM102.186 45H98.8554C98.7693 45 98.6919 44.9656 98.623 44.8967C98.5542 44.8279 98.5198 44.7462 98.5198 44.6515L98.5585 43.4124C98.0938 43.9889 97.5216 44.4407 96.8418 44.7677C96.162 45.0947 95.3961 45.2582 94.5442 45.2582C93.5805 45.2582 92.7286 45.0774 91.9885 44.716C91.2571 44.3546 90.6418 43.8598 90.1427 43.2317C89.6523 42.6035 89.2779 41.8635 89.0198 41.0115C88.7702 40.151 88.6455 39.226 88.6455 38.2364C88.6455 37.2554 88.7831 36.3304 89.0585 35.4613C89.3339 34.5922 89.7254 33.8392 90.2331 33.2024C90.7494 32.5657 91.3776 32.0623 92.1176 31.6923C92.8663 31.3136 93.7009 31.1243 94.6217 31.1243C95.465 31.1243 96.2179 31.2749 96.8805 31.5761C97.5431 31.8687 98.1024 32.2903 98.5585 32.841L98.5069 31.731C98.4983 31.6449 98.5284 31.5675 98.5972 31.4986C98.6661 31.4212 98.7435 31.3825 98.8296 31.3825H102.186C102.272 31.3825 102.349 31.4212 102.418 31.4986C102.487 31.5675 102.521 31.6449 102.521 31.731L102.366 38.2106L102.521 44.6515C102.521 44.7462 102.487 44.8279 102.418 44.8967C102.349 44.9656 102.272 45 102.186 45ZM108.536 45H105.206C105.12 45 105.038 44.9656 104.961 44.8967C104.892 44.8279 104.862 44.7462 104.87 44.6515L105.051 35.7452L104.87 26.839C104.862 26.7529 104.892 26.6755 104.961 26.6067C105.038 26.5292 105.12 26.4905 105.206 26.4905H108.536C108.622 26.4905 108.7 26.5292 108.768 26.6067C108.837 26.6755 108.872 26.7529 108.872 26.839L108.691 35.7452L108.872 44.6515C108.872 44.7462 108.837 44.8279 108.768 44.8967C108.7 44.9656 108.622 45 108.536 45ZM114.874 38.017C114.874 39.5487 115.128 40.7018 115.635 41.4762C116.152 42.2507 116.883 42.6336 117.83 42.625C118.793 42.625 119.529 42.2593 120.037 41.5279C120.544 40.7964 120.803 39.7165 120.811 38.288C120.828 36.8424 120.583 35.7323 120.075 34.9579C119.576 34.1748 118.854 33.779 117.907 33.7704C116.909 33.7446 116.152 34.0974 115.635 34.8288C115.128 35.5602 114.874 36.623 114.874 38.017ZM124.361 45H121.031C120.945 45 120.867 44.9656 120.798 44.8967C120.729 44.8279 120.695 44.7462 120.695 44.6515L120.734 43.4124C120.269 43.9889 119.697 44.4407 119.017 44.7677C118.337 45.0947 117.571 45.2582 116.72 45.2582C115.756 45.2582 114.904 45.0774 114.164 44.716C113.432 44.3546 112.817 43.8598 112.318 43.2317C111.828 42.6035 111.453 41.8635 111.195 41.0115C110.946 40.151 110.821 39.226 110.821 38.2364C110.821 37.2554 110.958 36.3304 111.234 35.4613C111.509 34.5922 111.901 33.8392 112.408 33.2024C112.925 32.5657 113.553 32.0623 114.293 31.6923C115.042 31.3136 115.876 31.1243 116.797 31.1243C117.64 31.1243 118.393 31.2749 119.056 31.5761C119.718 31.8687 120.278 32.2903 120.734 32.841L120.682 31.731C120.674 31.6449 120.704 31.5675 120.773 31.4986C120.841 31.4212 120.919 31.3825 121.005 31.3825H124.361C124.447 31.3825 124.524 31.4212 124.593 31.4986C124.662 31.5675 124.696 31.6449 124.696 31.731L124.542 38.2106L124.696 44.6515C124.696 44.7462 124.662 44.8279 124.593 44.8967C124.524 44.9656 124.447 45 124.361 45ZM138.727 45H134.958C134.855 45 134.756 44.9699 134.661 44.9096C134.566 44.8494 134.498 44.7763 134.455 44.6902L132.209 40.2113L129.821 44.6902C129.778 44.7849 129.709 44.8623 129.614 44.9226C129.52 44.9742 129.421 45 129.317 45H125.91C125.832 45 125.776 44.9656 125.742 44.8967C125.708 44.8279 125.708 44.7634 125.742 44.7031L129.717 37.9137L125.936 31.6793C125.901 31.6191 125.901 31.5546 125.936 31.4857C125.97 31.4169 126.026 31.3825 126.103 31.3825H129.847C129.95 31.3825 130.049 31.4126 130.143 31.4728C130.238 31.5331 130.307 31.6062 130.35 31.6923L132.57 35.9647L134.7 31.6923C134.743 31.6062 134.807 31.5331 134.893 31.4728C134.988 31.4126 135.087 31.3825 135.19 31.3825H138.495C138.572 31.3825 138.628 31.4169 138.662 31.4857C138.697 31.5546 138.697 31.6191 138.662 31.6793L135.01 37.9395L138.908 44.7031C138.942 44.7634 138.942 44.8279 138.908 44.8967C138.873 44.9656 138.813 45 138.727 45ZM152.964 31.7052L146.975 49.1692C146.941 49.2638 146.88 49.3413 146.794 49.4015C146.708 49.4617 146.614 49.4918 146.51 49.4918H143.425C143.339 49.4918 143.27 49.4574 143.219 49.3886C143.167 49.3284 143.159 49.2552 143.193 49.1692L144.587 45.1291L139.166 31.7052C139.131 31.6277 139.136 31.5546 139.179 31.4857C139.222 31.4169 139.286 31.3825 139.372 31.3825H143.154C143.258 31.3825 143.352 31.4169 143.438 31.4857C143.524 31.546 143.585 31.6191 143.619 31.7052L146.536 40.108L148.95 31.7181C148.984 31.6234 149.04 31.546 149.118 31.4857C149.204 31.4169 149.294 31.3825 149.389 31.3825H152.732C152.818 31.3825 152.882 31.4169 152.925 31.4857C152.977 31.5546 152.99 31.6277 152.964 31.7052Z" fill="white"/>
<defs>
<clipPath id="clip0_919_560">
<rect width="56" height="56" fill="white" transform="translate(0.0761719 9)"/>
</clipPath>
</defs>
</svg>
