<svg width="269" height="75" viewBox="0 0 269 75" fill="none" xmlns="http://www.w3.org/2000/svg">
<path d="M101.078 0.0200195V74.02H96.1565V39.444H4.92058V74.0191H0V0.0200195H4.92153V34.5779H96.1574V0.0200195H101.078ZM91.2455 0.0200195H86.3239V24.7224H14.7646V0.0200195H9.84307V29.5885H91.2455V0.0200195ZM24.6278 0.0200195H19.7608V19.7138H24.6278V0.0200195ZM81.368 0.0200195H76.4464V19.7138H81.368V0.0200195ZM9.84307 74.0191H14.7646V49.3176H86.3239V74.02H91.2455V44.3961H9.84307V74.0191ZM76.4062 74.0191H81.3278V54.2707H76.4062V74.0191ZM19.7215 74.0191H24.6431V54.2707H19.7215V74.0191Z" fill="#E12991"/>
<path d="M127.268 0V21.6312H123.035V12.6694H114.265V21.6312H110.001V0H114.265V8.59085H123.035V0H127.268ZM144.662 6.17967V21.6312H140.676V19.9011C139.748 21.2916 138.142 22.064 136.071 22.064C132.795 22.064 130.231 19.7774 130.231 15.6675V6.18062H134.217V15.1729C134.217 17.2749 135.484 18.3564 137.276 18.3564C139.223 18.3564 140.676 17.2131 140.676 14.5242V6.18062H144.662V6.17967ZM171.235 12.113V21.6312H167.249V12.3917C167.249 10.5683 166.322 9.4564 164.653 9.4564C162.892 9.4564 161.779 10.6311 161.779 12.9481V21.6312H157.793V12.3917C157.793 10.5683 156.865 9.4564 155.197 9.4564C153.497 9.4564 152.292 10.6311 152.292 12.9481V21.6312H148.306V6.17967H152.292V7.81756C153.158 6.52018 154.61 5.74689 156.588 5.74689C158.503 5.74689 159.925 6.55062 160.79 7.97165C161.748 6.58105 163.293 5.74689 165.394 5.74689C168.918 5.74784 171.235 8.25033 171.235 12.113ZM190.358 6.17967V21.6312H186.372V19.8078C185.259 21.1984 183.591 22.064 181.335 22.064C177.225 22.064 173.825 18.5105 173.825 13.9059C173.825 9.30136 177.225 5.74784 181.335 5.74784C183.591 5.74784 185.259 6.61339 186.372 8.00398V6.18062H190.358V6.17967ZM186.372 13.9059C186.372 11.3102 184.549 9.54866 182.077 9.54866C179.636 9.54866 177.813 11.3102 177.813 13.9059C177.813 16.5016 179.636 18.2632 182.077 18.2632C184.549 18.2632 186.372 16.5016 186.372 13.9059ZM208.401 12.1444V21.6312H204.415V12.639C204.415 10.5379 203.148 9.4564 201.356 9.4564C199.409 9.4564 197.956 10.5997 197.956 13.2886V21.6322H193.97V6.17967H197.956V7.90982C198.884 6.51923 200.49 5.74689 202.561 5.74689C205.837 5.74784 208.401 8.03442 208.401 12.1444ZM117.141 40.0894H114.264V47.5987H110V25.9675H119.021C123.007 25.9675 126.221 29.1815 126.221 33.1364C126.221 35.8558 124.521 38.2974 122.049 39.4407L126.839 47.5987H122.235L117.141 40.0894ZM114.264 36.3504H119.02C120.626 36.3504 121.955 34.9284 121.955 33.1364C121.955 31.3444 120.626 29.9538 119.02 29.9538H114.264V36.3504ZM128.689 27.8527C128.689 26.524 130.17 25.3807 131.499 25.3807C132.858 25.3807 133.603 26.524 133.603 27.8527C133.603 29.1815 132.49 30.2943 131.131 30.2943C129.802 30.2943 128.689 29.1815 128.689 27.8527ZM129.153 32.1481H133.14V47.5997H129.153V32.1481ZM151.896 32.1481V46.8578C151.896 51.9256 147.909 54.2131 143.83 54.2131C140.523 54.2131 137.866 52.9461 136.506 50.4427L139.905 48.4957C140.554 49.7008 141.574 50.6586 143.953 50.6586C146.456 50.6586 148.002 49.2994 148.002 46.8578V45.1895C146.92 46.6419 145.251 47.5379 143.057 47.5379C138.669 47.5379 135.363 43.9843 135.363 39.6271C135.363 35.3012 138.669 31.7163 143.057 31.7163C145.252 31.7163 146.92 32.6123 148.002 34.0647V32.1491H151.896V32.1481ZM148.002 39.6261C148.002 37.1845 146.178 35.4239 143.675 35.4239C141.172 35.4239 139.349 37.1855 139.349 39.6261C139.349 42.0982 141.172 43.8597 143.675 43.8597C146.178 43.8597 148.002 42.0982 148.002 39.6261ZM169.938 38.1119V47.5987H165.952V38.6065C165.952 36.5054 164.685 35.4239 162.893 35.4239C160.946 35.4239 159.493 36.5672 159.493 39.2561V47.5997H155.507V25.9675H159.493V33.8783C160.421 32.4877 162.027 31.7154 164.098 31.7154C167.374 31.7154 169.938 34.002 169.938 38.1119ZM178.68 35.9794V42.4073C178.68 44.0757 179.885 44.107 182.172 43.9834V47.5987C176.578 48.217 174.694 46.5791 174.694 42.4073V35.9794H172.005V32.1472H174.694V29.0265L178.68 27.8213V32.1472H182.172V35.9794H178.68ZM196.293 43.0874C196.293 46.425 193.388 48.0315 190.081 48.0315C186.99 48.0315 184.704 46.7341 183.592 44.3543L187.053 42.4073C187.486 43.6743 188.537 44.4162 190.082 44.4162C191.349 44.4162 192.214 43.9834 192.214 43.0874C192.214 40.8313 184.242 42.0678 184.242 36.6291C184.242 33.4769 186.931 31.7154 190.113 31.7154C192.617 31.7154 194.779 32.8587 195.985 34.9912L192.585 36.845C192.121 35.8558 191.256 35.2689 190.113 35.2689C189.124 35.2689 188.321 35.7017 188.321 36.5358C188.32 38.8224 196.293 37.4014 196.293 43.0874ZM114.264 56.0146V61.1442H123.406V65.2237H114.264V73.5672H110V51.9351H123.653V56.0136H114.264V56.0146ZM125.164 65.841C125.164 61.2364 128.78 57.6829 133.322 57.6829C137.865 57.6829 141.512 61.2364 141.512 65.841C141.512 70.4455 137.865 73.9991 133.322 73.9991C128.78 73.9991 125.164 70.4455 125.164 65.841ZM137.526 65.841C137.526 63.3385 135.702 61.5769 133.322 61.5769C130.974 61.5769 129.151 63.3385 129.151 65.841C129.151 68.3444 130.974 70.105 133.322 70.105C135.702 70.106 137.526 68.3444 137.526 65.841ZM157.886 58.1157V73.5672H153.9V71.8371C152.972 73.2277 151.366 74 149.295 74C146.019 74 143.455 71.7134 143.455 67.6035V58.1166H147.441V67.1089C147.441 69.2109 148.708 70.2924 150.5 70.2924C152.447 70.2924 153.9 69.1491 153.9 66.4602V58.1166H157.886V58.1157ZM175.96 64.0794V73.5663H171.974V64.574C171.974 62.4729 170.707 61.3915 168.915 61.3915C166.968 61.3915 165.515 62.5348 165.515 65.2237V73.5672H161.529V58.1157H165.515V59.8458C166.443 58.4552 168.049 57.6829 170.12 57.6829C173.396 57.6829 175.96 59.9695 175.96 64.0794ZM195.054 51.9351V73.5663H191.068V71.7429C189.955 73.1649 188.317 73.9991 186.062 73.9991C181.921 73.9991 178.522 70.4455 178.522 65.841C178.522 61.2364 181.922 57.6829 186.062 57.6829C188.318 57.6829 189.956 58.5171 191.068 59.939V51.9351H195.054ZM191.068 65.841C191.068 63.2453 189.245 61.4837 186.803 61.4837C184.331 61.4837 182.508 63.2453 182.508 65.841C182.508 68.4367 184.331 70.1982 186.803 70.1982C189.245 70.1992 191.068 68.4376 191.068 65.841ZM214.243 58.1157V73.5672H210.257V71.7439C209.144 73.1344 207.475 74 205.219 74C201.109 74 197.71 70.4465 197.71 65.8419C197.71 61.2374 201.109 57.6839 205.219 57.6839C207.475 57.6839 209.144 58.5494 210.257 59.94V58.1166H214.243V58.1157ZM210.257 65.841C210.257 63.2453 208.433 61.4837 205.961 61.4837C203.521 61.4837 201.697 63.2453 201.697 65.841C201.697 68.4367 203.521 70.1982 205.961 70.1982C208.433 70.1992 210.257 68.4376 210.257 65.841ZM223.385 61.9479V68.3758C223.385 70.0441 224.59 70.0755 226.876 69.9519V73.5672C221.282 74.1855 219.398 72.5476 219.398 68.3758V61.9479H216.71V58.1157H219.398V54.9949L223.385 53.7898V58.1157H226.876V61.9479H223.385ZM229.223 53.8203C229.223 52.4915 230.336 51.3482 231.664 51.3482C233.024 51.3482 234.136 52.4915 234.136 53.8203C234.136 55.149 233.024 56.2609 231.664 56.2609C230.336 56.2619 229.223 55.149 229.223 53.8203ZM229.686 58.1157H233.672V73.5672H229.686V58.1157ZM235.896 65.841C235.896 61.2364 239.511 57.6829 244.054 57.6829C248.597 57.6829 252.244 61.2364 252.244 65.841C252.244 70.4455 248.597 73.9991 244.054 73.9991C239.511 73.9991 235.896 70.4455 235.896 65.841ZM248.257 65.841C248.257 63.3385 246.434 61.5769 244.054 61.5769C241.706 61.5769 239.882 63.3385 239.882 65.841C239.882 68.3444 241.706 70.105 244.054 70.105C246.434 70.106 248.257 68.3444 248.257 65.841ZM268.865 64.0794V73.5663H264.879V64.574C264.879 62.4729 263.612 61.3915 261.82 61.3915C259.873 61.3915 258.42 62.5348 258.42 65.2237V73.5672H254.434V58.1157H258.42V59.8458C259.348 58.4552 260.954 57.6829 263.025 57.6829C266.301 57.6829 268.865 59.9695 268.865 64.0794Z" fill="#010101"/>
</svg>
