<svg width="500" height="330" viewBox="0 0 500 330" fill="none" xmlns="http://www.w3.org/2000/svg">
<rect width="500" height="329.167" rx="12" fill="#031E38"/>
<g clip-path="url(#clip0_2006_41)">
<path d="M216.078 128.02V202.02H211.157V167.444H119.921V202.019H115V128.02H119.922V162.578H211.157V128.02H216.078ZM206.245 128.02H201.324V152.722H129.765V128.02H124.843V157.588H206.245V128.02ZM139.628 128.02H134.761V147.714H139.628V128.02ZM196.368 128.02H191.446V147.714H196.368V128.02ZM124.843 202.019H129.765V177.318H201.324V202.02H206.245V172.396H124.843V202.019ZM191.406 202.019H196.328V182.271H191.406V202.019ZM134.722 202.019H139.643V182.271H134.722V202.019Z" fill="#E12991"/>
<path d="M242.268 128V149.631H238.035V140.669H229.265V149.631H225.001V128H229.265V136.591H238.035V128H242.268ZM259.662 134.18V149.631H255.676V147.901C254.748 149.292 253.142 150.064 251.071 150.064C247.795 150.064 245.231 147.777 245.231 143.667V134.181H249.217V143.173C249.217 145.275 250.484 146.356 252.276 146.356C254.223 146.356 255.676 145.213 255.676 142.524V134.181L259.662 134.18ZM286.235 140.113V149.631H282.249V140.392C282.249 138.568 281.322 137.456 279.653 137.456C277.892 137.456 276.779 138.631 276.779 140.948V149.631H272.793V140.392C272.793 138.568 271.865 137.456 270.197 137.456C268.497 137.456 267.292 138.631 267.292 140.948V149.631H263.306V134.18H267.292V135.818C268.158 134.52 269.61 133.747 271.588 133.747C273.503 133.747 274.925 134.551 275.79 135.972C276.748 134.581 278.293 133.747 280.394 133.747C283.918 133.748 286.235 136.25 286.235 140.113ZM305.358 134.18V149.631H301.372V147.808C300.259 149.198 298.591 150.064 296.335 150.064C292.225 150.064 288.825 146.51 288.825 141.906C288.825 137.301 292.225 133.748 296.335 133.748C298.591 133.748 300.259 134.613 301.372 136.004V134.181L305.358 134.18ZM301.372 141.906C301.372 139.31 299.549 137.549 297.077 137.549C294.636 137.549 292.813 139.31 292.813 141.906C292.813 144.502 294.636 146.263 297.077 146.263C299.549 146.263 301.372 144.502 301.372 141.906ZM323.401 140.144V149.631H319.415V140.639C319.415 138.538 318.148 137.456 316.356 137.456C314.409 137.456 312.956 138.6 312.956 141.289V149.632H308.97V134.18H312.956V135.91C313.884 134.519 315.49 133.747 317.561 133.747C320.837 133.748 323.401 136.034 323.401 140.144ZM232.141 168.089H229.264V175.599H225V153.968H234.021C238.007 153.968 241.221 157.181 241.221 161.136C241.221 163.856 239.521 166.297 237.049 167.441L241.839 175.599H237.235L232.141 168.089ZM229.264 164.35H234.02C235.626 164.35 236.955 162.928 236.955 161.136C236.955 159.344 235.626 157.954 234.02 157.954H229.264V164.35ZM243.689 155.853C243.689 154.524 245.17 153.381 246.499 153.381C247.858 153.381 248.603 154.524 248.603 155.853C248.603 157.181 247.49 158.294 246.131 158.294C244.802 158.294 243.689 157.181 243.689 155.853ZM244.153 160.148H248.14V175.6H244.153V160.148ZM266.896 160.148V174.858C266.896 179.926 262.909 182.213 258.83 182.213C255.523 182.213 252.866 180.946 251.506 178.443L254.905 176.496C255.554 177.701 256.574 178.659 258.953 178.659C261.456 178.659 263.002 177.299 263.002 174.858V173.189C261.92 174.642 260.251 175.538 258.057 175.538C253.669 175.538 250.363 171.984 250.363 167.627C250.363 163.301 253.669 159.716 258.057 159.716C260.252 159.716 261.92 160.612 263.002 162.065V160.149L266.896 160.148ZM263.002 167.626C263.002 165.184 261.178 163.424 258.675 163.424C256.172 163.424 254.349 165.185 254.349 167.626C254.349 170.098 256.172 171.86 258.675 171.86C261.178 171.86 263.002 170.098 263.002 167.626ZM284.938 166.112V175.599H280.952V166.606C280.952 164.505 279.685 163.424 277.893 163.424C275.946 163.424 274.493 164.567 274.493 167.256V175.6H270.507V153.968H274.493V161.878C275.421 160.488 277.027 159.715 279.098 159.715C282.374 159.715 284.938 162.002 284.938 166.112ZM293.68 163.979V170.407C293.68 172.076 294.885 172.107 297.172 171.983V175.599C291.578 176.217 289.694 174.579 289.694 170.407V163.979H287.005V160.147H289.694V157.027L293.68 155.821V160.147H297.172V163.979H293.68ZM311.293 171.087C311.293 174.425 308.388 176.032 305.081 176.032C301.99 176.032 299.704 174.734 298.592 172.354L302.053 170.407C302.486 171.674 303.537 172.416 305.082 172.416C306.349 172.416 307.214 171.983 307.214 171.087C307.214 168.831 299.242 170.068 299.242 164.629C299.242 161.477 301.931 159.715 305.113 159.715C307.617 159.715 309.779 160.859 310.985 162.991L307.585 164.845C307.121 163.856 306.256 163.269 305.113 163.269C304.124 163.269 303.321 163.702 303.321 164.536C303.32 166.822 311.293 165.401 311.293 171.087ZM229.264 184.015V189.144H238.406V193.224H229.264V201.567H225V179.935H238.653V184.014L229.264 184.015ZM240.164 193.841C240.164 189.236 243.78 185.683 248.322 185.683C252.865 185.683 256.512 189.236 256.512 193.841C256.512 198.446 252.865 201.999 248.322 201.999C243.78 201.999 240.164 198.446 240.164 193.841ZM252.526 193.841C252.526 191.339 250.702 189.577 248.322 189.577C245.974 189.577 244.151 191.339 244.151 193.841C244.151 196.344 245.974 198.105 248.322 198.105C250.702 198.106 252.526 196.344 252.526 193.841ZM272.886 186.116V201.567H268.9V199.837C267.972 201.228 266.366 202 264.295 202C261.019 202 258.455 199.713 258.455 195.604V186.117H262.441V195.109C262.441 197.211 263.708 198.292 265.5 198.292C267.447 198.292 268.9 197.149 268.9 194.46V186.117L272.886 186.116ZM290.96 192.079V201.566H286.974V192.574C286.974 190.473 285.707 189.391 283.915 189.391C281.968 189.391 280.515 190.535 280.515 193.224V201.567H276.529V186.116H280.515V187.846C281.443 186.455 283.049 185.683 285.12 185.683C288.396 185.683 290.96 187.969 290.96 192.079ZM310.054 179.935V201.566H306.068V199.743C304.955 201.165 303.317 201.999 301.062 201.999C296.921 201.999 293.522 198.446 293.522 193.841C293.522 189.236 296.922 185.683 301.062 185.683C303.318 185.683 304.956 186.517 306.068 187.939V179.935H310.054ZM306.068 193.841C306.068 191.245 304.245 189.484 301.803 189.484C299.331 189.484 297.508 191.245 297.508 193.841C297.508 196.437 299.331 198.198 301.803 198.198C304.245 198.199 306.068 196.438 306.068 193.841ZM329.243 186.116V201.567H325.257V199.744C324.144 201.134 322.475 202 320.219 202C316.109 202 312.71 198.447 312.71 193.842C312.71 189.237 316.109 185.684 320.219 185.684C322.475 185.684 324.144 186.549 325.257 187.94V186.117L329.243 186.116ZM325.257 193.841C325.257 191.245 323.433 189.484 320.961 189.484C318.521 189.484 316.697 191.245 316.697 193.841C316.697 196.437 318.521 198.198 320.961 198.198C323.433 198.199 325.257 196.438 325.257 193.841ZM338.385 189.948V196.376C338.385 198.044 339.59 198.075 341.876 197.952V201.567C336.282 202.185 334.398 200.548 334.398 196.376V189.948H331.71V186.116H334.398V182.995L338.385 181.79V186.116H341.876V189.948H338.385ZM344.223 181.82C344.223 180.492 345.336 179.348 346.664 179.348C348.024 179.348 349.136 180.492 349.136 181.82C349.136 183.149 348.024 184.261 346.664 184.261C345.336 184.262 344.223 183.149 344.223 181.82ZM344.686 186.116H348.672V201.567H344.686V186.116ZM350.896 193.841C350.896 189.236 354.511 185.683 359.054 185.683C363.597 185.683 367.244 189.236 367.244 193.841C367.244 198.446 363.597 201.999 359.054 201.999C354.511 201.999 350.896 198.446 350.896 193.841ZM363.257 193.841C363.257 191.339 361.434 189.577 359.054 189.577C356.706 189.577 354.882 191.339 354.882 193.841C354.882 196.344 356.706 198.105 359.054 198.105C361.434 198.106 363.257 196.344 363.257 193.841ZM383.865 192.079V201.566H379.879V192.574C379.879 190.473 378.612 189.391 376.82 189.391C374.873 189.391 373.42 190.535 373.42 193.224V201.567H369.434V186.116H373.42V187.846C374.348 186.455 375.954 185.683 378.025 185.683C381.301 185.683 383.865 187.969 383.865 192.079Z" fill="white"/>
</g>
<defs>
<clipPath id="clip0_2006_41">
<rect width="269" height="75" fill="white" transform="translate(115 128)"/>
</clipPath>
</defs>
</svg>
