<?xml version="1.0" standalone="no"?>
<!DOCTYPE svg PUBLIC "-//W3C//DTD SVG 20010904//EN"
 "http://www.w3.org/TR/2001/REC-SVG-20010904/DTD/svg10.dtd">
<svg version="1.0" xmlns="http://www.w3.org/2000/svg"
 width="400.000000pt" height="400.000000pt" viewBox="0 0 400.000000 400.000000"
 preserveAspectRatio="xMidYMid meet">

<g transform="translate(0.000000,400.000000) scale(0.100000,-0.100000)"
fill="#000000" stroke="none">
<path d="M0 2000 l0 -2000 2000 0 2000 0 0 2000 0 2000 -2000 0 -2000 0 0
-2000z m2312 1057 l58 -32 0 -222 c0 -202 -2 -222 -17 -227 -10 -4 -29 -15
-42 -25 l-24 -18 42 -24 41 -23 -2 -219 -3 -219 -175 -104 c-96 -57 -181 -103
-188 -103 -8 -1 -94 47 -193 105 l-179 106 0 219 0 219 24 6 c17 4 41 -3 76
-22 51 -28 52 -28 31 -45 -20 -16 -21 -27 -21 -161 l0 -143 130 -77 130 -76
130 75 130 76 0 148 0 149 -39 20 c-22 11 -42 24 -45 28 -3 5 17 21 44 36 28
15 50 29 50 31 0 2 -23 18 -52 35 l-52 32 47 27 47 26 0 146 0 147 -129 77
-130 76 -130 -76 -131 -77 0 -147 0 -146 -52 -32 -53 -31 -3 211 c-1 116 2
215 6 219 5 5 89 56 187 112 l177 104 127 -74 c69 -41 152 -89 183 -107z
m-1182 -1667 l0 -110 70 0 70 0 0 110 0 110 55 0 55 0 0 -290 0 -290 -55 0
-55 0 0 130 0 130 -70 0 -70 0 0 -130 0 -130 -55 0 -55 0 0 290 0 290 55 0 55
0 0 -110z m560 -104 c0 -201 1 -215 21 -240 25 -32 70 -35 99 -6 19 19 20 33
20 240 l0 220 56 0 55 0 -3 -239 c-3 -225 -4 -241 -24 -268 -67 -90 -210 -98
-286 -17 -44 48 -48 72 -48 305 l0 219 55 0 55 0 0 -214z m750 164 l0 -50 -60
0 -60 0 0 -240 0 -240 -55 0 -55 0 0 240 0 240 -60 0 -60 0 0 50 0 50 175 0
175 0 0 -50z m479 21 c69 -49 84 -177 27 -234 -15 -14 -14 -19 10 -54 23 -33
25 -46 22 -103 -2 -47 -10 -74 -26 -96 -69 -98 -246 -77 -282 32 -18 54 -8
150 18 176 l21 21 -22 31 c-31 43 -31 152 -1 193 49 67 164 83 233 34z"/>
<path d="M2776 1391 c-12 -13 -16 -32 -14 -62 2 -35 8 -46 31 -59 24 -13 30
-13 55 0 22 13 28 24 30 59 4 51 -18 81 -58 81 -15 0 -35 -9 -44 -19z"/>
<path d="M2776 1154 c-23 -23 -21 -106 2 -127 24 -22 65 -21 85 1 22 24 23
105 1 126 -8 9 -28 16 -44 16 -16 0 -36 -7 -44 -16z"/>
</g>
</svg>
