<svg xmlns="http://www.w3.org/2000/svg" viewBox="0 0 693.36 304.21"><defs><style>.cls-1{fill:#fff;}.cls-2{fill:#008082;}</style></defs><g id="Layer_2" data-name="Layer 2"><g id="Layer_1-2" data-name="Layer 1"><path class="cls-1" d="M323.56,87.27v47.42H292.68V87.27H268.92V213.63h23.76V156.47h30.88v57.16h23.76V87.27Z"/><path class="cls-1" d="M444.78,87.27v88.94a15.37,15.37,0,0,1-4.35,11.19,16,16,0,0,1-22.18,0,15.37,15.37,0,0,1-4.35-11.19V87.27H390.14v88.94q0,16.23,11.09,26.83t28.11,10.59q17,0,28.11-10.59t11.09-26.83V87.27Z"/><path class="cls-1" d="M501.27,87.27V109.4H526.4V213.63h24.14V109.4h25.14V87.27Z"/><path class="cls-1" d="M681.78,148.7q11.58,8.76,11.58,23.51v8.25q0,14.39-9.83,23.78t-24.92,9.39q-15.09,0-24.92-9.39t-9.83-23.78v-8.25q0-14.75,11.59-23.51-11.6-8.77-11.59-23.52v-4.74q0-14.39,9.83-23.78t24.92-9.39q15.1,0,24.92,9.39t9.83,23.78v4.74Q693.36,139.92,681.78,148.7Zm-36.86-23.52a13.6,13.6,0,0,0,3.86,9.91,14.21,14.21,0,0,0,19.66,0,13.56,13.56,0,0,0,3.86-9.91v-4.74a13.6,13.6,0,0,0-3.86-9.92,14.21,14.21,0,0,0-19.66,0,13.64,13.64,0,0,0-3.86,9.92Zm27.38,47a13.56,13.56,0,0,0-3.86-9.91,14.21,14.21,0,0,0-19.66,0,13.6,13.6,0,0,0-3.86,9.91v8.25a13.64,13.64,0,0,0,3.86,9.92,14.21,14.21,0,0,0,19.66,0,13.6,13.6,0,0,0,3.86-9.92Z"/><polygon class="cls-2" points="80.52 145.28 69.43 151.81 104.56 173.43 80.64 187.06 0.31 140.64 0.04 140.48 24.18 125.93 24.86 126.31 44.78 137.49 80.51 115.99 117.09 137.49 141.94 152.13 116.95 166.37 80.52 145.28"/><polygon class="cls-1" points="162.06 256.78 80.8 304.21 0.02 256.73 0.02 163.73 9.2 158.41 34.6 172.57 24.46 178.28 24.46 241.26 80.8 274.51 137.73 241.28 137.88 178.28 117.16 166.49 116.95 166.37 141.94 152.13 141.95 152.13 162.02 163.73 162.06 256.78"/><polygon class="cls-1" points="162.04 47.48 162.04 140.48 141.94 152.13 117.09 137.49 137.6 125.93 137.6 62.95 81.26 29.7 24.33 62.93 24.18 125.93 0.04 140.48 0 47.43 81.26 0 162.04 47.48"/></g></g></svg>