<svg version="1.1" id="Layer_1" xmlns="http://www.w3.org/2000/svg" xmlns:xlink="http://www.w3.org/1999/xlink" x="0px" y="0px"
	 width="100%" viewBox="0 0 340 148" enable-background="new 0 0 340 148" xml:space="preserve">
<path fill="#FEFEFE" opacity="1.000000" stroke="none" 
	d="
M341.000000,93.000000 
	C341.000000,111.643639 341.000000,130.287277 341.000000,149.000000 
	C241.645782,149.000000 142.291550,149.000000 42.495140,148.645660 
	C53.817013,141.524414 65.641685,134.858383 77.272797,127.870216 
	C78.826683,126.936615 80.243614,124.393768 80.290314,122.559631 
	C80.569336,111.602180 79.829460,100.589920 80.633171,89.684616 
	C81.189507,82.135887 78.639420,77.855240 71.830467,75.450470 
	C71.969055,74.911133 71.912376,74.609787 72.095261,74.193878 
	C79.054359,71.893539 81.426804,67.553062 80.564369,60.543968 
	C79.859703,54.816994 80.471039,48.933701 80.407570,43.120708 
	C80.337166,36.672447 82.277130,28.992716 79.438881,24.124756 
	C76.607185,19.268055 68.924240,17.259489 63.400917,13.947644 
	C56.250309,9.660063 49.132137,5.318386 42.000000,1.000000 
	C141.551819,1.000000 241.103638,1.000000 341.000000,1.000000 
	C341.000000,27.686573 341.000000,54.374626 340.654114,81.424118 
	C338.984711,78.978661 337.661194,76.171776 336.269318,73.219879 
	C341.706207,65.115410 341.195007,54.081795 334.935028,48.330006 
	C329.185089,43.046841 319.416718,42.476967 313.263275,47.065701 
	C305.670471,52.727795 304.611816,62.790874 310.482697,73.938622 
	C309.730560,74.983582 308.772278,75.971062 308.213226,77.148170 
	C304.879181,84.168350 304.600647,91.328102 308.515869,98.115150 
	C312.121429,104.365463 318.175140,106.520470 325.109680,105.995071 
	C333.327484,105.372421 337.831909,99.938423 341.000000,93.000000 
M159.982483,49.606960 
	C159.982483,55.886086 159.982483,62.165211 159.982483,68.319595 
	C154.708084,68.319595 149.953354,68.319595 144.774597,68.319595 
	C144.774597,60.463951 144.774597,52.880028 144.774597,45.187454 
	C141.101395,45.187454 137.867920,45.187454 134.460770,45.187454 
	C134.460770,65.188377 134.460770,84.917671 134.460770,104.822525 
	C138.045425,104.822525 141.411316,104.822525 145.093353,104.822525 
	C145.093353,96.104370 145.093353,87.681206 145.093353,79.113892 
	C150.146408,79.113892 154.875793,79.113892 160.097595,79.113892 
	C160.097595,87.877800 160.097595,96.438591 160.097595,104.810822 
	C163.846603,104.810822 167.096863,104.810822 170.417175,104.810822 
	C170.417175,84.763840 170.417175,65.029366 170.417175,45.106133 
	C166.918564,45.106133 163.666702,45.106133 159.982498,45.106133 
	C159.982498,46.393780 159.982498,47.513641 159.982483,49.606960 
M208.241425,95.796425 
	C204.311081,94.016014 203.424713,90.714966 203.445908,86.752594 
	C203.519669,72.957123 203.474411,59.161003 203.474411,45.297783 
	C199.703232,45.297783 196.342850,45.297783 192.896332,45.297783 
	C192.896332,59.814922 192.845566,73.967461 192.913696,88.119431 
	C192.961227,97.995766 200.081665,105.407059 209.930832,106.033745 
	C220.529114,106.708084 229.317078,100.239067 229.735092,90.060188 
	C230.347504,75.147850 229.892731,60.191692 229.892731,45.231777 
	C226.141754,45.231777 222.752472,45.231777 219.074982,45.231777 
	C219.074982,59.656826 219.130615,73.785149 219.050232,87.912704 
	C219.013031,94.450981 215.783737,96.959869 208.241425,95.796425 
M270.114594,68.509895 
	C270.114594,64.074532 270.114594,59.639164 270.114594,54.864586 
	C274.489838,54.864586 278.262848,54.864586 282.112640,54.864586 
	C282.112640,51.438213 282.112640,48.367050 282.112640,45.202927 
	C270.322906,45.202927 258.757568,45.202927 247.208939,45.202927 
	C247.208939,48.549484 247.208939,51.620922 247.208939,55.045437 
	C251.225220,55.045437 254.978592,55.045437 259.208435,55.045437 
	C259.208435,71.948929 259.208435,88.493454 259.208435,104.773643 
	C263.128479,104.773643 266.546448,104.773643 270.114594,104.773643 
	C270.114594,92.798370 270.114594,81.152214 270.114594,68.509895 
z"/>
<path fill="#FDFDFD" opacity="1.000000" stroke="none" 
	d="
M1.000000,80.000000 
	C1.000000,76.637901 1.000000,73.275795 1.158314,69.641800 
	C1.316629,69.369911 1.791021,69.260193 1.973604,69.550552 
	C14.046031,76.786057 25.886415,83.819214 37.888649,90.564392 
	C39.380127,91.402603 41.965088,91.286209 43.631634,90.604958 
	C46.630493,89.379082 49.317345,87.389954 52.738556,85.361580 
	C46.795918,81.737595 41.408302,78.452080 36.042114,75.179626 
	C39.019936,71.893776 41.580788,72.243851 44.694771,74.152718 
	C49.472652,77.081535 54.555363,79.513084 59.705040,82.459282 
	C60.898949,83.359764 61.830494,84.146652 62.905647,84.520325 
	C67.344681,86.063118 68.513893,89.103798 68.259087,93.656357 
	C67.859222,100.800575 68.028816,107.986839 68.214905,115.148605 
	C68.288101,117.965691 67.536530,119.670807 64.932014,121.076202 
	C57.774296,124.938499 50.866989,129.267288 43.682674,133.075851 
	C42.191242,133.866501 39.571117,133.889542 38.087902,133.103149 
	C30.904425,129.294510 23.834364,125.242973 16.956562,120.908653 
	C15.380782,119.915619 13.866738,117.500618 13.791011,115.679062 
	C13.452091,107.526558 13.496632,99.347527 13.745481,91.188530 
	C13.808591,89.119400 15.131817,87.088715 16.037529,84.595825 
	C13.850745,83.271370 10.893680,81.749557 8.252432,79.799904 
	C5.923141,78.080513 4.065908,78.437088 1.824741,80.144196 
	C1.362214,80.098030 1.181107,80.049019 1.000000,80.000000 
z"/>
<path fill="#050505" opacity="1.000000" stroke="none" 
	d="
M2.106161,80.141335 
	C4.065908,78.437088 5.923141,78.080513 8.252432,79.799904 
	C10.893680,81.749557 13.850745,83.271370 16.037529,84.595825 
	C15.131817,87.088715 13.808591,89.119400 13.745481,91.188530 
	C13.496632,99.347527 13.452091,107.526558 13.791011,115.679062 
	C13.866738,117.500618 15.380782,119.915619 16.956562,120.908653 
	C23.834364,125.242973 30.904425,129.294510 38.087902,133.103149 
	C39.571117,133.889542 42.191242,133.866501 43.682674,133.075851 
	C50.866989,129.267288 57.774296,124.938499 64.932014,121.076202 
	C67.536530,119.670807 68.288101,117.965691 68.214905,115.148605 
	C68.028816,107.986839 67.859222,100.800575 68.259087,93.656357 
	C68.513893,89.103798 67.344681,86.063118 62.905647,84.520325 
	C61.830494,84.146652 60.898949,83.359764 60.054726,82.325371 
	C64.054153,79.814430 67.900223,77.741013 71.746292,75.667587 
	C78.639420,77.855240 81.189507,82.135887 80.633171,89.684616 
	C79.829460,100.589920 80.569336,111.602180 80.290314,122.559631 
	C80.243614,124.393768 78.826683,126.936615 77.272797,127.870216 
	C65.641685,134.858383 53.817013,141.524414 42.026482,148.645660 
	C41.555553,149.000000 41.111111,149.000000 40.264000,148.656281 
	C27.182438,140.926849 14.503541,133.541153 1.874575,125.679184 
	C1.985057,110.182381 2.045609,95.161858 2.106161,80.141335 
z"/>
<path fill="#030303" opacity="1.000000" stroke="none" 
	d="
M41.666668,1.000000 
	C49.132137,5.318386 56.250309,9.660063 63.400917,13.947644 
	C68.924240,17.259489 76.607185,19.268055 79.438881,24.124756 
	C82.277130,28.992716 80.337166,36.672447 80.407570,43.120708 
	C80.471039,48.933701 79.859703,54.816994 80.564369,60.543968 
	C81.426804,67.553062 79.054359,71.893539 71.767944,74.083214 
	C67.280640,71.870651 63.471306,69.633331 59.998474,67.180084 
	C61.182144,66.443848 61.967773,65.734558 62.886913,65.435204 
	C67.393524,63.967434 68.508553,60.895905 68.259964,56.354622 
	C67.869209,49.216145 68.044876,42.037968 68.212013,34.882004 
	C68.277084,32.096378 67.560738,30.340597 64.959808,28.925682 
	C57.677834,24.964252 50.633011,20.564837 43.325382,16.654493 
	C41.984020,15.936723 39.535103,16.126011 38.130749,16.884321 
	C30.980518,20.745235 24.072424,25.053665 16.933489,28.936890 
	C14.399217,30.315409 13.452863,31.875408 13.505129,34.774460 
	C13.673168,44.094910 13.526390,53.421032 13.148104,62.723122 
	C9.234404,64.554886 5.673635,66.408501 2.064903,67.779114 
	C1.958492,52.808128 1.900045,38.320137 2.037560,23.549389 
	C4.392668,22.056507 6.578536,20.891409 8.706436,19.628630 
	C19.146086,13.433346 29.570320,7.212083 40.000000,1.000000 
	C40.444447,1.000000 40.888889,1.000000 41.666668,1.000000 
z"/>
<path fill="#040404" opacity="1.000000" stroke="none" 
	d="
M341.000000,92.541931 
	C337.831909,99.938423 333.327484,105.372421 325.109680,105.995071 
	C318.175140,106.520470 312.121429,104.365463 308.515869,98.115150 
	C304.600647,91.328102 304.879181,84.168350 308.213226,77.148170 
	C308.772278,75.971062 309.730560,74.983582 310.482697,73.938622 
	C304.611816,62.790874 305.670471,52.727795 313.263275,47.065701 
	C319.416718,42.476967 329.185089,43.046841 334.935028,48.330006 
	C341.195007,54.081795 341.706207,65.115410 336.269318,73.219879 
	C337.661194,76.171776 338.984711,78.978661 340.654114,81.892776 
	C341.000000,85.361290 341.000000,88.722572 341.000000,92.541931 
M327.180481,80.197105 
	C323.416290,78.003586 320.066498,78.606529 317.626678,82.141754 
	C315.518280,85.196716 316.637146,92.665215 319.164001,94.648056 
	C322.751984,97.463585 328.681702,96.231575 329.293915,91.954491 
	C329.809143,88.354851 328.365112,84.474770 327.180481,80.197105 
M329.125427,60.696602 
	C328.346375,54.632767 323.758331,51.805500 319.817139,55.143913 
	C316.443726,58.001434 316.391022,62.143097 318.196320,65.569458 
	C319.121948,67.326256 322.300995,68.859962 324.428101,68.817413 
	C328.762878,68.730713 329.289978,65.126846 329.125427,60.696602 
z"/>
<path fill="#FCFCFC" opacity="1.000000" stroke="none" 
	d="
M39.531342,1.000000 
	C29.570320,7.212083 19.146086,13.433346 8.706436,19.628630 
	C6.578536,20.891409 4.392668,22.056507 1.807713,23.493847 
	C1.381903,23.721058 1.000000,24.000000 1.000000,24.000000 
	C1.000000,16.387850 1.000000,8.775701 1.000000,1.000000 
	C13.687172,1.000000 26.374928,1.000000 39.531342,1.000000 
z"/>
<path fill="#FCFCFC" opacity="1.000000" stroke="none" 
	d="
M1.824644,126.155464 
	C14.503541,133.541153 27.182438,140.926849 39.930668,148.656281 
	C27.092474,149.000000 14.184950,149.000000 1.000000,149.000000 
	C1.000000,141.648148 1.000000,134.292816 1.184810,126.620857 
	C1.369621,126.304237 1.824645,126.155464 1.824644,126.155464 
z"/>
<path fill="#777777" opacity="1.000000" stroke="none" 
	d="
M1.874575,125.679184 
	C1.824645,126.155464 1.369621,126.304237 1.184810,126.152115 
	C1.000000,110.979103 1.000000,95.958214 1.000000,80.468658 
	C1.181107,80.049019 1.362214,80.098030 1.824741,80.144196 
	C2.045609,95.161858 1.985057,110.182381 1.874575,125.679184 
z"/>
<path fill="#676767" opacity="1.000000" stroke="none" 
	d="
M1.000000,24.468658 
	C1.000000,24.000000 1.381903,23.721058 1.611750,23.776600 
	C1.900045,38.320137 1.958492,52.808128 2.001055,68.033058 
	C1.920454,68.933388 1.855738,69.096786 1.791021,69.260193 
	C1.791021,69.260193 1.316629,69.369911 1.158314,69.184952 
	C1.000000,54.312439 1.000000,39.624878 1.000000,24.468658 
z"/>
<path fill="#0A0A0A" opacity="1.000000" stroke="none" 
	d="
M159.982483,49.120232 
	C159.982498,47.513641 159.982498,46.393780 159.982498,45.106133 
	C163.666702,45.106133 166.918564,45.106133 170.417175,45.106133 
	C170.417175,65.029366 170.417175,84.763840 170.417175,104.810822 
	C167.096863,104.810822 163.846603,104.810822 160.097595,104.810822 
	C160.097595,96.438591 160.097595,87.877800 160.097595,79.113892 
	C154.875793,79.113892 150.146408,79.113892 145.093353,79.113892 
	C145.093353,87.681206 145.093353,96.104370 145.093353,104.822525 
	C141.411316,104.822525 138.045425,104.822525 134.460770,104.822525 
	C134.460770,84.917671 134.460770,65.188377 134.460770,45.187454 
	C137.867920,45.187454 141.101395,45.187454 144.774597,45.187454 
	C144.774597,52.880028 144.774597,60.463951 144.774597,68.319595 
	C149.953354,68.319595 154.708084,68.319595 159.982483,68.319595 
	C159.982483,62.165211 159.982483,55.886086 159.982483,49.120232 
z"/>
<path fill="#020202" opacity="1.000000" stroke="none" 
	d="
M208.650482,95.896759 
	C215.783737,96.959869 219.013031,94.450981 219.050232,87.912704 
	C219.130615,73.785149 219.074982,59.656826 219.074982,45.231777 
	C222.752472,45.231777 226.141754,45.231777 229.892731,45.231777 
	C229.892731,60.191692 230.347504,75.147850 229.735092,90.060188 
	C229.317078,100.239067 220.529114,106.708084 209.930832,106.033745 
	C200.081665,105.407059 192.961227,97.995766 192.913696,88.119431 
	C192.845566,73.967461 192.896332,59.814922 192.896332,45.297783 
	C196.342850,45.297783 199.703232,45.297783 203.474411,45.297783 
	C203.474411,59.161003 203.519669,72.957123 203.445908,86.752594 
	C203.424713,90.714966 204.311081,94.016014 208.650482,95.896759 
z"/>
<path fill="#0B8081" opacity="1.000000" stroke="none" 
	d="
M1.973604,69.550552 
	C1.855738,69.096786 1.920454,68.933388 2.049018,68.516052 
	C5.673635,66.408501 9.234404,64.554886 13.549182,62.794899 
	C20.562576,68.127289 26.608414,67.402733 32.639355,62.393044 
	C34.015827,61.249653 35.930828,60.763939 37.342228,59.651154 
	C39.805950,57.708698 41.829445,58.102406 44.449146,59.628510 
	C49.361378,62.490120 54.574184,64.835762 59.661976,67.396004 
	C63.471306,69.633331 67.280640,71.870651 71.417282,74.218643 
	C71.912376,74.609787 71.969055,74.911133 71.830467,75.450470 
	C67.900223,77.741013 64.054153,79.814430 59.858395,82.021759 
	C54.555363,79.513084 49.472652,77.081535 44.694771,74.152718 
	C41.580788,72.243851 39.019936,71.893776 36.042114,75.179626 
	C41.408302,78.452080 46.795918,81.737595 52.738556,85.361580 
	C49.317345,87.389954 46.630493,89.379082 43.631634,90.604958 
	C41.965088,91.286209 39.380127,91.402603 37.888649,90.564392 
	C25.886415,83.819214 14.046031,76.786057 1.973604,69.550552 
z"/>
<path fill="#020202" opacity="1.000000" stroke="none" 
	d="
M270.114594,69.007980 
	C270.114594,81.152214 270.114594,92.798370 270.114594,104.773643 
	C266.546448,104.773643 263.128479,104.773643 259.208435,104.773643 
	C259.208435,88.493454 259.208435,71.948929 259.208435,55.045437 
	C254.978592,55.045437 251.225220,55.045437 247.208939,55.045437 
	C247.208939,51.620922 247.208939,48.549484 247.208939,45.202927 
	C258.757568,45.202927 270.322906,45.202927 282.112640,45.202927 
	C282.112640,48.367050 282.112640,51.438213 282.112640,54.864586 
	C278.262848,54.864586 274.489838,54.864586 270.114594,54.864586 
	C270.114594,59.639164 270.114594,64.074532 270.114594,69.007980 
z"/>
<path fill="#FDFEFE" opacity="1.000000" stroke="none" 
	d="
M59.998474,67.180084 
	C54.574184,64.835762 49.361378,62.490120 44.449146,59.628510 
	C41.829445,58.102406 39.805950,57.708698 37.342228,59.651154 
	C35.930828,60.763939 34.015827,61.249653 32.639355,62.393044 
	C26.608414,67.402733 20.562576,68.127289 13.902113,62.816750 
	C13.526390,53.421032 13.673168,44.094910 13.505129,34.774460 
	C13.452863,31.875408 14.399217,30.315409 16.933489,28.936890 
	C24.072424,25.053665 30.980518,20.745235 38.130749,16.884321 
	C39.535103,16.126011 41.984020,15.936723 43.325382,16.654493 
	C50.633011,20.564837 57.677834,24.964252 64.959808,28.925682 
	C67.560738,30.340597 68.277084,32.096378 68.212013,34.882004 
	C68.044876,42.037968 67.869209,49.216145 68.259964,56.354622 
	C68.508553,60.895905 67.393524,63.967434 62.886913,65.435204 
	C61.967773,65.734558 61.182144,66.443848 59.998474,67.180084 
z"/>
<path fill="#F9F9F9" opacity="1.000000" stroke="none" 
	d="
M327.484436,80.457970 
	C328.365112,84.474770 329.809143,88.354851 329.293915,91.954491 
	C328.681702,96.231575 322.751984,97.463585 319.164001,94.648056 
	C316.637146,92.665215 315.518280,85.196716 317.626678,82.141754 
	C320.066498,78.606529 323.416290,78.003586 327.484436,80.457970 
z"/>
<path fill="#F5F5F5" opacity="1.000000" stroke="none" 
	d="
M329.126709,61.124229 
	C329.289978,65.126846 328.762878,68.730713 324.428101,68.817413 
	C322.300995,68.859962 319.121948,67.326256 318.196320,65.569458 
	C316.391022,62.143097 316.443726,58.001434 319.817139,55.143913 
	C323.758331,51.805500 328.346375,54.632767 329.126709,61.124229 
z"/>
</svg>