<svg width="500" height="330" viewBox="0 0 500 330" fill="none" xmlns="http://www.w3.org/2000/svg">
<g clip-path="url(#clip0_2_100)">
<path d="M488 0H12C5.37258 0 0 5.37258 0 12V317.167C0 323.794 5.37258 329.167 12 329.167H488C494.627 329.167 500 323.794 500 317.167V12C500 5.37258 494.627 0 488 0Z" fill="#031E38"/>
<path d="M488 0H12C5.37258 0 0 5.37258 0 12V317.167C0 323.794 5.37258 329.167 12 329.167H488C494.627 329.167 500 323.794 500 317.167V12C500 5.37258 494.627 0 488 0Z" fill="#031E38"/>
<path fill-rule="evenodd" clip-rule="evenodd" d="M115 168.426L126.832 161.026V160.847L115 153.434V147.497L132.257 158.671V163.202L115 174.382V168.426Z" fill="#FF3300"/>
<path fill-rule="evenodd" clip-rule="evenodd" d="M140.093 178.146H161.512V183.083H140.093V178.146Z" fill="#FF3300"/>
<path fill-rule="evenodd" clip-rule="evenodd" d="M166.214 161.006C166.214 151.484 170.889 146 177.576 146C184.262 146 188.937 151.484 188.937 161.006C188.937 170.686 184.262 176.278 177.576 176.278C170.889 176.278 166.214 170.686 166.214 161.006ZM184.313 161.006C184.313 153.988 181.636 149.916 177.576 149.916C173.516 149.916 170.838 153.988 170.838 161.006C170.838 168.182 173.516 172.362 177.576 172.362C181.636 172.362 184.299 168.182 184.299 161.006H184.313Z" fill="#FF3300"/>
<path fill-rule="evenodd" clip-rule="evenodd" d="M197.101 153.951H200.735L201.073 156.583H201.215C203.183 154.741 205.934 153.434 208.497 153.434C214.243 153.434 217.441 157.786 217.441 164.543C217.441 171.977 212.8 176.295 207.638 176.295C205.647 176.295 203.297 175.312 201.435 173.592H201.326L201.54 177.548V184.644H197.101V153.951ZM212.888 164.543C212.888 159.979 211.228 157.11 207.3 157.11C205.515 157.11 203.524 157.992 201.553 160.022V170.328C203.362 171.967 205.414 172.561 206.803 172.561C210.265 172.575 212.888 169.696 212.888 164.543Z" fill="#FF3300"/>
<path fill-rule="evenodd" clip-rule="evenodd" d="M224.188 164.81C224.188 157.715 229.537 153.417 235.371 153.417C241.77 153.417 245.411 157.617 245.411 163.702C245.403 164.51 245.336 165.316 245.208 166.114H227.268V162.861H242.443L241.48 163.945C241.48 159.215 239.194 156.85 235.5 156.85C231.683 156.85 228.553 159.664 228.553 164.803C228.553 170.159 231.91 172.798 236.598 172.798C239.035 172.798 240.993 172.061 242.967 170.879L244.522 173.686C242.004 175.366 239.047 176.267 236.02 176.278C229.415 176.278 224.188 172.071 224.188 164.81Z" fill="#FF3300"/>
<path fill-rule="evenodd" clip-rule="evenodd" d="M251.986 153.951H255.627L255.965 157.424H256.141C258.331 155.187 260.819 153.434 264.186 153.434C269.284 153.434 271.606 156.566 271.606 162.242V175.734H267.161V162.807C267.161 159.002 265.883 157.245 262.651 157.245C260.285 157.245 258.68 158.411 256.431 160.715V175.734H251.986V153.951Z" fill="#FF3300"/>
<path fill-rule="evenodd" clip-rule="evenodd" d="M280.324 171.987L282.958 168.899C285.201 171.069 288.186 172.304 291.307 172.355C295.006 172.355 297.054 170.666 297.054 168.301C297.054 165.445 294.921 164.651 292.024 163.428L287.91 161.631C284.925 160.455 281.656 158.296 281.656 153.995C281.656 149.443 285.75 146 291.521 146C294.941 145.977 298.234 147.292 300.699 149.663L298.386 152.521C296.446 150.795 293.925 149.865 291.328 149.916C288.252 149.916 286.186 151.339 286.186 153.731C286.186 156.265 288.708 157.191 291.281 158.188L295.246 159.935C298.91 161.36 301.648 163.496 301.648 167.763C301.648 172.453 297.69 176.278 291.064 176.278C287.062 176.299 283.21 174.76 280.324 171.987Z" fill="white"/>
<path fill-rule="evenodd" clip-rule="evenodd" d="M308.903 169.99C308.903 165.104 313.338 162.698 324.348 161.881C324.19 159.178 322.743 157.022 318.866 157.022C316.229 157.022 313.629 158.228 311.496 159.475L309.806 156.512C312.253 155.002 315.891 153.424 319.663 153.424C325.674 153.424 328.791 156.87 328.791 162.628V175.734H325.123L324.768 172.906H324.625C322.293 174.73 319.261 176.285 316.276 176.285C312.108 176.278 308.903 173.828 308.903 169.99ZM324.348 169.821V164.719C315.799 165.331 313.247 167.054 313.247 169.652C313.247 171.842 315.211 172.747 317.544 172.747C319.876 172.747 322.09 171.656 324.348 169.821Z" fill="white"/>
<path fill-rule="evenodd" clip-rule="evenodd" d="M341.152 167.121V157.488H335.142V154.184L341.325 153.951L341.906 147.044H345.595V153.951H355.881V157.488H345.595V167.135C345.595 170.882 346.92 172.696 350.865 172.696C352.564 172.691 354.248 172.375 355.834 171.764L356.736 175.011C354.528 175.833 352.193 176.262 349.837 176.278C343.319 176.278 341.152 172.592 341.152 167.121Z" fill="white"/>
<path fill-rule="evenodd" clip-rule="evenodd" d="M363.305 172.889L365.282 170.014C368.004 171.917 371.255 172.917 374.575 172.872C377.919 172.872 379.517 171.521 379.517 169.902C379.517 168.361 378.612 167.385 373.122 166.253C367.375 165.06 364.67 163.067 364.67 159.769C364.67 156.127 367.95 153.417 373.984 153.417C377.452 153.417 380.765 154.768 382.949 156.248L380.863 159.019C378.716 157.577 376.191 156.8 373.605 156.785C370.36 156.785 369.105 158.066 369.105 159.56C369.105 161.249 370.847 161.925 375.126 162.847C382.225 164.401 384 166.226 384 169.639C384 173.284 380.464 176.278 374.028 176.278C370.197 176.229 366.467 175.05 363.305 172.889Z" fill="white"/>
</g>
<defs>
<clipPath id="clip0_2_100">
<rect width="500" height="330" fill="white"/>
</clipPath>
</defs>
</svg>
