<svg width="500" height="330" viewBox="0 0 500 330" fill="none" xmlns="http://www.w3.org/2000/svg">
<rect width="500" height="329.167" rx="12" fill="#031E38"/>
<path fill-rule="evenodd" clip-rule="evenodd" d="M72.248 169.599L87.8428 159.834V159.597L72.248 149.814V141.98L94.9942 156.726V162.705L72.248 177.46V169.599Z" fill="#FF3300"/>
<path fill-rule="evenodd" clip-rule="evenodd" d="M105.322 182.428H133.553V188.942H105.322V182.428Z" fill="#FF3300"/>
<path fill-rule="evenodd" clip-rule="evenodd" d="M139.752 159.807C139.752 147.241 145.914 140.004 154.727 140.004C163.541 140.004 169.703 147.241 169.703 159.807C169.703 172.582 163.541 179.962 154.727 179.962C145.914 179.962 139.752 172.582 139.752 159.807ZM163.608 159.807C163.608 150.545 160.079 145.172 154.727 145.172C149.376 145.172 145.847 150.545 145.847 159.807C145.847 169.278 149.376 174.794 154.727 174.794C160.079 174.794 163.59 169.278 163.59 159.807H163.608Z" fill="#FF3300"/>
<path fill-rule="evenodd" clip-rule="evenodd" d="M180.463 150.496H185.253L185.698 153.97H185.886C188.479 151.54 192.106 149.814 195.483 149.814C203.057 149.814 207.273 155.557 207.273 164.475C207.273 174.285 201.155 179.984 194.351 179.984C191.727 179.984 188.63 178.686 186.175 176.417H186.032L186.313 181.638V191.002H180.463V150.496ZM201.271 164.475C201.271 158.451 199.083 154.666 193.905 154.666C191.553 154.666 188.928 155.829 186.331 158.509V172.109C188.715 174.272 191.42 175.057 193.251 175.057C197.813 175.075 201.271 171.276 201.271 164.475Z" fill="#FF3300"/>
<path fill-rule="evenodd" clip-rule="evenodd" d="M216.166 164.828C216.166 155.464 223.215 149.792 230.906 149.792C239.34 149.792 244.139 155.334 244.139 163.365C244.129 164.432 244.039 165.496 243.872 166.549H220.226V162.255H240.227L238.957 163.686C238.957 157.444 235.945 154.322 231.075 154.322C226.045 154.322 221.919 158.037 221.919 164.819C221.919 171.886 226.343 175.369 232.523 175.369C235.736 175.369 238.316 174.397 240.918 172.836L242.967 176.542C239.648 178.758 235.751 179.948 231.761 179.962C223.055 179.962 216.166 174.41 216.166 164.828Z" fill="#FF3300"/>
<path fill-rule="evenodd" clip-rule="evenodd" d="M252.805 150.496H257.604L258.049 155.08H258.281C261.168 152.128 264.447 149.814 268.885 149.814C275.604 149.814 278.666 153.948 278.666 161.439V179.244H272.806V162.184C272.806 157.163 271.122 154.844 266.863 154.844C263.744 154.844 261.627 156.382 258.664 159.423V179.244H252.805V150.496Z" fill="#FF3300"/>
<path fill-rule="evenodd" clip-rule="evenodd" d="M290.156 174.299L293.627 170.223C296.584 173.087 300.519 174.718 304.632 174.785C309.507 174.785 312.207 172.555 312.207 169.434C312.207 165.666 309.396 164.618 305.577 163.004L300.155 160.632C296.22 159.08 291.912 156.231 291.912 150.554C291.912 144.548 297.307 140.004 304.914 140.004C309.421 139.974 313.762 141.709 317.011 144.838L313.963 148.61C311.405 146.332 308.082 145.104 304.66 145.172C300.605 145.172 297.882 147.05 297.882 150.207C297.882 153.551 301.206 154.773 304.597 156.088L309.824 158.393C314.653 160.275 318.262 163.093 318.262 168.725C318.262 174.914 313.045 179.962 304.312 179.962C299.037 179.99 293.959 177.959 290.156 174.299Z" fill="black"/>
<path fill-rule="evenodd" clip-rule="evenodd" d="M327.824 171.664C327.824 165.216 333.671 162.041 348.182 160.962C347.973 157.395 346.066 154.55 340.956 154.55C337.48 154.55 334.054 156.142 331.242 157.787L329.014 153.876C332.24 151.883 337.035 149.801 342.007 149.801C349.929 149.801 354.038 154.349 354.038 161.947V179.244H349.203L348.735 175.512H348.548C345.474 177.92 341.477 179.971 337.542 179.971C332.049 179.962 327.824 176.729 327.824 171.664ZM348.182 171.441V164.707C336.914 165.515 333.55 167.789 333.55 171.218C333.55 174.107 336.139 175.302 339.214 175.302C342.288 175.302 345.206 173.862 348.182 171.441Z" fill="black"/>
<path fill-rule="evenodd" clip-rule="evenodd" d="M370.332 167.878V155.165H362.41V150.804L370.56 150.496L371.326 141.382H376.188V150.496H389.746V155.165H376.188V167.895C376.188 172.84 377.934 175.235 383.134 175.235C385.374 175.229 387.594 174.811 389.684 174.004L390.873 178.289C387.963 179.375 384.885 179.941 381.779 179.962C373.188 179.962 370.332 175.097 370.332 167.878Z" fill="black"/>
<path fill-rule="evenodd" clip-rule="evenodd" d="M399.529 175.489L402.136 171.695C405.723 174.206 410.008 175.526 414.385 175.467C418.791 175.467 420.899 173.683 420.899 171.547C420.899 169.514 419.705 168.226 412.469 166.732C404.894 165.158 401.329 162.527 401.329 158.175C401.329 153.368 405.652 149.792 413.605 149.792C418.176 149.792 422.543 151.575 425.421 153.529L422.672 157.185C419.842 155.282 416.514 154.257 413.106 154.238C408.828 154.238 407.175 155.927 407.175 157.898C407.175 160.128 409.47 161.02 415.111 162.237C424.468 164.288 426.807 166.696 426.807 171.2C426.807 176.011 422.146 179.962 413.663 179.962C408.614 179.898 403.697 178.342 399.529 175.489Z" fill="black"/>
</svg>
