<svg width="24" height="24" viewBox="0 0 24 24" fill="none" xmlns="http://www.w3.org/2000/svg">
<path d="M7 11.1V6C7 3.2 9.2 1 12 1C14.8 1 17 3.2 17 6V11.1" stroke="#5BEBF3" stroke-width="2" stroke-miterlimit="10"/>
<path d="M12 23C15.866 23 19 19.866 19 16C19 12.134 15.866 9 12 9C8.13401 9 5 12.134 5 16C5 19.866 8.13401 23 12 23Z" stroke="#5BEBF3" stroke-width="2" stroke-miterlimit="10" stroke-linecap="square"/>
<path d="M12 17C13.1046 17 14 16.1046 14 15C14 13.8954 13.1046 13 12 13C10.8954 13 10 13.8954 10 15C10 16.1046 10.8954 17 12 17Z" stroke="#FFCC00" stroke-width="2" stroke-miterlimit="10" stroke-linecap="square"/>
<path d="M12 17V19" stroke="#FFCC00" stroke-width="2" stroke-miterlimit="10" stroke-linecap="square"/>
</svg>
