<svg width="73" height="73" viewBox="0 0 73 73" fill="none" xmlns="http://www.w3.org/2000/svg">
<path fill-rule="evenodd" clip-rule="evenodd" d="M15.1302 0.833159C15.2914 0.671955 15.5106 0.581299 15.7394 0.581299H71.2912C71.6379 0.581299 71.9506 0.788446 72.0838 1.1064C72.217 1.42435 72.1447 1.7907 71.9003 2.03506L57.1699 16.768C57.0088 16.9292 56.7895 17.0199 56.5608 17.0199H1.00896C0.662251 17.0199 0.349566 16.8127 0.216334 16.4948C0.0831022 16.1768 0.155476 15.8105 0.399795 15.5661L15.1302 0.833159ZM16.0967 2.28692L3.07165 15.3142H56.2034L69.2285 2.28692H16.0967Z" fill="#53F6AE"/>
<path fill-rule="evenodd" clip-rule="evenodd" d="M16.0665 0.645681C16.3881 0.777336 16.5979 1.08867 16.5979 1.43414V56.9955C16.5979 57.2207 16.5082 57.4367 16.3485 57.5965L1.61811 72.3294C1.37303 72.5745 1.00329 72.6485 0.681751 72.5169C0.360209 72.3852 0.150391 72.0739 0.150391 71.7284V16.1671C0.150391 15.9419 0.240036 15.7259 0.39977 15.5661L15.1302 0.833184C15.3752 0.588066 15.745 0.514026 16.0665 0.645681ZM1.86749 16.5186V69.6595L14.8808 56.644V3.50306L1.86749 16.5186Z" fill="#53F6AE"/>
<path fill-rule="evenodd" clip-rule="evenodd" d="M15.1302 56.3947C15.2914 56.2335 15.5106 56.1428 15.7394 56.1428H71.2912C71.6379 56.1428 71.9506 56.35 72.0838 56.6679C72.217 56.9859 72.1447 57.3522 71.9003 57.5966L57.1699 72.3295C57.0088 72.4907 56.7895 72.5814 56.5608 72.5814H1.00896C0.662251 72.5814 0.349566 72.3742 0.216334 72.0563C0.0831022 71.7383 0.155476 71.372 0.399795 71.1276L15.1302 56.3947ZM16.0967 57.8484L3.07165 70.8758H56.2034L69.2285 57.8484H16.0967Z" fill="#53F6AE"/>
<path fill-rule="evenodd" clip-rule="evenodd" d="M14.8809 0.581299H72.1498V57.8483H14.8809V0.581299ZM16.598 2.28692V56.1427H70.4327V2.28692H16.598Z" fill="#53F6AE"/>
<path fill-rule="evenodd" clip-rule="evenodd" d="M0.150391 15.3142H57.4193V72.5812H0.150391V15.3142ZM1.86749 17.0198V70.8756H55.7022V17.0198H1.86749Z" fill="#53F6AE"/>
<path fill-rule="evenodd" clip-rule="evenodd" d="M71.6193 0.645681C71.9408 0.777336 72.1506 1.08867 72.1506 1.43414V56.9955C72.1506 57.2207 72.061 57.4367 71.9012 57.5965L57.1708 72.3294C56.9258 72.5745 56.556 72.6485 56.2345 72.5169C55.9129 72.3852 55.7031 72.0739 55.7031 71.7284V16.1671C55.7031 15.9419 55.7928 15.7259 55.9525 15.5661L70.6829 0.833184C70.928 0.588066 71.2977 0.514026 71.6193 0.645681ZM57.4202 16.5186V69.6595L70.4335 56.644V3.50306L57.4202 16.5186Z" fill="#53F6AE"/>
</svg>
