<svg width="73" height="73" viewBox="0 0 73 73" fill="none" xmlns="http://www.w3.org/2000/svg">
<path fill-rule="evenodd" clip-rule="evenodd" d="M15.4162 0.831326C15.5761 0.671393 15.7931 0.581543 16.0192 0.581543H71.5801C71.9251 0.581543 72.236 0.789324 72.368 1.108C72.5 1.42667 72.4271 1.79348 72.1832 2.03739L57.4503 16.7703C57.2904 16.9303 57.0735 17.0201 56.8473 17.0201H1.28642C0.941497 17.0201 0.630533 16.8123 0.498535 16.4937C0.366537 16.175 0.439499 15.8082 0.6834 15.5643L15.4162 0.831326ZM16.3725 2.28717L3.34528 15.3145H56.4941L69.5213 2.28717H16.3725Z" fill="#FF8337"/>
<path fill-rule="evenodd" clip-rule="evenodd" d="M16.3456 0.646484C16.6642 0.778484 16.872 1.08945 16.872 1.43438V56.9958C16.872 57.2219 16.7822 57.4389 16.6222 57.5988L1.88942 72.3317C1.64552 72.5756 1.27872 72.6486 0.960045 72.5166C0.641373 72.3846 0.433594 72.0736 0.433594 71.7287V16.1673C0.433594 15.9411 0.523443 15.7242 0.683375 15.5643L15.4162 0.831351C15.6601 0.587448 16.0269 0.514485 16.3456 0.646484ZM2.1392 16.5206V69.6698L15.1664 56.6425V3.49325L2.1392 16.5206Z" fill="#FF8337"/>
<path fill-rule="evenodd" clip-rule="evenodd" d="M15.4162 56.3926C15.5761 56.2327 15.7931 56.1428 16.0192 56.1428H71.5801C71.9251 56.1428 72.236 56.3506 72.368 56.6693C72.5 56.988 72.4271 57.3548 72.1832 57.5987L57.4503 72.3316C57.2904 72.4915 57.0735 72.5814 56.8473 72.5814H1.28642C0.941497 72.5814 0.630533 72.3736 0.498535 72.0549C0.366537 71.7363 0.439499 71.3694 0.6834 71.1255L15.4162 56.3926ZM16.3725 57.8484L3.34528 70.8758H56.4941L69.5213 57.8484H16.3725Z" fill="#FF8337"/>
<path fill-rule="evenodd" clip-rule="evenodd" d="M15.166 0.581543H72.4325V57.8486H15.166V0.581543ZM16.8716 2.28717V56.1429H70.7269V2.28717H16.8716Z" fill="#FF8337"/>
<path fill-rule="evenodd" clip-rule="evenodd" d="M0.433594 15.3145H57.7001V72.5815H0.433594V15.3145ZM2.1392 17.0201V70.8758H55.9945V17.0201H2.1392Z" fill="#FF8337"/>
<path fill-rule="evenodd" clip-rule="evenodd" d="M71.9081 0.646484C72.2267 0.778484 72.4345 1.08945 72.4345 1.43438V56.9958C72.4345 57.2219 72.3447 57.4389 72.1847 57.5988L57.4519 72.3317C57.208 72.5756 56.8412 72.6486 56.5225 72.5166C56.2039 72.3846 55.9961 72.0736 55.9961 71.7287V16.1673C55.9961 15.9411 56.0859 15.7242 56.2459 15.5643L70.9787 0.831351C71.2226 0.587448 71.5894 0.514485 71.9081 0.646484ZM57.7017 16.5206V69.6698L70.7289 56.6425V3.49325L57.7017 16.5206Z" fill="#FF8337"/>
</svg>
