<svg width="73" height="73" viewBox="0 0 73 73" fill="none" xmlns="http://www.w3.org/2000/svg">
<path fill-rule="evenodd" clip-rule="evenodd" d="M15.133 0.400662C15.2929 0.240729 15.5099 0.150879 15.736 0.150879H71.2969C71.6419 0.150879 71.9528 0.35866 72.0848 0.677335C72.2168 0.996009 72.1439 1.36282 71.9 1.60672L57.1671 16.3397C57.0072 16.4996 56.7903 16.5894 56.5641 16.5894H1.00322C0.658293 16.5894 0.34733 16.3817 0.215332 16.063C0.0833334 15.7443 0.156296 15.3775 0.400197 15.1336L15.133 0.400662ZM16.0893 1.85651L3.06208 14.8838H56.2109L69.2381 1.85651H16.0893Z" fill="#22C55E"/>
<path fill-rule="evenodd" clip-rule="evenodd" d="M16.0624 0.21582C16.381 0.34782 16.5888 0.658786 16.5888 1.00372V56.5651C16.5888 56.7913 16.499 57.0082 16.339 57.1681L1.60622 71.9011C1.36232 72.145 0.995513 72.2179 0.676842 72.0859C0.35817 71.9539 0.150391 71.643 0.150391 71.298V15.7367C0.150391 15.5105 0.24024 15.2936 0.400172 15.1336L15.133 0.400687C15.3769 0.156784 15.7437 0.0838211 16.0624 0.21582ZM1.856 16.0899V69.2392L14.8832 56.2119V3.06259L1.856 16.0899Z" fill="#22C55E"/>
<path fill-rule="evenodd" clip-rule="evenodd" d="M15.133 55.9619C15.2929 55.802 15.5099 55.7122 15.736 55.7122H71.2969C71.6419 55.7122 71.9528 55.9199 72.0848 56.2386C72.2168 56.5573 72.1439 56.9241 71.9 57.168L57.1671 71.9009C57.0072 72.0609 56.7903 72.1507 56.5641 72.1507H1.00322C0.658293 72.1507 0.34733 71.9429 0.215332 71.6243C0.0833334 71.3056 0.156296 70.9388 0.400197 70.6949L15.133 55.9619ZM16.0893 57.4178L3.06208 70.4451H56.2109L69.2381 57.4178H16.0893Z" fill="#22C55E"/>
<path fill-rule="evenodd" clip-rule="evenodd" d="M14.8828 0.150879H72.1493V57.4179H14.8828V0.150879ZM16.5884 1.8565V55.7123H70.4437V1.8565H16.5884Z" fill="#22C55E"/>
<path fill-rule="evenodd" clip-rule="evenodd" d="M0.150391 14.8838H57.4169V72.1508H0.150391V14.8838ZM1.856 16.5894V70.4452H55.7113V16.5894H1.856Z" fill="#22C55E"/>
<path fill-rule="evenodd" clip-rule="evenodd" d="M71.6249 0.21582C71.9435 0.34782 72.1513 0.658786 72.1513 1.00372V56.5651C72.1513 56.7913 72.0615 57.0082 71.9015 57.1681L57.1687 71.9011C56.9248 72.145 56.558 72.2179 56.2393 72.0859C55.9207 71.9539 55.7129 71.643 55.7129 71.298V15.7367C55.7129 15.5105 55.8027 15.2936 55.9627 15.1336L70.6955 0.400687C70.9394 0.156784 71.3062 0.0838211 71.6249 0.21582ZM57.4185 16.0899V69.2392L70.4457 56.2119V3.06259L57.4185 16.0899Z" fill="#22C55E"/>
</svg>
