<svg width="73" height="73" viewBox="0 0 73 73" fill="none" xmlns="http://www.w3.org/2000/svg">
<path fill-rule="evenodd" clip-rule="evenodd" d="M15.7346 0.831326C15.8945 0.671393 16.1114 0.581543 16.3376 0.581543H71.8985C72.2434 0.581543 72.5544 0.789324 72.6864 1.108C72.8184 1.42667 72.7454 1.79348 72.5015 2.03739L57.7687 16.7703C57.6088 16.9303 57.3919 17.0201 57.1657 17.0201H1.60478C1.25986 17.0201 0.948892 16.8123 0.816894 16.4937C0.684896 16.175 0.757858 15.8082 1.00176 15.5643L15.7346 0.831326ZM16.6908 2.28717L3.66364 15.3145H56.8124L69.8396 2.28717H16.6908Z" fill="#5BEBF3"/>
<path fill-rule="evenodd" clip-rule="evenodd" d="M16.6639 0.646484C16.9826 0.778484 17.1904 1.08945 17.1904 1.43438V56.9958C17.1904 57.2219 17.1005 57.4389 16.9406 57.5988L2.20778 72.3317C1.96388 72.5756 1.59708 72.6486 1.2784 72.5166C0.959733 72.3846 0.751953 72.0736 0.751953 71.7287V16.1673C0.751953 15.9411 0.841802 15.7242 1.00173 15.5643L15.7345 0.831351C15.9784 0.587448 16.3452 0.514485 16.6639 0.646484ZM2.45756 16.5206V69.6698L15.4848 56.6425V3.49325L2.45756 16.5206Z" fill="#5BEBF3"/>
<path fill-rule="evenodd" clip-rule="evenodd" d="M15.7346 56.3926C15.8945 56.2327 16.1114 56.1428 16.3376 56.1428H71.8985C72.2434 56.1428 72.5544 56.3506 72.6864 56.6693C72.8184 56.988 72.7454 57.3548 72.5015 57.5987L57.7687 72.3316C57.6088 72.4915 57.3919 72.5814 57.1657 72.5814H1.60478C1.25986 72.5814 0.948892 72.3736 0.816894 72.0549C0.684896 71.7363 0.757858 71.3694 1.00176 71.1255L15.7346 56.3926ZM16.6908 57.8484L3.66364 70.8758H56.8124L69.8396 57.8484H16.6908Z" fill="#5BEBF3"/>
<path fill-rule="evenodd" clip-rule="evenodd" d="M15.4844 0.581543H72.7509V57.8486H15.4844V0.581543ZM17.19 2.28717V56.1429H71.0453V2.28717H17.19Z" fill="#5BEBF3"/>
<path fill-rule="evenodd" clip-rule="evenodd" d="M0.751953 15.3145H58.0185V72.5815H0.751953V15.3145ZM2.45756 17.0201V70.8758H56.3129V17.0201H2.45756Z" fill="#5BEBF3"/>
<path fill-rule="evenodd" clip-rule="evenodd" d="M72.2264 0.646484C72.5451 0.778484 72.7529 1.08945 72.7529 1.43438V56.9958C72.7529 57.2219 72.663 57.4389 72.5031 57.5988L57.7703 72.3317C57.5264 72.5756 57.1596 72.6486 56.8409 72.5166C56.5222 72.3846 56.3145 72.0736 56.3145 71.7287V16.1673C56.3145 15.9411 56.4043 15.7242 56.5642 15.5643L71.297 0.831351C71.5409 0.587448 71.9077 0.514485 72.2264 0.646484ZM58.0201 16.5206V69.6698L71.0473 56.6425V3.49325L58.0201 16.5206Z" fill="#5BEBF3"/>
</svg>
