<svg width="73" height="73" viewBox="0 0 73 73" fill="none" xmlns="http://www.w3.org/2000/svg">
<path fill-rule="evenodd" clip-rule="evenodd" d="M14.9982 0.831326C15.1582 0.671393 15.3751 0.581543 15.6013 0.581543H71.1622C71.5071 0.581543 71.8181 0.789324 71.9501 1.108C72.0821 1.42667 72.0091 1.79348 71.7652 2.03739L57.0324 16.7703C56.8724 16.9303 56.6555 17.0201 56.4294 17.0201H0.868455C0.523528 17.0201 0.212564 16.8123 0.0805659 16.4937C-0.0514322 16.175 0.0215302 15.8082 0.265431 15.5643L14.9982 0.831326ZM15.9545 2.28717L2.92731 15.3145H56.0761L69.1033 2.28717H15.9545Z" fill="#FFCC00"/>
<path fill-rule="evenodd" clip-rule="evenodd" d="M15.9276 0.646484C16.2463 0.778484 16.454 1.08945 16.454 1.43438V56.9958C16.454 57.2219 16.3642 57.4389 16.2043 57.5988L1.47146 72.3317C1.22755 72.5756 0.860748 72.6486 0.542076 72.5166C0.223404 72.3846 0.015625 72.0736 0.015625 71.7287V16.1673C0.015625 15.9411 0.105474 15.7242 0.265406 15.5643L14.9982 0.831351C15.2421 0.587448 15.6089 0.514485 15.9276 0.646484ZM1.72124 16.5206V69.6698L14.7484 56.6425V3.49325L1.72124 16.5206Z" fill="#FFCC00"/>
<path fill-rule="evenodd" clip-rule="evenodd" d="M14.9982 56.3926C15.1582 56.2327 15.3751 56.1428 15.6013 56.1428H71.1622C71.5071 56.1428 71.8181 56.3506 71.9501 56.6693C72.0821 56.988 72.0091 57.3548 71.7652 57.5987L57.0324 72.3316C56.8724 72.4915 56.6555 72.5814 56.4294 72.5814H0.868455C0.523528 72.5814 0.212564 72.3736 0.0805659 72.0549C-0.0514322 71.7363 0.0215302 71.3694 0.265431 71.1255L14.9982 56.3926ZM15.9545 57.8484L2.92731 70.8758H56.0761L69.1033 57.8484H15.9545Z" fill="#FFCC00"/>
<path fill-rule="evenodd" clip-rule="evenodd" d="M14.748 0.581543H72.0146V57.8486H14.748V0.581543ZM16.4537 2.28717V56.1429H70.3089V2.28717H16.4537Z" fill="#FFCC00"/>
<path fill-rule="evenodd" clip-rule="evenodd" d="M0.015625 15.3145H57.2821V72.5815H0.015625V15.3145ZM1.72124 17.0201V70.8758H55.5765V17.0201H1.72124Z" fill="#FFCC00"/>
<path fill-rule="evenodd" clip-rule="evenodd" d="M71.4901 0.646484C71.8088 0.778484 72.0165 1.08945 72.0165 1.43438V56.9958C72.0165 57.2219 71.9267 57.4389 71.7668 57.5988L57.034 72.3317C56.7901 72.5756 56.4232 72.6486 56.1046 72.5166C55.7859 72.3846 55.5781 72.0736 55.5781 71.7287V16.1673C55.5781 15.9411 55.668 15.7242 55.8279 15.5643L70.5607 0.831351C70.8046 0.587448 71.1714 0.514485 71.4901 0.646484ZM57.2837 16.5206V69.6698L70.3109 56.6425V3.49325L57.2837 16.5206Z" fill="#FFCC00"/>
</svg>
