<svg width="319" height="308" viewBox="0 0 319 308" fill="none" xmlns="http://www.w3.org/2000/svg">
<g opacity="0.71">
<path opacity="0.71" d="M308.242 158.193C307.761 175.389 304.391 192.383 298.273 208.462C295.955 214.662 293.22 220.698 290.089 226.53C289.635 227.408 289.182 228.286 288.673 229.107C279.055 246.44 266.145 261.726 250.666 274.109C246.011 277.859 241.131 281.32 236.053 284.474C225.28 291.234 213.713 296.637 201.615 300.56C200.737 300.843 199.916 301.126 199.066 301.353C160.792 312.978 119.496 309.255 83.9178 290.971C48.3397 272.688 21.2712 241.279 8.4404 203.392C4.38932 191.558 1.82085 179.268 0.793806 166.802C0.793806 165.839 0.62392 164.876 0.567279 163.97C-0.854096 142.059 2.43904 120.099 10.2246 99.5689C10.9893 97.6431 11.7822 95.7173 12.5752 93.7632C16.7494 83.9363 21.9315 74.5687 28.0383 65.8108C30.9107 61.6579 34.0118 57.668 37.3274 53.8595C37.8372 53.2081 38.3752 52.5568 38.9416 51.9337C48.476 41.1562 59.4889 31.7834 71.652 24.0946C72.5016 23.5282 73.3512 23.0184 74.2291 22.5086C76.5798 21.0643 78.9587 19.6766 81.3942 18.3738C82.1589 17.9773 82.8952 17.5525 83.6882 17.1843C114.553 1.23503 149.905 -3.80735 183.999 2.87666C218.093 9.56066 248.924 27.5782 271.482 54.0011C272.36 54.9923 273.209 56.0119 274.002 57.0314C278.174 62.1762 282.005 67.5874 285.472 73.2308C286.124 74.2786 286.775 75.3548 287.37 76.431C293.819 87.4746 298.861 99.2815 302.38 111.577C302.635 112.426 302.861 113.276 303.088 114.097C305.938 124.742 307.647 135.66 308.185 146.666C308.299 150.518 308.327 154.341 308.242 158.193Z" fill="url(#paint0_radial_96_9629)"/>
<g style="mix-blend-mode:multiply" opacity="0.3">
<path d="M304.785 186.57C304.785 186.57 233.984 192.035 219.455 166.264C204.927 140.492 190.2 133.922 167.034 136.754C143.868 139.586 114.896 158.079 86.8583 150.574C58.8209 143.069 5.49323 113.757 5.49323 113.757C0.905292 127.918 0.0839844 154.426 0.0839844 154.426C0.0839844 154.426 12.6017 198.832 47.7476 201.551C82.8934 204.27 162.049 216.504 214.046 231.797C266.043 247.091 280.316 242.446 280.316 242.446C292.326 225.757 300.666 206.714 304.785 186.57ZM51.6275 187.929C47.9741 178.838 71.4518 177.762 75.9265 184.332C80.4011 190.903 59.4156 207.159 51.6275 187.929ZM150.749 146.439C172.67 137.518 211.157 153.519 207.391 167.878C203.624 182.236 133.757 153.321 150.665 146.439H150.749ZM194.845 220.073C194.222 207.3 209.77 215.57 213.423 222.253C217.076 228.937 195.354 230.212 194.76 219.988L194.845 220.073ZM262.814 219.761C262.785 219.07 262.899 218.381 263.149 217.736C263.398 217.091 263.777 216.504 264.263 216.012C264.749 215.52 265.33 215.133 265.972 214.875C266.614 214.617 267.301 214.494 267.993 214.514C268.684 214.533 269.364 214.695 269.99 214.988C270.616 215.282 271.175 215.701 271.632 216.22C272.09 216.738 272.435 217.345 272.648 218.004C272.86 218.662 272.935 219.356 272.868 220.044C272.67 227.379 262.587 223.216 262.786 219.676L262.814 219.761Z" fill="#974D8B"/>
</g>
<g style="mix-blend-mode:soft-light" opacity="0.51">
<path d="M308.213 158.192C308.213 158.192 257.491 126.388 217.36 118.26C177.23 110.132 132.823 135.253 81.4215 126.502C54.8285 121.942 30.0763 107.045 12.4326 93.763C16.6007 83.9241 21.783 74.5465 27.8956 65.7822C37.2697 75.1847 63.1548 99.597 87.3688 108.405C117.615 119.393 145.511 107.442 196.46 110.387C240.073 112.908 293.599 139.217 308.043 146.722C308.298 150.517 308.326 154.341 308.213 158.192Z" fill="#5FCCCC"/>
</g>
<g style="mix-blend-mode:soft-light" opacity="0.51">
<path d="M62.2476 235.338C56.3852 239.416 42.0266 234.97 43.2728 232.138C45.5384 226.757 67.9117 231.288 62.2476 235.338ZM73.3493 226.984C75.5016 223.84 88.5574 226.134 87.7927 228.145C87.0281 230.156 71.2819 229.816 73.2643 226.984H73.3493ZM219.427 268.133C223.732 263.262 246.869 272.523 245.68 278.046C244.49 283.568 215.009 272.976 219.342 268.133H219.427ZM112.063 231.062C54.0063 219.592 21.8058 208.632 8.35352 203.393C13.4374 218.462 20.8323 232.65 30.2736 245.449C54.9692 245.845 78.9001 223.982 145.199 244.457C176.895 254.326 207.373 267.751 236.051 284.474C241.124 281.314 246.004 277.852 250.664 274.109C205.936 255.39 159.526 240.975 112.063 231.062Z" fill="#5FCCCC"/>
</g>
<g style="mix-blend-mode:multiply" opacity="0.1">
<path d="M82.4977 78.3004C81.3365 83.9645 103.738 94.2732 107.986 87.9577C112.234 81.6422 84.9049 66.6606 82.4977 78.3004Z" fill="#190024"/>
</g>
<g style="mix-blend-mode:multiply" opacity="0.1">
<path d="M90.1417 96.6516C91.0763 101.07 96.259 101.155 96.8821 99.1721C97.5051 97.1897 89.2355 92.2053 90.1417 96.6516Z" fill="#190024"/>
</g>
<g style="mix-blend-mode:multiply" opacity="0.1">
<path d="M219.283 152.528C225.514 146.213 228.374 149.696 229.818 153.095C231.263 156.493 217.357 154.482 219.283 152.528Z" fill="#190024"/>
</g>
<g style="mix-blend-mode:multiply" opacity="0.1">
<path d="M221.749 100.702C227.979 94.3862 230.84 97.8696 232.284 101.268C233.728 104.667 219.795 102.769 221.749 100.702Z" fill="#190024"/>
</g>
<g style="mix-blend-mode:multiply" opacity="0.1">
<path d="M136.619 267.34C142.85 261.025 145.71 264.508 147.154 267.907C148.599 271.305 134.693 269.295 136.619 267.34Z" fill="#190024"/>
</g>
<g style="mix-blend-mode:multiply" opacity="0.1">
<path d="M248.995 173.344C249.731 176.544 255.339 177.139 254.971 173.486C254.602 169.832 247.749 167.906 248.995 173.344Z" fill="#190024"/>
</g>
<g style="mix-blend-mode:multiply" opacity="0.1">
<path d="M133.191 41.4836C133.928 44.6838 139.535 45.2785 139.167 41.4836C138.799 37.6886 131.945 36.046 133.191 41.4836Z" fill="#190024"/>
</g>
<g style="mix-blend-mode:soft-light" opacity="0.51">
<path d="M240.866 250.66C243.301 251.311 251.967 257.173 251.543 262.299C251.118 267.425 229.679 262.951 230.444 258.278C231.208 253.605 237.524 249.725 240.866 250.66Z" fill="#5FCCCC"/>
</g>
<g style="mix-blend-mode:soft-light" opacity="0.51">
<path d="M246.33 100.532C248.737 101.183 257.403 107.046 257.006 112.172C256.61 117.298 235.115 112.823 235.879 108.15C236.644 103.477 242.931 99.5975 246.33 100.532Z" fill="#5FCCCC"/>
</g>
<g style="mix-blend-mode:soft-light" opacity="0.51">
<path d="M186.348 38.2832C186.943 40.7188 186.093 51.1407 181.392 53.2931C176.691 55.4455 170.064 34.5166 174.566 32.9023C179.069 31.288 185.498 34.7998 186.348 38.2832Z" fill="#5FCCCC"/>
</g>
<g style="mix-blend-mode:soft-light" opacity="0.71">
<g style="mix-blend-mode:soft-light" opacity="0.71">
<path d="M220.08 76.2902C220.707 73.8935 220.784 71.3861 220.306 68.9552C220.253 68.5634 220.118 68.1871 219.91 67.8507C219.662 67.5527 219.342 67.3233 218.98 67.1845C218.618 67.0456 218.226 67.002 217.842 67.0577C216.9 67.1606 216.009 67.5412 215.283 68.1514C214.556 68.7615 214.028 69.5735 213.764 70.4845C213.537 71.4048 213.534 72.3662 213.756 73.2878C213.978 74.2094 214.418 75.0643 215.039 75.7805C215.682 76.6158 216.628 77.165 217.673 77.3098C218.187 77.3577 218.703 77.2259 219.131 76.9367C219.56 76.6476 219.875 76.219 220.023 75.7238C219.979 75.6596 219.92 75.607 219.851 75.5708C219.782 75.5345 219.705 75.5155 219.627 75.5155C219.549 75.5155 219.472 75.5345 219.403 75.5708C219.334 75.607 219.274 75.6596 219.23 75.7238L220.08 76.2902Z" fill="#E9E9A8"/>
</g>
<g style="mix-blend-mode:soft-light" opacity="0.71">
<path d="M256.243 90.4219C256.362 89.7222 256.306 89.0038 256.078 88.3314C255.851 87.659 255.46 87.0538 254.94 86.5703C254.28 86.7899 253.681 87.1602 253.189 87.6518C252.698 88.1434 252.327 88.7428 252.108 89.4024C252.013 89.739 251.985 90.0909 252.026 90.4382C252.067 90.7855 252.177 91.1213 252.348 91.4264C252.518 91.7314 252.748 91.9998 253.023 92.2162C253.297 92.4326 253.612 92.5928 253.949 92.6876C255.336 92.9425 256.781 91.1866 255.959 90.0254L256.243 90.4219Z" fill="#E9E9A8"/>
</g>
<g style="mix-blend-mode:soft-light" opacity="0.71">
<path d="M251.996 77.6773C251.856 77.2188 251.656 76.7807 251.402 76.3746C251.355 76.3626 251.306 76.3626 251.26 76.3746C251.233 76.362 251.204 76.3555 251.175 76.3555C251.146 76.3555 251.117 76.362 251.09 76.3746C250.665 76.6295 250.609 77.3941 250.099 77.4225C249.589 77.4508 249.901 77.4225 249.844 77.4225C249.787 77.4225 249.844 77.7057 249.844 77.8189C249.984 77.9484 250.15 78.0455 250.332 78.1036C250.514 78.1616 250.706 78.179 250.895 78.1547C251.084 78.1304 251.265 78.0649 251.426 77.9629C251.587 77.8608 251.724 77.7247 251.826 77.5641V77.7906L251.996 77.6773Z" fill="#E9E9A8"/>
</g>
<g style="mix-blend-mode:soft-light" opacity="0.71">
<path d="M241.997 65.6695C241.746 64.8094 241.374 63.9894 240.893 63.2339L240.666 63.1207C240.614 63.0933 240.555 63.0791 240.496 63.0791C240.437 63.0791 240.379 63.0933 240.326 63.1207C239.533 63.5738 239.42 65.0465 238.486 65.0748C238.318 65.0316 238.143 65.0316 237.976 65.0748C237.749 65.2447 237.976 65.6129 237.976 65.8111C238.239 66.0604 238.553 66.2487 238.897 66.3625C239.241 66.4763 239.606 66.5129 239.966 66.4696C240.325 66.4263 240.671 66.3043 240.978 66.1121C241.285 65.92 241.546 65.6625 241.742 65.358V65.7545L241.997 65.6695Z" fill="#E9E9A8"/>
</g>
<g style="mix-blend-mode:soft-light" opacity="0.71">
<path d="M266.44 59.6942C266.179 58.833 265.797 58.013 265.307 57.2586C265.264 57.1564 265.182 57.0751 265.08 57.032C265.028 57.0047 264.969 56.9905 264.91 56.9905C264.851 56.9905 264.793 57.0047 264.74 57.032C263.919 57.4852 263.806 58.9578 262.871 58.9862C262.714 58.9427 262.547 58.9427 262.39 58.9862C262.163 59.1561 262.39 59.5243 262.39 59.7225C262.653 59.9718 262.967 60.16 263.311 60.2739C263.655 60.3877 264.02 60.4243 264.379 60.381C264.739 60.3377 265.085 60.2157 265.392 60.0235C265.699 59.8314 265.96 59.5739 266.156 59.2694V59.6658L266.44 59.6942Z" fill="#E9E9A8"/>
</g>
<g style="mix-blend-mode:soft-light" opacity="0.71">
<path d="M254.827 69.5781C254.884 69.2527 254.862 68.9184 254.764 68.603C254.665 68.2876 254.492 68.0005 254.26 67.7656C254.026 67.947 253.825 68.1673 253.665 68.417C253.59 68.5409 253.551 68.6829 253.551 68.8276C253.551 68.9724 253.59 69.1145 253.665 69.2383C253.841 69.3431 254.042 69.3984 254.246 69.3984C254.45 69.3984 254.651 69.3431 254.827 69.2383L254.657 69.5215L254.827 69.5781Z" fill="#E9E9A8"/>
</g>
<g style="mix-blend-mode:soft-light" opacity="0.71">
<path d="M250.411 67.7088C250.373 67.5276 250.285 67.3608 250.156 67.2273C249.982 67.169 249.793 67.169 249.618 67.2273C249.138 67.2831 248.654 67.2831 248.174 67.2273L249.703 69.1248V69.2947C249.703 69.5213 249.533 69.6912 249.448 69.8895C249.363 70.0877 249.647 70.5125 249.958 70.6541C251.997 71.617 250.723 68.785 250.411 67.7088Z" fill="#E9E9A8"/>
</g>
<g style="mix-blend-mode:soft-light" opacity="0.71">
<path d="M227.218 59.0147C227.186 58.8393 227.096 58.6796 226.963 58.5615C226.788 58.5052 226.6 58.5052 226.425 58.5615C225.944 58.6034 225.461 58.6034 224.98 58.5615L226.51 60.459C226.51 60.6856 226.34 60.8555 226.255 61.0821C226.17 61.3086 226.453 61.6768 226.765 61.8467C228.917 62.8663 227.501 59.9776 227.218 59.0147Z" fill="#E9E9A8"/>
</g>
<g style="mix-blend-mode:soft-light" opacity="0.71">
<path d="M257.123 53.4353L256.699 52.8689C256.51 53.0092 256.368 53.2034 256.293 53.4259C256.217 53.6484 256.21 53.8887 256.274 54.115C256.318 54.2251 256.391 54.3215 256.484 54.3949C256.577 54.4682 256.688 54.5159 256.806 54.533C256.923 54.5502 257.043 54.5364 257.153 54.4928C257.264 54.4493 257.361 54.3776 257.435 54.2849C257.577 54.03 257.718 53.5769 257.945 53.7185L257.123 53.4353Z" fill="#E9E9A8"/>
</g>
<g style="mix-blend-mode:soft-light" opacity="0.71">
<path d="M221.41 52.897C221.404 53.0631 221.355 53.2249 221.268 53.3666C221.182 53.5084 221.06 53.6253 220.914 53.7059C220.769 53.7865 220.605 53.8282 220.439 53.8268C220.273 53.8254 220.11 53.781 219.966 53.698C219.822 53.6149 219.702 53.496 219.618 53.3528C219.533 53.2097 219.487 53.0471 219.485 52.8809C219.482 52.7148 219.522 52.5507 219.601 52.4046C219.68 52.2585 219.796 52.1355 219.937 52.0474C220.088 51.9722 220.255 51.9356 220.423 51.9407C220.591 51.9458 220.756 51.9925 220.901 52.0766C221.047 52.1608 221.17 52.2797 221.259 52.4229C221.347 52.566 221.399 52.7289 221.41 52.897Z" fill="#E9E9A8"/>
</g>
<g style="mix-blend-mode:soft-light" opacity="0.71">
<path d="M229.933 59.9492C230.33 60.2891 230.811 60.7988 230.556 61.2803C230.301 61.7617 229.622 61.6201 229.14 61.4502C228.659 61.2803 228.687 61.2803 228.659 61.0537C228.63 60.8271 229.622 60.459 229.622 59.9209C229.622 59.9209 229.905 59.9209 229.792 60.1758L229.933 59.9492Z" fill="#E9E9A8"/>
</g>
<g style="mix-blend-mode:soft-light" opacity="0.71">
<path d="M263.863 97.4452C263.818 97.0571 263.682 96.6853 263.465 96.3603C263.248 96.0353 262.957 95.7665 262.616 95.576C262.444 95.4894 262.254 95.4438 262.062 95.4429C261.869 95.442 261.679 95.4858 261.506 95.5709C261.333 95.656 261.182 95.78 261.065 95.9332C260.948 96.0865 260.869 96.2647 260.832 96.454C260.828 96.6865 260.897 96.9145 261.03 97.1053L261.342 97.3602C261.534 97.5409 261.762 97.6795 262.01 97.7673C262.259 97.8551 262.523 97.8901 262.786 97.87C263.052 97.8483 263.298 97.7235 263.473 97.5223C263.648 97.3212 263.737 97.0597 263.721 96.7938L263.863 97.4452Z" fill="#E9E9A8"/>
</g>
<g style="mix-blend-mode:soft-light" opacity="0.71">
<path d="M280.318 106.31C280.2 106.311 280.084 106.337 279.977 106.386C279.869 106.435 279.773 106.505 279.695 106.593C279.561 106.78 279.464 106.992 279.412 107.216C279.185 107.697 278.59 107.924 278.251 108.321C278.002 108.751 277.871 109.239 277.871 109.737C277.871 110.234 278.002 110.722 278.251 111.153C278.268 111.257 278.311 111.355 278.375 111.439C278.439 111.523 278.523 111.59 278.619 111.634C278.775 111.686 278.944 111.686 279.1 111.634C280.148 111.238 280.828 112.257 281.932 112.115C282.383 112.007 282.803 111.794 283.157 111.494C283.511 111.194 283.79 110.815 283.971 110.388C284.17 109.86 284.22 109.287 284.116 108.732C284.012 108.177 283.758 107.661 283.381 107.241C283.005 106.82 282.52 106.511 281.98 106.347C281.44 106.183 280.865 106.17 280.318 106.31Z" fill="#E9E9A8"/>
</g>
<g style="mix-blend-mode:soft-light" opacity="0.71">
<path d="M255.226 77.5926C255.379 77.7222 255.48 77.9036 255.509 78.1024C255.25 78.0759 255.002 77.9874 254.785 77.8444C254.568 77.7014 254.389 77.5082 254.263 77.2811C254.093 77.0545 253.923 76.7713 254.064 76.5165C254.206 76.2616 254.376 76.2899 254.546 76.1483C254.716 76.0067 254.999 75.3553 255.396 75.4119C255.506 75.437 255.604 75.4978 255.676 75.585C255.748 75.6721 255.789 75.7806 255.792 75.8934C255.779 76.1232 255.711 76.3465 255.594 76.5448C255.395 76.9696 255.169 77.4227 254.971 77.8758L255.226 77.5926Z" fill="#E9E9A8"/>
</g>
<g style="mix-blend-mode:soft-light" opacity="0.71">
<path d="M249.732 83.0871C249.732 82.6906 249.052 82.6056 248.797 83.0871C248.638 83.4774 248.638 83.9145 248.797 84.3049C249.083 84.2686 249.353 84.1504 249.574 83.9646C249.796 83.7787 249.958 83.533 250.043 83.257L249.732 83.0871Z" fill="#E9E9A8"/>
</g>
<g style="mix-blend-mode:soft-light" opacity="0.71">
<path d="M248.486 77.0548C248.44 76.8555 248.363 76.6644 248.259 76.4884C248.195 76.4105 248.112 76.351 248.017 76.3162C247.922 76.2813 247.82 76.2724 247.721 76.2902C247.409 76.2902 247.353 76.8283 247.126 77.0548C246.9 77.2814 246.446 77.3097 246.305 77.6213C246.163 77.9328 246.447 78.2726 246.786 78.3576C247.117 78.3703 247.443 78.2813 247.721 78.1027C247.994 77.9757 248.221 77.7681 248.372 77.508C248.47 77.3989 248.524 77.2578 248.524 77.1115C248.524 76.9652 248.47 76.824 248.372 76.715L248.486 77.0548Z" fill="#E9E9A8"/>
</g>
<g style="mix-blend-mode:soft-light" opacity="0.71">
<path d="M247.609 74.4487C247.582 74.5439 247.521 74.6258 247.437 74.6781C247.353 74.7305 247.253 74.7497 247.156 74.7319C247.06 74.7112 246.97 74.6701 246.892 74.6115C246.814 74.5528 246.749 74.478 246.702 74.3921C246.675 74.2901 246.675 74.1826 246.702 74.0806C246.702 73.9529 246.753 73.8304 246.843 73.7401C246.934 73.6499 247.056 73.5991 247.184 73.5991C247.311 73.5991 247.434 73.6499 247.524 73.7401C247.615 73.8304 247.665 73.9529 247.665 74.0806C247.653 74.2115 247.595 74.334 247.502 74.427C247.409 74.52 247.286 74.5778 247.156 74.5904L247.609 74.4487Z" fill="#E9E9A8"/>
</g>
<g style="mix-blend-mode:soft-light" opacity="0.71">
<path d="M220.135 79.8588C220.135 80.057 219.908 80.1703 219.71 80.142C219.615 80.1212 219.525 80.0801 219.447 80.0215C219.368 79.9628 219.304 79.888 219.257 79.8021C219.229 79.7001 219.229 79.5926 219.257 79.4906C219.257 79.4249 219.27 79.3599 219.296 79.2996C219.322 79.2392 219.36 79.1848 219.408 79.1397C219.456 79.0946 219.512 79.0598 219.574 79.0373C219.636 79.0149 219.701 79.0053 219.767 79.0091C219.897 79.0234 220.017 79.0873 220.101 79.1875C220.186 79.2877 220.228 79.4165 220.22 79.5472C220.207 79.6782 220.15 79.8007 220.057 79.8937C219.964 79.9867 219.841 80.0444 219.71 80.057L220.135 79.8588Z" fill="#E9E9A8"/>
</g>
<g style="mix-blend-mode:soft-light" opacity="0.71">
<path d="M250.014 73.5427C250.112 73.5186 250.203 73.4697 250.277 73.4006C250.352 73.3316 250.407 73.2447 250.438 73.1482C250.469 73.0517 250.475 72.9488 250.456 72.8493C250.436 72.7499 250.391 72.6571 250.325 72.5798C250.115 72.6213 249.919 72.7192 249.759 72.8631C249.692 72.9479 249.656 73.0526 249.656 73.1604C249.656 73.2683 249.692 73.373 249.759 73.4578C249.788 73.4987 249.826 73.5321 249.87 73.5551C249.915 73.5782 249.964 73.5902 250.014 73.5902C250.064 73.5902 250.113 73.5782 250.158 73.5551C250.202 73.5321 250.24 73.4987 250.269 73.4578L250.014 73.5427Z" fill="#E9E9A8"/>
</g>
<g style="mix-blend-mode:soft-light" opacity="0.71">
<path d="M222.175 43.4378C222.271 43.4146 222.359 43.3667 222.431 43.299C222.503 43.2312 222.555 43.1459 222.584 43.0515C222.613 42.957 222.616 42.8568 222.594 42.7606C222.572 42.6644 222.525 42.5757 222.458 42.5032C222.24 42.5211 222.037 42.6225 221.892 42.7864C221.825 42.8712 221.789 42.9759 221.789 43.0838C221.789 43.1916 221.825 43.2963 221.892 43.3811C221.921 43.422 221.959 43.4554 222.003 43.4784C222.048 43.5015 222.097 43.5135 222.147 43.5135C222.197 43.5135 222.246 43.5015 222.29 43.4784C222.335 43.4554 222.373 43.422 222.402 43.3811L222.175 43.4378Z" fill="#E9E9A8"/>
</g>
<g style="mix-blend-mode:soft-light" opacity="0.71">
<path d="M213.508 62.7812C213.613 62.5548 213.667 62.3084 213.667 62.0591C213.667 61.8098 213.613 61.5634 213.508 61.3369L212.432 61.9316C212.291 61.9316 212.092 62.1299 212.007 62.2998C211.971 62.385 211.953 62.4768 211.953 62.5694C211.954 62.6621 211.973 62.7536 212.01 62.8385C212.047 62.9234 212.101 62.9998 212.169 63.063C212.237 63.1262 212.317 63.1749 212.404 63.2061C212.59 63.2491 212.785 63.2342 212.962 63.1633C213.139 63.0924 213.29 62.969 213.395 62.8096L213.508 62.7812Z" fill="#E9E9A8"/>
</g>
<g style="mix-blend-mode:soft-light" opacity="0.71">
<path d="M224.751 66.9441L226.025 68.7566C225.827 69.0681 225.317 68.7566 225.034 68.5867C224.739 68.3609 224.513 68.0567 224.383 67.7088C224.383 67.3406 224.524 66.8591 224.893 66.8591L224.751 66.9441Z" fill="#E9E9A8"/>
</g>
<g style="mix-blend-mode:soft-light" opacity="0.71">
<path d="M276.07 84.8713C276.156 84.7696 276.214 84.648 276.24 84.5177C276.267 84.3874 276.26 84.2527 276.22 84.1258C276.181 83.9989 276.11 83.884 276.014 83.7916C275.919 83.6992 275.802 83.6322 275.674 83.5969C275.406 83.5607 275.134 83.6167 274.902 83.7557C274.671 83.8947 274.493 84.1083 274.399 84.3616C274.336 84.497 274.315 84.6478 274.336 84.7955C274.358 84.9432 274.423 85.0813 274.522 85.1928C274.622 85.3042 274.751 85.3841 274.896 85.4226C275.04 85.4611 275.192 85.4565 275.334 85.4094C275.671 85.2967 275.98 85.1132 276.24 84.8713H276.07Z" fill="#E9E9A8"/>
</g>
<g style="mix-blend-mode:soft-light" opacity="0.71">
<path d="M227.727 57.6834C227.91 57.5082 228.034 57.2815 228.085 57.0337C228.136 56.7858 228.11 56.5284 228.01 56.2957C227.645 56.3266 227.304 56.4873 227.047 56.7488C226.872 56.9058 226.757 57.1184 226.721 57.3507C226.685 57.5829 226.73 57.8205 226.849 58.0232C227.161 58.4197 227.925 58.2215 227.925 57.74L227.727 57.6834Z" fill="#E9E9A8"/>
</g>
<g style="mix-blend-mode:soft-light" opacity="0.71">
<path d="M226.311 62.6391C226.307 62.8073 226.246 62.9693 226.138 63.0981C226.03 63.227 225.881 63.3148 225.716 63.3472L225.064 62.4409C225.147 62.3402 225.251 62.259 225.368 62.2033C225.486 62.1476 225.614 62.1187 225.744 62.1187C225.874 62.1187 226.003 62.1476 226.12 62.2033C226.238 62.259 226.342 62.3402 226.424 62.4409L226.311 62.6391Z" fill="#E9E9A8"/>
</g>
<g style="mix-blend-mode:soft-light" opacity="0.71">
<path d="M267.205 90.2514L266.186 91.6957C266.068 91.8104 265.989 91.9589 265.959 92.1206C265.907 92.2865 265.907 92.4644 265.959 92.6303C266.186 93.1967 266.582 93.8765 267.205 93.8481C267.828 93.8198 268.14 92.9702 268.423 92.3755C268.989 91.2143 271.935 89.3451 270.83 87.8725C269.726 86.3998 267.857 89.4018 267.205 90.2514Z" fill="#E9E9A8"/>
</g>
<g style="mix-blend-mode:soft-light" opacity="0.71">
<path d="M273.011 82.2368L273.351 82.5484C273.044 82.7108 272.706 82.8073 272.359 82.8316C272.187 82.8407 272.016 82.793 271.872 82.6959C271.729 82.5987 271.622 82.4574 271.566 82.2935C271.566 81.9819 271.821 81.5855 272.133 81.6987C272.467 81.7976 272.763 81.9951 272.982 82.2652L273.011 82.2368Z" fill="#E9E9A8"/>
</g>
<g style="mix-blend-mode:soft-light" opacity="0.71">
<path d="M245.654 80.1135C245.626 80.2563 245.557 80.3881 245.457 80.4934C245.357 80.5988 245.229 80.6733 245.087 80.7083C244.949 80.7486 244.802 80.7458 244.665 80.7003C244.529 80.6547 244.409 80.5686 244.323 80.4534C244.323 80.2835 244.181 80.0286 244.323 79.9436C244.362 79.9237 244.406 79.9133 244.45 79.9133C244.494 79.9133 244.538 79.9237 244.578 79.9436H245.654V80.1135Z" fill="#E9E9A8"/>
</g>
<g style="mix-blend-mode:soft-light" opacity="0.71">
<path d="M240.215 81.5855C239.875 81.5855 239.536 81.7554 239.309 82.0103C239.082 82.2651 238.799 82.605 238.431 82.5767C238.063 82.5484 238.233 82.5767 238.205 82.4068C238.176 82.2368 238.374 81.9819 238.516 81.7837C238.618 81.6128 238.703 81.4326 238.771 81.2456C238.86 81.0228 239.018 80.8341 239.222 80.7069C239.426 80.5796 239.664 80.5203 239.904 80.5376C240.012 80.6059 240.098 80.7033 240.153 80.8185C240.208 80.9337 240.23 81.0621 240.215 81.189C240.201 81.3175 240.147 81.4384 240.061 81.5349C239.974 81.6313 239.86 81.6985 239.734 81.7271L240.215 81.5855Z" fill="#E9E9A8"/>
</g>
<g style="mix-blend-mode:soft-light" opacity="0.71">
<path d="M239.249 78.159L239.108 77.7625C238.993 77.7526 238.878 77.7843 238.784 77.8519C238.691 77.9195 238.625 78.0184 238.598 78.1307C238.586 78.1866 238.585 78.2444 238.595 78.3006C238.606 78.3568 238.627 78.4104 238.659 78.458C238.691 78.5056 238.732 78.5463 238.78 78.5776C238.828 78.609 238.881 78.6304 238.938 78.6405C238.992 78.6378 239.044 78.6232 239.092 78.5979C239.14 78.5725 239.182 78.5369 239.214 78.4937C239.246 78.4504 239.269 78.4005 239.28 78.3476C239.291 78.2947 239.29 78.2399 239.278 78.1873L239.249 78.159Z" fill="#E9E9A8"/>
</g>
<g style="mix-blend-mode:soft-light" opacity="0.71">
<path d="M229.624 77.2811L229.483 76.8846C229.368 76.8747 229.253 76.9064 229.159 76.974C229.066 77.0415 229 77.1405 228.973 77.2528C228.961 77.3086 228.96 77.3664 228.97 77.4227C228.981 77.4789 229.002 77.5324 229.034 77.58C229.066 77.6276 229.107 77.6683 229.155 77.6997C229.203 77.7311 229.256 77.7524 229.313 77.7625C229.369 77.7641 229.425 77.7526 229.476 77.729C229.528 77.7055 229.573 77.6705 229.608 77.6267C229.644 77.5829 229.669 77.5315 229.682 77.4765C229.694 77.4215 229.694 77.3643 229.681 77.3094L229.624 77.2811Z" fill="#E9E9A8"/>
</g>
<g style="mix-blend-mode:soft-light" opacity="0.71">
<path d="M252.706 72.2119C252.706 72.4668 253.046 72.6367 253.301 72.5517C253.556 72.4668 253.754 72.2685 254.009 72.1553C254.133 72.099 254.269 72.0698 254.405 72.0698C254.542 72.0698 254.677 72.099 254.802 72.1553C254.88 72.1825 254.948 72.2318 254.998 72.2972C255.048 72.3626 255.079 72.4412 255.085 72.5234C255.105 72.5678 255.116 72.6162 255.116 72.665C255.116 72.7139 255.105 72.7622 255.085 72.8066C254.834 73.2814 254.463 73.6819 254.009 73.9678C253.788 74.1188 253.526 74.1995 253.258 74.1995C252.991 74.1995 252.729 74.1188 252.508 73.9678C252.364 73.8508 252.256 73.6959 252.196 73.5207C252.136 73.3455 252.126 73.157 252.168 72.9766C252.21 72.7955 252.297 72.6279 252.42 72.4893C252.544 72.3507 252.701 72.2455 252.876 72.1836L252.706 72.2119Z" fill="#E9E9A8"/>
</g>
<g style="mix-blend-mode:soft-light" opacity="0.71">
<path d="M216.679 28.5413C216.679 28.7962 217.019 28.9662 217.273 28.8812C217.51 28.766 217.737 28.6334 217.953 28.4847C218.083 28.4294 218.223 28.4009 218.364 28.4009C218.505 28.4009 218.645 28.4294 218.774 28.4847C218.849 28.5172 218.914 28.568 218.963 28.6324C219.013 28.6967 219.045 28.7726 219.058 28.8529C219.084 28.9454 219.084 29.0436 219.058 29.1361C218.824 29.6138 218.461 30.0162 218.01 30.2972C217.789 30.4482 217.527 30.529 217.259 30.529C216.992 30.529 216.73 30.4482 216.509 30.2972C216.37 30.1751 216.266 30.0183 216.207 29.8428C216.148 29.6673 216.137 29.4793 216.174 29.298C216.211 29.1168 216.296 28.9486 216.42 28.8107C216.543 28.6728 216.701 28.5701 216.877 28.513L216.679 28.5413Z" fill="#E9E9A8"/>
</g>
<g style="mix-blend-mode:soft-light" opacity="0.71">
<path d="M255.453 65.5565C255.508 65.4025 255.5 65.233 255.431 65.0846C255.363 64.9363 255.238 64.821 255.085 64.7636C254.927 64.7028 254.754 64.6893 254.588 64.7244C254.423 64.7596 254.27 64.8421 254.15 64.9618C254.091 65.0008 254.046 65.0572 254.021 65.1232C253.995 65.1892 253.991 65.2615 254.009 65.33C254.101 65.3602 254.2 65.3602 254.292 65.33L255.51 65.5565H255.453Z" fill="#E9E9A8"/>
</g>
<g style="mix-blend-mode:soft-light" opacity="0.71">
<path d="M216.426 42.2205C217.267 41.9854 217.986 41.4384 218.437 40.6912C218.437 40.6912 218.579 40.408 218.437 40.2664C218.295 40.1248 217.899 40.0398 217.559 40.0115C217.219 39.9831 216.511 39.53 215.945 39.5017C215.485 39.5407 215.053 39.7414 214.727 40.0681C214.189 40.4646 213.622 41.1443 213.991 41.7107C214.104 41.8403 214.243 41.945 214.399 42.0181C214.555 42.0912 214.725 42.1312 214.897 42.1355C215.61 42.2484 216.336 42.2484 217.049 42.1355L216.426 42.2205Z" fill="#E9E9A8"/>
</g>
<g style="mix-blend-mode:soft-light" opacity="0.71">
<path d="M240.669 51.7921C241.179 51.7921 241.434 51.1691 241.462 50.6593C241.487 50.4944 241.478 50.3259 241.434 50.1649C241.39 50.0039 241.313 49.8539 241.207 49.7247C240.867 49.4415 240.357 49.7247 239.989 49.9513L239.026 50.5744C238.947 50.6119 238.878 50.6672 238.824 50.736C238.77 50.8048 238.733 50.8852 238.715 50.9708C238.729 51.1175 238.788 51.2561 238.885 51.3673C239.392 51.9447 240.008 52.4163 240.697 52.755L240.669 51.7921Z" fill="#E9E9A8"/>
</g>
<g style="mix-blend-mode:soft-light" opacity="0.71">
<path d="M235.004 67.9071C239.507 69.0966 240.441 63.6873 236.93 61.7898C233.418 59.8924 231.152 66.8592 235.004 67.9071Z" fill="#E9E9A8"/>
</g>
<g style="mix-blend-mode:soft-light" opacity="0.71">
<path d="M255.479 84.1066C255.372 84.2369 255.238 84.3419 255.087 84.414C254.935 84.4861 254.769 84.5235 254.601 84.5235C254.433 84.5235 254.267 84.4861 254.115 84.414C253.963 84.3419 253.829 84.2369 253.723 84.1066C254.023 83.6576 254.446 83.3038 254.941 83.0871C255.065 83.0435 255.197 83.0259 255.328 83.0355C255.46 83.045 255.588 83.0814 255.705 83.1425C255.822 83.2036 255.925 83.288 256.008 83.3905C256.09 83.493 256.151 83.6114 256.187 83.7384L255.649 84.5031L255.479 84.1066Z" fill="#E9E9A8"/>
</g>
<g style="mix-blend-mode:soft-light" opacity="0.71">
<path d="M242.904 92.7163L242.451 92.1216C241.785 92.7031 241.003 93.1373 240.157 93.396C239.716 93.4817 239.287 93.6245 238.883 93.8208C238.679 93.915 238.503 94.0615 238.374 94.2456C238.244 94.4296 238.166 94.6446 238.146 94.8687C238.146 95.7183 239.194 96.1148 240.016 96.0865C240.56 96.0736 241.095 95.9429 241.584 95.7033C242.073 95.4637 242.504 95.121 242.848 94.6988C243.128 94.2796 243.277 93.7868 243.277 93.2827C243.277 92.7786 243.128 92.2858 242.848 91.8667L241.97 92.4331L242.904 92.7163Z" fill="#E9E9A8"/>
</g>
<g style="mix-blend-mode:soft-light" opacity="0.71">
<path d="M237.834 87.023C238.061 86.7398 237.834 86.5982 237.466 86.7115C237.083 86.8434 236.728 87.0451 236.418 87.3062L234.153 88.8921C233.728 89.1754 233.247 89.5718 233.162 89.8834C233.077 90.1949 233.416 90.2232 233.785 90.1099C234.195 89.9738 234.586 89.7833 234.946 89.5435C236.192 88.7789 237.778 87.731 237.976 86.7115L237.24 86.8814L237.834 87.023Z" fill="#E9E9A8"/>
</g>
<g style="mix-blend-mode:soft-light" opacity="0.71">
<path d="M235.513 82.577C235.513 82.577 235.343 82.8319 235.201 82.8319C235.052 82.7915 234.915 82.7135 234.805 82.6054C234.712 82.5098 234.644 82.3932 234.606 82.2655C234.574 82.1449 234.584 82.0168 234.636 81.9031C234.688 81.7895 234.777 81.6973 234.89 81.6425C234.997 81.5803 235.119 81.5476 235.244 81.5476C235.368 81.5476 235.49 81.5803 235.598 81.6425C235.695 81.7109 235.765 81.8111 235.796 81.9257C235.806 81.9854 235.794 82.0466 235.763 82.0985C235.732 82.1504 235.683 82.1895 235.626 82.2089L235.513 82.577Z" fill="#E9E9A8"/>
</g>
<g style="mix-blend-mode:soft-light" opacity="0.71">
<path d="M244.404 60.2887C244.877 59.7903 245.303 59.25 245.678 58.6744C245.624 58.5966 245.552 58.5329 245.468 58.4886C245.385 58.4443 245.291 58.4206 245.197 58.4195C244.948 58.4042 244.699 58.4395 244.464 58.5233C244.229 58.6071 244.014 58.7377 243.831 58.9072C243.649 59.0767 243.502 59.2815 243.401 59.5092C243.3 59.7369 243.246 59.9829 243.243 60.2321C243.187 60.3683 243.187 60.5206 243.243 60.6568C243.323 60.7212 243.423 60.7563 243.526 60.7563C243.629 60.7563 243.728 60.7212 243.809 60.6568C243.983 60.5639 244.129 60.4272 244.234 60.2604L244.404 60.2887Z" fill="#E9E9A8"/>
</g>
<g style="mix-blend-mode:soft-light" opacity="0.71">
<path d="M247.266 70.9373L247.096 70.5691C246.983 70.5851 246.875 70.6234 246.778 70.6817C246.681 70.7401 246.596 70.8174 246.529 70.9089C246.529 71.1072 246.529 71.4187 246.784 71.3904H247.011L247.605 70.8523L247.266 70.9373Z" fill="#E9E9A8"/>
</g>
<g style="mix-blend-mode:soft-light" opacity="0.71">
<path d="M215.18 54.7943C215.199 54.4432 215.131 54.0929 214.982 53.7747C214.917 53.611 214.804 53.4714 214.657 53.375C214.51 53.2786 214.336 53.2303 214.161 53.2366C213.99 53.2643 213.832 53.3433 213.707 53.4632C213.622 53.558 213.556 53.6688 213.513 53.7891C213.47 53.9095 213.452 54.0371 213.458 54.1646C213.465 54.2922 213.497 54.4172 213.551 54.5325C213.606 54.6478 213.683 54.7512 213.778 54.8367C213.873 54.9223 213.984 54.9883 214.104 55.031C214.224 55.0738 214.352 55.0924 214.48 55.0858C214.607 55.0792 214.732 55.0476 214.847 54.9927C214.963 54.9378 215.066 54.8608 215.152 54.766L215.18 54.7943Z" fill="#E9E9A8"/>
</g>
<g style="mix-blend-mode:soft-light" opacity="0.71">
<path d="M227.442 41.4272C227.516 41.5254 227.565 41.6406 227.583 41.7622C227.601 41.8837 227.588 42.0079 227.546 42.1234C227.504 42.2388 227.433 42.3419 227.341 42.4231C227.249 42.5043 227.137 42.5611 227.018 42.5884C226.772 42.4464 226.559 42.2532 226.395 42.022C226.488 41.8956 226.607 41.79 226.743 41.712C226.88 41.6339 227.031 41.5852 227.188 41.5689L227.442 41.4272Z" fill="#E9E9A8"/>
</g>
<g style="mix-blend-mode:soft-light" opacity="0.71">
<path d="M231.72 49.2716C231.89 49.0167 231.352 48.7618 231.154 49.0167C231.092 49.1589 231.081 49.3179 231.122 49.4673C231.163 49.6166 231.254 49.7474 231.38 49.838C231.506 49.773 231.607 49.6688 231.669 49.541C231.73 49.4132 231.748 49.2689 231.72 49.13V49.2716Z" fill="#E9E9A8"/>
</g>
<g style="mix-blend-mode:soft-light" opacity="0.71">
<path d="M257.659 93.5937L257.234 92.999C257.063 93.0694 256.908 93.1757 256.781 93.3106C256.804 93.3951 256.844 93.4742 256.898 93.5431C256.952 93.612 257.019 93.6694 257.096 93.7117C257.172 93.754 257.257 93.7804 257.344 93.7893C257.431 93.7983 257.519 93.7895 257.603 93.7637L257.659 93.5937Z" fill="#E9E9A8"/>
</g>
<g style="mix-blend-mode:soft-light" opacity="0.71">
<path d="M318.749 88.7512L318.296 88.1848C318.133 88.2556 317.988 88.3621 317.871 88.4963C317.894 88.5809 317.933 88.66 317.987 88.7289C318.041 88.7978 318.109 88.8552 318.185 88.8975C318.262 88.9398 318.346 88.9662 318.434 88.9751C318.521 88.984 318.609 88.9753 318.692 88.9495L318.749 88.7512Z" fill="#E9E9A8"/>
</g>
<g style="mix-blend-mode:soft-light" opacity="0.71">
<path d="M287.651 83.7947C287.976 84.0674 288.225 84.4191 288.373 84.816C288.522 85.2129 288.566 85.6415 288.501 86.0603C288.522 86.1536 288.522 86.2503 288.501 86.3435C288.431 86.3785 288.353 86.3967 288.274 86.3967C288.196 86.3967 288.118 86.3785 288.048 86.3435C287.113 86.1736 286.009 85.8054 285.867 84.8992C285.848 84.702 285.878 84.503 285.955 84.3204C286.032 84.1377 286.153 83.9772 286.308 83.8534C286.463 83.7296 286.646 83.6464 286.841 83.6115C287.036 83.5765 287.237 83.5908 287.425 83.6531L287.651 84.3894V83.7947Z" fill="#E9E9A8"/>
</g>
<g style="mix-blend-mode:soft-light" opacity="0.71">
<path d="M273.633 158.901C273.753 158.202 273.696 157.483 273.469 156.811C273.241 156.138 272.85 155.533 272.33 155.05C271.671 155.269 271.071 155.64 270.58 156.131C270.088 156.623 269.718 157.222 269.498 157.882C269.403 158.218 269.376 158.57 269.417 158.918C269.458 159.265 269.567 159.601 269.738 159.906C269.909 160.211 270.138 160.479 270.413 160.696C270.688 160.912 271.003 161.072 271.339 161.167C272.727 161.422 274.171 159.666 273.35 158.505L273.633 158.901Z" fill="#E9E9A8"/>
</g>
<g style="mix-blend-mode:soft-light" opacity="0.71">
<path d="M269.442 146.157C269.302 145.698 269.102 145.26 268.847 144.854H268.705C268.679 144.842 268.65 144.835 268.62 144.835C268.591 144.835 268.562 144.842 268.535 144.854C268.111 145.109 268.054 145.874 267.544 145.902C267.034 145.93 267.346 145.902 267.289 145.902C267.233 145.902 267.289 146.185 267.289 146.298C267.429 146.428 267.596 146.525 267.777 146.583C267.959 146.641 268.151 146.659 268.34 146.634C268.529 146.61 268.71 146.544 268.871 146.442C269.032 146.34 269.169 146.204 269.272 146.044V146.27L269.442 146.157Z" fill="#E9E9A8"/>
</g>
<g style="mix-blend-mode:soft-light" opacity="0.71">
<path d="M283.802 128.258C283.565 127.393 283.192 126.571 282.698 125.823C282.655 125.721 282.574 125.639 282.471 125.596C282.419 125.569 282.361 125.555 282.301 125.555C282.242 125.555 282.184 125.569 282.131 125.596C281.31 126.049 281.197 127.522 280.262 127.55C280.092 127.55 279.894 127.55 279.781 127.55C279.668 127.55 279.781 128.088 279.781 128.287C280.044 128.536 280.358 128.724 280.702 128.838C281.046 128.952 281.411 128.989 281.771 128.945C282.13 128.902 282.476 128.78 282.783 128.588C283.09 128.396 283.351 128.138 283.548 127.834V128.23L283.802 128.258Z" fill="#E9E9A8"/>
</g>
<g style="mix-blend-mode:soft-light" opacity="0.71">
<path d="M272.161 138.057C272.211 137.732 272.186 137.399 272.088 137.085C271.99 136.771 271.821 136.483 271.594 136.245C271.36 136.426 271.159 136.646 270.999 136.896C270.924 137.02 270.885 137.162 270.885 137.307C270.885 137.451 270.924 137.593 270.999 137.717C271.175 137.822 271.376 137.877 271.58 137.877C271.784 137.877 271.985 137.822 272.161 137.717L271.991 138L272.161 138.057Z" fill="#E9E9A8"/>
</g>
<g style="mix-blend-mode:soft-light" opacity="0.71">
<path d="M267.802 136.188C267.763 136.007 267.675 135.84 267.547 135.707C267.372 135.65 267.184 135.65 267.009 135.707C266.523 135.716 266.039 135.668 265.564 135.565L267.094 137.463C267.102 137.519 267.102 137.576 267.094 137.633C267.094 137.859 266.924 138.029 266.839 138.227C266.754 138.426 267.037 138.85 267.349 138.992C269.501 140.011 268.085 137.151 267.802 136.188Z" fill="#E9E9A8"/>
</g>
<g style="mix-blend-mode:soft-light" opacity="0.71">
<path d="M274.482 121.914L274.085 121.348C273.897 121.488 273.755 121.682 273.679 121.905C273.603 122.127 273.597 122.367 273.661 122.594C273.705 122.704 273.777 122.8 273.871 122.874C273.964 122.947 274.075 122.995 274.192 123.012C274.31 123.029 274.43 123.015 274.54 122.972C274.651 122.928 274.748 122.856 274.822 122.764C274.963 122.509 275.077 122.056 275.331 122.197L274.482 121.914Z" fill="#E9E9A8"/>
</g>
<g style="mix-blend-mode:soft-light" opacity="0.71">
<path d="M281.253 165.925C281.208 165.537 281.072 165.165 280.856 164.84C280.639 164.515 280.348 164.246 280.007 164.056C279.834 163.975 279.645 163.934 279.454 163.936C279.264 163.937 279.075 163.982 278.904 164.067C278.733 164.151 278.583 164.272 278.465 164.422C278.347 164.573 278.264 164.747 278.223 164.934C278.219 165.166 278.288 165.394 278.421 165.585L278.733 165.84C278.925 166.021 279.152 166.159 279.401 166.247C279.65 166.335 279.914 166.37 280.177 166.35C280.442 166.328 280.689 166.203 280.864 166.002C281.038 165.801 281.127 165.539 281.112 165.273L281.253 165.925Z" fill="#E9E9A8"/>
</g>
<g style="mix-blend-mode:soft-light" opacity="0.71">
<path d="M272.612 146.071C272.766 146.201 272.867 146.382 272.896 146.581C272.637 146.555 272.389 146.466 272.172 146.323C271.955 146.18 271.776 145.987 271.649 145.76C271.48 145.533 271.31 145.25 271.451 144.995C271.593 144.74 271.763 144.769 271.933 144.627C272.103 144.485 272.386 143.834 272.782 143.891C272.892 143.916 272.991 143.977 273.063 144.064C273.134 144.151 273.175 144.259 273.179 144.372C273.166 144.602 273.098 144.825 272.981 145.023L272.357 146.355L272.612 146.071Z" fill="#E9E9A8"/>
</g>
<g style="mix-blend-mode:soft-light" opacity="0.71">
<path d="M267.401 142.022C267.5 141.998 267.591 141.949 267.665 141.88C267.739 141.811 267.794 141.724 267.826 141.627C267.857 141.531 267.863 141.428 267.843 141.328C267.823 141.229 267.779 141.136 267.713 141.059C267.502 141.1 267.306 141.198 267.147 141.342C267.084 141.429 267.051 141.533 267.051 141.639C267.051 141.746 267.084 141.85 267.147 141.937C267.178 141.978 267.219 142.011 267.266 142.034C267.312 142.057 267.364 142.069 267.416 142.069C267.468 142.069 267.519 142.057 267.565 142.034C267.612 142.011 267.653 141.978 267.685 141.937L267.401 142.022Z" fill="#E9E9A8"/>
</g>
<g style="mix-blend-mode:soft-light" opacity="0.71">
<path d="M293.457 153.35C293.542 153.248 293.601 153.127 293.627 152.996C293.653 152.866 293.646 152.731 293.607 152.605C293.567 152.478 293.497 152.363 293.401 152.27C293.306 152.178 293.189 152.111 293.06 152.076C292.793 152.039 292.521 152.095 292.289 152.234C292.057 152.373 291.88 152.587 291.786 152.84C291.723 152.976 291.701 153.127 291.723 153.274C291.745 153.422 291.809 153.56 291.909 153.672C292.008 153.783 292.138 153.863 292.282 153.901C292.427 153.94 292.579 153.935 292.721 153.888C293.058 153.775 293.367 153.592 293.627 153.35H293.457Z" fill="#E9E9A8"/>
</g>
<g style="mix-blend-mode:soft-light" opacity="0.71">
<path d="M284.591 158.731L283.572 160.176C283.508 160.228 283.455 160.292 283.416 160.365C283.377 160.438 283.353 160.518 283.345 160.601C283.304 160.768 283.304 160.943 283.345 161.11C283.6 161.677 283.996 162.385 284.619 162.328C285.242 162.271 285.554 161.45 285.837 160.855C286.404 159.694 289.321 157.825 288.244 156.352C287.168 154.88 285.243 157.882 284.591 158.731Z" fill="#E9E9A8"/>
</g>
<g style="mix-blend-mode:soft-light" opacity="0.71">
<path d="M290.401 150.717L290.741 151.028C290.434 151.191 290.097 151.287 289.75 151.311C289.581 151.318 289.415 151.273 289.273 151.182C289.131 151.091 289.021 150.958 288.957 150.802C288.957 150.462 289.212 150.065 289.523 150.179C289.857 150.278 290.153 150.475 290.373 150.745L290.401 150.717Z" fill="#E9E9A8"/>
</g>
<g style="mix-blend-mode:soft-light" opacity="0.71">
<path d="M270.093 140.691C270.093 140.946 270.433 141.116 270.687 141.031C270.942 140.946 271.141 140.748 271.395 140.634C271.52 140.578 271.655 140.549 271.792 140.549C271.929 140.549 272.064 140.578 272.188 140.634C272.266 140.661 272.335 140.711 272.385 140.776C272.435 140.842 272.465 140.92 272.472 141.002C272.5 141.095 272.5 141.193 272.472 141.286C272.221 141.76 271.85 142.161 271.395 142.447C271.174 142.598 270.913 142.678 270.645 142.678C270.377 142.678 270.116 142.598 269.894 142.447C269.751 142.33 269.643 142.175 269.583 142C269.523 141.825 269.513 141.636 269.555 141.456C269.591 141.272 269.676 141.102 269.801 140.963C269.925 140.823 270.085 140.72 270.263 140.663L270.093 140.691Z" fill="#E9E9A8"/>
</g>
<g style="mix-blend-mode:soft-light" opacity="0.71">
<path d="M272.839 133.922C272.894 133.768 272.887 133.599 272.818 133.45C272.749 133.302 272.624 133.187 272.471 133.129C272.313 133.069 272.14 133.055 271.975 133.09C271.809 133.125 271.657 133.208 271.537 133.328C271.501 133.382 271.482 133.446 271.482 133.512C271.482 133.577 271.501 133.641 271.537 133.696C271.629 133.726 271.728 133.726 271.82 133.696L273.038 133.922H272.839Z" fill="#E9E9A8"/>
</g>
<g style="mix-blend-mode:soft-light" opacity="0.71">
<path d="M272.869 152.586C272.763 152.716 272.629 152.821 272.477 152.893C272.325 152.965 272.159 153.002 271.991 153.002C271.823 153.002 271.657 152.965 271.505 152.893C271.353 152.821 271.22 152.716 271.113 152.586C271.414 152.137 271.836 151.783 272.331 151.566C272.454 151.523 272.584 151.505 272.713 151.515C272.843 151.525 272.969 151.562 273.084 151.623C273.198 151.684 273.299 151.769 273.379 151.871C273.459 151.973 273.517 152.091 273.549 152.217L273.039 152.982L272.869 152.586Z" fill="#E9E9A8"/>
</g>
<g style="mix-blend-mode:soft-light" opacity="0.71">
<path d="M275.161 162.073L274.736 161.478C274.565 161.548 274.41 161.655 274.283 161.79C274.306 161.874 274.346 161.953 274.4 162.022C274.454 162.091 274.521 162.148 274.598 162.191C274.674 162.233 274.759 162.259 274.846 162.268C274.933 162.277 275.021 162.269 275.105 162.243L275.161 162.073Z" fill="#E9E9A8"/>
</g>
<g style="mix-blend-mode:soft-light" opacity="0.71">
<path d="M305.04 152.274C305.365 152.546 305.613 152.898 305.762 153.295C305.911 153.692 305.955 154.121 305.89 154.539C305.91 154.633 305.91 154.729 305.89 154.823C305.819 154.858 305.742 154.876 305.663 154.876C305.584 154.876 305.507 154.858 305.436 154.823C304.502 154.653 303.397 154.284 303.256 153.378C303.236 153.181 303.266 152.982 303.343 152.799C303.42 152.617 303.542 152.456 303.696 152.332C303.851 152.209 304.034 152.125 304.229 152.09C304.425 152.055 304.625 152.07 304.813 152.132L305.012 152.868L305.04 152.274Z" fill="#E9E9A8"/>
</g>
<g style="mix-blend-mode:soft-light" opacity="0.71">
<path d="M256.951 128.259C257.273 128.527 257.52 128.874 257.669 129.266C257.818 129.658 257.863 130.081 257.8 130.496C257.821 130.54 257.831 130.589 257.831 130.637C257.831 130.686 257.821 130.735 257.8 130.779C257.8 130.779 257.517 130.779 257.347 130.779C256.441 130.609 255.308 130.241 255.167 129.335C255.154 129.139 255.189 128.944 255.268 128.765C255.347 128.586 255.468 128.429 255.621 128.306C255.774 128.184 255.954 128.101 256.146 128.063C256.338 128.025 256.536 128.034 256.724 128.089L256.951 128.825V128.259Z" fill="#E9E9A8"/>
</g>
</g>
<g style="mix-blend-mode:soft-light" opacity="0.51">
<g style="mix-blend-mode:soft-light" opacity="0.51">
<path d="M77.3155 26.5584L71.6514 24.0662C72.501 23.4998 73.3506 22.99 74.2286 22.4802L78.3633 24.2927L81.3937 25.6238C124.411 44.4328 169.953 56.8368 216.568 62.4406C221.665 63.0636 226.791 63.6017 231.918 64.1115C244.294 65.4142 257.123 66.7453 269.527 69.2375C274.91 70.3057 280.232 71.6575 285.472 73.2873C286.123 74.3352 286.774 75.4114 287.369 76.4876C281.344 74.503 275.206 72.8764 268.989 71.6164C256.67 69.1242 243.925 67.7931 231.606 66.547C226.452 65.9806 221.326 65.4709 216.2 64.8478C169.321 59.2224 123.52 46.7513 80.2608 27.8328L77.3155 26.5584Z" fill="#5FCCCC"/>
</g>
<g style="mix-blend-mode:soft-light" opacity="0.51">
<path d="M302.974 114.097C290.768 113.276 279.015 109.056 267.602 104.95L260.748 102.514C232.242 92.1885 202.077 87.2058 171.765 87.8158C165.648 88.0423 159.389 88.5521 153.357 89.0052C143.871 89.9429 134.341 90.3683 124.809 90.2797C96.1403 89.403 68.503 79.3802 45.9366 61.6759C42.8417 59.2565 39.9265 56.6158 37.2139 53.7744C37.7236 53.1231 38.2617 52.4717 38.8282 51.8486C41.497 54.695 44.3851 57.3274 47.4659 59.7218C69.6111 77.0947 96.7325 86.929 124.866 87.7875C134.321 87.8941 143.775 87.4876 153.187 86.5697C159.247 86.0599 165.534 85.5785 171.737 85.3802C202.345 84.7294 232.811 89.7414 261.598 100.164C263.892 100.957 266.157 101.778 268.451 102.627C279.44 106.564 290.74 110.614 302.294 111.577C302.549 112.483 302.776 113.333 302.974 114.097Z" fill="#5FCCCC"/>
</g>
</g>
<g style="mix-blend-mode:soft-light" opacity="0.51">
<g style="mix-blend-mode:soft-light" opacity="0.51">
<path d="M290.088 226.53C289.635 227.408 289.181 228.286 288.672 229.107L283.744 229.447C271.736 229.957 255.678 228.144 247.324 216.533C245.681 214.087 244.241 211.511 243.019 208.83C240.753 204.129 238.629 199.739 234.523 197.502C231.41 195.933 227.89 195.36 224.441 195.859C217.733 197.074 211.315 199.543 205.522 203.137C200.503 206.089 195.138 208.41 189.55 210.048C181.053 212.143 171.991 211.039 164.061 210.048H163.155C144.916 207.782 126.678 205.545 108.439 203.194C104.906 202.979 101.46 202.013 98.329 200.362C96.6277 199.428 95.2652 197.98 94.4361 196.225C93.607 194.471 93.3538 192.499 93.7127 190.591C94.412 188.547 95.6206 186.715 97.2245 185.267C98.1182 184.412 98.9159 183.463 99.6034 182.435C100.502 180.528 100.786 178.389 100.416 176.314C100.045 174.239 99.0389 172.33 97.536 170.852C94.2554 167.709 90.04 165.721 85.5281 165.188C74.1999 163.262 62.4185 165.868 51.0903 168.36C41.1432 171.059 30.8661 172.346 20.5607 172.183C13.6845 171.744 6.9556 169.994 0.736292 167.029C0.736292 166.066 0.566407 165.103 0.509766 164.197C6.77307 167.418 13.6213 169.345 20.6457 169.861C30.5862 170.512 40.6966 168.246 50.4672 166.094C62.022 163.517 74.0016 160.883 85.8396 162.894C90.864 163.477 95.5641 165.673 99.2353 169.153C101.127 171.01 102.382 173.42 102.82 176.035C103.258 178.65 102.855 181.337 101.671 183.709C100.853 184.925 99.9034 186.045 98.8388 187.051C97.5682 188.231 96.5973 189.697 96.0068 191.328C95.8066 192.724 96.0385 194.148 96.6713 195.409C97.3041 196.669 98.3076 197.706 99.5468 198.38C102.371 199.829 105.468 200.668 108.638 200.843C126.876 203.203 145.124 205.488 163.381 207.697L164.288 207.839C172.444 208.83 180.912 209.878 188.983 207.839C194.373 206.25 199.547 204.005 204.39 201.155C210.462 197.413 217.189 194.857 224.214 193.622C228.185 192.997 232.251 193.683 235.797 195.576C240.555 198.408 242.962 203.279 245.285 208.065C246.435 210.63 247.799 213.093 249.363 215.429C257.066 226.162 272.274 227.805 283.631 227.295C285.755 226.87 287.935 226.728 290.088 226.53Z" fill="#5FCCCC"/>
</g>
</g>
<g style="mix-blend-mode:soft-light" opacity="0.51">
<g style="mix-blend-mode:soft-light" opacity="0.51">
<path d="M201.586 300.56C200.708 300.843 199.886 301.126 199.037 301.353C196.691 298.265 194.607 294.988 192.806 291.554C192.353 290.733 191.843 289.883 191.39 289.033C181.874 272.523 169.725 260.43 156.216 254.001C140.64 246.609 122.741 246.156 105.72 246.722C85.6411 247.402 62.8429 249.866 45.8506 262.695L44.3496 260.741C61.88 247.459 85.1596 244.967 105.635 244.23C122.968 243.636 141.234 244.23 157.264 251.764C171.226 258.391 183.772 270.88 193.542 287.816C193.996 288.637 194.505 289.515 194.958 290.364C196.847 293.961 199.065 297.374 201.586 300.56Z" fill="#5FCCCC"/>
</g>
</g>
<g style="mix-blend-mode:soft-light" opacity="0.51">
<g style="mix-blend-mode:soft-light" opacity="0.51">
<path d="M273.913 57.0883L269.807 56.267C252.103 52.6513 234.066 50.9235 215.997 51.1126C213.834 51.286 211.658 51.026 209.597 50.348C205.122 48.5921 203.48 44.0891 201.894 39.7278C201.253 37.8384 200.467 36.0015 199.543 34.2336C195.607 27.3234 187.082 24.9444 180.483 25.0294C173.855 25.4556 167.322 26.8289 161.084 29.1075L157.94 30.0988C140.495 35.3947 126.448 36.9807 113.704 35.0832C101.312 33.4615 89.8848 27.5373 81.418 18.3457C82.1826 17.9492 82.919 17.5244 83.7119 17.1562C91.7262 25.673 102.445 31.1476 114.043 32.6476C126.419 34.4601 140.155 32.9025 157.232 27.7482L160.319 26.7569C166.794 24.396 173.576 22.9843 180.455 22.5655C187.762 22.5655 197.221 25.171 201.695 33.0158C202.696 34.8968 203.54 36.8576 204.216 38.8782C205.689 42.8997 207.048 46.6946 210.531 48.054C212.26 48.6006 214.078 48.8027 215.884 48.6487C234.191 48.4088 252.471 50.156 270.401 53.8597L271.506 54.058C272.27 55.0492 273.12 56.0687 273.913 57.0883Z" fill="#5FCCCC"/>
</g>
</g>
</g>
<defs>
<radialGradient id="paint0_radial_96_9629" cx="0" cy="0" r="1" gradientUnits="userSpaceOnUse" gradientTransform="translate(126.99 297.19) scale(301.019)">
<stop offset="0.59" stop-color="#1622A0"/>
<stop offset="1" stop-color="#5757E8"/>
</radialGradient>
</defs>
</svg>
