<svg width="231" height="74" viewBox="0 0 231 74" fill="none" xmlns="http://www.w3.org/2000/svg">
<path opacity="0.9" fill-rule="evenodd" clip-rule="evenodd" d="M34.3738 55.1956C44.5333 55.1956 52.7692 47.2065 52.7692 37.3515C52.7692 27.4964 44.5333 19.5073 34.3738 19.5073C24.2144 19.5073 15.9785 27.4964 15.9785 37.3515C15.9785 47.2065 24.2144 55.1956 34.3738 55.1956ZM47.7327 37.3516C47.7327 44.5083 41.7519 50.3099 34.3742 50.3099C26.9965 50.3099 21.0157 44.5083 21.0157 37.3516C21.0157 30.195 26.9965 24.3934 34.3742 24.3934C41.7519 24.3934 47.7327 30.195 47.7327 37.3516ZM50.1417 37.3516C50.1417 45.7988 43.0823 52.6466 34.3742 52.6466C25.6661 52.6466 18.6068 45.7988 18.6068 37.3516C18.6068 28.9044 25.6661 22.0566 34.3742 22.0566C43.0823 22.0566 50.1417 28.9044 50.1417 37.3516Z" fill="#EF962A"/>
<path fill-rule="evenodd" clip-rule="evenodd" d="M34.3732 8.67347C35.7034 8.67347 36.7821 7.62727 36.7821 6.33673C36.7821 5.0462 35.7034 4 34.3732 4C33.043 4 31.9643 5.0462 31.9643 6.33673C31.9643 7.62727 33.043 8.67347 34.3732 8.67347ZM33.0593 16.9583V11.0173C33.4724 11.1505 33.9143 11.2227 34.3732 11.2227C34.8322 11.2227 35.274 11.1505 35.6872 11.0173V16.9583H33.0593ZM61.3024 35.8646H55.1779V38.4137H61.3024C61.1651 38.0131 61.0907 37.5845 61.0907 37.1391C61.0907 36.6937 61.1651 36.2652 61.3024 35.8646ZM63.7186 37.1391C63.7186 38.4297 64.7973 39.4759 66.1275 39.4759C67.4577 39.4759 68.5364 38.4297 68.5364 37.1391C68.5364 35.8486 67.4577 34.8024 66.1275 34.8024C64.7973 34.8024 63.7186 35.8486 63.7186 37.1391ZM7.88245 35.8646H14.007V38.4137H7.88245C8.01974 38.0131 8.09417 37.5845 8.09417 37.1391C8.09417 36.6937 8.01974 36.2652 7.88245 35.8646ZM5.46626 37.1391C5.46626 38.4297 4.38756 39.4759 3.05735 39.4759C1.72714 39.4759 0.648438 38.4297 0.648438 37.1391C0.648438 35.8486 1.72714 34.8024 3.05735 34.8024C4.38756 34.8024 5.46626 35.8486 5.46626 37.1391ZM52.6176 17.573L48.2869 21.7739L50.1449 23.5764L54.4756 19.3755C54.0863 19.1864 53.7215 18.9344 53.3969 18.6195C53.0722 18.3045 52.8126 17.9505 52.6176 17.573ZM55.2553 16.8169C56.1959 17.7294 57.7211 17.7294 58.6616 16.8169C59.6026 15.9043 59.6026 14.4248 58.6616 13.5123C57.7211 12.5997 56.1959 12.5997 55.2553 13.5123C54.3143 14.4248 54.3143 15.9043 55.2553 16.8169ZM16.2798 17.573L20.6105 21.7739L18.7525 23.5764L14.4218 19.3755C14.8111 19.1864 15.1759 18.9344 15.5005 18.6195C15.8252 18.3045 16.0848 17.9505 16.2798 17.573ZM13.6421 16.8169C12.7016 17.7294 11.1763 17.7294 10.2358 16.8169C9.29477 15.9043 9.29477 14.4248 10.2358 13.5123C11.1763 12.5997 12.7016 12.5997 13.6421 13.5123C14.5831 14.4248 14.5831 15.9043 13.6421 16.8169ZM33.0593 62.9827V57.0417H35.6872V62.9827C35.274 62.8495 34.8322 62.7773 34.3732 62.7773C33.9143 62.7773 33.4724 62.8495 33.0593 62.9827ZM34.3732 65.3265C35.7034 65.3265 36.7821 66.3727 36.7821 67.6633C36.7821 68.9538 35.7034 70 34.3732 70C33.043 70 31.9643 68.9538 31.9643 67.6633C31.9643 66.3727 33.043 65.3265 34.3732 65.3265ZM52.6176 56.427L48.2869 52.2261L50.1449 50.4236L54.4756 54.6245C54.0863 54.8136 53.7215 55.0656 53.3969 55.3805C53.0722 55.6955 52.8126 56.0495 52.6176 56.427ZM55.2553 57.1831C56.1959 56.2706 57.7211 56.2706 58.6616 57.1831C59.6026 58.0957 59.6026 59.5752 58.6616 60.4877C57.7211 61.4003 56.1959 61.4003 55.2553 60.4877C54.3143 59.5752 54.3143 58.0957 55.2553 57.1831ZM16.2798 56.427L20.6105 52.2261L18.7525 50.4236L14.4218 54.6245C14.8111 54.8136 15.1759 55.0656 15.5005 55.3805C15.8252 55.6955 16.0848 56.0495 16.2798 56.427ZM13.6421 57.1831C12.7016 56.2706 11.1763 56.2706 10.2358 57.1831C9.29477 58.0957 9.29477 59.5752 10.2358 60.4877C11.1763 61.4003 12.7016 61.4003 13.6421 60.4877C14.5831 59.5752 14.5831 58.0957 13.6421 57.1831Z" fill="#EF962A"/>
<path fill-rule="evenodd" clip-rule="evenodd" d="M37.1717 28.8447C37.1717 28.3807 36.784 28.0046 36.3057 28.0046C35.8274 28.0046 35.4397 28.3807 35.4397 28.8447V30.2448H32.7454V28.8447C32.7454 28.3807 32.3577 28.0046 31.8794 28.0046C31.4011 28.0046 31.0134 28.3807 31.0134 28.8447V30.2448H29.7625C29.2842 30.2448 28.8965 30.6209 28.8965 31.0849C28.8965 31.5488 29.2842 31.9249 29.7625 31.9249H31.0134V36.4053H29.7625C29.2842 36.4053 28.8965 36.7814 28.8965 37.2454C28.8965 37.7093 29.2842 38.0854 29.7625 38.0854H31.0134V42.5658H29.7625C29.2842 42.5658 28.8965 42.9419 28.8965 43.4058C28.8965 43.8698 29.2842 44.2459 29.7625 44.2459H31.0134V45.646C31.0134 46.11 31.4011 46.4861 31.8794 46.4861C32.3577 46.4861 32.7454 46.11 32.7454 45.646V44.2459L35.3943 44.246H35.4397V45.646C35.4397 46.11 35.8274 46.4861 36.3057 46.4861C36.784 46.4861 37.1717 46.11 37.1717 45.646V44.2459H37.3642V44.1969C38.0278 44.1213 38.6377 43.9413 39.1537 43.5212C40.1643 42.6984 40.732 41.5826 40.732 40.4191C40.732 39.2556 40.1643 38.1397 39.1537 37.317C38.8753 37.0903 38.5696 36.9194 38.2428 36.7906C39.0379 36.0722 39.4811 35.1373 39.4811 34.1651C39.4811 33.1254 38.9742 32.1282 38.0719 31.393C37.7988 31.1705 37.4963 30.9775 37.1717 30.8165V28.8447ZM36.4379 42.5658C36.8341 42.5426 37.2088 42.4659 37.5841 42.2433C38.1784 41.7595 38.5122 41.1033 38.5122 40.4191C38.5122 39.7349 38.1784 39.0787 37.5841 38.5949C37.2555 38.3273 36.8699 38.1714 36.4444 38.0854H32.7454V42.5658H35.3435C35.3475 42.5658 35.3516 42.5658 35.3557 42.5658H36.4379ZM32.7454 36.4053V31.9249H35.3379C35.8383 32.024 36.3004 32.2334 36.6705 32.535C37.2011 32.9673 37.4991 33.5537 37.4991 34.1651C37.4991 34.7765 37.2011 35.3629 36.6705 35.7952C36.3004 36.0968 35.8382 36.3062 35.3379 36.4053H32.7454Z" fill="#011426"/>
<path d="M85.4677 40.249C85.8741 40.6233 86.3287 40.9282 86.8315 41.1635C87.3449 41.3881 87.8744 41.5004 88.4199 41.5004C89.1151 41.5004 89.6446 41.3614 90.0083 41.0833C90.3826 40.8052 90.5698 40.4308 90.5698 39.9602C90.5698 39.7249 90.5217 39.5216 90.4254 39.3505C90.3399 39.1793 90.2168 39.0349 90.0564 38.9173C89.896 38.7889 89.7034 38.6766 89.4788 38.5803C89.2542 38.4841 89.0082 38.3825 88.7408 38.2755L87.2647 37.6177C86.9973 37.5107 86.7299 37.3824 86.4624 37.2326C86.195 37.0722 85.9544 36.885 85.7404 36.6711C85.5265 36.4464 85.35 36.1897 85.211 35.9009C85.0826 35.6014 85.0184 35.2591 85.0184 34.8741C85.0184 34.4676 85.104 34.0879 85.2752 33.7349C85.4463 33.3819 85.687 33.0771 85.9972 32.8204C86.318 32.5637 86.6924 32.3658 87.1203 32.2267C87.5588 32.077 88.0401 32.0021 88.5643 32.0021C89.2167 32.0021 89.8264 32.1198 90.3933 32.3551C90.9602 32.5904 91.4469 32.9113 91.8534 33.3178L91.0191 34.3446C90.6768 34.0451 90.3078 33.8151 89.912 33.6547C89.5162 33.4836 89.067 33.398 88.5643 33.398C87.9653 33.398 87.4946 33.521 87.1524 33.767C86.8101 34.013 86.6389 34.35 86.6389 34.7778C86.6389 35.0131 86.6871 35.211 86.7833 35.3715C86.8903 35.5319 87.0293 35.6763 87.2005 35.8047C87.3716 35.9223 87.5642 36.0293 87.7781 36.1255C88.0027 36.2111 88.2327 36.302 88.468 36.3983L89.896 37.024C90.2275 37.1524 90.5324 37.3021 90.8105 37.4733C91.0886 37.6337 91.3293 37.8263 91.5325 38.0509C91.7464 38.2648 91.9122 38.5215 92.0299 38.821C92.1475 39.1098 92.2064 39.4467 92.2064 39.8318C92.2064 40.249 92.1208 40.6447 91.9496 41.0191C91.7785 41.3935 91.5271 41.7197 91.1956 41.9978C90.864 42.2759 90.4629 42.4952 89.9922 42.6556C89.5216 42.8161 88.9868 42.8963 88.3878 42.8963C87.6283 42.8963 86.9224 42.7626 86.2699 42.4952C85.6174 42.2171 85.0398 41.832 84.5371 41.34L85.4677 40.249Z" fill="#EF962A"/>
<path d="M100.367 42.7038H99.0673L98.939 41.4042H98.8748C98.4897 41.8534 98.0672 42.2171 97.6073 42.4952C97.158 42.7626 96.6339 42.8963 96.0349 42.8963C95.1043 42.8963 94.4251 42.6289 93.9973 42.0941C93.5694 41.5486 93.3555 40.757 93.3555 39.7195V34.858H94.9439V39.5109C94.9439 40.2062 95.0669 40.7196 95.3129 41.0512C95.5589 41.3721 95.9814 41.5325 96.5804 41.5325C96.9869 41.5325 97.3559 41.4363 97.6875 41.2437C98.0298 41.0405 98.3934 40.7036 98.7785 40.2329V34.858H100.367V42.7038Z" fill="#EF962A"/>
<path d="M101.708 34.858H102.928L103.056 35.8849H103.104C103.286 35.5319 103.505 35.2431 103.762 35.0185C104.029 34.7832 104.388 34.6655 104.837 34.6655C105.618 34.6655 106.104 35.1094 106.297 35.9972C106.511 35.6014 106.757 35.2805 107.035 35.0345C107.313 34.7885 107.671 34.6655 108.11 34.6655C108.655 34.6655 109.078 34.8794 109.377 35.3073C109.677 35.7244 109.827 36.3288 109.827 37.1203V42.7038H108.318V37.2487C108.318 36.4464 108.072 36.0453 107.58 36.0453C107.334 36.0453 107.121 36.1362 106.939 36.3181C106.757 36.4892 106.575 36.7566 106.393 37.1203V42.7038H105.142V37.2487C105.142 36.4464 104.885 36.0453 104.372 36.0453C104.126 36.0453 103.917 36.1362 103.746 36.3181C103.575 36.4892 103.398 36.7566 103.216 37.1203V42.7038H101.708V34.858Z" fill="#EF962A"/>
<path d="M110.366 34.858H111.585L111.714 35.8849H111.762C111.944 35.5319 112.163 35.2431 112.42 35.0185C112.687 34.7832 113.045 34.6655 113.495 34.6655C114.275 34.6655 114.762 35.1094 114.955 35.9972C115.169 35.6014 115.415 35.2805 115.693 35.0345C115.971 34.7885 116.329 34.6655 116.768 34.6655C117.313 34.6655 117.736 34.8794 118.035 35.3073C118.335 35.7244 118.484 36.3288 118.484 37.1203V42.7038H116.976V37.2487C116.976 36.4464 116.73 36.0453 116.238 36.0453C115.992 36.0453 115.778 36.1362 115.596 36.3181C115.415 36.4892 115.233 36.7566 115.051 37.1203V42.7038H113.799V37.2487C113.799 36.4464 113.543 36.0453 113.029 36.0453C112.783 36.0453 112.575 36.1362 112.404 36.3181C112.232 36.4892 112.056 36.7566 111.874 37.1203V42.7038H110.366V34.858Z" fill="#EF962A"/>
<path d="M119.2 38.7889C119.2 38.1471 119.312 37.5749 119.537 37.0722C119.762 36.5587 120.061 36.1255 120.436 35.7726C120.81 35.4089 121.238 35.1361 121.719 34.9543C122.2 34.7618 122.698 34.6655 123.211 34.6655C123.789 34.6655 124.297 34.7564 124.735 34.9383C125.185 35.1201 125.564 35.3768 125.875 35.7084C126.185 36.0293 126.42 36.4197 126.581 36.8796C126.741 37.3289 126.821 37.8263 126.821 38.3718C126.821 38.5322 126.811 38.6873 126.789 38.8371C126.778 38.9761 126.762 39.0938 126.741 39.19H120.837C120.89 39.9602 121.174 40.5645 121.687 41.0031C122.211 41.4309 122.869 41.6448 123.66 41.6448C124.088 41.6448 124.484 41.586 124.848 41.4684C125.222 41.3507 125.586 41.1849 125.939 40.971L126.5 41.9818C126.094 42.2385 125.634 42.4578 125.121 42.6396C124.618 42.8107 124.062 42.8963 123.452 42.8963C122.864 42.8963 122.307 42.8054 121.783 42.6236C121.27 42.431 120.821 42.1583 120.436 41.8053C120.05 41.4523 119.746 41.0245 119.521 40.5217C119.307 40.0083 119.2 39.4307 119.2 38.7889ZM125.345 38.099C125.345 37.3931 125.163 36.8529 124.8 36.4785C124.436 36.1042 123.917 35.917 123.243 35.917C122.655 35.917 122.131 36.1042 121.671 36.4785C121.211 36.8529 120.928 37.3931 120.821 38.099H125.345Z" fill="#EF962A"/>
<path d="M129.029 34.858H130.345L130.473 36.6871H130.521C130.928 36.0453 131.42 35.5479 131.997 35.195C132.586 34.842 133.233 34.6655 133.939 34.6655C134.249 34.6655 134.522 34.6922 134.757 34.7457C134.992 34.7885 135.233 34.8687 135.479 34.9864L135.126 36.3502C134.859 36.2646 134.629 36.2004 134.436 36.1576C134.244 36.1149 133.998 36.0935 133.698 36.0935C133.131 36.0935 132.586 36.2539 132.062 36.5748C131.537 36.8957 131.056 37.4519 130.618 38.2434V42.7038H129.029V34.858Z" fill="#EF962A"/>
<path d="M145.029 38.7889C145.029 38.1365 145.136 37.5535 145.35 37.0401C145.564 36.5267 145.853 36.0935 146.216 35.7405C146.58 35.3875 146.997 35.1201 147.468 34.9383C147.938 34.7564 148.43 34.6655 148.944 34.6655C149.457 34.6655 149.949 34.7564 150.42 34.9383C150.89 35.1201 151.308 35.3875 151.671 35.7405C152.035 36.0935 152.324 36.5267 152.538 37.0401C152.752 37.5535 152.859 38.1365 152.859 38.7889C152.859 39.4414 152.752 40.0243 152.538 40.5378C152.324 41.0405 152.035 41.4684 151.671 41.8213C151.308 42.1743 150.89 42.4417 150.42 42.6236C149.949 42.8054 149.457 42.8963 148.944 42.8963C148.43 42.8963 147.938 42.8054 147.468 42.6236C146.997 42.4417 146.58 42.1743 146.216 41.8213C145.853 41.4684 145.564 41.0405 145.35 40.5378C145.136 40.0243 145.029 39.4414 145.029 38.7889ZM146.665 38.7889C146.665 39.6339 146.869 40.3132 147.275 40.8266C147.682 41.34 148.238 41.5967 148.944 41.5967C149.65 41.5967 150.206 41.34 150.612 40.8266C151.019 40.3132 151.222 39.6339 151.222 38.7889C151.222 37.9439 151.019 37.2647 150.612 36.7513C150.206 36.2379 149.65 35.9811 148.944 35.9811C148.238 35.9811 147.682 36.2379 147.275 36.7513C146.869 37.2647 146.665 37.9439 146.665 38.7889Z" fill="#EF962A"/>
<path d="M161.741 32.7562C161.441 32.6279 161.153 32.5369 160.875 32.4835C160.607 32.43 160.308 32.4032 159.976 32.4032C159.324 32.4032 158.853 32.569 158.564 32.9006C158.275 33.2215 158.131 33.6814 158.131 34.2804V34.858H161.26V36.1416H158.131V42.7038H156.559V36.1416H154.361V34.9383L156.559 34.858V34.3125C156.559 33.8419 156.623 33.414 156.751 33.029C156.88 32.6332 157.077 32.2963 157.345 32.0182C157.612 31.7401 157.949 31.5261 158.356 31.3764C158.762 31.2159 159.243 31.1357 159.8 31.1357C160.58 31.1357 161.345 31.2855 162.094 31.585L161.741 32.7562Z" fill="#EF962A"/>
<path d="M171.676 32.1947H174.66C175.195 32.1947 175.687 32.2428 176.136 32.3391C176.586 32.4246 176.971 32.569 177.292 32.7723C177.623 32.9755 177.88 33.2429 178.062 33.5745C178.244 33.9061 178.334 34.3072 178.334 34.7778C178.334 35.2912 178.185 35.7619 177.885 36.1897C177.586 36.6069 177.126 36.8957 176.505 37.0561V37.1203C177.276 37.2487 177.864 37.5214 178.27 37.9386C178.687 38.345 178.896 38.9066 178.896 39.6232C178.896 40.1474 178.794 40.6019 178.591 40.987C178.399 41.3721 178.126 41.693 177.773 41.9497C177.42 42.2064 176.997 42.3989 176.505 42.5273C176.024 42.6449 175.495 42.7038 174.917 42.7038H171.676V32.1947ZM174.468 36.6069C175.281 36.6069 175.864 36.4678 176.217 36.1897C176.58 35.9009 176.762 35.4838 176.762 34.9383C176.762 34.4141 176.575 34.0344 176.201 33.7991C175.826 33.5638 175.265 33.4461 174.516 33.4461H173.28V36.6069H174.468ZM174.724 41.4363C175.559 41.4363 176.201 41.2812 176.65 40.971C177.099 40.6608 177.324 40.1794 177.324 39.527C177.324 38.9173 177.104 38.4734 176.666 38.1953C176.227 37.9172 175.58 37.7781 174.724 37.7781H173.28V41.4363H174.724Z" fill="#EF962A"/>
<path d="M180.157 34.858H185.259V42.7038H183.671V36.1416H180.157V34.858ZM184.329 33.3659C183.987 33.3659 183.703 33.2643 183.478 33.0611C183.254 32.8578 183.142 32.5851 183.142 32.2428C183.142 31.9005 183.254 31.6278 183.478 31.4245C183.703 31.2106 183.987 31.1036 184.329 31.1036C184.671 31.1036 184.955 31.2106 185.179 31.4245C185.404 31.6278 185.516 31.9005 185.516 32.2428C185.516 32.5851 185.404 32.8578 185.179 33.0611C184.955 33.2643 184.671 33.3659 184.329 33.3659Z" fill="#EF962A"/>
<path d="M190.596 36.1416H188.446V34.9383L190.66 34.858L190.869 32.692H192.184V34.858H195.891V36.1416H192.184V39.6072C192.184 40.2811 192.318 40.7838 192.585 41.1154C192.864 41.447 193.361 41.6128 194.078 41.6128C194.42 41.6128 194.735 41.586 195.024 41.5325C195.324 41.4683 195.607 41.3828 195.875 41.2758L196.195 42.4471C195.842 42.5647 195.452 42.6663 195.024 42.7519C194.596 42.8482 194.158 42.8963 193.709 42.8963C193.131 42.8963 192.639 42.8161 192.232 42.6556C191.837 42.4952 191.516 42.2706 191.27 41.9818C191.034 41.693 190.863 41.3507 190.756 40.9549C190.649 40.5485 190.596 40.0992 190.596 39.6072V36.1416Z" fill="#EF962A"/>
<path d="M197.296 38.7889C197.296 38.1365 197.414 37.5535 197.649 37.0401C197.884 36.5267 198.205 36.0935 198.612 35.7405C199.018 35.3875 199.484 35.1201 200.008 34.9383C200.543 34.7564 201.109 34.6655 201.708 34.6655C202.35 34.6655 202.912 34.7778 203.393 35.0024C203.874 35.2164 204.276 35.4784 204.596 35.7886L203.826 36.7994C203.516 36.5427 203.195 36.3448 202.864 36.2058C202.532 36.056 202.174 35.9811 201.789 35.9811C201.371 35.9811 200.986 36.0507 200.633 36.1897C200.28 36.3181 199.976 36.5053 199.719 36.7513C199.473 36.9973 199.28 37.2968 199.141 37.6498C199.002 37.9921 198.933 38.3718 198.933 38.7889C198.933 39.2061 198.997 39.5912 199.125 39.9441C199.264 40.2864 199.457 40.5806 199.703 40.8266C199.96 41.0726 200.259 41.2651 200.601 41.4042C200.944 41.5325 201.323 41.5967 201.741 41.5967C202.222 41.5967 202.655 41.5058 203.04 41.3239C203.425 41.1421 203.773 40.9228 204.083 40.6661L204.757 41.693C204.308 42.078 203.816 42.3775 203.281 42.5915C202.746 42.7947 202.19 42.8963 201.612 42.8963C201.002 42.8963 200.43 42.8054 199.895 42.6236C199.371 42.4417 198.917 42.1743 198.532 41.8213C198.147 41.4684 197.842 41.0405 197.617 40.5378C197.403 40.0243 197.296 39.4414 197.296 38.7889Z" fill="#EF962A"/>
<path d="M205.633 38.7889C205.633 38.1365 205.74 37.5535 205.954 37.0401C206.168 36.5267 206.457 36.0935 206.82 35.7405C207.184 35.3875 207.601 35.1201 208.072 34.9383C208.542 34.7564 209.034 34.6655 209.548 34.6655C210.061 34.6655 210.553 34.7564 211.024 34.9383C211.495 35.1201 211.912 35.3875 212.275 35.7405C212.639 36.0935 212.928 36.5267 213.142 37.0401C213.356 37.5535 213.463 38.1365 213.463 38.7889C213.463 39.4414 213.356 40.0243 213.142 40.5378C212.928 41.0405 212.639 41.4684 212.275 41.8213C211.912 42.1743 211.495 42.4417 211.024 42.6236C210.553 42.8054 210.061 42.8963 209.548 42.8963C209.034 42.8963 208.542 42.8054 208.072 42.6236C207.601 42.4417 207.184 42.1743 206.82 41.8213C206.457 41.4684 206.168 41.0405 205.954 40.5378C205.74 40.0243 205.633 39.4414 205.633 38.7889ZM207.27 38.7889C207.27 39.6339 207.473 40.3132 207.879 40.8266C208.286 41.34 208.842 41.5967 209.548 41.5967C210.254 41.5967 210.81 41.34 211.217 40.8266C211.623 40.3132 211.826 39.6339 211.826 38.7889C211.826 37.9439 211.623 37.2647 211.217 36.7513C210.81 36.2379 210.254 35.9811 209.548 35.9811C208.842 35.9811 208.286 36.2379 207.879 36.7513C207.473 37.2647 207.27 37.9439 207.27 38.7889Z" fill="#EF962A"/>
<path d="M214.788 34.858H219.89V42.7038H218.302V36.1416H214.788V34.858ZM218.96 33.3659C218.617 33.3659 218.334 33.2643 218.109 33.0611C217.885 32.8578 217.772 32.5851 217.772 32.2428C217.772 31.9005 217.885 31.6278 218.109 31.4245C218.334 31.2106 218.617 31.1036 218.96 31.1036C219.302 31.1036 219.585 31.2106 219.81 31.4245C220.035 31.6278 220.147 31.9005 220.147 32.2428C220.147 32.5851 220.035 32.8578 219.81 33.0611C219.585 33.2643 219.302 33.3659 218.96 33.3659Z" fill="#EF962A"/>
<path d="M223.462 34.858H224.762L224.89 36.1255H224.954C225.35 35.7191 225.778 35.3768 226.238 35.0987C226.698 34.8099 227.232 34.6655 227.842 34.6655C228.762 34.6655 229.436 34.9383 229.864 35.4838C230.292 36.0293 230.505 36.8155 230.505 37.8423V42.7038H228.917V38.0509C228.917 37.3663 228.794 36.8636 228.548 36.5427C228.302 36.2111 227.88 36.0453 227.281 36.0453C226.863 36.0453 226.489 36.1523 226.157 36.3662C225.826 36.5694 225.457 36.8796 225.05 37.2968V42.7038H223.462V34.858Z" fill="#EF962A"/>
</svg>
