<svg width="24" height="24" viewBox="0 0 24 24" fill="none" xmlns="http://www.w3.org/2000/svg">
<g clip-path="url(#clip0_560_999)">
<path d="M6.3 10C6.1 10.6 6 11.3 6 12" stroke="#FFCC00" stroke-width="2" stroke-miterlimit="10"/>
<path d="M18 12C18 8.7 15.3 6 12 6C11.3 6 10.6 6.1 10 6.3" stroke="#FFCC00" stroke-width="2" stroke-miterlimit="10"/>
<path d="M10.6 10.6L7 7" stroke="#FFCC00" stroke-width="2" stroke-miterlimit="10" stroke-linecap="square"/>
<path d="M12 14C13.1046 14 14 13.1046 14 12C14 10.8954 13.1046 10 12 10C10.8954 10 10 10.8954 10 12C10 13.1046 10.8954 14 12 14Z" stroke="#FFCC00" stroke-width="2" stroke-miterlimit="10" stroke-linecap="square"/>
<path d="M12 23C18.0751 23 23 18.0751 23 12C23 5.92487 18.0751 1 12 1C5.92487 1 1 5.92487 1 12C1 18.0751 5.92487 23 12 23Z" stroke="#5BEBF3" stroke-width="2" stroke-miterlimit="10" stroke-linecap="square"/>
</g>
<defs>
<clipPath id="clip0_560_999">
<rect width="24" height="24" fill="white"/>
</clipPath>
</defs>
</svg>
