<svg width="267" height="70" viewBox="0 0 267 70" fill="none" xmlns="http://www.w3.org/2000/svg">
<path d="M134.823 63.6666C120.89 63.6666 114.191 55.9777 111.017 49.523C107.876 43.1206 107.612 36.7739 107.59 35.8691C107.05 27.3 112.153 10.0748 135.365 5.68788C135.768 5.61181 136.182 5.61583 136.583 5.69972C136.985 5.7836 137.366 5.94571 137.704 6.17678C138.043 6.40785 138.333 6.70335 138.557 7.04643C138.782 7.3895 138.936 7.77342 139.012 8.17627C139.088 8.57912 139.084 8.99301 139 9.3943C138.917 9.7956 138.754 10.1764 138.523 10.5151C138.292 10.8537 137.997 11.1435 137.654 11.368C137.311 11.5924 136.927 11.7471 136.524 11.8232C112.806 16.3058 113.772 34.7484 113.821 35.5275C113.821 35.5864 113.828 35.6454 113.829 35.7055C113.846 36.5847 114.397 57.4244 134.823 57.4244C142.429 57.4244 147.8 54.1526 150.804 47.7012C153.529 41.8319 152.951 35.1869 149.3 30.3593C146.752 26.9906 143.462 25.3513 139.242 25.3513C135.407 25.3513 132.178 26.4508 129.647 28.6198C128.593 29.5224 127.735 30.6309 127.124 31.8773C126.514 33.1237 126.165 34.4818 126.098 35.868C125.942 38.6947 126.893 41.3612 128.777 43.3788C130.469 45.1828 132.442 46.062 134.823 46.062C137.879 46.062 139.889 45.0604 140.795 43.0783C141.728 41.0418 141.197 38.7459 140.774 38.2562C139.76 37.1434 138.694 36.7338 138.272 36.8095C137.991 36.8574 137.629 37.3225 137.329 38.0248C137.168 38.4017 136.934 38.7432 136.642 39.0299C136.349 39.3166 136.002 39.5428 135.622 39.6957C135.242 39.8485 134.835 39.925 134.426 39.9207C134.016 39.9164 133.611 39.8315 133.234 39.6707C132.857 39.5099 132.516 39.2765 132.229 38.9838C131.942 38.691 131.716 38.3446 131.563 37.9645C131.41 37.5843 131.334 37.1777 131.338 36.768C131.343 36.3582 131.428 35.9533 131.588 35.5764C133.177 31.855 135.811 30.9023 137.237 30.6575C139.995 30.1923 143.043 31.4699 145.399 34.0685C147.755 36.6671 148.238 41.6973 146.529 45.5556C145.411 48.0763 142.404 52.3052 134.823 52.3052C130.737 52.3052 127.07 50.6926 124.219 47.64C121.162 44.3682 119.618 40.0636 119.866 35.5219C119.988 33.2976 120.556 31.1207 121.537 29.1207C122.518 27.1208 123.892 25.3389 125.577 23.8812C129.27 20.7151 133.865 19.1103 139.233 19.1103C145.367 19.1103 150.567 21.6977 154.27 26.5922C159.318 33.2694 160.157 42.3628 156.458 50.3298C153.637 56.4139 147.59 63.6666 134.823 63.6666Z" fill="white"/>
</svg>
