<svg width="122" height="120" viewBox="0 0 122 120" fill="none" xmlns="http://www.w3.org/2000/svg">
<path d="M63.2068 109.143C39.3211 109.143 27.8363 95.9622 22.3953 84.8969C17.0115 73.9215 16.5594 63.0413 16.5211 61.4903C15.5959 46.8003 24.3432 17.2716 64.1358 9.751C64.8265 9.62059 65.5359 9.6275 66.2238 9.7713C66.9119 9.91509 67.5647 10.193 68.1453 10.5891C68.7258 10.9852 69.2225 11.4918 69.6073 12.0799C69.9921 12.6681 70.2573 13.3262 70.3877 14.0168C70.518 14.7074 70.5112 15.4169 70.3674 16.1049C70.2235 16.7929 69.9456 17.4457 69.5496 18.0263C69.1534 18.6068 68.6468 19.1035 68.0587 19.4883C67.4705 19.8731 66.8125 20.1383 66.1218 20.2686C25.4631 27.9532 27.1189 59.5691 27.2029 60.9045C27.2029 61.0057 27.2144 61.1068 27.2162 61.2099C27.2449 62.717 28.1892 98.4423 63.2068 98.4423C76.2446 98.4423 85.4515 92.8333 90.6026 81.7738C95.2729 71.7122 94.2827 60.3207 88.0233 52.0448C83.6562 46.2699 78.0149 43.4598 70.7806 43.4598C64.2064 43.4598 58.6719 45.3446 54.3336 49.063C52.5263 50.6102 51.0544 52.5105 50.0081 54.6472C48.9618 56.784 48.3634 59.112 48.2496 61.4883C47.9806 66.3342 49.6118 70.9052 52.8417 74.364C55.7415 77.4566 59.124 78.9637 63.2068 78.9637C68.4454 78.9637 71.8909 77.2467 73.4439 73.849C75.0427 70.3576 74.1326 66.4219 73.4076 65.5824C71.6697 63.6748 69.842 62.9726 69.1189 63.1023C68.6363 63.1844 68.0162 63.9819 67.5012 65.1856C67.2255 65.8318 66.8254 66.4172 66.3235 66.9087C65.8217 67.4003 65.228 67.7882 64.5761 68.05C63.9244 68.3121 63.2274 68.4431 62.5251 68.4358C61.8226 68.4285 61.1285 68.2829 60.4825 68.0072C59.8362 67.7317 59.2507 67.3315 58.7593 66.8296C58.2678 66.3277 57.8799 65.7341 57.6179 65.0823C57.356 64.4306 57.2248 63.7336 57.2323 63.0311C57.2395 62.3288 57.3852 61.6346 57.6608 60.9885C60.3852 54.6089 64.899 52.9758 67.3447 52.5561C72.0722 51.7586 77.2977 53.9487 81.3365 58.4035C85.3752 62.8581 86.2032 71.4814 83.2729 78.0957C81.3574 82.4168 76.2026 89.6664 63.2068 89.6664C56.2014 89.6664 49.9152 86.902 45.0274 81.6689C39.7867 76.06 37.1405 68.6807 37.566 60.895C37.7746 57.082 38.7488 53.35 40.4306 49.9216C42.1124 46.4932 44.4673 43.4384 47.355 40.9396C53.6869 35.5119 61.5641 32.7608 70.7653 32.7608C81.2811 32.7608 90.1962 37.1964 96.5434 45.5869C105.197 57.0337 106.636 72.6222 100.294 86.2802C95.4579 96.7099 85.0928 109.143 63.2068 109.143Z" fill="url(#paint0_linear_3_247)"/>
<defs>
<linearGradient id="paint0_linear_3_247" x1="16.4582" y1="59.3993" x2="104.215" y2="59.3993" gradientUnits="userSpaceOnUse">
<stop offset="0.18" stop-color="#0000FF"/>
<stop offset="1" stop-color="#FF00FF"/>
</linearGradient>
</defs>
</svg>
