<svg width="500" height="330" viewBox="0 0 500 330" fill="none" xmlns="http://www.w3.org/2000/svg">
<rect width="500" height="329.167" rx="12" fill="#031E38"/>
<path d="M253.81 227.811C223.124 227.811 208.369 210.877 201.379 196.661C194.462 182.561 193.882 168.583 193.832 166.59C192.644 147.717 203.882 109.781 255.004 100.119C255.891 99.9519 256.803 99.9607 257.687 100.145C258.57 100.33 259.409 100.687 260.155 101.196C260.901 101.705 261.539 102.356 262.033 103.111C262.528 103.867 262.868 104.713 263.036 105.6C263.203 106.487 263.195 107.399 263.01 108.282C262.825 109.166 262.468 110.005 261.959 110.751C261.45 111.497 260.799 112.135 260.044 112.629C259.288 113.123 258.443 113.464 257.556 113.632C205.32 123.504 207.448 164.122 207.556 165.838C207.556 165.967 207.57 166.097 207.573 166.23C207.609 168.166 208.823 214.063 253.81 214.063C270.56 214.063 282.389 206.857 289.007 192.649C295.007 179.722 293.734 165.088 285.693 154.455C280.083 147.036 272.835 143.426 263.541 143.426C255.095 143.426 247.984 145.847 242.411 150.624C240.089 152.612 238.198 155.053 236.854 157.799C235.51 160.544 234.741 163.535 234.595 166.588C234.249 172.813 236.345 178.686 240.494 183.129C244.22 187.102 248.565 189.039 253.81 189.039C260.541 189.039 264.967 186.833 266.962 182.467C269.016 177.982 267.847 172.926 266.916 171.847C264.683 169.396 262.335 168.494 261.406 168.661C260.786 168.766 259.989 169.791 259.328 171.338C258.974 172.168 258.459 172.92 257.815 173.551C257.17 174.183 256.407 174.681 255.57 175.018C254.732 175.354 253.837 175.523 252.935 175.513C252.032 175.504 251.141 175.317 250.31 174.963C249.48 174.608 248.728 174.094 248.097 173.45C247.465 172.805 246.967 172.042 246.63 171.205C246.294 170.367 246.125 169.472 246.135 168.57C246.144 167.667 246.331 166.775 246.685 165.945C250.185 157.749 255.984 155.651 259.127 155.112C265.2 154.088 271.913 156.901 277.102 162.624C282.291 168.347 283.355 179.426 279.59 187.923C277.129 193.475 270.507 202.789 253.81 202.789C244.81 202.789 236.734 199.237 230.455 192.514C223.722 185.308 220.323 175.828 220.869 165.825C221.137 160.927 222.389 156.132 224.549 151.727C226.71 147.323 229.735 143.398 233.445 140.188C241.58 133.215 251.7 129.681 263.521 129.681C277.031 129.681 288.484 135.379 296.639 146.159C307.757 160.865 309.605 180.891 301.458 198.438C295.244 211.838 281.928 227.811 253.81 227.811Z" fill="url(#paint0_linear_950_7143)"/>
<defs>
<linearGradient id="paint0_linear_950_7143" x1="193.752" y1="163.904" x2="306.494" y2="163.904" gradientUnits="userSpaceOnUse">
<stop offset="0.18" stop-color="#0000FF"/>
<stop offset="1" stop-color="#FF00FF"/>
</linearGradient>
</defs>
</svg>
