<svg width="300" height="90" viewBox="0 0 300 90" fill="none" xmlns="http://www.w3.org/2000/svg">
<path d="M151.703 81.857C133.789 81.857 125.175 71.9713 121.094 63.6724C117.057 55.4408 116.717 47.2807 116.689 46.1174C115.995 35.0999 122.555 12.9534 152.4 7.31298C152.918 7.21518 153.45 7.22036 153.966 7.32821C154.482 7.43606 154.971 7.64448 155.407 7.94157C155.842 8.23866 156.215 8.6186 156.503 9.05969C156.792 9.50079 156.991 9.9944 157.089 10.5123C157.186 11.0303 157.181 11.5624 157.073 12.0784C156.966 12.5943 156.757 13.084 156.46 13.5194C156.163 13.9548 155.783 14.3274 155.342 14.616C154.901 14.9046 154.407 15.1034 153.889 15.2012C123.395 20.9647 124.637 44.6766 124.7 45.6782C124.7 45.754 124.709 45.8298 124.71 45.9071C124.732 47.0375 125.44 73.8314 151.703 73.8314C161.481 73.8314 168.387 69.6248 172.25 61.3302C175.753 53.7839 175.01 45.2403 170.315 39.0333C167.04 34.7022 162.809 32.5945 157.383 32.5945C152.453 32.5945 148.302 34.0082 145.048 36.7969C143.693 37.9573 142.589 39.3826 141.804 40.9851C141.019 42.5877 140.571 44.3337 140.485 46.116C140.283 49.7503 141.507 53.1786 143.929 55.7728C146.104 58.0922 148.641 59.2225 151.703 59.2225C155.632 59.2225 158.216 57.9348 159.381 55.3864C160.58 52.768 159.897 49.8162 159.354 49.1866C158.05 47.7558 156.679 47.2292 156.137 47.3265C155.775 47.388 155.31 47.9861 154.924 48.889C154.717 49.3736 154.417 49.8127 154.041 50.1813C153.664 50.5499 153.219 50.8408 152.73 51.0373C152.241 51.2338 151.718 51.3321 151.192 51.3266C150.665 51.3211 150.144 51.2119 149.66 51.0052C149.175 50.7985 148.736 50.4984 148.367 50.122C147.999 49.7456 147.708 49.3003 147.511 48.8114C147.315 48.3226 147.217 47.7999 147.222 47.2731C147.228 46.7463 147.337 46.2257 147.543 45.7411C149.587 40.9564 152.972 39.7316 154.806 39.4168C158.352 38.8187 162.271 40.4613 165.3 43.8023C168.329 47.1434 168.95 53.6108 166.753 58.5715C165.316 61.8124 161.45 67.2496 151.703 67.2496C146.449 67.2496 141.734 65.1763 138.068 61.2515C134.138 57.0448 132.153 51.5103 132.472 45.671C132.629 42.8113 133.36 40.0123 134.621 37.4409C135.882 34.8696 137.648 32.5786 139.814 30.7044C144.563 26.6337 150.471 24.5704 157.372 24.5704C165.259 24.5704 171.945 27.8971 176.705 34.1899C183.196 42.775 184.275 54.4664 179.519 64.7098C175.891 72.5322 168.118 81.857 151.703 81.857Z" fill="white"/>
</svg>
