<svg width="75" height="74" viewBox="0 0 75 74" fill="none" xmlns="http://www.w3.org/2000/svg">
<path d="M38.9775 67.3049C24.248 67.3049 17.1657 59.1767 13.8104 52.3531C10.4904 45.5849 10.2116 38.8755 10.188 37.919C9.61745 28.8602 15.0116 10.6508 39.5504 6.01312C39.9763 5.9327 40.4138 5.93696 40.838 6.02564C41.2623 6.11431 41.6649 6.28568 42.0229 6.52995C42.3809 6.77423 42.6872 7.08662 42.9245 7.4493C43.1618 7.81198 43.3253 8.21784 43.4057 8.64371C43.4861 9.06958 43.4819 9.50711 43.3932 9.93134C43.3045 10.3556 43.1331 10.7582 42.8889 11.1162C42.6446 11.4742 42.3322 11.7805 41.9695 12.0178C41.6068 12.2551 41.201 12.4186 40.7751 12.499C15.7022 17.2378 16.7233 36.7343 16.7751 37.5578C16.7751 37.6202 16.7822 37.6825 16.7833 37.7461C16.801 38.6755 17.3833 60.7061 38.9775 60.7061C47.0175 60.7061 52.6951 57.2472 55.8716 50.4272C58.7516 44.2225 58.141 37.1978 54.281 32.0943C51.588 28.5331 48.1092 26.8002 43.648 26.8002C39.5939 26.8002 36.181 27.9625 33.5057 30.2555C32.3912 31.2096 31.4835 32.3815 30.8383 33.6991C30.1931 35.0168 29.8241 36.4524 29.7539 37.9178C29.588 40.9061 30.5939 43.7249 32.5857 45.8578C34.3739 47.7649 36.4598 48.6943 38.9775 48.6943C42.208 48.6943 44.3327 47.6355 45.2904 45.5402C46.2763 43.3872 45.7151 40.9602 45.268 40.4425C44.1963 39.2661 43.0692 38.8331 42.6233 38.9131C42.3257 38.9637 41.9433 39.4555 41.6257 40.1978C41.4557 40.5963 41.209 40.9573 40.8995 41.2604C40.59 41.5635 40.2239 41.8027 39.8219 41.9642C39.42 42.1258 38.9902 42.2066 38.5571 42.2021C38.1239 42.1976 37.6959 42.1078 37.2975 41.9378C36.899 41.7679 36.5379 41.5211 36.2349 41.2116C35.9318 40.9021 35.6926 40.536 35.531 40.1341C35.3695 39.7322 35.2886 39.3024 35.2932 38.8692C35.2977 38.4361 35.3875 38.008 35.5575 37.6096C37.2375 33.6755 40.021 32.6684 41.5292 32.4096C44.4445 31.9178 47.6669 33.2684 50.1575 36.0155C52.648 38.7625 53.1586 44.0802 51.3516 48.159C50.1704 50.8237 46.9916 55.2943 38.9775 55.2943C34.6575 55.2943 30.781 53.5896 27.7669 50.3625C24.5351 46.9037 22.9033 42.3531 23.1657 37.5519C23.2943 35.2006 23.8951 32.8992 24.9322 30.785C25.9693 28.6708 27.4215 26.787 29.2022 25.2461C33.1069 21.899 37.9645 20.2025 43.6386 20.2025C50.1233 20.2025 55.621 22.9378 59.5351 28.1119C64.8716 35.1708 65.7586 44.7837 61.848 53.2061C58.8657 59.6378 52.4739 67.3049 38.9775 67.3049Z" fill="url(#paint0_linear_919_556)"/>
<defs>
<linearGradient id="paint0_linear_919_556" x1="10.1492" y1="36.6296" x2="64.2657" y2="36.6296" gradientUnits="userSpaceOnUse">
<stop offset="0.18" stop-color="#0000FF"/>
<stop offset="1" stop-color="#FF00FF"/>
</linearGradient>
</defs>
</svg>
