<svg width="154" height="196" viewBox="0 0 154 196" fill="none" xmlns="http://www.w3.org/2000/svg">
<path fill-rule="evenodd" clip-rule="evenodd" d="M26.8781 121.67L1.92969 133.781L51.8263 158.005L51.8266 133.782L26.8781 121.67Z" fill="#5BEBF3" stroke="black" stroke-width="3" stroke-miterlimit="1.5" stroke-linecap="round" stroke-linejoin="round"/>
<path fill-rule="evenodd" clip-rule="evenodd" d="M126.672 121.67L101.724 133.782L101.724 158.005L151.621 133.782L126.672 121.67Z" fill="#5BEBF3" stroke="black" stroke-width="3" stroke-miterlimit="1.5" stroke-linecap="round" stroke-linejoin="round"/>
<path fill-rule="evenodd" clip-rule="evenodd" d="M126.673 73.2234L126.673 97.4465L101.725 85.335L126.673 73.2234Z" fill="#5BEBF3" stroke="black" stroke-width="3" stroke-miterlimit="1.5" stroke-linecap="round" stroke-linejoin="round"/>
<path fill-rule="evenodd" clip-rule="evenodd" d="M26.8781 73.2234L51.8265 85.335L26.8781 97.4465L26.8781 73.2234Z" fill="#5BEBF3" stroke="black" stroke-width="3" stroke-miterlimit="1.5" stroke-linecap="round" stroke-linejoin="round"/>
<path fill-rule="evenodd" clip-rule="evenodd" d="M51.8273 85.335L26.8789 97.4465L76.7756 121.67L126.673 97.4464L101.725 85.335L76.7758 97.4467L51.8273 85.335Z" fill="#5BEBF3" stroke="black" stroke-width="3" stroke-miterlimit="1.5" stroke-linecap="round" stroke-linejoin="round"/>
<path fill-rule="evenodd" clip-rule="evenodd" d="M1.92969 158.005L76.7746 194.341V120.974L26.8783 97.4472V73.2242L76.7746 97.4472V73.2242L1.92969 36.8894V109.559L51.8268 133.782V158.005L1.92969 133.782V158.005Z" fill="#5BEBF3" stroke="black" stroke-width="3" stroke-miterlimit="1.5" stroke-linecap="round" stroke-linejoin="round"/>
<path fill-rule="evenodd" clip-rule="evenodd" d="M150.844 158.116L75.9988 194.452V121.085L125.895 97.5578V73.3348L75.9988 97.5578V73.3348L150.844 37V109.67L100.947 133.893V158.116L150.844 133.893V158.116Z" fill="#5BEBF3" stroke="black" stroke-width="3" stroke-miterlimit="1.5" stroke-linecap="round" stroke-linejoin="round"/>
<path fill-rule="evenodd" clip-rule="evenodd" d="M76.7748 51.6726L24.2412 26.0582L1.92969 36.8896L76.7748 73.2244L151.735 36.8342L129.538 26.0583L76.7748 51.6726Z" fill="#5BEBF3" stroke="black" stroke-width="3" stroke-miterlimit="1.5" stroke-linecap="round" stroke-linejoin="round"/>
</svg>
