<svg width="614" height="128" viewBox="0 0 614 128" fill="none" xmlns="http://www.w3.org/2000/svg">
<path d="M39.1035 127.96C31.5435 127.96 24.8702 126.607 19.0835 123.9C13.2969 121.193 8.77018 117.32 5.50352 112.28C2.23685 107.24 0.603516 101.173 0.603516 94.08V90.16H18.8035V94.08C18.8035 99.96 20.6235 104.393 24.2635 107.38C27.9035 110.273 32.8502 111.72 39.1035 111.72C45.4502 111.72 50.1635 110.46 53.2435 107.94C56.4169 105.42 58.0035 102.2 58.0035 98.28C58.0035 95.5734 57.2102 93.38 55.6235 91.7C54.1302 90.02 51.8902 88.6667 48.9035 87.64C46.0102 86.52 42.4635 85.4934 38.2635 84.56L35.0435 83.86C28.3235 82.3667 22.5368 80.5 17.6835 78.26C12.9235 75.9267 9.23685 72.8934 6.62352 69.16C4.10352 65.4267 2.84352 60.5734 2.84352 54.6C2.84352 48.6267 4.24352 43.54 7.04352 39.34C9.93685 35.0467 13.9502 31.78 19.0835 29.54C24.3102 27.2067 30.4235 26.04 37.4235 26.04C44.4235 26.04 50.6302 27.2534 56.0435 29.68C61.5502 32.0134 65.8435 35.56 68.9235 40.32C72.0969 44.9867 73.6835 50.8667 73.6835 57.96V62.16H55.4835V57.96C55.4835 54.2267 54.7369 51.24 53.2435 49C51.8435 46.6667 49.7902 44.9867 47.0835 43.96C44.3769 42.84 41.1568 42.28 37.4235 42.28C31.8235 42.28 27.6702 43.3534 24.9635 45.5C22.3502 47.5534 21.0435 50.4 21.0435 54.04C21.0435 56.4667 21.6502 58.52 22.8635 60.2C24.1702 61.88 26.0835 63.28 28.6035 64.4C31.1235 65.52 34.3435 66.5 38.2635 67.34L41.4835 68.04C48.4835 69.5334 54.5502 71.4467 59.6835 73.78C64.9102 76.1134 68.9702 79.1934 71.8635 83.02C74.7568 86.8467 76.2035 91.7467 76.2035 97.72C76.2035 103.693 74.6635 108.967 71.5835 113.54C68.5968 118.02 64.3035 121.567 58.7035 124.18C53.1969 126.7 46.6635 127.96 39.1035 127.96Z" fill="white"/>
<path d="M117.146 126C112.573 126 108.839 124.6 105.946 121.8C103.146 118.907 101.746 115.08 101.746 110.32V71.12H84.3859V56.56H101.746V35H119.386V56.56H138.426V71.12H119.386V107.24C119.386 110.04 120.693 111.44 123.306 111.44H136.746V126H117.146Z" fill="white"/>
<path d="M154.394 126V56.56H171.754V64.4H174.274C175.3 61.6 176.98 59.5467 179.314 58.24C181.74 56.9334 184.54 56.28 187.714 56.28H196.114V71.96H187.434C182.954 71.96 179.267 73.1734 176.374 75.6C173.48 77.9334 172.034 81.5734 172.034 86.52V126H154.394Z" fill="white"/>
<path d="M229.821 127.96C224.874 127.96 220.441 127.12 216.521 125.44C212.601 123.667 209.474 121.147 207.141 117.88C204.901 114.52 203.781 110.46 203.781 105.7C203.781 100.94 204.901 96.9734 207.141 93.8C209.474 90.5334 212.647 88.1067 216.661 86.52C220.767 84.84 225.434 84 230.661 84H249.701V80.08C249.701 76.8134 248.674 74.1534 246.621 72.1C244.567 69.9534 241.301 68.88 236.821 68.88C232.434 68.88 229.167 69.9067 227.021 71.96C224.874 73.92 223.474 76.4867 222.821 79.66L206.581 74.2C207.701 70.6534 209.474 67.4334 211.901 64.54C214.421 61.5534 217.734 59.1734 221.841 57.4C226.041 55.5334 231.127 54.6 237.101 54.6C246.247 54.6 253.481 56.8867 258.801 61.46C264.121 66.0334 266.781 72.66 266.781 81.34V107.24C266.781 110.04 268.087 111.44 270.701 111.44H276.301V126H264.541C261.087 126 258.241 125.16 256.001 123.48C253.761 121.8 252.641 119.56 252.641 116.76V116.62H249.981C249.607 117.74 248.767 119.233 247.461 121.1C246.154 122.873 244.101 124.46 241.301 125.86C238.501 127.26 234.674 127.96 229.821 127.96ZM232.901 113.68C237.847 113.68 241.861 112.327 244.941 109.62C248.114 106.82 249.701 103.133 249.701 98.56V97.16H231.921C228.654 97.16 226.087 97.86 224.221 99.26C222.354 100.66 221.421 102.62 221.421 105.14C221.421 107.66 222.401 109.713 224.361 111.3C226.321 112.887 229.167 113.68 232.901 113.68Z" fill="white"/>
<path d="M310.74 126C306.166 126 302.433 124.6 299.54 121.8C296.74 118.907 295.34 115.08 295.34 110.32V71.12H277.98V56.56H295.34V35H312.98V56.56H332.02V71.12H312.98V107.24C312.98 110.04 314.286 111.44 316.9 111.44H330.34V126H310.74Z" fill="white"/>
<path d="M374.447 127.12C369.034 127.12 364.274 125.907 360.167 123.48C356.154 120.96 353.027 117.507 350.787 113.12C348.547 108.733 347.427 103.693 347.427 98V56.56H365.067V96.6C365.067 101.827 366.327 105.747 368.847 108.36C371.461 110.973 375.147 112.28 379.907 112.28C385.321 112.28 389.521 110.507 392.507 106.96C395.494 103.32 396.987 98.28 396.987 91.84V56.56H414.627V126H397.267V116.9H394.747C393.627 119.233 391.527 121.52 388.447 123.76C385.367 126 380.701 127.12 374.447 127.12Z" fill="white"/>
<path d="M434.257 126V56.56H451.617V64.12H454.137C455.35 61.7867 457.357 59.78 460.157 58.1C462.957 56.3267 466.643 55.44 471.217 55.44C476.163 55.44 480.13 56.42 483.117 58.38C486.103 60.2467 488.39 62.72 489.977 65.8H492.497C494.083 62.8134 496.323 60.34 499.217 58.38C502.11 56.42 506.217 55.44 511.537 55.44C515.83 55.44 519.703 56.3734 523.157 58.24C526.703 60.0134 529.503 62.7667 531.557 66.5C533.703 70.14 534.777 74.76 534.777 80.36V126H517.137V81.62C517.137 77.7934 516.157 74.9467 514.197 73.08C512.237 71.12 509.483 70.14 505.937 70.14C501.923 70.14 498.797 71.4467 496.557 74.06C494.41 76.58 493.337 80.22 493.337 84.98V126H475.697V81.62C475.697 77.7934 474.717 74.9467 472.757 73.08C470.797 71.12 468.043 70.14 464.497 70.14C460.483 70.14 457.357 71.4467 455.117 74.06C452.97 76.58 451.897 80.22 451.897 84.98V126H434.257Z" fill="white"/>
<path fill-rule="evenodd" clip-rule="evenodd" d="M565.396 0C556.56 0 549.396 7.16344 549.396 16V48C549.396 56.8366 556.56 64 565.396 64H597.396C606.233 64 613.396 56.8366 613.396 48V16C613.396 7.16344 606.233 0 597.396 0H565.396ZM582.619 43.8772V47.6279H605.302V42.5377H588.469V42.3591C588.469 41.5851 588.602 40.9302 588.87 40.3944C589.168 39.8288 589.674 39.3228 590.389 38.8763C591.103 38.4 592.1 37.9684 593.38 37.5814L596.238 36.6884C598.024 36.1228 599.616 35.4084 601.016 34.5451C602.415 33.6521 603.516 32.5209 604.32 31.1516C605.153 29.7525 605.57 28.0558 605.57 26.0614V25.6149C605.57 23.6205 605.064 21.8939 604.052 20.4353C603.069 18.947 601.715 17.8009 599.989 16.9972C598.262 16.1637 596.327 15.747 594.184 15.747C592.041 15.747 590.091 16.1637 588.335 16.9972C586.608 17.8307 585.239 19.0363 584.227 20.6139C583.215 22.1916 582.709 24.1116 582.709 26.3739V27.0884H588.424V26.2846C588.424 24.5284 588.945 23.1888 589.987 22.266C591.058 21.3135 592.457 20.8372 594.184 20.8372C595.94 20.8372 597.324 21.2837 598.336 22.1767C599.349 23.04 599.855 24.2158 599.855 25.7042V25.8828C599.855 26.8353 599.646 27.6837 599.229 28.4279C598.842 29.1721 598.277 29.8121 597.533 30.3479C596.789 30.8539 595.866 31.2856 594.764 31.6428L591.773 32.5805C589.808 33.1758 588.141 33.9498 586.772 34.9023C585.432 35.8251 584.405 37.0158 583.691 38.4744C582.976 39.9032 582.619 41.7042 582.619 43.8772ZM556.996 25.4809L564.051 47.6279H572.981L580.036 25.4809H574.053L568.918 43.52H568.114L562.979 25.4809H556.996Z" fill="white"/>
</svg>
