<svg width="220" height="220" viewBox="0 0 220 220" fill="none" xmlns="http://www.w3.org/2000/svg">
<g clip-path="url(#clip0_150_1910)">
<path d="M6.65265 188.32C4.32807 188.32 2.6458 187.792 1.58291 186.737C0.527672 185.674 0 184 0 181.706C0 181.476 0.0765039 181.285 0.229437 181.132C0.38237 180.979 0.573537 180.903 0.802937 180.903C1.03234 180.903 1.2235 180.979 1.37644 181.132C1.52937 181.285 1.60587 181.476 1.60587 181.706C1.60587 183.564 1.98054 184.864 2.72991 185.606C3.48693 186.347 4.78687 186.714 6.65265 186.714H12.1582C14.0163 186.714 15.3239 186.347 16.0733 185.606C16.8303 184.864 17.205 183.564 17.205 181.706C17.205 179.848 16.8303 178.548 16.0733 177.806C15.3239 177.064 14.0163 176.697 12.1582 176.697H6.76737C4.57278 176.697 2.9746 176.2 1.96524 175.206C0.963532 174.212 0.458874 172.622 0.458874 170.427C0.458874 168.232 0.963532 166.642 1.96524 165.648C2.9746 164.654 4.55745 164.157 6.7291 164.157H12.3494C14.5134 164.157 16.104 164.654 17.1057 165.648C18.115 166.642 18.6197 168.225 18.6197 170.389C18.6197 170.618 18.5432 170.809 18.3903 170.962C18.2373 171.115 18.0462 171.192 17.8168 171.192C17.5874 171.192 17.3962 171.115 17.2433 170.962C17.0903 170.809 17.0138 170.618 17.0138 170.389C17.0138 168.683 16.6622 167.483 15.9587 166.795C15.2628 166.107 14.0546 165.763 12.3494 165.763H6.7291C5.01625 165.763 3.81574 166.107 3.11224 166.795C2.4164 167.483 2.06465 168.699 2.06465 170.427C2.06465 172.163 2.4164 173.371 3.11224 174.059C3.81574 174.747 5.03158 175.091 6.76737 175.091H12.1582C14.4751 175.091 16.1651 175.619 17.2203 176.682C18.2832 177.737 18.8109 179.412 18.8109 181.706C18.8109 184 18.2832 185.674 17.2203 186.737C16.1651 187.792 14.4751 188.32 12.1582 188.32H6.65265Z" fill="#5BEBF3"/>
<path d="M32.4222 188.397C32.1928 188.397 32.0016 188.32 31.8487 188.167C31.6958 188.014 31.6194 187.823 31.6194 187.594V165.724H23.2462C23.0168 165.724 22.8256 165.648 22.6727 165.495C22.5198 165.342 22.4434 165.151 22.4434 164.922C22.4434 164.692 22.5198 164.501 22.6727 164.348C22.8256 164.195 23.0168 164.119 23.2462 164.119H41.5982C41.8276 164.119 42.0188 164.195 42.1717 164.348C42.3246 164.501 42.4011 164.692 42.4011 164.922C42.4011 165.151 42.3246 165.342 42.1717 165.495C42.0188 165.648 41.8276 165.724 41.5982 165.724H33.2251V187.594C33.2251 187.823 33.1486 188.014 32.9957 188.167C32.8428 188.32 32.6516 188.397 32.4222 188.397Z" fill="#5BEBF3"/>
<path d="M65.2253 187.288C65.3476 187.494 65.4164 187.662 65.4164 187.785C65.4164 188.045 65.2711 188.244 64.9958 188.397C64.8123 188.496 64.6518 188.55 64.4989 188.55C64.2389 188.55 64.04 188.427 63.8871 188.167L57.5022 178.15H49.932V187.555C49.932 188.091 49.6643 188.358 49.129 188.358C48.5937 188.358 48.3262 188.091 48.3262 187.555V164.96C48.3262 164.424 48.5937 164.157 49.129 164.157H58.0757C60.1861 164.157 61.792 164.7 62.8701 165.785C63.956 166.864 64.4989 168.462 64.4989 170.58V171.727C64.4989 175.527 62.786 177.638 59.3756 178.074L65.2253 187.288ZM49.932 176.544H58.0757C59.7273 176.544 60.9508 176.154 61.7231 175.382C62.5031 174.602 62.893 173.386 62.893 171.727V170.58C62.893 168.928 62.5031 167.705 61.7231 166.932C60.9508 166.153 59.7273 165.763 58.0757 165.763H49.932V176.544Z" fill="#5BEBF3"/>
<path d="M90.9957 187.211C91.0721 187.364 91.1104 187.51 91.1104 187.632C91.1104 187.915 90.9269 188.129 90.5752 188.282C90.4222 188.335 90.2922 188.358 90.1928 188.358C89.9099 188.358 89.6958 188.198 89.5429 187.861L86.8283 181.476C86.7518 181.507 86.6218 181.515 86.4459 181.515H74.4024C74.2725 181.515 74.1807 181.507 74.1348 181.476L71.3821 187.861C71.2291 188.198 70.9997 188.358 70.6938 188.358C70.6403 188.358 70.5103 188.335 70.3115 188.282C69.9751 188.129 69.8145 187.9 69.8145 187.594C69.8145 187.54 69.8374 187.418 69.8909 187.211L79.4875 164.768C79.6404 164.363 79.9463 164.157 80.4051 164.157H80.5198C80.948 164.157 81.2538 164.363 81.4373 164.768L90.9957 187.211ZM74.8231 179.909H86.1401L80.5198 166.68L74.8231 179.909Z" fill="#5BEBF3"/>
<path d="M101.28 188.397C101.05 188.397 100.859 188.32 100.706 188.167C100.553 188.014 100.477 187.823 100.477 187.594V165.724H92.1037C91.8743 165.724 91.6832 165.648 91.5302 165.495C91.3773 165.342 91.3008 165.151 91.3008 164.922C91.3008 164.692 91.3773 164.501 91.5302 164.348C91.6832 164.195 91.8743 164.119 92.1037 164.119H110.456C110.685 164.119 110.876 164.195 111.029 164.348C111.182 164.501 111.259 164.692 111.259 164.922C111.259 165.151 111.182 165.342 111.029 165.495C110.876 165.648 110.685 165.724 110.456 165.724H102.083V187.594C102.083 187.823 102.006 188.014 101.853 188.167C101.7 188.32 101.509 188.397 101.28 188.397Z" fill="#5BEBF3"/>
<path d="M124.564 188.358C121.857 188.358 119.892 187.739 118.653 186.508C117.422 185.269 116.803 183.304 116.803 180.597V164.96C116.803 164.73 116.879 164.539 117.032 164.386C117.185 164.233 117.376 164.157 117.606 164.157C117.835 164.157 118.026 164.233 118.179 164.386C118.332 164.539 118.409 164.73 118.409 164.96V180.597C118.409 182.845 118.875 184.428 119.8 185.361C120.733 186.286 122.316 186.753 124.564 186.753H129.152C131.416 186.753 133.014 186.286 133.931 185.361C134.849 184.428 135.308 182.845 135.308 180.597V164.96C135.308 164.73 135.384 164.539 135.537 164.386C135.69 164.233 135.881 164.157 136.111 164.157C136.34 164.157 136.531 164.233 136.684 164.386C136.837 164.539 136.913 164.73 136.913 164.96V180.597C136.913 183.304 136.302 185.269 135.078 186.508C133.855 187.739 131.874 188.358 129.152 188.358H124.564Z" fill="#5BEBF3"/>
<path d="M167.003 164.157C167.507 164.157 167.767 164.424 167.767 164.96V187.556C167.767 188.091 167.5 188.358 166.964 188.358C166.429 188.358 166.161 188.091 166.161 187.556V167.407L157.521 180.712C157.314 181.071 156.993 181.247 156.565 181.247C156.129 181.247 155.808 181.071 155.609 180.712L146.93 167.368V187.556C146.93 188.091 146.662 188.358 146.127 188.358C145.592 188.358 145.324 188.091 145.324 187.556V164.96C145.324 164.424 145.592 164.157 146.127 164.157C146.555 164.157 146.877 164.34 147.083 164.692L156.565 179.297L166.047 164.692C166.246 164.34 166.567 164.157 167.003 164.157Z" fill="#5BEBF3"/>
<path d="M185.241 188.358C184.576 188.358 184.056 187.938 183.674 187.097L174.23 164.73C174.1 164.401 174.039 164.118 174.039 163.889C174.039 163.354 174.345 162.948 174.957 162.665C175.262 162.512 175.568 162.436 175.874 162.436C176.486 162.436 176.914 162.78 177.174 163.468L185.547 183.273L193.691 163.468C193.966 162.78 194.402 162.436 194.991 162.436C195.266 162.436 195.572 162.512 195.908 162.665C196.49 162.948 196.788 163.384 196.788 163.965C196.788 164.248 196.734 164.501 196.635 164.73L187.115 187.097C186.702 187.938 186.128 188.358 185.394 188.358H185.241Z" fill="#5BEBF3"/>
<path d="M203.324 188.358C202.789 188.358 202.376 188.228 202.1 187.961C201.818 187.693 201.68 187.288 201.68 186.752C201.68 184.665 202.101 182.914 202.942 181.499C203.783 180.084 204.708 179.006 205.733 178.265C206.75 177.531 208.149 176.644 209.938 175.627C211.796 174.579 213.104 173.814 213.854 173.317C214.611 172.82 215.207 172.27 215.65 171.673C216.102 171.069 216.323 170.35 216.323 169.509C216.323 168.492 216.209 167.705 215.979 167.162C215.75 166.611 215.36 166.221 214.809 165.992C214.266 165.762 213.479 165.648 212.462 165.648H208.371C207.147 165.648 206.253 165.816 205.694 166.145C205.129 166.481 204.777 167.062 204.624 167.903C204.517 168.439 204.341 168.836 204.089 169.089C203.829 169.349 203.446 169.471 202.942 169.471C202.406 169.471 201.993 169.326 201.718 169.035C201.435 168.737 201.321 168.324 201.374 167.789C201.649 165.976 202.368 164.638 203.515 163.759C204.662 162.88 206.276 162.436 208.371 162.436H212.462C214.855 162.436 216.637 163.017 217.791 164.179C218.954 165.334 219.535 167.116 219.535 169.509C219.535 170.939 219.183 172.17 218.48 173.203C217.784 174.235 216.935 175.084 215.941 175.741C214.947 176.406 213.463 177.301 211.506 178.417C210.022 179.259 208.921 179.932 208.195 180.429C207.468 180.926 206.803 181.56 206.192 182.34C205.58 183.113 205.182 184.053 205.006 185.147H217.623C218.128 185.147 218.526 185.284 218.809 185.567C219.084 185.85 219.229 186.24 219.229 186.752C219.229 187.265 219.084 187.662 218.809 187.938C218.526 188.221 218.128 188.358 217.623 188.358H203.324Z" fill="#5BEBF3"/>
<path fill-rule="evenodd" clip-rule="evenodd" d="M83.272 97.4775L66.2266 105.752L100.317 122.302L100.318 105.753L83.272 97.4775Z" stroke="#5BEBF3" stroke-width="2" stroke-miterlimit="1.5" stroke-linecap="round" stroke-linejoin="round"/>
<path fill-rule="evenodd" clip-rule="evenodd" d="M151.454 97.4784L134.409 105.753L134.409 122.303L168.5 105.753L151.454 97.4784Z" stroke="#5BEBF3" stroke-width="2" stroke-miterlimit="1.5" stroke-linecap="round" stroke-linejoin="round"/>
<path fill-rule="evenodd" clip-rule="evenodd" d="M151.454 64.3774L151.454 80.9273L134.408 72.6523L151.454 64.3774Z" stroke="#5BEBF3" stroke-width="2" stroke-miterlimit="1.5" stroke-linecap="round" stroke-linejoin="round"/>
<path fill-rule="evenodd" clip-rule="evenodd" d="M83.2721 64.3779L100.318 72.6528L83.2721 80.9278L83.2721 64.3779Z" stroke="#5BEBF3" stroke-width="2" stroke-miterlimit="1.5" stroke-linecap="round" stroke-linejoin="round"/>
<path fill-rule="evenodd" clip-rule="evenodd" d="M100.317 72.6528L83.2715 80.9277L117.362 97.4776L151.454 80.9276L134.408 72.6528L117.363 80.9278L100.317 72.6528Z" stroke="#5BEBF3" stroke-width="2" stroke-miterlimit="1.5" stroke-linecap="round" stroke-linejoin="round"/>
<path fill-rule="evenodd" clip-rule="evenodd" d="M66.2266 122.303L117.363 147.129V97.0026L83.2722 80.9281V64.3782L117.363 80.9281V64.3782L66.2266 39.5532V89.2032L100.318 105.753V122.303L66.2266 105.753V122.303Z" stroke="#5BEBF3" stroke-width="2" stroke-miterlimit="1.5" stroke-linecap="round" stroke-linejoin="round"/>
<path fill-rule="evenodd" clip-rule="evenodd" d="M168.498 122.705L117.362 146.057V96.3367L151.452 81.241V64.825L117.362 80.3924L117.362 63.9765L168.498 40.6255V89.8734L134.407 105.441V121.857L168.498 106.289V122.705Z" stroke="#5BEBF3" stroke-width="2" stroke-miterlimit="1.5" stroke-linecap="round" stroke-linejoin="round"/>
<path fill-rule="evenodd" clip-rule="evenodd" d="M117.363 49.6534L81.4705 32.1529L66.2266 39.5532L117.363 64.3782L168.578 39.5154L153.412 32.1529L117.363 49.6534Z" stroke="#5BEBF3" stroke-width="2" stroke-miterlimit="1.5" stroke-linecap="round" stroke-linejoin="round"/>
</g>
<defs>
<clipPath id="clip0_150_1910">
<rect width="220" height="220" fill="white"/>
</clipPath>
</defs>
</svg>
