<svg width="302" height="90" viewBox="0 0 302 90" fill="none" xmlns="http://www.w3.org/2000/svg">
<path opacity="0.9" fill-rule="evenodd" clip-rule="evenodd" d="M46.7701 69.8122C60.6239 69.8122 71.8546 58.918 71.8546 45.4793C71.8546 32.0406 60.6239 21.1464 46.7701 21.1464C32.9163 21.1464 21.6855 32.0406 21.6855 45.4793C21.6855 58.918 32.9163 69.8122 46.7701 69.8122ZM64.9828 45.4792C64.9828 55.2383 56.8271 63.1496 46.7666 63.1496C36.7061 63.1496 28.5505 55.2383 28.5505 45.4792C28.5505 35.7202 36.7061 27.8089 46.7666 27.8089C56.8271 27.8089 64.9828 35.7202 64.9828 45.4792ZM68.2676 45.4792C68.2676 56.9981 58.6413 66.336 46.7666 66.336C34.8919 66.336 25.2656 56.9981 25.2656 45.4792C25.2656 33.9603 34.8919 24.6224 46.7666 24.6224C58.6413 24.6224 68.2676 33.9603 68.2676 45.4792Z" fill="white"/>
<path fill-rule="evenodd" clip-rule="evenodd" d="M46.7715 6.37291C48.5854 6.37291 50.0564 4.94627 50.0564 3.18646C50.0564 1.42664 48.5854 0 46.7715 0C44.9576 0 43.4866 1.42664 43.4866 3.18646C43.4866 4.94627 44.9576 6.37291 46.7715 6.37291ZM44.9798 17.6704V9.56902C45.5432 9.75071 46.1457 9.84908 46.7715 9.84908C47.3974 9.84908 47.9999 9.75071 48.5633 9.56902V17.6704H44.9798ZM83.4931 43.4517H75.1415V46.9278H83.4931C83.3059 46.3815 83.2044 45.7971 83.2044 45.1897C83.2044 44.5824 83.3059 43.998 83.4931 43.4517ZM86.7879 45.1897C86.7879 46.9496 88.2589 48.3762 90.0728 48.3762C91.8867 48.3762 93.3577 46.9496 93.3577 45.1897C93.3577 43.4299 91.8867 42.0033 90.0728 42.0033C88.2589 42.0033 86.7879 43.4299 86.7879 45.1897ZM10.6478 43.4517H18.9994V46.9278H10.6478C10.835 46.3815 10.9365 45.7971 10.9365 45.1897C10.9365 44.5824 10.835 43.998 10.6478 43.4517ZM7.35296 45.1897C7.35296 46.9496 5.882 48.3762 4.06808 48.3762C2.25417 48.3762 0.783203 46.9496 0.783203 45.1897C0.783203 43.4299 2.25417 42.0033 4.06808 42.0033C5.882 42.0033 7.35296 43.4299 7.35296 45.1897ZM71.6502 18.5086L65.7447 24.2371L68.2784 26.6951L74.1838 20.9666C73.6531 20.7087 73.1555 20.3651 72.7129 19.9356C72.2702 19.5062 71.9161 19.0234 71.6502 18.5086ZM75.2471 17.4776C76.5297 18.722 78.6095 18.722 79.8921 17.4776C81.1753 16.2332 81.1753 14.2156 79.8921 12.9713C78.6095 11.7269 76.5297 11.7269 75.2471 12.9713C73.9639 14.2156 73.9639 16.2332 75.2471 17.4776ZM22.0988 18.5086L28.0042 24.2371L25.4705 26.6951L19.5651 20.9666C20.0959 20.7087 20.5934 20.3651 21.0361 19.9356C21.4788 19.5062 21.8328 19.0234 22.0988 18.5086ZM18.5018 17.4776C17.2193 18.722 15.1394 18.722 13.8568 17.4776C12.5737 16.2332 12.5737 14.2156 13.8568 12.9713C15.1394 11.7269 17.2193 11.7269 18.5018 12.9713C19.785 14.2156 19.785 16.2332 18.5018 17.4776ZM44.9798 80.431V72.3296H48.5633V80.431C47.9999 80.2493 47.3974 80.1509 46.7715 80.1509C46.1457 80.1509 45.5432 80.2493 44.9798 80.431ZM46.7715 83.6271C48.5854 83.6271 50.0564 85.0537 50.0564 86.8135C50.0564 88.5734 48.5854 90 46.7715 90C44.9576 90 43.4866 88.5734 43.4866 86.8135C43.4866 85.0537 44.9576 83.6271 46.7715 83.6271ZM71.6502 71.4914L65.7447 65.7629L68.2784 63.3049L74.1838 69.0334C73.6531 69.2913 73.1555 69.6349 72.7129 70.0644C72.2702 70.4938 71.9161 70.9766 71.6502 71.4914ZM75.2471 72.5224C76.5297 71.278 78.6095 71.278 79.8921 72.5224C81.1753 73.7668 81.1753 75.7844 79.8921 77.0287C78.6095 78.2731 76.5297 78.2731 75.2471 77.0287C73.9639 75.7844 73.9639 73.7668 75.2471 72.5224ZM22.0988 71.4914L28.0042 65.7629L25.4705 63.3049L19.5651 69.0334C20.0959 69.2913 20.5934 69.6349 21.0361 70.0644C21.4788 70.4938 21.8328 70.9766 22.0988 71.4914ZM18.5018 72.5224C17.2193 71.278 15.1394 71.278 13.8568 72.5224C12.5737 73.7668 12.5737 75.7844 13.8568 77.0287C15.1394 78.2731 17.2193 78.2731 18.5018 77.0287C19.785 75.7844 19.785 73.7668 18.5018 72.5224Z" fill="white"/>
<path fill-rule="evenodd" clip-rule="evenodd" d="M50.5872 33.8792C50.5872 33.2465 50.0584 32.7336 49.4062 32.7336C48.754 32.7336 48.2253 33.2465 48.2253 33.8792V35.7884L44.5513 35.7884V33.8792C44.5513 33.2465 44.0226 32.7336 43.3704 32.7336C42.7182 32.7336 42.1894 33.2465 42.1894 33.8792V35.7884H40.4837C39.8315 35.7884 39.3027 36.3013 39.3027 36.934C39.3027 37.5666 39.8315 38.0795 40.4837 38.0795H42.1894L42.1894 44.1891H40.4837C39.8315 44.1891 39.3027 44.702 39.3027 45.3346C39.3027 45.9673 39.8315 46.4802 40.4837 46.4802H42.1894L42.1894 52.5897H40.4837C39.8315 52.5897 39.3027 53.1026 39.3027 53.7353C39.3027 54.368 39.8315 54.8808 40.4837 54.8808H42.1894V56.7901C42.1894 57.4227 42.7182 57.9356 43.3704 57.9356C44.0226 57.9356 44.5513 57.4227 44.5513 56.7901V54.8808L48.1635 54.8809L48.2253 54.881V56.7901C48.2253 57.4227 48.754 57.9356 49.4062 57.9356C50.0584 57.9356 50.5872 57.4227 50.5872 56.7901V54.8808H50.8496V54.814C51.7546 54.7109 52.5862 54.4654 53.2899 53.8925C54.6679 52.7706 55.4421 51.249 55.4421 49.6624C55.4421 48.0758 54.6679 46.5542 53.2899 45.4323C52.9102 45.1232 52.4933 44.8901 52.0477 44.7145C53.132 43.7349 53.7363 42.46 53.7363 41.1343C53.7363 39.7165 53.0451 38.3567 51.8147 37.3542C51.4423 37.0507 51.0297 36.7875 50.5872 36.568V33.8792ZM49.5865 52.5897C50.1267 52.5581 50.6378 52.4535 51.1495 52.1499C51.9598 51.4902 52.4151 50.5954 52.4151 49.6624C52.4151 48.7294 51.9598 47.8346 51.1495 47.1749C50.7013 46.81 50.1756 46.5974 49.5953 46.4802H44.5513V52.5897L48.0941 52.5897C48.0996 52.5897 48.1052 52.5897 48.1107 52.5897H49.5865ZM44.5513 44.1891V38.0795H48.0865C48.7688 38.2146 49.3989 38.5002 49.9036 38.9114C50.6272 39.501 51.0336 40.3006 51.0336 41.1343C51.0336 41.968 50.6272 42.7676 49.9036 43.3572C49.3989 43.7684 48.7688 44.054 48.0865 44.1891H44.5513Z" fill="#011426"/>
<path d="M113.87 47.6098C114.351 48.0532 114.89 48.4142 115.485 48.6928C116.093 48.9588 116.72 49.0918 117.366 49.0918C118.189 49.0918 118.816 48.9272 119.247 48.5978C119.69 48.2685 119.912 47.8252 119.912 47.2678C119.912 46.9892 119.855 46.7485 119.741 46.5458C119.64 46.3432 119.494 46.1722 119.304 46.0328C119.114 45.8808 118.886 45.7478 118.62 45.6338C118.354 45.5198 118.063 45.3995 117.746 45.2728L115.998 44.4938C115.681 44.3672 115.365 44.2152 115.048 44.0378C114.731 43.8478 114.446 43.6262 114.193 43.3728C113.94 43.1068 113.731 42.8028 113.566 42.4608C113.414 42.1062 113.338 41.7008 113.338 41.2448C113.338 40.7635 113.439 40.3138 113.642 39.8958C113.845 39.4778 114.13 39.1168 114.497 38.8128C114.877 38.5088 115.32 38.2745 115.827 38.1098C116.346 37.9325 116.916 37.8438 117.537 37.8438C118.31 37.8438 119.032 37.9832 119.703 38.2618C120.374 38.5405 120.951 38.9205 121.432 39.4018L120.444 40.6178C120.039 40.2632 119.602 39.9908 119.133 39.8008C118.664 39.5982 118.132 39.4968 117.537 39.4968C116.828 39.4968 116.27 39.6425 115.865 39.9338C115.46 40.2252 115.257 40.6242 115.257 41.1308C115.257 41.4095 115.314 41.6438 115.428 41.8338C115.555 42.0238 115.719 42.1948 115.922 42.3468C116.125 42.4862 116.353 42.6128 116.606 42.7268C116.872 42.8282 117.144 42.9358 117.423 43.0498L119.114 43.7908C119.507 43.9428 119.868 44.1202 120.197 44.3228C120.526 44.5128 120.811 44.7408 121.052 45.0068C121.305 45.2602 121.502 45.5642 121.641 45.9188C121.78 46.2608 121.85 46.6598 121.85 47.1158C121.85 47.6098 121.749 48.0785 121.546 48.5218C121.343 48.9652 121.046 49.3515 120.653 49.6808C120.26 50.0102 119.785 50.2698 119.228 50.4598C118.671 50.6498 118.037 50.7448 117.328 50.7448C116.429 50.7448 115.593 50.5865 114.82 50.2698C114.047 49.9405 113.363 49.4845 112.768 48.9018L113.87 47.6098ZM131.514 50.5168H129.975L129.823 48.9778H129.747C129.291 49.5098 128.79 49.9405 128.246 50.2698C127.714 50.5865 127.093 50.7448 126.384 50.7448C125.282 50.7448 124.477 50.4282 123.971 49.7948C123.464 49.1488 123.211 48.2115 123.211 46.9828V41.2258H125.092V46.7358C125.092 47.5592 125.237 48.1672 125.529 48.5598C125.82 48.9398 126.32 49.1298 127.03 49.1298C127.511 49.1298 127.948 49.0158 128.341 48.7878C128.746 48.5472 129.177 48.1482 129.633 47.5908V41.2258H131.514V50.5168ZM133.102 41.2258H134.546L134.698 42.4418H134.755C134.971 42.0238 135.23 41.6818 135.534 41.4158C135.851 41.1372 136.275 40.9978 136.807 40.9978C137.732 40.9978 138.308 41.5235 138.536 42.5748C138.79 42.1062 139.081 41.7262 139.41 41.4348C139.74 41.1435 140.164 40.9978 140.683 40.9978C141.329 40.9978 141.83 41.2512 142.184 41.7578C142.539 42.2518 142.716 42.9675 142.716 43.9048V50.5168H140.93V44.0568C140.93 43.1068 140.639 42.6318 140.056 42.6318C139.765 42.6318 139.512 42.7395 139.296 42.9548C139.081 43.1575 138.866 43.4742 138.65 43.9048V50.5168H137.168V44.0568C137.168 43.1068 136.864 42.6318 136.256 42.6318C135.965 42.6318 135.718 42.7395 135.515 42.9548C135.313 43.1575 135.104 43.4742 134.888 43.9048V50.5168H133.102V41.2258ZM143.355 41.2258H144.799L144.951 42.4418H145.008C145.223 42.0238 145.483 41.6818 145.787 41.4158C146.103 41.1372 146.528 40.9978 147.06 40.9978C147.984 40.9978 148.561 41.5235 148.789 42.5748C149.042 42.1062 149.333 41.7262 149.663 41.4348C149.992 41.1435 150.416 40.9978 150.936 40.9978C151.582 40.9978 152.082 41.2512 152.437 41.7578C152.791 42.2518 152.969 42.9675 152.969 43.9048V50.5168H151.183V44.0568C151.183 43.1068 150.891 42.6318 150.309 42.6318C150.017 42.6318 149.764 42.7395 149.549 42.9548C149.333 43.1575 149.118 43.4742 148.903 43.9048V50.5168H147.421V44.0568C147.421 43.1068 147.117 42.6318 146.509 42.6318C146.217 42.6318 145.97 42.7395 145.768 42.9548C145.565 43.1575 145.356 43.4742 145.141 43.9048V50.5168H143.355V41.2258ZM153.816 45.8808C153.816 45.1208 153.949 44.4432 154.215 43.8478C154.481 43.2398 154.836 42.7268 155.279 42.3088C155.723 41.8782 156.229 41.5552 156.799 41.3398C157.369 41.1118 157.958 40.9978 158.566 40.9978C159.25 40.9978 159.852 41.1055 160.371 41.3208C160.903 41.5362 161.353 41.8402 161.72 42.2328C162.088 42.6128 162.366 43.0752 162.556 43.6198C162.746 44.1518 162.841 44.7408 162.841 45.3868C162.841 45.5768 162.829 45.7605 162.803 45.9378C162.791 46.1025 162.772 46.2418 162.746 46.3558H155.754C155.818 47.2678 156.153 47.9835 156.761 48.5028C157.382 49.0095 158.161 49.2628 159.098 49.2628C159.605 49.2628 160.074 49.1932 160.504 49.0538C160.948 48.9145 161.378 48.7182 161.796 48.4648L162.461 49.6618C161.98 49.9658 161.435 50.2255 160.827 50.4408C160.232 50.6435 159.573 50.7448 158.851 50.7448C158.155 50.7448 157.496 50.6372 156.875 50.4218C156.267 50.1938 155.735 49.8708 155.279 49.4528C154.823 49.0348 154.462 48.5282 154.196 47.9328C153.943 47.3248 153.816 46.6408 153.816 45.8808ZM161.093 45.0638C161.093 44.2278 160.878 43.5882 160.447 43.1448C160.017 42.7015 159.402 42.4798 158.604 42.4798C157.908 42.4798 157.287 42.7015 156.742 43.1448C156.198 43.5882 155.862 44.2278 155.735 45.0638H161.093ZM165.456 41.2258H167.014L167.166 43.3918H167.223C167.704 42.6318 168.287 42.0428 168.971 41.6248C169.668 41.2068 170.434 40.9978 171.27 40.9978C171.637 40.9978 171.96 41.0295 172.239 41.0928C172.518 41.1435 172.803 41.2385 173.094 41.3778L172.676 42.9928C172.359 42.8915 172.087 42.8155 171.859 42.7648C171.631 42.7142 171.34 42.6888 170.985 42.6888C170.314 42.6888 169.668 42.8788 169.047 43.2588C168.426 43.6388 167.856 44.2975 167.337 45.2348V50.5168H165.456V41.2258ZM184.403 45.8808C184.403 45.1082 184.53 44.4178 184.783 43.8098C185.036 43.2018 185.378 42.6888 185.809 42.2708C186.24 41.8528 186.734 41.5362 187.291 41.3208C187.848 41.1055 188.431 40.9978 189.039 40.9978C189.647 40.9978 190.23 41.1055 190.787 41.3208C191.344 41.5362 191.838 41.8528 192.269 42.2708C192.7 42.6888 193.042 43.2018 193.295 43.8098C193.548 44.4178 193.675 45.1082 193.675 45.8808C193.675 46.6535 193.548 47.3438 193.295 47.9518C193.042 48.5472 192.7 49.0538 192.269 49.4718C191.838 49.8898 191.344 50.2065 190.787 50.4218C190.23 50.6372 189.647 50.7448 189.039 50.7448C188.431 50.7448 187.848 50.6372 187.291 50.4218C186.734 50.2065 186.24 49.8898 185.809 49.4718C185.378 49.0538 185.036 48.5472 184.783 47.9518C184.53 47.3438 184.403 46.6535 184.403 45.8808ZM186.341 45.8808C186.341 46.8815 186.582 47.6858 187.063 48.2938C187.544 48.9018 188.203 49.2058 189.039 49.2058C189.875 49.2058 190.534 48.9018 191.015 48.2938C191.496 47.6858 191.737 46.8815 191.737 45.8808C191.737 44.8802 191.496 44.0758 191.015 43.4678C190.534 42.8598 189.875 42.5558 189.039 42.5558C188.203 42.5558 187.544 42.8598 187.063 43.4678C186.582 44.0758 186.341 44.8802 186.341 45.8808ZM204.194 38.7368C203.839 38.5848 203.497 38.4772 203.168 38.4138C202.851 38.3505 202.496 38.3188 202.104 38.3188C201.331 38.3188 200.774 38.5152 200.432 38.9078C200.09 39.2878 199.919 39.8325 199.919 40.5418V41.2258H203.624V42.7458H199.919V50.5168H198.057V42.7458H195.454V41.3208L198.057 41.2258V40.5798C198.057 40.0225 198.133 39.5158 198.285 39.0598C198.437 38.5912 198.671 38.1922 198.988 37.8628C199.304 37.5335 199.703 37.2802 200.185 37.1028C200.666 36.9128 201.236 36.8178 201.895 36.8178C202.819 36.8178 203.725 36.9952 204.612 37.3498L204.194 38.7368ZM215.959 38.0718H219.493C220.126 38.0718 220.709 38.1288 221.241 38.2428C221.773 38.3442 222.229 38.5152 222.609 38.7558C223.001 38.9965 223.305 39.3132 223.521 39.7058C223.736 40.0985 223.844 40.5735 223.844 41.1308C223.844 41.7388 223.666 42.2962 223.312 42.8028C222.957 43.2968 222.412 43.6388 221.678 43.8288V43.9048C222.59 44.0568 223.286 44.3798 223.768 44.8738C224.262 45.3552 224.509 46.0202 224.509 46.8688C224.509 47.4895 224.388 48.0278 224.148 48.4838C223.92 48.9398 223.597 49.3198 223.179 49.6238C222.761 49.9278 222.26 50.1558 221.678 50.3078C221.108 50.4472 220.481 50.5168 219.797 50.5168H215.959V38.0718ZM219.265 43.2968C220.227 43.2968 220.918 43.1322 221.336 42.8028C221.766 42.4608 221.982 41.9668 221.982 41.3208C221.982 40.7002 221.76 40.2505 221.317 39.9718C220.873 39.6932 220.208 39.5538 219.322 39.5538H217.859V43.2968H219.265ZM219.569 49.0158C220.557 49.0158 221.317 48.8322 221.849 48.4648C222.381 48.0975 222.647 47.5275 222.647 46.7548C222.647 46.0328 222.387 45.5072 221.868 45.1778C221.348 44.8485 220.582 44.6838 219.569 44.6838H217.859V49.0158H219.569ZM226.002 41.2258H232.044V50.5168H230.163V42.7458H226.002V41.2258ZM230.942 39.4588C230.537 39.4588 230.201 39.3385 229.935 39.0978C229.669 38.8572 229.536 38.5342 229.536 38.1288C229.536 37.7235 229.669 37.4005 229.935 37.1598C230.201 36.9065 230.537 36.7798 230.942 36.7798C231.348 36.7798 231.683 36.9065 231.949 37.1598C232.215 37.4005 232.348 37.7235 232.348 38.1288C232.348 38.5342 232.215 38.8572 231.949 39.0978C231.683 39.3385 231.348 39.4588 230.942 39.4588ZM238.364 42.7458H235.818V41.3208L238.44 41.2258L238.687 38.6608H240.245V41.2258H244.634V42.7458H240.245V46.8498C240.245 47.6478 240.403 48.2432 240.72 48.6358C241.049 49.0285 241.638 49.2248 242.487 49.2248C242.892 49.2248 243.266 49.1932 243.608 49.1298C243.963 49.0538 244.298 48.9525 244.615 48.8258L244.995 50.2128C244.577 50.3522 244.115 50.4725 243.608 50.5738C243.101 50.6878 242.582 50.7448 242.05 50.7448C241.366 50.7448 240.783 50.6498 240.302 50.4598C239.833 50.2698 239.453 50.0038 239.162 49.6618C238.883 49.3198 238.681 48.9145 238.554 48.4458C238.427 47.9645 238.364 47.4325 238.364 46.8498V42.7458ZM246.299 45.8808C246.299 45.1082 246.438 44.4178 246.717 43.8098C246.995 43.2018 247.375 42.6888 247.857 42.2708C248.338 41.8528 248.889 41.5362 249.51 41.3208C250.143 41.1055 250.814 40.9978 251.524 40.9978C252.284 40.9978 252.949 41.1308 253.519 41.3968C254.089 41.6502 254.564 41.9605 254.944 42.3278L254.032 43.5248C253.664 43.2208 253.284 42.9865 252.892 42.8218C252.499 42.6445 252.075 42.5558 251.619 42.5558C251.125 42.5558 250.669 42.6382 250.251 42.8028C249.833 42.9548 249.472 43.1765 249.168 43.4678C248.876 43.7592 248.648 44.1138 248.484 44.5318C248.319 44.9372 248.237 45.3868 248.237 45.8808C248.237 46.3748 248.313 46.8308 248.465 47.2488C248.629 47.6542 248.857 48.0025 249.149 48.2938C249.453 48.5852 249.807 48.8132 250.213 48.9778C250.618 49.1298 251.068 49.2058 251.562 49.2058C252.132 49.2058 252.645 49.0982 253.101 48.8828C253.557 48.6675 253.968 48.4078 254.336 48.1038L255.134 49.3198C254.602 49.7758 254.019 50.1305 253.386 50.3838C252.752 50.6245 252.094 50.7448 251.41 50.7448C250.688 50.7448 250.01 50.6372 249.377 50.4218C248.756 50.2065 248.218 49.8898 247.762 49.4718C247.306 49.0538 246.945 48.5472 246.679 47.9518C246.425 47.3438 246.299 46.6535 246.299 45.8808ZM256.171 45.8808C256.171 45.1082 256.298 44.4178 256.551 43.8098C256.804 43.2018 257.146 42.6888 257.577 42.2708C258.008 41.8528 258.502 41.5362 259.059 41.3208C259.616 41.1055 260.199 40.9978 260.807 40.9978C261.415 40.9978 261.998 41.1055 262.555 41.3208C263.112 41.5362 263.606 41.8528 264.037 42.2708C264.468 42.6888 264.81 43.2018 265.063 43.8098C265.316 44.4178 265.443 45.1082 265.443 45.8808C265.443 46.6535 265.316 47.3438 265.063 47.9518C264.81 48.5472 264.468 49.0538 264.037 49.4718C263.606 49.8898 263.112 50.2065 262.555 50.4218C261.998 50.6372 261.415 50.7448 260.807 50.7448C260.199 50.7448 259.616 50.6372 259.059 50.4218C258.502 50.2065 258.008 49.8898 257.577 49.4718C257.146 49.0538 256.804 48.5472 256.551 47.9518C256.298 47.3438 256.171 46.6535 256.171 45.8808ZM258.109 45.8808C258.109 46.8815 258.35 47.6858 258.831 48.2938C259.312 48.9018 259.971 49.2058 260.807 49.2058C261.643 49.2058 262.302 48.9018 262.783 48.2938C263.264 47.6858 263.505 46.8815 263.505 45.8808C263.505 44.8802 263.264 44.0758 262.783 43.4678C262.302 42.8598 261.643 42.5558 260.807 42.5558C259.971 42.5558 259.312 42.8598 258.831 43.4678C258.35 44.0758 258.109 44.8802 258.109 45.8808ZM267.013 41.2258H273.055V50.5168H271.174V42.7458H267.013V41.2258ZM271.953 39.4588C271.547 39.4588 271.212 39.3385 270.946 39.0978C270.68 38.8572 270.547 38.5342 270.547 38.1288C270.547 37.7235 270.68 37.4005 270.946 37.1598C271.212 36.9065 271.547 36.7798 271.953 36.7798C272.358 36.7798 272.694 36.9065 272.96 37.1598C273.226 37.4005 273.359 37.7235 273.359 38.1288C273.359 38.5342 273.226 38.8572 272.96 39.0978C272.694 39.3385 272.358 39.4588 271.953 39.4588ZM277.284 41.2258H278.823L278.975 42.7268H279.051C279.52 42.2455 280.027 41.8402 280.571 41.5108C281.116 41.1688 281.749 40.9978 282.471 40.9978C283.561 40.9978 284.359 41.3208 284.865 41.9668C285.372 42.6128 285.625 43.5438 285.625 44.7598V50.5168H283.744V45.0068C283.744 44.1962 283.599 43.6008 283.307 43.2208C283.016 42.8282 282.516 42.6318 281.806 42.6318C281.312 42.6318 280.869 42.7585 280.476 43.0118C280.084 43.2525 279.647 43.6198 279.165 44.1138V50.5168H277.284V41.2258Z" fill="white"/>
</svg>
