<svg width="267" height="70" viewBox="0 0 267 70" fill="none" xmlns="http://www.w3.org/2000/svg">
<path d="M90.8647 39.093C91.346 39.5363 91.8844 39.8973 92.4797 40.176C93.0877 40.442 93.7147 40.575 94.3607 40.575C95.184 40.575 95.811 40.4103 96.2417 40.081C96.685 39.7517 96.9067 39.3083 96.9067 38.751C96.9067 38.4723 96.8497 38.2317 96.7357 38.029C96.6344 37.8263 96.4887 37.6553 96.2987 37.516C96.1087 37.364 95.8807 37.231 95.6147 37.117C95.3487 37.003 95.0574 36.8827 94.7407 36.756L92.9927 35.977C92.676 35.8503 92.3594 35.6983 92.0427 35.521C91.726 35.331 91.441 35.1093 91.1877 34.856C90.9344 34.59 90.7254 34.286 90.5607 33.944C90.4087 33.5893 90.3327 33.184 90.3327 32.728C90.3327 32.2467 90.434 31.797 90.6367 31.379C90.8394 30.961 91.1244 30.6 91.4917 30.296C91.8717 29.992 92.315 29.7577 92.8217 29.593C93.341 29.4157 93.911 29.327 94.5317 29.327C95.3044 29.327 96.0264 29.4663 96.6977 29.745C97.369 30.0237 97.9454 30.4037 98.4267 30.885L97.4387 32.101C97.0334 31.7463 96.5964 31.474 96.1277 31.284C95.659 31.0813 95.127 30.98 94.5317 30.98C93.8224 30.98 93.265 31.1257 92.8597 31.417C92.4544 31.7083 92.2517 32.1073 92.2517 32.614C92.2517 32.8927 92.3087 33.127 92.4227 33.317C92.5494 33.507 92.714 33.678 92.9167 33.83C93.1194 33.9693 93.3474 34.096 93.6007 34.21C93.8667 34.3113 94.139 34.419 94.4177 34.533L96.1087 35.274C96.5014 35.426 96.8624 35.6033 97.1917 35.806C97.521 35.996 97.806 36.224 98.0467 36.49C98.3 36.7433 98.4964 37.0473 98.6357 37.402C98.775 37.744 98.8447 38.143 98.8447 38.599C98.8447 39.093 98.7434 39.5617 98.5407 40.005C98.338 40.4483 98.0404 40.8347 97.6477 41.164C97.255 41.4933 96.78 41.753 96.2227 41.943C95.6654 42.133 95.032 42.228 94.3227 42.228C93.4234 42.228 92.5874 42.0697 91.8147 41.753C91.042 41.4237 90.358 40.9677 89.7627 40.385L90.8647 39.093ZM108.508 42H106.969L106.817 40.461H106.741C106.285 40.993 105.785 41.4237 105.24 41.753C104.708 42.0697 104.088 42.228 103.378 42.228C102.276 42.228 101.472 41.9113 100.965 41.278C100.459 40.632 100.205 39.6947 100.205 38.466V32.709H102.086V38.219C102.086 39.0423 102.232 39.6503 102.523 40.043C102.815 40.423 103.315 40.613 104.024 40.613C104.506 40.613 104.943 40.499 105.335 40.271C105.741 40.0303 106.171 39.6313 106.627 39.074V32.709H108.508V42ZM110.097 32.709H111.541L111.693 33.925H111.75C111.965 33.507 112.225 33.165 112.529 32.899C112.846 32.6203 113.27 32.481 113.802 32.481C114.727 32.481 115.303 33.0067 115.531 34.058C115.784 33.5893 116.076 33.2093 116.405 32.918C116.734 32.6267 117.159 32.481 117.678 32.481C118.324 32.481 118.824 32.7343 119.179 33.241C119.534 33.735 119.711 34.4507 119.711 35.388V42H117.925V35.54C117.925 34.59 117.634 34.115 117.051 34.115C116.76 34.115 116.506 34.2227 116.291 34.438C116.076 34.6407 115.86 34.9573 115.645 35.388V42H114.163V35.54C114.163 34.59 113.859 34.115 113.251 34.115C112.96 34.115 112.713 34.2227 112.51 34.438C112.307 34.6407 112.098 34.9573 111.883 35.388V42H110.097V32.709ZM120.349 32.709H121.793L121.945 33.925H122.002C122.218 33.507 122.477 33.165 122.781 32.899C123.098 32.6203 123.522 32.481 124.054 32.481C124.979 32.481 125.555 33.0067 125.783 34.058C126.037 33.5893 126.328 33.2093 126.657 32.918C126.987 32.6267 127.411 32.481 127.93 32.481C128.576 32.481 129.077 32.7343 129.431 33.241C129.786 33.735 129.963 34.4507 129.963 35.388V42H128.177V35.54C128.177 34.59 127.886 34.115 127.303 34.115C127.012 34.115 126.759 34.2227 126.543 34.438C126.328 34.6407 126.113 34.9573 125.897 35.388V42H124.415V35.54C124.415 34.59 124.111 34.115 123.503 34.115C123.212 34.115 122.965 34.2227 122.762 34.438C122.56 34.6407 122.351 34.9573 122.135 35.388V42H120.349V32.709ZM130.811 37.364C130.811 36.604 130.944 35.9263 131.21 35.331C131.476 34.723 131.831 34.21 132.274 33.792C132.717 33.3613 133.224 33.0383 133.794 32.823C134.364 32.595 134.953 32.481 135.561 32.481C136.245 32.481 136.847 32.5887 137.366 32.804C137.898 33.0193 138.348 33.3233 138.715 33.716C139.082 34.096 139.361 34.5583 139.551 35.103C139.741 35.635 139.836 36.224 139.836 36.87C139.836 37.06 139.823 37.2437 139.798 37.421C139.785 37.5857 139.766 37.725 139.741 37.839H132.749C132.812 38.751 133.148 39.4667 133.756 39.986C134.377 40.4927 135.156 40.746 136.093 40.746C136.6 40.746 137.068 40.6763 137.499 40.537C137.942 40.3977 138.373 40.2013 138.791 39.948L139.456 41.145C138.975 41.449 138.43 41.7087 137.822 41.924C137.227 42.1267 136.568 42.228 135.846 42.228C135.149 42.228 134.491 42.1203 133.87 41.905C133.262 41.677 132.73 41.354 132.274 40.936C131.818 40.518 131.457 40.0113 131.191 39.416C130.938 38.808 130.811 38.124 130.811 37.364ZM138.088 36.547C138.088 35.711 137.873 35.0713 137.442 34.628C137.011 34.1847 136.397 33.963 135.599 33.963C134.902 33.963 134.282 34.1847 133.737 34.628C133.192 35.0713 132.857 35.711 132.73 36.547H138.088ZM142.451 32.709H144.009L144.161 34.875H144.218C144.699 34.115 145.282 33.526 145.966 33.108C146.662 32.69 147.429 32.481 148.265 32.481C148.632 32.481 148.955 32.5127 149.234 32.576C149.512 32.6267 149.797 32.7217 150.089 32.861L149.671 34.476C149.354 34.3747 149.082 34.2987 148.854 34.248C148.626 34.1973 148.334 34.172 147.98 34.172C147.308 34.172 146.662 34.362 146.042 34.742C145.421 35.122 144.851 35.7807 144.332 36.718V42H142.451V32.709ZM161.398 37.364C161.398 36.5913 161.524 35.901 161.778 35.293C162.031 34.685 162.373 34.172 162.804 33.754C163.234 33.336 163.728 33.0193 164.286 32.804C164.843 32.5887 165.426 32.481 166.034 32.481C166.642 32.481 167.224 32.5887 167.782 32.804C168.339 33.0193 168.833 33.336 169.264 33.754C169.694 34.172 170.036 34.685 170.29 35.293C170.543 35.901 170.67 36.5913 170.67 37.364C170.67 38.1367 170.543 38.827 170.29 39.435C170.036 40.0303 169.694 40.537 169.264 40.955C168.833 41.373 168.339 41.6897 167.782 41.905C167.224 42.1203 166.642 42.228 166.034 42.228C165.426 42.228 164.843 42.1203 164.286 41.905C163.728 41.6897 163.234 41.373 162.804 40.955C162.373 40.537 162.031 40.0303 161.778 39.435C161.524 38.827 161.398 38.1367 161.398 37.364ZM163.336 37.364C163.336 38.3647 163.576 39.169 164.058 39.777C164.539 40.385 165.198 40.689 166.034 40.689C166.87 40.689 167.528 40.385 168.01 39.777C168.491 39.169 168.732 38.3647 168.732 37.364C168.732 36.3633 168.491 35.559 168.01 34.951C167.528 34.343 166.87 34.039 166.034 34.039C165.198 34.039 164.539 34.343 164.058 34.951C163.576 35.559 163.336 36.3633 163.336 37.364ZM181.188 30.22C180.834 30.068 180.492 29.9603 180.162 29.897C179.846 29.8337 179.491 29.802 179.098 29.802C178.326 29.802 177.768 29.9983 177.426 30.391C177.084 30.771 176.913 31.3157 176.913 32.025V32.709H180.618V34.229H176.913V42H175.051V34.229H172.448V32.804L175.051 32.709V32.063C175.051 31.5057 175.127 30.999 175.279 30.543C175.431 30.0743 175.666 29.6753 175.982 29.346C176.299 29.0167 176.698 28.7633 177.179 28.586C177.661 28.396 178.231 28.301 178.889 28.301C179.814 28.301 180.72 28.4783 181.606 28.833L181.188 30.22ZM192.953 29.555H196.487C197.121 29.555 197.703 29.612 198.235 29.726C198.767 29.8273 199.223 29.9983 199.603 30.239C199.996 30.4797 200.3 30.7963 200.515 31.189C200.731 31.5817 200.838 32.0567 200.838 32.614C200.838 33.222 200.661 33.7793 200.306 34.286C199.952 34.78 199.407 35.122 198.672 35.312V35.388C199.584 35.54 200.281 35.863 200.762 36.357C201.256 36.8383 201.503 37.5033 201.503 38.352C201.503 38.9727 201.383 39.511 201.142 39.967C200.914 40.423 200.591 40.803 200.173 41.107C199.755 41.411 199.255 41.639 198.672 41.791C198.102 41.9303 197.475 42 196.791 42H192.953V29.555ZM196.259 34.78C197.222 34.78 197.912 34.6153 198.33 34.286C198.761 33.944 198.976 33.45 198.976 32.804C198.976 32.1833 198.755 31.7337 198.311 31.455C197.868 31.1763 197.203 31.037 196.316 31.037H194.853V34.78H196.259ZM196.563 40.499C197.551 40.499 198.311 40.3153 198.843 39.948C199.375 39.5807 199.641 39.0107 199.641 38.238C199.641 37.516 199.382 36.9903 198.862 36.661C198.343 36.3317 197.577 36.167 196.563 36.167H194.853V40.499H196.563ZM202.997 32.709H209.039V42H207.158V34.229H202.997V32.709ZM207.937 30.942C207.532 30.942 207.196 30.8217 206.93 30.581C206.664 30.3403 206.531 30.0173 206.531 29.612C206.531 29.2067 206.664 28.8837 206.93 28.643C207.196 28.3897 207.532 28.263 207.937 28.263C208.342 28.263 208.678 28.3897 208.944 28.643C209.21 28.8837 209.343 29.2067 209.343 29.612C209.343 30.0173 209.21 30.3403 208.944 30.581C208.678 30.8217 208.342 30.942 207.937 30.942ZM215.359 34.229H212.813V32.804L215.435 32.709L215.682 30.144H217.24V32.709H221.629V34.229H217.24V38.333C217.24 39.131 217.398 39.7263 217.715 40.119C218.044 40.5117 218.633 40.708 219.482 40.708C219.887 40.708 220.261 40.6763 220.603 40.613C220.957 40.537 221.293 40.4357 221.61 40.309L221.99 41.696C221.572 41.8353 221.109 41.9557 220.603 42.057C220.096 42.171 219.577 42.228 219.045 42.228C218.361 42.228 217.778 42.133 217.297 41.943C216.828 41.753 216.448 41.487 216.157 41.145C215.878 40.803 215.675 40.3977 215.549 39.929C215.422 39.4477 215.359 38.9157 215.359 38.333V34.229ZM223.293 37.364C223.293 36.5913 223.433 35.901 223.711 35.293C223.99 34.685 224.37 34.172 224.851 33.754C225.333 33.336 225.884 33.0193 226.504 32.804C227.138 32.5887 227.809 32.481 228.518 32.481C229.278 32.481 229.943 32.614 230.513 32.88C231.083 33.1333 231.558 33.4437 231.938 33.811L231.026 35.008C230.659 34.704 230.279 34.4697 229.886 34.305C229.494 34.1277 229.069 34.039 228.613 34.039C228.119 34.039 227.663 34.1213 227.245 34.286C226.827 34.438 226.466 34.6597 226.162 34.951C225.871 35.2423 225.643 35.597 225.478 36.015C225.314 36.4203 225.231 36.87 225.231 37.364C225.231 37.858 225.307 38.314 225.459 38.732C225.624 39.1373 225.852 39.4857 226.143 39.777C226.447 40.0683 226.802 40.2963 227.207 40.461C227.613 40.613 228.062 40.689 228.556 40.689C229.126 40.689 229.639 40.5813 230.095 40.366C230.551 40.1507 230.963 39.891 231.33 39.587L232.128 40.803C231.596 41.259 231.014 41.6137 230.38 41.867C229.747 42.1077 229.088 42.228 228.404 42.228C227.682 42.228 227.005 42.1203 226.371 41.905C225.751 41.6897 225.212 41.373 224.756 40.955C224.3 40.537 223.939 40.0303 223.673 39.435C223.42 38.827 223.293 38.1367 223.293 37.364ZM233.166 37.364C233.166 36.5913 233.292 35.901 233.546 35.293C233.799 34.685 234.141 34.172 234.572 33.754C235.002 33.336 235.496 33.0193 236.054 32.804C236.611 32.5887 237.194 32.481 237.802 32.481C238.41 32.481 238.992 32.5887 239.55 32.804C240.107 33.0193 240.601 33.336 241.032 33.754C241.462 34.172 241.804 34.685 242.058 35.293C242.311 35.901 242.438 36.5913 242.438 37.364C242.438 38.1367 242.311 38.827 242.058 39.435C241.804 40.0303 241.462 40.537 241.032 40.955C240.601 41.373 240.107 41.6897 239.55 41.905C238.992 42.1203 238.41 42.228 237.802 42.228C237.194 42.228 236.611 42.1203 236.054 41.905C235.496 41.6897 235.002 41.373 234.572 40.955C234.141 40.537 233.799 40.0303 233.546 39.435C233.292 38.827 233.166 38.1367 233.166 37.364ZM235.104 37.364C235.104 38.3647 235.344 39.169 235.826 39.777C236.307 40.385 236.966 40.689 237.802 40.689C238.638 40.689 239.296 40.385 239.778 39.777C240.259 39.169 240.5 38.3647 240.5 37.364C240.5 36.3633 240.259 35.559 239.778 34.951C239.296 34.343 238.638 34.039 237.802 34.039C236.966 34.039 236.307 34.343 235.826 34.951C235.344 35.559 235.104 36.3633 235.104 37.364ZM244.007 32.709H250.049V42H248.168V34.229H244.007V32.709ZM248.947 30.942C248.542 30.942 248.206 30.8217 247.94 30.581C247.674 30.3403 247.541 30.0173 247.541 29.612C247.541 29.2067 247.674 28.8837 247.94 28.643C248.206 28.3897 248.542 28.263 248.947 28.263C249.353 28.263 249.688 28.3897 249.954 28.643C250.22 28.8837 250.353 29.2067 250.353 29.612C250.353 30.0173 250.22 30.3403 249.954 30.581C249.688 30.8217 249.353 30.942 248.947 30.942ZM254.279 32.709H255.818L255.97 34.21H256.046C256.515 33.7287 257.021 33.3233 257.566 32.994C258.111 32.652 258.744 32.481 259.466 32.481C260.555 32.481 261.353 32.804 261.86 33.45C262.367 34.096 262.62 35.027 262.62 36.243V42H260.739V36.49C260.739 35.6793 260.593 35.084 260.302 34.704C260.011 34.3113 259.51 34.115 258.801 34.115C258.307 34.115 257.864 34.2417 257.471 34.495C257.078 34.7357 256.641 35.103 256.16 35.597V42H254.279V32.709Z" fill="white"/>
<path opacity="0.9" fill-rule="evenodd" clip-rule="evenodd" d="M35.768 54.2985C46.5432 54.2985 55.2782 45.8252 55.2782 35.3729C55.2782 24.9206 46.5432 16.4473 35.768 16.4473C24.9928 16.4473 16.2578 24.9206 16.2578 35.3729C16.2578 45.8252 24.9928 54.2985 35.768 54.2985ZM49.9349 35.3728C49.9349 42.9632 43.5916 49.1164 35.7668 49.1164C27.9419 49.1164 21.5986 42.9632 21.5986 35.3728C21.5986 27.7825 27.9419 21.6292 35.7668 21.6292C43.5916 21.6292 49.9349 27.7825 49.9349 35.3728ZM52.4898 35.3728C52.4898 44.332 45.0026 51.5948 35.7668 51.5948C26.5309 51.5948 19.0437 44.332 19.0437 35.3728C19.0437 26.4137 26.5309 19.1509 35.7668 19.1509C45.0026 19.1509 52.4898 26.4137 52.4898 35.3728Z" fill="white"/>
<path fill-rule="evenodd" clip-rule="evenodd" d="M35.7687 4.95671C37.1795 4.95671 38.3236 3.8471 38.3236 2.47836C38.3236 1.10961 37.1795 0 35.7687 0C34.3579 0 33.2138 1.10961 33.2138 2.47836C33.2138 3.8471 34.3579 4.95671 35.7687 4.95671ZM34.3751 13.7436V7.44257C34.8133 7.58388 35.2819 7.6604 35.7687 7.6604C36.2554 7.6604 36.7241 7.58388 37.1623 7.44257V13.7436H34.3751ZM64.3299 33.7957H57.8342V36.4994H64.3299C64.1843 36.0745 64.1054 35.62 64.1054 35.1476C64.1054 34.6752 64.1843 34.2207 64.3299 33.7957ZM66.8926 35.1476C66.8926 36.5163 68.0366 37.6259 69.4475 37.6259C70.8583 37.6259 72.0024 36.5163 72.0024 35.1476C72.0024 33.7788 70.8583 32.6692 69.4475 32.6692C68.0366 32.6692 66.8926 33.7788 66.8926 35.1476ZM7.67243 33.7957H14.1681V36.4994H7.67243C7.81805 36.0745 7.89698 35.62 7.89698 35.1476C7.89698 34.6752 7.81805 34.2207 7.67243 33.7957ZM5.10981 35.1476C5.10981 36.5163 3.96573 37.6259 2.55491 37.6259C1.14408 37.6259 0 36.5163 0 35.1476C0 33.7788 1.14408 32.6692 2.55491 32.6692C3.96573 32.6692 5.10981 33.7788 5.10981 35.1476ZM55.1188 14.3956L50.5256 18.8511L52.4963 20.7629L57.0894 16.3073C56.6766 16.1068 56.2896 15.8395 55.9453 15.5055C55.601 15.1715 55.3256 14.796 55.1188 14.3956ZM57.9164 13.5937C58.9139 14.5615 60.5316 14.5615 61.5292 13.5937C62.5272 12.6258 62.5272 11.0566 61.5292 10.0888C60.5316 9.12089 58.9139 9.12089 57.9164 10.0888C56.9183 11.0566 56.9183 12.6258 57.9164 13.5937ZM16.5788 14.3956L21.1719 18.8511L19.2013 20.7629L14.6082 16.3073C15.021 16.1068 15.4079 15.8395 15.7522 15.5055C16.0965 15.1715 16.3719 14.796 16.5788 14.3956ZM13.7812 13.5937C12.7836 14.5615 11.1659 14.5615 10.1684 13.5937C9.17035 12.6258 9.17035 11.0566 10.1684 10.0888C11.1659 9.12089 12.7836 9.12089 13.7812 10.0888C14.7792 11.0566 14.7792 12.6258 13.7812 13.5937ZM34.3751 62.5574V56.2564H37.1623V62.5574C36.7241 62.4161 36.2554 62.3396 35.7687 62.3396C35.2819 62.3396 34.8133 62.4161 34.3751 62.5574ZM35.7687 65.0433C37.1795 65.0433 38.3236 66.1529 38.3236 67.5216C38.3236 68.8904 37.1795 70 35.7687 70C34.3579 70 33.2138 68.8904 33.2138 67.5216C33.2138 66.1529 34.3579 65.0433 35.7687 65.0433ZM55.1188 55.6044L50.5256 51.1489L52.4963 49.2371L57.0894 53.6927C56.6766 53.8932 56.2896 54.1605 55.9453 54.4945C55.601 54.8285 55.3256 55.204 55.1188 55.6044ZM57.9164 56.4063C58.9139 55.4385 60.5316 55.4385 61.5292 56.4063C62.5272 57.3742 62.5272 58.9434 61.5292 59.9112C60.5316 60.8791 58.9139 60.8791 57.9164 59.9112C56.9183 58.9434 56.9183 57.3742 57.9164 56.4063ZM16.5788 55.6044L21.1719 51.1489L19.2013 49.2371L14.6082 53.6927C15.021 53.8932 15.4079 54.1605 15.7522 54.4945C16.0965 54.8285 16.3719 55.204 16.5788 55.6044ZM13.7812 56.4063C12.7836 55.4385 11.1659 55.4385 10.1684 56.4063C9.17035 57.3742 9.17035 58.9434 10.1684 59.9112C11.1659 60.8791 12.7836 60.8791 13.7812 59.9112C14.7792 58.9434 14.7792 57.3742 13.7812 56.4063Z" fill="white"/>
<path fill-rule="evenodd" clip-rule="evenodd" d="M38.7377 26.3505C38.7377 25.8584 38.3265 25.4595 37.8192 25.4595C37.3119 25.4595 36.9007 25.8584 36.9007 26.3505V27.8354L34.0432 27.8354V26.3505C34.0432 25.8584 33.6319 25.4595 33.1247 25.4595C32.6174 25.4595 32.2062 25.8584 32.2062 26.3505V27.8354H30.8794C30.3722 27.8354 29.9609 28.2343 29.9609 28.7264C29.9609 29.2185 30.3722 29.6174 30.8794 29.6174H32.2062L32.2062 34.3693H30.8794C30.3722 34.3693 29.9609 34.7682 29.9609 35.2602C29.9609 35.7523 30.3722 36.1512 30.8794 36.1512H32.2062L32.2062 40.9031H30.8794C30.3722 40.9031 29.9609 41.302 29.9609 41.7941C29.9609 42.2862 30.3722 42.6851 30.8794 42.6851H32.2062V44.17C32.2062 44.6621 32.6174 45.061 33.1247 45.061C33.6319 45.061 34.0432 44.6621 34.0432 44.17V42.6851L36.8526 42.6851L36.9007 42.6852V44.17C36.9007 44.6621 37.3119 45.061 37.8192 45.061C38.3265 45.061 38.7377 44.6621 38.7377 44.17V42.6851H38.9418V42.6331C39.6457 42.5529 40.2926 42.362 40.8398 41.9164C41.9116 41.0438 42.5138 39.8603 42.5138 38.6263C42.5138 37.3923 41.9116 36.2088 40.8398 35.3362C40.5446 35.0958 40.2203 34.9145 39.8737 34.7779C40.717 34.016 41.187 33.0244 41.187 31.9933C41.187 30.8906 40.6494 29.833 39.6925 29.0532C39.4028 28.8172 39.0819 28.6125 38.7377 28.4418V26.3505ZM37.9594 40.9031C38.3796 40.8785 38.7771 40.7971 39.1751 40.561C39.8054 40.0479 40.1594 39.352 40.1594 38.6263C40.1594 37.9006 39.8054 37.2047 39.1751 36.6916C38.8265 36.4078 38.4176 36.2424 37.9663 36.1512H34.0432V40.9031L36.7987 40.9031C36.803 40.9031 36.8073 40.9031 36.8116 40.9031H37.9594ZM34.0432 34.3693V29.6174H36.7927C37.3234 29.7225 37.8135 29.9445 38.2061 30.2644C38.7688 30.7229 39.085 31.3448 39.085 31.9933C39.085 32.6418 38.7688 33.2637 38.2061 33.7222C37.8135 34.0421 37.3234 34.2642 36.7927 34.3693H34.0432Z" fill="#011426"/>
</svg>
