<svg xmlns="http://www.w3.org/2000/svg" width="94.719" height="11.53" viewBox="0 0 94.719 11.53">
  <defs>
    <style>
      .cls-1 {
        fill: #fff;
        fill-rule: evenodd;
      }
    </style>
  </defs>
  <path id="STRATUM_V2" data-name="STRATUM V2" class="cls-1" d="M523.53,3717.8H511.018c-2.7,0-4.192,1.33-4.192,3.27,0,1.81,1.056,2.96,3.424,3.26l1.1,0.15c1.04,0.14,1.3.57,1.3,1.2,0,0.81-.56,1.34-1.76,1.34a3.609,3.609,0,0,1-2.8-1.28l-1.6,1.62a5.356,5.356,0,0,0,4.24,1.8c2.672,0,4.352-1.37,4.352-3.63,0-1.93-1.088-2.94-3.392-3.31l-1.1-.18c-0.928-.14-1.328-0.41-1.328-1.05s0.576-1.03,1.616-1.03h7.2v9.01h2.432v-9.01h3.024v-2.16Zm4.1,11.17v-4.09h1.744l1.953,4.09h2.7l-2.192-4.38a3.184,3.184,0,0,0,2.032-3.22,3.271,3.271,0,0,0-3.376-3.57h-5.3v11.17h2.432Zm2.561-6.14h-2.561v-2.91h2.561a1.034,1.034,0,0,1,1.168,1.1v0.7A1.041,1.041,0,0,1,530.186,3722.83Zm5.247,6.14h2.32v-1.47l0.384-1.18h4.08l0.384,1.18v1.47h2.417l-0.016-1.9-3.3-9.27h-2.912l-3.36,9.27v1.9Zm3.36-4.72,1.344-4.24h0.08l1.344,4.24h-2.768Zm11.761-4.29h3.024v-2.16H545.1v2.16h3.025v9.01h2.432v-9.01Zm6.992-2.16h-2.369v6.6c0,3.29,1.185,4.76,4.385,4.76s4.384-1.47,4.384-4.76v-6.6h-2.368v6.85c0,1.57-.576,2.35-2.016,2.35s-2.016-.78-2.016-2.35v-6.85Zm17.151,3.84v7.33h2.288V3717.8h-2.592l-2.7,5.24h-0.032l-2.736-5.24h-2.576v11.17h2.288v-7.44h0.048l0.848,1.76,1.168,2.15h1.952l1.184-2.16,0.816-1.64H574.7Zm11.12,7.33h2.72l3.632-11.17h-2.384l-1.664,5.36-0.848,3.51h-0.048l-0.88-3.51-1.664-5.36h-2.464Zm15.392,0v-2.01h-4.8v-0.13l1.808-1.51c1.568-1.31,2.768-2.4,2.768-4.35,0-2-1.488-3.36-3.808-3.36a4.022,4.022,0,0,0-4.112,2.85l2.1,0.8a1.826,1.826,0,0,1,1.792-1.57,1.355,1.355,0,0,1,1.472,1.28v0.23c0,1-.576,1.68-1.68,2.64l-3.44,2.94v2.19h7.9Z" transform="translate(-506.5 -3717.63)"/>
</svg>
