<svg width="231" height="98" viewBox="0 0 231 98" fill="none" xmlns="http://www.w3.org/2000/svg">
<path d="M18.6026 30.705H9.63226L0.760498 66.433H9.68154L15.2511 44.0599H24.1721L27.5237 30.705H18.6026Z" fill="#FF0504"/>
<path d="M36.4458 30.705L33.0942 44.0599L30.8763 53.0289H21.9552L18.6038 66.433H27.5247H36.495L42.0645 44.0599L45.3669 30.705H36.4458Z" fill="#125BFF"/>
<path d="M93.6188 32.824C93.6188 33.5632 93.3724 34.1052 92.8302 34.5981C92.3374 35.0416 91.7459 35.288 91.1544 35.288C90.563 35.288 89.9715 35.0416 89.4786 34.5981C88.9857 34.1546 88.6901 33.5632 88.6901 32.824C88.6901 32.0848 88.9365 31.5427 89.4786 31.05C89.9715 30.6064 90.563 30.36 91.1544 30.36C91.7459 30.36 92.3374 30.6064 92.8302 31.05C93.3724 31.5427 93.6188 32.1341 93.6188 32.824ZM54.3367 30.6557H69.1229C73.2137 30.6557 76.4175 31.8384 78.4875 33.8096C79.9662 35.3373 80.804 37.2099 80.804 39.5261V39.6247C80.804 44.257 77.9454 46.6716 75.1359 47.9037C79.3747 49.1849 82.7755 51.649 82.7755 56.5277V56.6263C82.7755 62.737 77.6003 66.3837 69.8129 66.3837H54.3859L54.3367 30.6557ZM68.4328 46.6224C73.2631 46.6224 76.6639 44.4048 76.6639 40.216V40.1174C76.6639 36.5693 73.8545 34.3024 68.7286 34.3024H58.3289V46.6224H68.4328ZM69.8622 62.7862C75.2839 62.7862 78.6354 60.3715 78.6354 56.3798V56.2812C78.6354 52.3882 75.3824 50.1706 69.1229 50.1706H58.2796V62.7862H69.8622ZM89.1829 40.0188H93.1259V66.433H89.1829V40.0188ZM103.575 58.0553V43.5178H97.6112V40.0682H103.575V30.7049H107.518V40.0682H118.361V43.5178H107.518V57.5626C107.518 61.1107 109.194 63.3776 112.397 63.3283C114.615 63.2791 116.39 63.0819 118.016 62.392V65.743C116.636 66.4822 114.122 66.9257 111.461 66.8765C106.68 66.7779 103.575 63.4269 103.575 58.0553ZM124.029 30.6557H132.507L141.921 45.7846L151.334 30.6557H159.812V66.3837H151.976V43.0742L141.921 58.351H141.723L131.718 43.2221V66.3837H124.029V30.6557ZM166.761 30.6557H193.722V37.6534H174.549V44.8976H190.518V51.8954H174.598V59.3859H194.018V66.3837H166.811V30.6557H166.761ZM208.705 48.2486L196.778 30.7049H205.994L213.486 42.2858L221.027 30.7049H229.948L218.02 48.15L230.442 66.433H221.224L213.191 54.1622L205.107 66.433H196.186L208.705 48.2486Z" fill="white"/>
</svg>
