<svg xmlns="http://www.w3.org/2000/svg" viewBox="0 0 512 512" role="img" aria-labelledby="title">
  <title id="title">BlitzPool</title>
  <g fill="#fff">
    <path d="M91 149h18v283h294V149h18v301H91z"/>
    <path d="m271 94-143 171h127l-14 112 143-170H257z"/>
  </g>
  <path d="M104 301c25-10 43-11 64-4 9 3 18 7 28 10 20 6 39 7 59-1 20-8 38-16 58-10 10 3 19 7 29 10 21 7 40 7 67-4" fill="none" stroke="#fff" stroke-width="11" stroke-linecap="round"/>
  <g fill="none" stroke="#fff" stroke-width="8" stroke-linecap="round">
    <path d="m374 387-6 30m21-30-6 30m-32-18 42-3m-45 18 42-3"/>
  </g>
</svg>
