<?xml version="1.0" encoding="UTF-8"?>
<svg width="150px" height="45px" viewBox="0 0 150 45" version="1.1" xmlns="http://www.w3.org/2000/svg" xmlns:xlink="http://www.w3.org/1999/xlink">
    <title>亮色-蓝色-logo</title>
    <g id="登录页/媒体工具页" stroke="none" stroke-width="1" fill="none" fill-rule="evenodd">
        <g id="media-kit-Day" transform="translate(-220.000000, -703.000000)">
            <g id="亮色-蓝色-logo" transform="translate(220.000000, 703.000000)">
                <path d="M22.0744536,0 C9.88281463,0 0,9.88281463 0,22.0744536 C0,34.2660925 9.88281463,44.1489072 22.0744536,44.1489072 C34.2660925,44.1489072 44.1489072,34.2660925 44.1489072,22.0744536 C44.1489072,9.88281463 34.2660925,0 22.0744536,0" id="Fill-1" fill="#4062FF"></path>
                <path d="M27.8628659,34.8122309 C24.0775059,32.6047855 23.9385186,28.1980705 23.9385186,28.1980705 C23.6090369,30.5968278 24.2312095,33.0299231 25.671772,34.9757454 C24.5778601,34.9839211 23.4847659,34.9127923 22.4014825,34.7631765 C20.5406879,36.2920368 18.0871532,36.8929525 15.7300921,36.3983213 C16.9384641,35.897967 17.5917044,34.5808579 17.2589524,33.3160735 C12.1736524,30.7897749 9.84357116,25.2793372 11.830272,19.0657873 C13.2871859,20.6396141 15.1569739,21.7727694 17.2262495,22.3360767 C20.8971494,23.3008121 22.8674988,20.5374176 21.2487055,18.1991606 C25.0831199,18.6161225 33.3651278,24.1347359 33.9619556,32.0978907 C32.3047365,33.6864337 30.1569739,34.6634327 27.8710416,34.8694609 L27.8628659,34.8122309 Z M15.4194146,13.5553496 C15.4194146,13.5553496 14.8798169,19.4336949 17.7004415,20.9135008 C17.7004415,20.9135008 15.7219164,21.7310732 11.977435,18.5098381 C12.5840737,16.5411239 13.7760942,14.8046002 15.3948874,13.5308225 L15.4194146,13.5553496 Z M20.7418107,6.77767482 C20.7418107,6.77767482 20.022347,11.683109 23.0228375,13.8006214 C21.1015425,14.757181 17.0218564,12.6560201 15.8772551,12.983049 C16.7291655,10.3921622 18.4656892,8.18389928 20.7826893,6.74497193 L20.7418107,6.77767482 Z M28.9175342,29.9967297 C28.9453317,30.5289693 29.3982667,30.9377555 29.9305063,30.9107756 C30.3997929,30.8862484 30.7824167,30.5281517 30.8388292,30.0621355 L30.8388292,29.9967297 C30.7897749,29.4661253 30.3196708,29.0761432 29.7890663,29.1251976 C29.327138,29.1677113 28.960048,29.5339838 28.9175342,29.9967297 L28.9175342,29.9967297 Z" id="Fill-3" fill="#FFFFFF"></path>
                <path d="M59.412983,8.30653513 C58.225868,8.91971439 57.2178013,9.82885485 56.486074,10.9472938 C55.7649752,12.0436584 55.3864392,13.3305173 55.3987028,14.6427209 L55.3987028,15.9181338 L53.0359187,16.5231373 L53.0359187,18.4035537 L55.3987028,18.4035537 L55.3987028,30.4382188 L53.0686216,30.7161934 L53.0686216,32.7028942 L63.4109119,32.7028942 L63.4109119,30.7161934 L60.3041369,30.4382188 L60.3041369,18.4035537 L63.9423339,18.4035537 L63.9423339,15.8854309 L60.3041369,15.8854309 L60.3041369,13.1874421 C60.2509947,12.5889791 60.4006105,11.9896986 60.7292745,11.4868916 C61.1004524,11.107538 61.6236987,10.9178612 62.1518504,10.971821 C62.8050908,10.9791792 63.4517905,11.0977271 64.0649697,11.3233771 C64.5473374,11.4582766 64.9920968,11.7010955 65.3649098,12.0346651 L65.3649098,7.6361258 C64.7092168,7.42927999 64.0249087,7.32708345 63.3373304,7.33362403 C61.9580858,7.3254483 60.598463,7.6598354 59.3802802,8.30653513" id="Fill-5" fill="#4062FF"></path>
                <path d="M79.525263,29.1055758 L71.096092,29.988554 C73.6943369,28.5847823 76.0783779,26.8180084 78.1762686,24.7397395 C79.9806508,22.8813975 80.8848858,21.0009811 80.8906088,19.0984902 C80.8987845,18.129667 80.6412493,17.1763776 80.146618,16.3432714 C79.5980269,15.468469 78.8008939,14.7759852 77.8574154,14.3565706 C76.6539489,13.824331 75.3466507,13.570066 74.0311768,13.6125797 C72.971603,13.6133973 71.9202049,13.7989862 70.9244018,14.1603532 C69.9637543,14.4980106 69.0513435,14.959939 68.2100616,15.5338747 C67.5445577,15.9573772 66.9510002,16.4847114 66.452281,17.0954379 L67.6622881,18.9186243 C68.169183,18.4934867 68.5861449,18.1664577 68.9213495,17.9375375 C69.3358587,17.6628332 69.7838884,17.4429062 70.2539925,17.2834796 C70.8549082,17.0725459 71.4893443,16.9703494 72.1262332,16.9809778 C73.0026707,16.9343762 73.8635744,17.2270671 74.5298959,17.7985502 C75.1340819,18.3594048 75.462746,19.1573554 75.4292255,19.9814684 C75.4292255,21.8234589 74.5846732,23.6768954 72.8947512,25.5409604 C70.937483,27.6323105 68.6842536,29.4252466 66.2070093,30.8633564 L66.9346487,32.7192457 L81.8880471,32.7192457 L82.7955524,27.0452935 L80.7434458,26.587453 L79.525263,29.1055758 Z" id="Fill-7" fill="#4062FF"></path>
                <path d="M94.9446776,15.4357661 C93.9889355,15.4243201 93.0462746,15.6581457 92.2058102,16.1143511 C91.4413801,16.5108737 90.7717883,17.0692756 90.2436366,17.7494958 L90.2436366,16.1143511 L89.4260642,15.4766447 L89.3688341,15.4766447 L83.9401537,16.147054 L83.9401537,18.5098381 L85.7878672,19.0576116 L85.7878672,37.7800185 L83.9401537,38.1724533 L83.9401537,40.0610454 L93.2523028,40.0610454 L93.2523028,38.180629 L90.644247,37.7881943 L90.644247,35.2046656 L90.5461383,32.7519485 C90.8265657,32.8549627 91.1168038,32.9260915 91.412765,32.9645174 C91.7585981,33.0242001 92.1085191,33.0544503 92.4592576,33.0544503 C94.181065,33.0985992 95.8799804,32.6595629 97.3646918,31.7872132 C98.6989699,30.9720935 99.7716248,29.7923366 100.455115,28.3861122 C101.18439,26.9349212 101.562108,25.333297 101.558859,23.7095983 C101.558859,20.8971494 100.948111,18.8098872 99.7274759,17.4469941 C98.5272797,16.0930942 96.7858505,15.344198 94.9773805,15.4030632 M95.2962337,29.4326048 C94.7639941,30.4382188 93.7191366,31.0669319 92.5818935,31.0678185 C92.1845533,31.0702022 91.7896659,31.0072491 91.412765,30.8797079 C91.129885,30.8020385 90.8748024,30.6466997 90.6769499,30.4300431 L90.6769499,19.311059 C90.9492015,18.9709489 91.3032103,18.7060555 91.7070911,18.542541 C92.1714722,18.3299722 92.6767319,18.2212351 93.186897,18.2236472 C94.1598081,18.2375865 95.0403336,18.8017115 95.4597482,19.6789666 C96.1023601,21.0606639 96.3836049,22.582166 96.2773205,24.102033 C96.2773205,26.5547501 95.9421159,28.3207064 95.2635308,29.4080776" id="Fill-9" fill="#4062FF"></path>
                <path d="M112.522483,15.4766447 C111.032049,15.4578405 109.559601,15.8004033 108.230228,16.474083 C106.920477,17.152668 105.840464,18.2016133 105.123453,19.4909249 C104.318962,20.9977108 103.921622,22.6884504 103.970676,24.3963591 C103.970676,27.118875 104.69014,29.2527389 106.137243,30.7734234 C107.706982,32.3513381 109.875184,33.1836268 112.097346,33.062626 C113.597591,33.0855181 115.081485,32.7552188 116.430479,32.0978907 C117.736142,31.4364746 118.815338,30.3997929 119.529078,29.1219273 C120.34338,27.5832561 120.740721,25.8581784 120.681855,24.1183845 C120.681855,21.3934158 119.956669,19.2677277 118.507113,17.7413201 C116.929198,16.1609527 114.752003,15.3278465 112.522483,15.4521175 M114.566414,29.367199 C114.250014,30.2959612 113.380934,30.9222216 112.399847,30.9287651 C111.333733,30.9303973 110.388619,30.242819 110.06159,29.2282117 C109.49256,27.5505532 109.245653,25.7813266 109.333951,24.0121001 C109.333951,19.7034938 110.331389,17.5532785 112.309914,17.5532785 C113.362948,17.5418325 114.296615,18.2285932 114.599117,19.2374775 C115.13708,20.926582 115.366817,22.6990789 115.277702,24.4699406 C115.36927,26.136153 115.127269,27.8040007 114.566414,29.3753747" id="Fill-11" fill="#4062FF"></path>
                <path d="M131.637325,15.4766447 C130.150161,15.4455769 128.677713,15.7734234 127.34507,16.4332043 C126.035319,17.1117894 124.955306,18.1607347 124.238295,19.4500463 C123.433804,20.9568322 123.036464,22.6475718 123.085518,24.3554805 C123.085518,27.0779964 123.804982,29.2118602 125.252085,30.7325448 C126.821824,32.3104595 128.990026,33.1427481 131.212187,33.0217474 C132.712433,33.0446395 134.196326,32.7143402 135.545321,32.057012 C136.850984,31.395596 137.930179,30.3589143 138.64392,29.0810487 C139.458222,27.5423775 139.855562,25.8172998 139.796697,24.0775059 C139.796697,21.3525372 139.07151,19.2268491 137.621955,17.7004415 C136.04404,16.1200741 133.866845,15.2869679 131.637325,15.4112389 M133.681256,29.367199 C133.364855,30.2959612 132.495776,30.9222216 131.514689,30.9287651 C130.448575,30.9303973 129.503461,30.242819 129.176432,29.2282117 C128.607402,27.5505532 128.360495,25.7813266 128.448793,24.0121001 C128.448793,19.7034938 129.446231,17.5532785 131.424756,17.5532785 C132.477789,17.5418325 133.411457,18.2285932 133.713959,19.2374775 C134.251921,20.926582 134.481659,22.6990789 134.392544,24.4699406 C134.484112,26.136153 134.24211,27.8040007 133.681256,29.3753747" id="Fill-13" fill="#4062FF"></path>
                <polygon id="Fill-15" fill="#4062FF" points="148.029651 8.48640105 147.146672 7.84869461 147.05674 7.84869461 140.990353 8.57633401 140.990353 10.4322233 143.116041 10.824658 143.116041 30.4382188 141.178394 30.7161934 141.178394 32.7192457 150 32.7192457 150 30.7161934 148.029651 30.4382188"></polygon>
            </g>
        </g>
    </g>
</svg>
