<svg width="231" height="74" viewBox="0 0 231 74" fill="none" xmlns="http://www.w3.org/2000/svg">
<g clip-path="url(#clip0_3_291)">
<mask id="mask0_3_291" style="mask-type:luminance" maskUnits="userSpaceOnUse" x="1" y="19" width="230" height="36">
<path d="M231 19H1.06445V55H231V19Z" fill="white"/>
</mask>
<g mask="url(#mask0_3_291)">
<path d="M1.06445 28.1766H8.50047V24.9434C8.50047 21.0068 10.8431 18.9999 14.828 18.9999H26.2498V23.5536H17.2519C16.3065 23.5536 15.8962 24.0169 15.8962 24.828V28.1766H26.1261V33.232H15.8962V53.0698H8.50047V33.232H1.06445V28.1766Z" fill="#88E1A1"/>
<path d="M61.8451 39.0602V39.2919C61.8451 47.9753 56.6682 53.2632 44.343 53.2632C32.0178 53.2632 26.8 47.9753 26.8 39.2919V39.0602C26.8 30.3766 32.0178 25.0889 44.343 25.0889C56.6682 25.0889 61.8451 30.3766 61.8451 39.0602ZM54.45 39.2534V39.0987C54.45 33.31 51.3277 31.3031 44.343 31.3031C37.3585 31.3031 34.236 33.31 34.236 39.0987V39.2534C34.236 45.0422 37.3585 47.0496 44.343 47.0496C51.3277 47.0496 54.45 45.0422 54.45 39.2534Z" fill="#88E1A1"/>
<path d="M88.8817 44.232C88.8817 48.7865 85.9239 53.2633 77.0495 53.2633C68.5857 53.2633 63.5735 49.4421 63.5735 42.0705V25.282H70.9684V41.2217C70.9684 44.8497 73.3931 47.2423 79.8018 47.2423C84.1162 47.2423 88.8817 46.509 88.8817 42.9585V25.282H96.2768V53.0701H88.8817V44.232Z" fill="#88E1A1"/>
<path d="M106.414 34.1201C106.414 29.5656 109.371 25.0889 118.246 25.0889C126.751 25.0889 131.722 28.91 131.722 36.2817V53.0699H124.326V37.1304C124.326 33.5022 121.903 31.1099 115.493 31.1099C111.097 31.1099 106.414 31.9586 106.414 35.3937V53.0699H99.0186V25.282H106.414V34.1201Z" fill="#88E1A1"/>
<path d="M161.341 19.0598H168.696V53.0698H161.341V45.2744C161.341 48.8246 158.219 53.2629 148.975 53.2629C138.046 53.2629 133.609 47.6665 133.609 39.2532V39.0985C133.609 30.6851 138.046 25.0887 148.975 25.0887C158.219 25.0887 161.341 29.527 161.341 33.0781V19.0598ZM151.317 30.9167C144.414 30.9167 141.005 32.9619 141.005 39.0985V39.2532C141.005 45.3898 144.414 47.4351 151.317 47.4351C156.575 47.4351 161.341 46.7408 161.341 43.9616V34.3901C161.341 31.6116 156.575 30.9167 151.317 30.9167Z" fill="#88E1A1"/>
<path d="M190.252 25.089C191.28 25.089 191.773 25.1274 192.431 25.2821V32.1519C187.418 31.0709 178.872 31.3025 178.872 35.7023V53.0701H171.477V25.2821H178.872V34.4288C178.872 29.6435 181.83 25.089 190.252 25.089Z" fill="#88E1A1"/>
<path d="M198.01 55V49.1335H202.407C206.926 49.1335 209.062 48.2072 211.035 45.7371H207.008L193.245 25.2821H201.667L213.048 42.3798L222.579 25.2821H230.591L218.716 45.7371C214.444 53.2632 211.157 55 198.01 55Z" fill="#88E1A1"/>
</g>
</g>
<defs>
<clipPath id="clip0_3_291">
<rect width="231" height="74" fill="white"/>
</clipPath>
</defs>
</svg>
