<?xml version="1.0" encoding="UTF-8"?>
<svg id="Layer_1" xmlns="http://www.w3.org/2000/svg" version="1.1" viewBox="0 0 2485.3 313">
  <!-- Generator: Adobe Illustrator 29.7.1, SVG Export Plug-In . SVG Version: 2.1.1 Build 8)  -->
  <defs>
    <style>
      .st0 {
        fill: #8e34ab;
      }
    </style>
  </defs>
  <path class="st0" d="M75.4,306.9H0V6.5h75.4v111.2h142.1V6.5h75.4v300.4h-75.4v-121.6H75.4v121.6Z"/>
  <path class="st0" d="M397.6,306.9h-81.1L451.2,6.5h75.4l134.7,300.4h-83.7l-28.8-63.6h-122.5l-28.8,63.6ZM523.6,178.7c-16.9-38.1-28.9-66.6-36.2-85.4-9.6,23.5-21.7,52-36.2,85.4h72.4Z"/>
  <path class="st0" d="M670.5,206.6c16.6,13.1,36.8,23.1,60.6,30.1,24.1,7,46.2,10.5,66.3,10.5s32.4-1.6,41.4-4.8c8.4-3.2,12.6-9.6,12.6-19.2s-3.3-13.5-10-17c-7.8-3.8-21.4-7.8-40.5-12.2l-43.2-10.9c-29.9-7.3-51.7-18.2-65.4-32.7-13.7-14.5-20.5-34-20.5-58.4s11.8-49.8,35.3-66.7c23-16.9,57.1-25.3,102.4-25.3s38.2,2.3,58,7c20.6,4.9,35.5,10.8,44.5,17.4v73.2h-1.7c-12.8-10.2-29.5-18.3-50.1-24.4-21.5-5.8-42-8.7-61.5-8.7-32.6,0-48.8,7.4-48.8,22.2s2.6,11.8,7.8,15.3c4.9,3.8,15.8,7.8,32.7,12.2l46.2,12.2c35.2,9.3,59.4,20.6,72.8,34,13.4,13.7,20.1,33,20.1,58s-10.9,49.6-32.7,67.6c-22.4,18-57.3,27-104.6,27s-47.2-2.9-69.3-8.7c-23.3-5.8-41.4-13.5-54.5-23.1v-74.5h2.2Z"/>
  <path class="st0" d="M1040.2,306.9h-75.4V6.5h75.4v111.2h142.1V6.5h75.4v300.4h-75.4v-121.6h-142.1v121.6Z"/>
  <path class="st0" d="M1538,306.9h-227.6V6.5h75.4v232.8h152.1v67.6Z"/>
  <path class="st0" d="M1626.1,306.9h-81.1L1679.7,6.5h75.4l134.7,300.4h-83.7l-28.8-63.6h-122.5l-28.8,63.6ZM1752.1,178.7c-16.9-38.1-28.9-66.6-36.2-85.4-9.6,23.5-21.7,52-36.2,85.4h72.4Z"/>
  <path class="st0" d="M2035.4,6.5c19.8,0,37.9.6,54.5,1.7,27,1.7,48.5,8.4,64.3,20.1,15.8,11.6,23.8,28.8,23.8,51.4s-4.2,31.2-12.6,42.3c-8.4,11-21.4,20.1-38.8,27,23.8,3.8,41.6,11.3,53.4,22.7,11.8,11.3,17.7,27.5,17.7,48.4s-5.4,36-16.3,49.5c-10.9,13.5-25.9,23-45.1,28.6-19.8,5.8-51.2,8.7-94.2,8.7h-128.2V6.5h121.6ZM2046.8,122.9c18.6,0,31.7-1.2,39.2-3.5,11.9-4.1,17.9-11.8,17.9-23.1s-8-22.8-24-24.8c-6.1-1.2-17.2-1.7-33.1-1.7h-57.5v53.2h57.5ZM2052,240.6c22.4,0,37.6-.9,45.8-2.6,14.8-3.2,22.2-12.2,22.2-27s-7.1-22.4-21.4-25.3c-7.3-1.7-21.2-2.6-41.9-2.6h-67.6v57.5h62.8Z"/>
  <path class="st0" d="M2226.4,206.6c16.6,13.1,36.8,23.1,60.6,30.1,24.1,7,46.2,10.5,66.3,10.5s32.4-1.6,41.4-4.8c8.4-3.2,12.6-9.6,12.6-19.2s-3.3-13.5-10-17c-7.8-3.8-21.4-7.8-40.5-12.2l-43.2-10.9c-29.9-7.3-51.7-18.2-65.4-32.7-13.7-14.5-20.5-34-20.5-58.4s11.8-49.8,35.3-66.7c23-16.9,57.1-25.3,102.4-25.3s38.2,2.3,58,7c20.6,4.9,35.5,10.8,44.5,17.4v73.2h-1.7c-12.8-10.2-29.5-18.3-50.1-24.4-21.5-5.8-42-8.7-61.5-8.7-32.6,0-48.8,7.4-48.8,22.2s2.6,11.8,7.8,15.3c4.9,3.8,15.8,7.8,32.7,12.2l46.2,12.2c35.2,9.3,59.4,20.6,72.8,34,13.4,13.7,20.1,33,20.1,58s-10.9,49.6-32.7,67.6c-22.4,18-57.3,27-104.6,27s-47.2-2.9-69.3-8.7c-23.3-5.8-41.4-13.5-54.5-23.1v-74.5h2.2Z"/>
</svg>