<svg width="208" height="94" viewBox="0 0 208 94" fill="none" xmlns="http://www.w3.org/2000/svg">
<g clip-path="url(#clip0_3_225)">
<path d="M97.0643 26.9662V41.6188H87.8006V26.9662H80.6729V66.011H87.8006V48.3488H97.0643V66.011H104.192V26.9662H97.0643Z" fill="white"/>
<path d="M133.429 26.9662V54.4484C133.448 55.0854 133.342 55.7199 133.118 56.3139C132.894 56.9079 132.556 57.4494 132.124 57.906C131.23 58.7917 130.037 59.2863 128.797 59.2863C127.557 59.2863 126.364 58.7917 125.47 57.906C125.039 57.4494 124.701 56.9079 124.476 56.3139C124.252 55.7199 124.146 55.0854 124.165 54.4484V26.9662H117.038V54.4484C117.038 57.7917 118.146 60.5552 120.364 62.7388C122.582 64.9223 125.393 66.0131 128.797 66.011C132.197 66.011 135.008 64.9203 137.23 62.7388C139.452 60.5572 140.561 57.7938 140.557 54.4484V26.9662H133.429Z" fill="white"/>
<path d="M150.375 26.9662V33.8043H157.914V66.011H165.156V33.8043H172.697V26.9662H150.375Z" fill="white"/>
<path d="M204.526 45.9479C206.842 47.7524 208 50.1739 208 53.2124V55.7616C208 58.7259 207.017 61.1752 205.051 63.1096C203.085 65.0439 200.593 66.011 197.575 66.011C194.558 66.011 192.066 65.0439 190.1 63.1096C188.134 61.1752 187.151 58.7259 187.151 55.7616V53.2124C187.151 50.1739 188.31 47.7524 190.628 45.9479C188.308 44.1413 187.149 41.7187 187.151 38.6803V37.2156C187.151 34.2513 188.134 31.802 190.1 29.8677C192.066 27.9333 194.558 26.9662 197.575 26.9662C200.595 26.9662 203.087 27.9333 205.051 29.8677C207.015 31.802 207.998 34.2513 208 37.2156V38.6803C208 41.7167 206.842 44.1392 204.526 45.9479ZM193.469 38.6803C193.452 39.2446 193.546 39.8066 193.745 40.3328C193.944 40.8589 194.244 41.3383 194.627 41.7424C195.42 42.5254 196.477 42.9625 197.575 42.9625C198.674 42.9625 199.731 42.5254 200.524 41.7424C200.908 41.3387 201.208 40.8594 201.407 40.3331C201.606 39.8069 201.7 39.2447 201.682 38.6803V37.2156C201.699 36.6507 201.605 36.0881 201.407 35.5614C201.208 35.0348 200.907 34.5548 200.524 34.1504C199.731 33.3673 198.674 32.9302 197.575 32.9302C196.477 32.9302 195.42 33.3673 194.627 34.1504C194.244 34.5552 193.944 35.0352 193.745 35.5618C193.546 36.0884 193.452 36.6508 193.469 37.2156V38.6803ZM201.682 53.2031C201.7 52.6387 201.606 52.0764 201.407 51.5502C201.208 51.024 200.908 50.5446 200.524 50.141C199.731 49.3579 198.674 48.9208 197.575 48.9208C196.477 48.9208 195.42 49.3579 194.627 50.141C194.244 50.5451 193.944 51.0245 193.745 51.5506C193.546 52.0767 193.452 52.6387 193.469 53.2031V55.7523C193.452 56.3171 193.546 56.8795 193.745 57.4061C193.944 57.9327 194.244 58.4127 194.627 58.8176C195.42 59.6006 196.477 60.0377 197.575 60.0377C198.674 60.0377 199.731 59.6006 200.524 58.8176C200.907 58.4131 201.208 57.9332 201.407 57.4065C201.605 56.8798 201.699 56.3172 201.682 55.7523V53.2031Z" fill="white"/>
<path d="M24.1551 44.8911L20.8282 46.9089L31.3668 53.5894L24.1911 57.801L0.0929979 43.4574L0.012001 43.4079L7.25372 38.912L7.45771 39.0294L13.4335 42.484L24.1521 35.8406L35.1257 42.484L42.5804 47.0077L35.0837 51.4078L24.1551 44.8911Z" fill="#008082"/>
<path d="M48.6161 79.3443L24.2391 94L0.00600052 79.3288V50.5921L2.75989 48.9482L10.3796 53.3236L7.33772 55.088V74.5486L24.2391 84.8228L41.3174 74.5548L41.3624 55.088L35.1466 51.4449L35.0836 51.4079L42.5804 47.0077H42.5834L48.6041 50.5921L48.6161 79.3443Z" fill="white"/>
<path d="M48.6101 14.6712V43.4079L42.5804 47.0077L35.1256 42.484L41.2784 38.912V19.4514L24.3771 9.17721L7.29872 19.4452L7.25372 38.912L0.0119995 43.4079L0 14.6557L24.3771 0L48.6101 14.6712Z" fill="white"/>
</g>
<defs>
<clipPath id="clip0_3_225">
<rect width="208" height="94" fill="white"/>
</clipPath>
</defs>
</svg>
