<svg width="269" height="39" viewBox="0 0 269 39" fill="none" xmlns="http://www.w3.org/2000/svg">
<path fill-rule="evenodd" clip-rule="evenodd" d="M0 22.4256L11.8316 15.026V14.8468L0 7.43373V1.49715L17.2572 12.6709V17.2019L0 28.3824V22.4256Z" fill="#FF3300"/>
<path fill-rule="evenodd" clip-rule="evenodd" d="M25.0931 32.1464H46.5117V37.0829H25.0931V32.1464Z" fill="#FF3300"/>
<path fill-rule="evenodd" clip-rule="evenodd" d="M51.2139 15.0055C51.2139 5.48403 55.8892 0.000183105 62.5756 0.000183105C69.2621 0.000183105 73.9373 5.48403 73.9373 15.0055C73.9373 24.6859 69.2621 30.2778 62.5756 30.2778C55.8892 30.2778 51.2139 24.6859 51.2139 15.0055ZM69.3131 15.0055C69.3131 7.98774 66.6356 3.91626 62.5756 3.91626C58.5156 3.91626 55.8382 7.98774 55.8382 15.0055C55.8382 22.1822 58.5156 26.3617 62.5756 26.3617C66.6356 26.3617 69.2992 22.1822 69.2992 15.0055H69.3131Z" fill="#FF3300"/>
<path fill-rule="evenodd" clip-rule="evenodd" d="M82.1011 7.95066H85.7349L86.073 10.5828H86.2152C88.1826 8.74132 90.9342 7.43372 93.4968 7.43372C99.2433 7.43372 102.441 11.7856 102.441 18.5433C102.441 25.9767 97.8 30.2948 92.6378 30.2948C90.6467 30.2948 88.2975 29.3116 86.4347 27.5918H86.3265L86.5398 31.5483V38.6439H82.1011V7.95066ZM97.8876 18.5433C97.8876 13.9785 96.2278 11.1099 92.2997 11.1099C90.5148 11.1099 88.5237 11.9917 86.5532 14.0224V24.3278C88.3619 25.9665 90.4138 26.5612 91.803 26.5612C95.2647 26.5747 97.8876 23.696 97.8876 18.5433Z" fill="#FF3300"/>
<path fill-rule="evenodd" clip-rule="evenodd" d="M109.188 18.8102C109.188 11.7146 114.537 7.41679 120.371 7.41679C126.77 7.41679 130.411 11.6166 130.411 17.7019C130.403 18.51 130.336 19.3164 130.208 20.1144H112.268V16.8606H127.443L126.48 17.9452C126.48 13.2148 124.194 10.8497 120.5 10.8497C116.683 10.8497 113.553 13.6642 113.553 18.8034C113.553 24.1588 116.91 26.7977 121.598 26.7977C124.035 26.7977 125.993 26.0611 127.967 24.8785L129.522 27.6864C127.004 29.3661 124.047 30.2675 121.02 30.2779C114.415 30.2779 109.188 26.0713 109.188 18.8102Z" fill="#FF3300"/>
<path fill-rule="evenodd" clip-rule="evenodd" d="M136.986 7.95066H140.627L140.965 11.4241H141.141C143.331 9.18731 145.819 7.43372 149.186 7.43372C154.284 7.43372 156.606 10.5659 156.606 16.2423V29.7339H152.161V16.8066C152.161 13.002 150.883 11.245 147.651 11.245C145.285 11.245 143.68 12.4107 141.431 14.7151V29.7339H136.986V7.95066Z" fill="#FF3300"/>
<path fill-rule="evenodd" clip-rule="evenodd" d="M165.324 25.9868L167.958 22.8986C170.201 25.0686 173.186 26.3043 176.307 26.3551C180.006 26.3551 182.054 24.6657 182.054 22.3005C182.054 19.4454 179.921 18.6514 177.024 17.4283L172.91 15.6307C169.925 14.4549 166.656 12.2958 166.656 7.9946C166.656 3.44333 170.75 0.000295762 176.521 0.000295762C179.941 -0.0226618 183.234 1.29169 185.699 3.66295L183.386 6.52143C181.446 4.79493 178.925 3.86455 176.328 3.91637C173.252 3.91637 171.186 5.33883 171.186 7.73103C171.186 10.2651 173.708 11.191 176.281 12.1877L180.246 13.9345C183.91 15.3604 186.648 17.4958 186.648 21.7633C186.648 26.4531 182.69 30.2779 176.064 30.2779C172.062 30.2995 168.21 28.7601 165.324 25.9868Z" fill="white"/>
<path fill-rule="evenodd" clip-rule="evenodd" d="M193.903 23.99C193.903 19.1042 198.338 16.6985 209.348 15.8808C209.19 13.1777 207.743 11.0221 203.866 11.0221C201.229 11.0221 198.629 12.2283 196.496 13.4751L194.806 10.5118C197.253 9.0015 200.891 7.42357 204.663 7.42357C210.674 7.42357 213.791 10.87 213.791 16.6275V29.734H210.123L209.768 26.9059H209.625C207.293 28.7305 204.261 30.2847 201.276 30.2847C197.108 30.278 193.903 27.8283 193.903 23.99ZM209.348 23.821V18.719C200.799 19.3305 198.247 21.0538 198.247 23.6521C198.247 25.8415 200.211 26.7471 202.544 26.7471C204.876 26.7471 207.09 25.6557 209.348 23.821Z" fill="white"/>
<path fill-rule="evenodd" clip-rule="evenodd" d="M226.152 21.1213V11.4882H220.142V8.18375L226.325 7.95063L226.906 1.04431H230.595V7.95063H240.881V11.4882H230.595V21.1348C230.595 24.8819 231.92 26.6963 235.865 26.6963C237.564 26.6914 239.248 26.3754 240.834 25.7638L241.736 29.0108C239.528 29.8332 237.193 30.262 234.837 30.2779C228.319 30.2779 226.152 26.5916 226.152 21.1213Z" fill="white"/>
<path fill-rule="evenodd" clip-rule="evenodd" d="M248.305 26.8889L250.282 24.0136C253.004 25.9168 256.255 26.9168 259.575 26.872C262.919 26.872 264.517 25.5205 264.517 23.902C264.517 22.3613 263.612 21.3848 258.122 20.2529C252.375 19.0602 249.67 17.0667 249.67 13.769C249.67 10.1266 252.95 7.41679 258.984 7.41679C262.452 7.41679 265.765 8.76831 267.949 10.2482L265.863 13.0189C263.716 11.5771 261.191 10.8003 258.605 10.7855C255.36 10.7855 254.105 12.066 254.105 13.5595C254.105 15.2489 255.847 15.9246 260.126 16.8471C267.225 18.4013 269 20.2259 269 23.6385C269 27.2843 265.464 30.2779 259.028 30.2779C255.197 30.2294 251.467 29.0504 248.305 26.8889Z" fill="white"/>
</svg>
