<svg width="256" height="256" viewBox="0 0 256 256" fill="none" xmlns="http://www.w3.org/2000/svg">
<path d="M135.365 184.335L133.355 184.78C132.397 184.996 131.399 184.983 130.441 184.753L128.715 184.335C127.029 183.971 125.275 184.511 124.075 185.765C122.24 187.68 120.986 190.378 119.691 193.655H144.186C142.851 190.297 141.812 187.532 139.883 185.617C138.696 184.43 136.997 183.985 135.378 184.335H135.365Z" fill="#13FFEB"/>
<path d="M121.822 147.648H134.542C139.951 147.648 144.281 144.937 144.146 139.542L143.836 135.765L134.367 135.967L136.808 114.602V114.575C136.902 113.712 136.943 112.889 136.943 112.039C136.943 112.012 136.943 111.985 136.943 111.958C136.929 107.48 133.139 103.92 128.661 103.92H121.512L123.819 108.182C124.466 109.76 124.722 111.459 124.533 113.105L121.822 147.648Z" fill="#13FFEB"/>
<path d="M97.5833 105.889C92.4307 105.889 88.0334 109.382 85.2547 112.309L81.2621 116.949L85.2547 121.562C88.0469 124.502 92.4441 127.996 97.5833 127.996C102.722 127.996 107.12 124.502 109.912 121.562C111.045 120.375 111.679 118.689 111.679 116.949C111.679 115.209 111.045 113.51 109.912 112.309C107.12 109.382 102.722 105.889 97.5833 105.889Z" fill="#13FFEB"/>
<path d="M148.961 112.309C147.828 113.51 147.194 115.182 147.194 116.949C147.194 118.716 147.828 120.389 148.961 121.562C151.753 124.502 156.151 127.996 161.29 127.996C166.429 127.996 170.826 124.502 173.618 121.562L177.611 116.949L173.618 112.309C170.84 109.382 166.442 105.889 161.29 105.889C156.137 105.889 151.753 109.382 148.961 112.309Z" fill="#13FFEB"/>
<path d="M203.549 157.98C199.503 150.898 197.358 143.534 197.358 136.682C197.358 135.819 197.358 124.435 197.331 119.04L185.205 131.152C185.205 135.212 185.205 136.318 185.205 136.588V136.682C185.205 145.49 187.822 154.999 193.055 164.117L193.136 164.252C196.819 171.077 199.516 176.89 197.952 184.268C196.427 193.386 187.781 201.047 177.813 201.047C177.517 201.047 177.894 201.047 176.397 201.047L187.147 211.797C198.653 208.317 207.758 198.633 209.876 186.534C212.371 174.327 207.232 164.805 203.819 158.492L203.536 157.98H203.549Z" fill="#13FFEB"/>
<path d="M227.289 111.486C220.424 101.087 210.051 97.9849 203.172 95.9347L202.605 95.7729C194.741 93.6283 188.011 89.9326 183.168 85.0904C182.561 84.4834 174.509 76.4311 170.678 72.6409V89.7842C173.551 92.6437 174.333 93.426 174.522 93.6148L174.576 93.6687H174.59C180.821 99.9137 189.386 104.783 199.543 107.534L199.692 107.575C207.124 109.8 213.14 111.999 217.254 118.325C222.622 125.851 221.921 137.383 214.88 144.424C214.543 144.761 215.514 143.79 209.228 150.062H226.075C234.735 138.962 235.423 123.073 227.289 111.486Z" fill="#13FFEB"/>
<path d="M119.044 58.6808L131.156 70.8065C135.216 70.8065 136.322 70.8065 136.592 70.8065H136.687C145.495 70.8065 155.004 68.1899 164.122 62.9565L164.257 62.8756C171.082 59.1934 176.896 56.4958 184.274 58.0604C193.393 59.5845 201.054 68.2303 201.054 78.198C201.054 78.6836 201.054 77.3078 201.041 86.1829L212.951 74.273C211.224 60.2994 200.474 48.5783 186.54 46.137C174.333 43.6417 164.81 48.7806 158.498 52.1931L157.985 52.4763C150.904 56.5227 143.539 58.6673 136.687 58.6673C135.823 58.6673 124.439 58.6673 119.044 58.6943V58.6808Z" fill="#13FFEB"/>
<path d="M72.6429 85.3197H89.7869C92.6465 82.4467 93.4288 81.6644 93.6176 81.4756L93.6716 81.4216H93.6851C99.9168 75.1767 104.786 66.5983 107.538 56.4553L107.578 56.3069C109.804 48.875 112.003 42.8594 118.329 38.7455C125.855 33.3773 137.388 34.0787 144.429 41.1194C144.766 41.4566 143.795 40.4855 150.067 46.7709V29.9244C138.966 21.265 123.077 20.5772 111.49 28.7104C101.09 35.5758 97.9879 45.9481 95.9377 52.827L95.7758 53.3935C93.6311 61.257 89.9353 67.9876 85.0929 72.8298C84.4859 73.4367 76.4332 81.4891 72.6429 85.3197Z" fill="#13FFEB"/>
<path d="M52.464 98.0119C56.5106 105.093 58.6553 112.458 58.6553 119.309C58.6553 120.173 58.6553 131.557 58.6823 136.952L70.8085 124.84C70.8085 120.78 70.8085 119.674 70.8085 119.404V119.309C70.8085 110.502 68.1917 100.993 62.9581 91.8748L62.8772 91.7399C59.1948 84.915 56.4971 79.1017 58.0618 71.7237C59.586 62.6058 68.2322 54.9446 78.2002 54.9446C78.6858 54.9446 77.31 54.9446 86.1854 54.9581L74.275 43.0482C60.3009 44.7747 48.5793 55.5246 46.1379 69.4577C43.6425 81.6644 48.7816 91.1869 52.1943 97.4993L52.4775 98.0119H52.464Z" fill="#13FFEB"/>
<path d="M53.3813 160.219C61.2451 162.363 67.9759 166.059 72.8183 170.901C73.4253 171.508 81.4779 179.56 85.3087 183.351V166.207C82.4356 163.348 81.6533 162.566 81.4644 162.377L81.4105 162.323H81.397C75.1653 156.078 66.6 151.209 56.4432 148.457L56.2948 148.417C48.8626 146.191 42.8467 143.993 38.7327 137.667C33.3642 130.14 34.0521 118.608 41.1067 111.567C41.4439 111.23 40.4727 112.201 46.7584 105.929H29.9246C21.265 117.03 20.5771 132.919 28.7107 144.505C35.5763 154.904 45.9491 158.007 52.8282 160.057L53.3947 160.219H53.3813Z" fill="#13FFEB"/>
<path d="M184.692 172.021H168.897C162.827 177.699 156.987 189.838 153.52 202.032C150.243 211.136 144.092 220.389 130.104 220.389C123.144 220.389 117.911 218.096 113.689 214.589L107.025 208.371V225.797L114.484 229.695L114.957 229.911L116.157 230.41C120.123 231.975 124.763 233 130.118 233C141.61 233 156.96 228.401 164.837 206.483L164.999 205.592L165.121 205.633C167.373 197.702 170.449 190.877 173.268 186.318C174.832 183.459 176.491 181.004 178.15 179.075L184.706 172.048L184.692 172.021Z" fill="#13FFEB"/>
<path d="M131.925 170.766C138.535 170.766 141.475 172.843 148.381 177.969L151.281 180.289V164.494C145.63 160.381 139.425 158.87 131.912 158.87C119.098 158.87 110.343 165.412 103.451 176.283L93.8874 189.636C93.8874 189.636 92.2283 191.889 89.4901 194.343C85.8752 197.607 82.0579 198.646 76.7974 198.646C74.4639 198.646 72.2248 198.282 70.134 197.607C70.1206 197.607 70.1071 197.594 70.0936 197.594C70.0666 197.594 70.0396 197.58 70.0261 197.58C61.6902 194.869 55.5394 187.303 54.9459 178.198V178.117C54.9324 178.009 54.9324 177.915 54.9324 177.807C54.9324 177.321 54.9324 178.697 54.9459 169.822L43.0355 181.732C43.1299 182.514 43.2513 183.283 43.4132 184.038C46.7044 198.66 59.4106 209.706 74.8281 210.488C75.3002 210.502 75.7723 210.529 76.2444 210.515C76.3523 210.515 76.4737 210.515 76.5816 210.515C83.2719 210.515 89.5171 208.587 94.7642 205.255C94.7777 205.242 94.7911 205.242 94.8046 205.228C95.8298 204.581 96.8144 203.879 97.7586 203.111C100.888 200.629 103.302 197.567 105.663 194.181L113.567 182.501C118.423 175.109 123.373 170.753 131.898 170.753L131.925 170.766Z" fill="#13FFEB"/>
</svg>
