<svg viewBox="0 0 79 20" fill="none" xmlns="http://www.w3.org/2000/svg">
  <path fill-rule="evenodd" clip-rule="evenodd" d="M8.63692 0.109084C7.84887 0.274053 7.1069 0.696346 5.62295 1.54093L4.11776 2.39761C2.61796 3.25121 1.86806 3.67802 1.32252 4.27731C0.83985 4.80754 0.47509 5.43305 0.252063 6.11298C-1.00387e-05 6.88146 -6.61179e-06 7.74061 6.85225e-08 9.45891L4.63018e-06 10.5566C1.15218e-05 12.2829 1.49827e-05 13.146 0.254113 13.9173C0.478924 14.5997 0.84654 15.227 1.33276 15.758C1.88233 16.3581 2.63753 16.7837 4.14793 17.6349L4.14794 17.6349L5.65693 18.4853C7.12927 19.3151 7.86544 19.73 8.64658 19.8923C9.33783 20.036 10.0515 20.0357 10.7427 19.8916C11.5237 19.7287 12.2596 19.3133 13.7313 18.4826L15.2254 17.6393C16.7341 16.7877 17.4884 16.3619 18.0373 15.7619C18.523 15.231 18.8902 14.604 19.1147 13.922C19.3684 13.1511 19.3684 12.2886 19.3684 10.5636L19.3684 9.45758C19.3684 7.7421 19.3684 6.88437 19.117 6.11689C18.8946 5.43785 18.5309 4.81299 18.0494 4.28302C17.5053 3.68404 16.7573 3.25683 15.2613 2.40241L13.7634 1.54697C12.2808 0.700186 11.5394 0.276792 10.7516 0.110654C10.0545 -0.0363539 9.33423 -0.0368884 8.63692 0.109084ZM6.94737 7.47502C5.55212 7.47502 4.42105 8.60609 4.42105 10.0013C4.42105 11.3966 5.55212 12.5277 6.94737 12.5277H12.4211C13.8163 12.5277 14.9474 11.3966 14.9474 10.0013C14.9474 8.60609 13.8163 7.47502 12.4211 7.47502H6.94737Z" fill="currentColor"/>
  <path fill-rule="evenodd" clip-rule="evenodd" d="M60.2635 1.26318C60.7867 1.26318 61.2109 1.68733 61.2109 2.21055V3.7895H65.4215C65.9447 3.7895 66.3688 4.21365 66.3688 4.73687C66.3688 5.26008 65.9447 5.68424 65.4215 5.68424H61.2109V9.7895C61.2109 11.3592 62.4833 12.6316 64.053 12.6316H65.3161C65.8394 12.6316 66.2635 13.0558 66.2635 13.579C66.2635 14.1022 65.8394 14.5263 65.3161 14.5263H64.053C61.4369 14.5263 59.3162 12.4056 59.3162 9.7895V5.68424H57.8425C57.3193 5.68424 56.8951 5.26008 56.8951 4.73687C56.8951 4.21365 57.3193 3.7895 57.8425 3.7895H59.3162V2.21055C59.3162 1.68733 59.7403 1.26318 60.2635 1.26318ZM25.2109 8.52634C25.2109 5.91026 27.3317 3.7895 29.9478 3.7895H31.2109C33.827 3.7895 35.9478 5.91026 35.9478 8.52634V9.7895C35.9478 12.4056 33.827 14.5263 31.2109 14.5263H29.9478C28.8814 14.5263 27.8974 14.174 27.1057 13.5793V17.3684C27.1057 17.8917 26.6815 18.3158 26.1583 18.3158C25.6351 18.3158 25.2109 17.8917 25.2109 17.3684V8.52634ZM27.1057 9.7895C27.1057 11.3592 28.3781 12.6316 29.9478 12.6316H31.2109C32.7806 12.6316 34.053 11.3592 34.053 9.7895V8.52634C34.053 6.95669 32.7806 5.68424 31.2109 5.68424H29.9478C28.3781 5.68424 27.1057 6.95669 27.1057 8.52634V9.7895ZM37.8425 8.52634C37.8425 5.91026 39.9633 3.7895 42.5794 3.7895H43.8425C44.3657 3.7895 44.7899 4.21365 44.7899 4.73687C44.7899 5.26008 44.3657 5.68424 43.8425 5.68424H42.5794C41.0097 5.68424 39.7373 6.95669 39.7373 8.52634V13.579C39.7373 14.1022 39.3131 14.5263 38.7899 14.5263C38.2667 14.5263 37.8425 14.1022 37.8425 13.579V8.52634ZM45.5267 8.52634C45.5267 5.91026 47.6475 3.7895 50.2636 3.7895H51.5267C54.1428 3.7895 56.2636 5.91026 56.2636 8.52634V9.7895C56.2636 12.4056 54.1428 14.5263 51.5267 14.5263H50.2636C47.6475 14.5263 45.5267 12.4056 45.5267 9.7895V8.52634ZM50.2636 5.68424C48.6939 5.68424 47.4215 6.95669 47.4215 8.52634V9.7895C47.4215 11.3592 48.6939 12.6316 50.2636 12.6316H51.5267C53.0964 12.6316 54.3688 11.3592 54.3688 9.7895V8.52634C54.3688 6.95669 53.0964 5.68424 51.5267 5.68424H50.2636ZM67.5267 8.52634C67.5267 5.91026 69.6475 3.7895 72.2636 3.7895H73.5267C76.1428 3.7895 78.2636 5.91026 78.2636 8.52634V9.7895C78.2636 12.4056 76.1428 14.5263 73.5267 14.5263H72.2636C69.6475 14.5263 67.5267 12.4056 67.5267 9.7895V8.52634ZM72.2636 5.68424C70.6939 5.68424 69.4215 6.95669 69.4215 8.52634V9.7895C69.4215 11.3592 70.6939 12.6316 72.2636 12.6316H73.5267C75.0964 12.6316 76.3688 11.3592 76.3688 9.7895V8.52634C76.3688 6.95669 75.0964 5.68424 73.5267 5.68424H72.2636Z" fill="currentColor"/>
</svg>
