<?xml version="1.0" encoding="UTF-8"?>
<svg width="540" height="135" viewBox="0 0 540 135" fill="none" xmlns="http://www.w3.org/2000/svg">
<title>SpiderPool</title>
<path d="M133.549 28.2966V105.226C133.549 120.886 120.885 133.523 105.252 133.523H28.2967C12.6902 133.549 0 120.886 0 105.226V28.2966C0 12.6901 12.6902 0 28.2967 0H105.226C117.023 0 127.112 7.19897 131.394 17.4456C132.787 20.7824 133.549 24.4344 133.549 28.2966Z" fill="#FFBE1E"/>
<path d="M133.549 28.2966V100.943C127.138 107.038 119.282 110.296 114.711 110.296C112.504 110.296 110.454 108.562 108.694 105.305L92.4569 121.095C89.0413 124.406 88.2268 129.423 90.3287 133.549H77.5335C75.9045 126.06 78.1378 118.021 83.9705 112.346L101.889 94.9004L77.9013 99.4458C75.5892 99.8399 73.4348 101.075 71.8058 102.835L62.794 112.688C60.6133 115.078 56.5934 115.236 54.1762 113.055C51.7328 110.796 51.5751 106.933 53.8347 104.437L62.8991 94.5851C66.2621 90.9332 70.8074 88.4108 75.668 87.465L105.331 81.8424C105.436 81.0016 105.541 80.1346 105.673 79.2938L85.9936 74.6433C76.4825 72.4101 68.2326 66.262 63.372 57.7757L50.4191 35.049C48.7638 32.1064 49.7622 28.4018 52.6786 26.7465C54.0974 25.9583 55.7264 25.7218 57.3028 26.1685C58.8792 26.5627 60.1666 27.6135 60.9548 29.0061L73.934 51.7328C77.0868 57.2766 82.5255 61.3227 88.7786 62.8203L107.118 67.1292L89.8821 51.0497C82.1576 43.877 77.7699 33.7091 77.9276 23.1208L78.1903 0H90.355L90.0923 23.2521C89.9872 30.4249 92.9298 37.3086 98.1583 42.1692L114.737 57.6181C117.601 53.9135 120.99 51.4175 124.931 50.0775C120.386 46.6356 117.627 41.2233 117.627 35.3381C117.627 26.7728 123.486 19.5476 131.421 17.4456C132.787 20.7824 133.549 24.4344 133.549 28.2966Z" fill="#18191C"/>
<text x="165" y="93" font-family="Inter, -apple-system, BlinkMacSystemFont, 'Segoe UI', Helvetica, Arial, sans-serif" font-weight="700" font-size="72" letter-spacing="-1.5" fill="#FFFFFF">SpiderPool</text>
</svg>
