<?xml version="1.0" encoding="UTF-8"?>
<svg width="135" height="135" viewBox="0 0 135 135" fill="none" xmlns="http://www.w3.org/2000/svg">
<title>Spiderpool</title>
<path d="M133.549 29.1072V106.036C133.549 121.696 120.885 134.333 105.252 134.333H28.2967C12.6902 134.359 0 121.696 0 106.036V29.1072C0 13.5007 12.6902 0.810547 28.2967 0.810547H105.226C117.023 0.810547 127.112 8.00952 131.394 18.2562C132.787 21.593 133.549 25.245 133.549 29.1072Z" fill="#FFBE1E"/>
<path d="M133.549 29.1072V101.754C127.138 107.849 119.282 111.107 114.711 111.107C112.504 111.107 110.454 109.373 108.694 106.115L92.4569 121.906C89.0413 125.216 88.2268 130.234 90.3287 134.359H77.5335C75.9045 126.871 78.1378 118.832 83.9705 113.157L101.889 95.7109L77.9013 100.256C75.5892 100.65 73.4348 101.885 71.8058 103.646L62.794 113.498C60.6133 115.889 56.5934 116.047 54.1762 113.866C51.7328 111.606 51.5751 107.744 53.8347 105.248L62.8991 95.3956C66.2621 91.7436 70.8074 89.2213 75.668 88.2755L105.331 82.6529C105.436 81.8121 105.541 80.9451 105.673 80.1044L85.9936 75.4539C76.4825 73.2207 68.2326 67.0726 63.372 58.5863L50.4191 35.8596C48.7638 32.9169 49.7622 29.2123 52.6786 27.5571C54.0974 26.7689 55.7264 26.5324 57.3028 26.9791C58.8792 27.3732 60.1666 28.4241 60.9548 29.8166L73.934 52.5433C77.0868 58.0871 82.5255 62.1332 88.7786 63.6308L107.118 67.9397L89.8821 51.8602C82.1576 44.6875 77.7699 34.5196 77.9276 23.9313L78.1903 0.810547H90.355L90.0923 24.0627C89.9872 31.2354 92.9298 38.1191 98.1583 42.9797L114.737 58.4286C117.601 54.724 120.99 52.228 124.931 50.8881C120.386 47.4462 117.627 42.0339 117.627 36.1486C117.627 27.5834 123.486 20.3581 131.421 18.2562C132.787 21.593 133.549 25.245 133.549 29.1072Z" fill="#18191C"/>
</svg>
