<svg width="1440" height="900" viewBox="0 0 1440 900" fill="none" xmlns="http://www.w3.org/2000/svg">
<g clip-path="url(#clip0_2189_1243)">
<rect width="1576" height="1576" transform="translate(-68 -338)" fill="" stroke-opacity="0.2"/>
<path d="M1507.76 -338.11L966.576 202.841V697.037L1507.76 1237.35" stroke="white" stroke-opacity="0.2" stroke-width="0.609907" stroke-linecap="round" stroke-linejoin="round"/>
<path d="M1507.44 -75.1922L1090.12 202.842L1090.13 697.028L1507.42 975.748" stroke="white" stroke-opacity="0.2" stroke-width="0.609907" stroke-linecap="round" stroke-linejoin="round"/>
<path d="M324.646 -338.11L595.948 202.841L595.941 697.022L325.664 1237.35" stroke="white" stroke-opacity="0.2" stroke-width="0.609907" stroke-linecap="round" stroke-linejoin="round"/>
<path d="M1507.44 56.0688L1213.67 202.842L1213.67 697.03L1507.42 844.162" stroke="white" stroke-opacity="0.2" stroke-width="0.609907" stroke-linecap="round" stroke-linejoin="round"/>
<path d="M-68.0186 -74.5659L348.855 202.842L348.848 697.028L-68.0332 975.145" stroke="white" stroke-opacity="0.2" stroke-width="0.609907" stroke-linecap="round" stroke-linejoin="round"/>
<path d="M-68.043 56.4213L225.281 202.843V697.036L-68.0356 843.816" stroke="white" stroke-opacity="0.2" stroke-width="0.609907" stroke-linecap="round" stroke-linejoin="round"/>
<path d="M-68.0488 135.033L101.732 202.842V697.035L-68.0342 765.006" stroke="white" stroke-opacity="0.2" stroke-width="0.609907" stroke-linecap="round" stroke-linejoin="round"/>
<path d="M1113.36 -338.11L843.035 202.841V697.037L1112.37 1237.35" stroke="white" stroke-opacity="0.2" stroke-width="0.609907" stroke-linecap="round" stroke-linejoin="round"/>
<path d="M1507.44 134.804L1337.21 202.843L1337.22 697.029L1507.42 765.226" stroke="white" stroke-opacity="0.2" stroke-width="0.609907" stroke-linecap="round" stroke-linejoin="round"/>
<path d="M719.003 -338.11L719.491 202.841V690.298L719.018 1237.35" stroke="white" stroke-opacity="0.2" stroke-width="0.609907" stroke-linecap="round" stroke-linejoin="round"/>
<path d="M-67.6895 -338.11L472.398 202.841L472.391 697.029L-67.6895 1237.35" stroke="white" stroke-opacity="0.2" stroke-width="0.609907" stroke-linecap="round" stroke-linejoin="round"/>
<path d="M1507.76 159.102H-67.6895" stroke="white" stroke-opacity="0.2" stroke-width="0.609907" stroke-linecap="round" stroke-linejoin="round"/>
<path d="M1507.76 130.847H-67.6895" stroke="white" stroke-opacity="0.2" stroke-width="0.609907" stroke-linecap="round" stroke-linejoin="round"/>
<path d="M1507.76 53.8839H-67.6895" stroke="white" stroke-opacity="0.2" stroke-width="0.609907" stroke-linecap="round" stroke-linejoin="round"/>
<path d="M1507.76 96.5131H-67.6895" stroke="white" stroke-opacity="0.2" stroke-width="0.609907" stroke-linecap="round" stroke-linejoin="round"/>
<path d="M1507.76 182.753H-67.6895" stroke="white" stroke-opacity="0.2" stroke-width="0.609907" stroke-linecap="round" stroke-linejoin="round"/>
<path d="M1507.42 846.392H-68.0352" stroke="white" stroke-opacity="0.2" stroke-width="0.609907" stroke-linecap="round" stroke-linejoin="round"/>
<path d="M1507.42 803.648H-68.0352" stroke="white" stroke-opacity="0.2" stroke-width="0.609907" stroke-linecap="round" stroke-linejoin="round"/>
<path d="M1507.42 769.224H-68.0352" stroke="white" stroke-opacity="0.2" stroke-width="0.609907" stroke-linecap="round" stroke-linejoin="round"/>
<path d="M1507.42 740.897H-68.0352" stroke="white" stroke-opacity="0.2" stroke-width="0.609907" stroke-linecap="round" stroke-linejoin="round"/>
<path d="M1507.42 717.179H-68.0352" stroke="white" stroke-opacity="0.2" stroke-width="0.609907" stroke-linecap="round" stroke-linejoin="round"/>
<path d="M1507.42 697.036H-68.0352" stroke="white" stroke-opacity="0.2" stroke-width="0.609907" stroke-linecap="round" stroke-linejoin="round"/>
<path d="M-67.3242 202.842H1508.06" stroke="white" stroke-opacity="0.2" stroke-width="0.609907" stroke-linecap="round" stroke-linejoin="round"/>
<path d="M-67.3242 326.384H1508.06" stroke="white" stroke-opacity="0.2" stroke-width="0.609907" stroke-linecap="round" stroke-linejoin="round"/>
<path d="M-67.3242 449.928H1508.06" stroke="white" stroke-opacity="0.2" stroke-width="0.609907" stroke-linecap="round" stroke-linejoin="round"/>
<path d="M-67.3242 573.47H1508.06" stroke="white" stroke-opacity="0.2" stroke-width="0.609907" stroke-linecap="round" stroke-linejoin="round"/>
</g>
<defs>
<clipPath id="clip0_2189_1243">
<rect width="1576" height="1576" fill="white" transform="translate(-68 -338)"/>
</clipPath>
</defs>
</svg>
