<svg width="240" height="87" viewBox="0 0 240 87" fill="none" xmlns="http://www.w3.org/2000/svg">
<mask id="mask0_3_263" style="mask-type:luminance" maskUnits="userSpaceOnUse" x="0" y="24" width="239" height="39">
<path d="M238.913 24.6892H0.0895996V62.3108H238.913V24.6892Z" fill="white"/>
</mask>
<g mask="url(#mask0_3_263)">
<path d="M73.7646 36.4612C73.7646 29.472 69.4714 24.7082 62.7099 24.7082H45.3652V61.4754H53.3299V47.9861H59.0421L65.4343 61.4754H74.2876L67.1128 47.0334C71.5632 45.3523 73.7646 41.3979 73.7646 36.4612ZM65.5403 37.62C65.5403 39.9926 64.0775 41.258 61.7151 41.258H53.3299V31.646H61.7116C64.0702 31.646 65.5365 32.9114 65.5365 35.284L65.5403 37.62Z" fill="white"/>
<path d="M192.964 49.4606H192.806L189.295 42.0814L179.291 24.6892H170.591V61.4783H178.084V36.7071H178.241L181.747 44.0862L191.756 61.4783H200.456V24.6892H192.964V49.4606Z" fill="white"/>
<path d="M129.775 24.6966L121.811 24.6892V24.6966V31.0642L129.366 56.2805V61.4783H137.334V55.0998L129.775 29.887V24.6966Z" fill="white"/>
<path d="M152.387 24.6966L144.419 24.6892V24.6966V31.0642L151.978 56.2805V61.4783H159.942V55.0998L152.387 29.887V24.6966Z" fill="white"/>
<path d="M105.626 24.6892H92.3443L90.7899 29.8797L83.2351 55.0963V61.4749H91.1997V56.277L98.4879 31.9544H99.4824L106.771 56.277V61.4749H114.739V55.0963L107.18 29.8797L105.626 24.6892Z" fill="white"/>
<path d="M235.935 42.8723C234.122 41.1164 231.345 39.9392 227.606 39.3409L223.948 38.7633C222.376 38.5169 221.279 38.1564 220.658 37.6818C220.035 37.2073 219.714 36.3722 219.714 35.1768C219.714 32.9696 221.459 31.8072 224.951 31.8072H236.166V24.6892H224.932C220.812 24.7628 217.582 25.7829 215.241 27.7497C212.901 29.7178 211.731 32.3847 211.731 35.6513C211.731 38.745 212.638 41.2059 214.455 42.9275C216.273 44.649 219.081 45.7379 222.892 46.1941L226.505 46.6686C228.078 46.877 229.174 47.3246 229.796 48.0113C230.436 48.7234 230.775 49.6594 230.74 50.6193C230.763 51.2412 230.645 51.8602 230.391 52.4279C230.138 52.9952 229.755 53.4958 229.276 53.8896C228.301 54.694 226.869 55.0975 224.98 55.0998C221.381 55.0998 218.325 53.6774 215.808 50.8327L210.622 56.1557C214.153 60.1261 218.746 62.1112 224.402 62.1112C227.372 62.1112 229.932 61.6095 232.081 60.6066C234.091 59.728 235.795 58.2698 236.981 56.4168C238.119 54.5482 238.7 52.3907 238.656 50.1999C238.659 47.0732 237.752 44.6307 235.935 42.8723Z" fill="white"/>
<path d="M1.11206 24.6892V31.0642H5.83674V61.4749H25.2182C26.5195 61.4871 27.8073 61.2083 28.9884 60.6582C30.1264 60.125 31.1433 59.3626 31.9762 58.418C32.8335 57.4358 33.4997 56.3002 33.9398 55.0704C34.4157 53.7627 34.6548 52.3798 34.6455 50.9872C34.6455 46.1352 31.7603 43.3174 28.7945 42.2691V41.9784C31.2922 41.0588 33.2266 38.4837 33.2266 34.1468C33.2266 31.2995 32.3797 29.0164 30.6853 27.2973C28.9909 25.5781 26.6236 24.7199 23.5836 24.7223L1.11206 24.6892ZM13.8015 31.4393H21.7149C22.1653 31.3988 22.6192 31.4581 23.0444 31.6133C23.4696 31.7685 23.8557 32.0157 24.1756 32.3374C24.4953 32.6591 24.741 33.0475 24.8953 33.4753C25.0496 33.9028 25.1086 34.3595 25.0683 34.8126V36.3943C25.1099 36.8478 25.0518 37.3049 24.898 37.7332C24.7442 38.1615 24.4985 38.5505 24.1784 38.8725C23.8583 39.1944 23.4717 39.4417 23.0458 39.5963C22.6202 39.751 22.1657 39.8094 21.7149 39.7676H13.8015V31.4393ZM26.3775 51.4176C26.4038 51.8675 26.3362 52.318 26.1786 52.7401C26.0212 53.1619 25.7773 53.5463 25.4631 53.8675C24.778 54.4738 23.8839 54.7852 22.9729 54.7356H13.8015V46.3043H22.9765C23.8873 46.2566 24.7808 46.568 25.4669 47.1726C25.7811 47.4939 26.0248 47.878 26.1824 48.2999C26.3397 48.7219 26.4076 49.1725 26.3812 49.6225L26.3775 51.4176Z" fill="white"/>
</g>
</svg>
