<svg version="1.1" id="Layer_1" xmlns="http://www.w3.org/2000/svg" xmlns:xlink="http://www.w3.org/1999/xlink" x="0px" y="0px"
	 width="100%" viewBox="0 0 3600 2025" enable-background="new 0 0 3600 2025" xml:space="preserve">
<path fill="#000000" opacity="1.000000" stroke="none" 
	d="
M3366.000000,2028.000000 
	C2244.000244,2028.000000 1123.000366,2028.000000 2.000451,2028.000000 
	C2.000301,1352.666992 2.000301,677.333984 2.000150,2.000723 
	C1201.999390,2.000482 2401.998779,2.000482 3601.998535,2.000241 
	C3601.999023,677.332703 3601.999023,1352.665405 3601.999512,2027.999023 
	C3523.666748,2028.000000 3445.333252,2028.000000 3366.000000,2028.000000 
M1227.224854,698.086609 
	C1223.039185,698.086609 1218.853516,698.086609 1213.848877,698.086609 
	C1213.848877,718.966858 1213.848877,738.462280 1213.848877,758.674683 
	C1160.131226,758.674683 1107.274902,758.674683 1054.275146,758.674683 
	C1054.275146,931.518311 1054.275146,1103.611450 1054.275146,1276.425781 
	C1107.739868,1276.425781 1160.593140,1276.425781 1214.064087,1276.425781 
	C1214.566406,1295.859619 1213.881470,1314.650635 1214.456543,1333.010742 
	C1249.750122,1333.010742 1283.597290,1333.010742 1318.310547,1333.010742 
	C1318.310547,1313.846802 1318.310547,1295.339722 1318.310547,1276.170776 
	C1322.454590,1276.170776 1325.726440,1276.178833 1328.998413,1276.169434 
	C1346.662598,1276.118652 1364.337891,1276.437744 1381.988525,1275.921997 
	C1408.089111,1275.159302 1433.736328,1271.132446 1458.263550,1261.902588 
	C1512.188477,1241.610352 1546.922974,1205.245239 1552.998169,1145.945801 
	C1558.235840,1094.820679 1539.471436,1054.770996 1496.022095,1026.814453 
	C1481.316528,1017.352539 1465.124146,1011.363892 1448.009277,1007.907776 
	C1440.502075,1006.391846 1432.946899,1005.114685 1425.413452,1003.729065 
	C1429.387817,1001.686523 1433.279419,1000.911743 1437.118408,999.930664 
	C1466.484253,992.426025 1490.852905,977.421509 1509.125977,952.799927 
	C1541.966553,908.550598 1539.275146,824.867371 1473.507690,785.218750 
	C1448.447754,770.111145 1421.126221,762.216858 1392.262451,760.143433 
	C1371.022583,758.617554 1349.653564,758.884216 1328.341431,758.378174 
	C1325.125854,758.301819 1321.906982,758.367493 1317.836914,758.367493 
	C1317.836914,737.786133 1317.836914,718.300354 1317.836914,698.086609 
	C1287.698975,698.086609 1258.439575,698.086609 1227.224854,698.086609 
M2018.266113,1060.921875 
	C2018.266113,1025.435303 2018.266113,989.948792 2018.266113,954.670898 
	C1990.489258,954.670898 1964.048218,954.670898 1936.966064,954.670898 
	C1936.966064,957.284973 1936.966064,959.241028 1936.966187,961.197083 
	C1936.968140,1005.174438 1936.926147,1049.151978 1937.021362,1093.129028 
	C1937.035034,1099.446899 1937.457397,1105.789917 1938.118896,1112.076172 
	C1942.069824,1149.628906 1964.839233,1173.232300 2002.072510,1177.269531 
	C2034.172119,1180.750000 2062.933105,1169.650879 2076.986084,1136.902588 
	C2077.404297,1135.927734 2078.142090,1135.089966 2078.730957,1134.188354 
	C2079.278564,1134.356201 2079.826416,1134.524048 2080.374023,1134.691895 
	C2080.374023,1147.135254 2080.374023,1159.578491 2080.374023,1171.872559 
	C2094.372559,1173.815796 2154.631348,1173.232422 2161.231445,1171.259521 
	C2161.231445,1099.046875 2161.231445,1026.879639 2161.231445,954.779907 
	C2145.843262,952.936279 2087.286133,953.554871 2080.236816,955.653931 
	C2080.236816,958.874817 2080.236572,962.191223 2080.236572,965.507568 
	C2080.236328,1000.489563 2080.475342,1035.474365 2080.058350,1070.451416 
	C2079.961182,1078.612427 2078.840088,1087.184937 2076.069092,1094.795898 
	C2071.360352,1107.728760 2059.632568,1113.425659 2044.528687,1112.081787 
	C2031.614868,1110.932861 2022.508789,1103.295654 2020.035278,1089.689209 
	C2018.444214,1080.937500 2018.789062,1071.833984 2018.266113,1060.921875 
M2368.274902,1157.327271 
	C2381.680176,1147.588013 2391.403320,1135.083374 2394.941406,1118.750366 
	C2401.783447,1087.166626 2391.834473,1063.799683 2362.369141,1050.864868 
	C2355.709229,1047.941406 2348.678955,1045.548340 2341.581787,1043.996216 
	C2324.687988,1040.301514 2307.618164,1037.416992 2290.690430,1033.868042 
	C2283.894531,1032.443237 2276.945557,1030.884277 2270.666504,1028.054688 
	C2260.924072,1023.664368 2260.625000,1012.447998 2269.617432,1006.698303 
	C2271.278320,1005.636292 2273.156250,1004.782227 2275.050781,1004.239746 
	C2284.638184,1001.494324 2294.097412,1001.604858 2303.337402,1005.793640 
	C2311.207031,1009.361145 2315.052246,1016.031067 2316.895264,1024.272217 
	C2329.448730,1024.272217 2341.428223,1024.272339 2353.407715,1024.272339 
	C2365.611816,1024.272339 2377.815918,1024.272217 2390.162354,1024.272217 
	C2390.246582,1005.382751 2383.962402,990.464722 2371.853271,977.902832 
	C2361.425293,967.084778 2348.669922,960.123779 2334.416992,955.877075 
	C2306.006836,947.412354 2277.308594,947.480408 2248.480713,953.503052 
	C2233.261230,956.682617 2219.457520,962.825500 2207.291016,972.706787 
	C2178.173340,996.354980 2175.007568,1052.603271 2216.062256,1074.631958 
	C2223.326172,1078.529541 2231.086426,1081.934937 2239.021729,1084.047852 
	C2251.531738,1087.378784 2264.409668,1089.306763 2277.084717,1092.046875 
	C2287.136719,1094.219971 2297.223877,1096.355713 2307.088135,1099.221558 
	C2312.408936,1100.767334 2316.407471,1104.504639 2316.170410,1110.915161 
	C2315.938721,1117.180664 2311.889160,1120.233154 2306.620117,1122.390259 
	C2286.643799,1130.568481 2267.350342,1123.144287 2258.572754,1103.799561 
	C2232.830078,1103.799561 2207.075439,1103.799561 2180.704346,1103.799561 
	C2184.356934,1134.006958 2200.082520,1154.254517 2226.724854,1166.179688 
	C2253.974365,1178.376343 2282.761230,1179.860962 2311.939697,1176.947388 
	C2331.711426,1174.973267 2350.455566,1169.539429 2368.274902,1157.327271 
M2482.225830,1174.805786 
	C2505.636475,1179.525635 2528.999023,1178.851929 2552.577148,1174.972900 
	C2552.577148,1155.711426 2552.577148,1137.247559 2552.577148,1118.567505 
	C2547.281006,1118.816162 2542.637451,1119.366943 2538.021240,1119.190796 
	C2521.951904,1118.577637 2515.172363,1111.760620 2514.340332,1095.769653 
	C2514.271240,1094.439697 2514.270752,1093.105347 2514.270508,1091.772949 
	C2514.265625,1067.786255 2514.244873,1043.799438 2514.299316,1019.812805 
	C2514.304199,1017.621643 2514.798340,1015.431458 2515.168457,1012.393188 
	C2528.183350,1012.393188 2540.725586,1012.393188 2553.178711,1012.393188 
	C2553.178711,992.596313 2553.178711,973.726746 2553.178711,953.793518 
	C2540.259277,953.793518 2527.793701,953.793518 2515.198242,953.793518 
	C2514.668701,937.282837 2515.520508,921.777710 2514.699707,906.762939 
	C2486.969238,906.762939 2460.504639,906.762939 2433.464844,906.762939 
	C2433.464844,922.733521 2433.464844,937.959961 2433.464844,954.327026 
	C2423.472412,954.327026 2414.045898,954.327026 2404.799805,954.327026 
	C2404.799805,974.311951 2404.799805,993.128540 2404.799805,1013.024597 
	C2414.501465,1013.024597 2423.662842,1013.024597 2433.505615,1013.024597 
	C2433.505615,1017.717102 2433.495605,1021.322205 2433.507324,1024.927246 
	C2433.609131,1055.908081 2433.047363,1086.909424 2434.006348,1117.863892 
	C2434.972900,1149.056763 2450.629639,1167.145386 2482.225830,1174.805786 
M1587.737305,981.008667 
	C1587.737305,991.296448 1587.737305,1001.584290 1587.737305,1012.917603 
	C1597.515869,1012.917603 1606.634277,1012.917603 1616.323608,1012.917603 
	C1616.323608,1017.259155 1616.323608,1020.548157 1616.323608,1023.837097 
	C1616.323608,1049.807251 1616.214233,1075.778076 1616.391235,1101.747070 
	C1616.443237,1109.380859 1616.933594,1117.054810 1617.866089,1124.631348 
	C1621.115967,1151.039185 1635.745117,1167.494629 1661.696289,1173.972778 
	C1681.316528,1178.870483 1701.258545,1178.765381 1721.238892,1176.981934 
	C1726.103149,1176.547729 1730.927734,1175.666382 1735.583862,1175.016602 
	C1735.583862,1155.695801 1735.583862,1137.255859 1735.583862,1118.447754 
	C1728.329956,1118.447754 1721.658325,1119.127075 1715.181152,1118.293701 
	C1704.597656,1116.932251 1699.422485,1111.102661 1698.110718,1100.571777 
	C1697.782715,1097.939087 1697.780762,1095.254883 1697.778198,1092.594238 
	C1697.754272,1068.621826 1697.745239,1044.649414 1697.790527,1020.677002 
	C1697.795288,1018.130615 1698.175293,1015.584900 1698.442993,1012.276123 
	C1711.225098,1012.276123 1723.413696,1012.276123 1735.628174,1012.276123 
	C1735.628174,992.605286 1735.628174,973.756714 1735.628174,953.738770 
	C1722.774048,953.738770 1710.341919,953.738770 1697.401733,953.738770 
	C1697.401733,937.346924 1697.401733,922.125366 1697.401733,907.005432 
	C1684.459229,905.197937 1623.708984,905.649536 1616.141235,907.678955 
	C1616.141235,922.718262 1616.141235,937.926147 1616.141235,954.147827 
	C1606.463623,954.147827 1597.330811,954.147827 1587.737305,954.147827 
	C1587.737305,963.118347 1587.737305,971.066895 1587.737305,981.008667 
M1838.495850,1173.566895 
	C1841.753662,1173.775757 1844.598267,1173.526611 1844.350220,1169.073975 
	C1844.220825,1166.749878 1844.341187,1164.411865 1844.341187,1162.080200 
	C1844.342285,1130.768311 1844.250000,1099.456055 1844.416504,1068.145020 
	C1844.451782,1061.517578 1844.868042,1054.789307 1846.087646,1048.291260 
	C1848.997681,1032.785400 1858.260620,1022.261414 1873.670776,1018.829407 
	C1881.941284,1016.987549 1890.792847,1017.364136 1899.374023,1017.461304 
	C1904.124512,1017.515076 1908.858276,1019.056702 1913.843750,1019.972534 
	C1913.843750,997.028625 1913.843750,974.831909 1913.843750,952.400085 
	C1898.498901,948.259033 1883.874878,947.920166 1869.920410,955.632507 
	C1856.028442,963.310303 1850.410645,977.047058 1846.022217,991.594910 
	C1845.306396,991.312195 1844.590698,991.029480 1843.875000,990.746765 
	C1843.875000,978.692810 1843.875000,966.638855 1843.875000,954.482117 
	C1816.703735,954.482117 1790.477539,954.482117 1764.026855,954.482117 
	C1764.026855,1027.573853 1764.026855,1100.346924 1764.026855,1173.567383 
	C1788.638062,1173.567383 1812.605469,1173.567383 1838.495850,1173.566895 
z"/>
<path fill="#FEFEFE" opacity="1.000000" stroke="none" 
	d="
M1228.202515,698.086609 
	C1258.439575,698.086609 1287.698975,698.086609 1317.836914,698.086609 
	C1317.836914,718.300354 1317.836914,737.786133 1317.836914,758.367493 
	C1321.906982,758.367493 1325.125854,758.301819 1328.341431,758.378174 
	C1349.653564,758.884216 1371.022583,758.617554 1392.262451,760.143433 
	C1421.126221,762.216858 1448.447754,770.111145 1473.507690,785.218750 
	C1539.275146,824.867371 1541.966553,908.550598 1509.125977,952.799927 
	C1490.852905,977.421509 1466.484253,992.426025 1437.118408,999.930664 
	C1433.279419,1000.911743 1429.387817,1001.686523 1425.413452,1003.729065 
	C1432.946899,1005.114685 1440.502075,1006.391846 1448.009277,1007.907776 
	C1465.124146,1011.363892 1481.316528,1017.352539 1496.022095,1026.814453 
	C1539.471436,1054.770996 1558.235840,1094.820679 1552.998169,1145.945801 
	C1546.922974,1205.245239 1512.188477,1241.610352 1458.263550,1261.902588 
	C1433.736328,1271.132446 1408.089111,1275.159302 1381.988525,1275.921997 
	C1364.337891,1276.437744 1346.662598,1276.118652 1328.998413,1276.169434 
	C1325.726440,1276.178833 1322.454590,1276.170776 1318.310547,1276.170776 
	C1318.310547,1295.339722 1318.310547,1313.846802 1318.310547,1333.010742 
	C1283.597290,1333.010742 1249.750122,1333.010742 1214.456543,1333.010742 
	C1213.881470,1314.650635 1214.566406,1295.859619 1214.064087,1276.425781 
	C1160.593140,1276.425781 1107.739868,1276.425781 1054.275146,1276.425781 
	C1054.275146,1103.611450 1054.275146,931.518311 1054.275146,758.674683 
	C1107.274902,758.674683 1160.131226,758.674683 1213.848877,758.674683 
	C1213.848877,738.462280 1213.848877,718.966858 1213.848877,698.086609 
	C1218.853516,698.086609 1223.039185,698.086609 1228.202515,698.086609 
M1336.525879,1185.176270 
	C1342.507446,1184.772461 1348.514648,1184.594604 1354.465454,1183.919312 
	C1368.139648,1182.367920 1381.238770,1178.825806 1393.184448,1171.729248 
	C1404.442627,1165.041016 1413.168335,1155.903198 1417.244141,1143.396118 
	C1426.627930,1114.599609 1421.838013,1075.825562 1379.299683,1060.820557 
	C1376.169800,1059.716553 1372.963135,1058.815552 1369.760986,1057.933960 
	C1354.822754,1053.821533 1339.510742,1053.548828 1324.172241,1053.552490 
	C1280.530151,1053.562988 1236.888184,1053.562744 1193.246094,1053.566650 
	C1189.989258,1053.566895 1186.732422,1053.566528 1183.153320,1053.566528 
	C1183.153320,1097.831177 1183.153320,1141.210327 1183.153320,1185.289673 
	C1234.113037,1185.289673 1284.368042,1185.289673 1336.525879,1185.176270 
M1185.749512,849.726318 
	C1180.945312,851.156799 1182.866943,855.177246 1182.856323,858.089417 
	C1182.726196,893.722046 1182.757568,929.355286 1182.802979,964.988342 
	C1182.805786,967.204224 1183.273438,969.419495 1183.529785,971.679626 
	C1232.367920,971.679626 1280.641235,972.042114 1328.903076,971.464417 
	C1343.874146,971.285217 1358.541626,967.608643 1371.940186,960.155212 
	C1393.491089,948.166687 1402.423950,929.309875 1401.274048,905.373108 
	C1400.098267,880.898682 1387.705566,864.341003 1364.704712,855.639709 
	C1352.349609,850.965637 1339.566895,849.640564 1326.499146,849.654968 
	C1280.209473,849.705933 1233.919678,849.674805 1185.749512,849.726318 
z"/>
<path fill="#FCFCFC" opacity="1.000000" stroke="none" 
	d="
M2018.266113,1061.905029 
	C2018.789062,1071.833984 2018.444214,1080.937500 2020.035278,1089.689209 
	C2022.508789,1103.295654 2031.614868,1110.932861 2044.528687,1112.081787 
	C2059.632568,1113.425659 2071.360352,1107.728760 2076.069092,1094.795898 
	C2078.840088,1087.184937 2079.961182,1078.612427 2080.058350,1070.451416 
	C2080.475342,1035.474365 2080.236328,1000.489563 2080.236572,965.507568 
	C2080.236572,962.191223 2080.236816,958.874817 2080.236816,955.653931 
	C2087.286133,953.554871 2145.843262,952.936279 2161.231445,954.779907 
	C2161.231445,1026.879639 2161.231445,1099.046875 2161.231445,1171.259521 
	C2154.631348,1173.232422 2094.372559,1173.815796 2080.374023,1171.872559 
	C2080.374023,1159.578491 2080.374023,1147.135254 2080.374023,1134.691895 
	C2079.826416,1134.524048 2079.278564,1134.356201 2078.730957,1134.188354 
	C2078.142090,1135.089966 2077.404297,1135.927734 2076.986084,1136.902588 
	C2062.933105,1169.650879 2034.172119,1180.750000 2002.072510,1177.269531 
	C1964.839233,1173.232300 1942.069824,1149.628906 1938.118896,1112.076172 
	C1937.457397,1105.789917 1937.035034,1099.446899 1937.021362,1093.129028 
	C1936.926147,1049.151978 1936.968140,1005.174438 1936.966187,961.197083 
	C1936.966064,959.241028 1936.966064,957.284973 1936.966064,954.670898 
	C1964.048218,954.670898 1990.489258,954.670898 2018.266113,954.670898 
	C2018.266113,989.948792 2018.266113,1025.435303 2018.266113,1061.905029 
z"/>
<path fill="#FDFDFD" opacity="1.000000" stroke="none" 
	d="
M2367.679932,1157.731201 
	C2350.455566,1169.539429 2331.711426,1174.973267 2311.939697,1176.947388 
	C2282.761230,1179.860962 2253.974365,1178.376343 2226.724854,1166.179688 
	C2200.082520,1154.254517 2184.356934,1134.006958 2180.704346,1103.799561 
	C2207.075439,1103.799561 2232.830078,1103.799561 2258.572754,1103.799561 
	C2267.350342,1123.144287 2286.643799,1130.568481 2306.620117,1122.390259 
	C2311.889160,1120.233154 2315.938721,1117.180664 2316.170410,1110.915161 
	C2316.407471,1104.504639 2312.408936,1100.767334 2307.088135,1099.221558 
	C2297.223877,1096.355713 2287.136719,1094.219971 2277.084717,1092.046875 
	C2264.409668,1089.306763 2251.531738,1087.378784 2239.021729,1084.047852 
	C2231.086426,1081.934937 2223.326172,1078.529541 2216.062256,1074.631958 
	C2175.007568,1052.603271 2178.173340,996.354980 2207.291016,972.706787 
	C2219.457520,962.825500 2233.261230,956.682617 2248.480713,953.503052 
	C2277.308594,947.480408 2306.006836,947.412354 2334.416992,955.877075 
	C2348.669922,960.123779 2361.425293,967.084778 2371.853271,977.902832 
	C2383.962402,990.464722 2390.246582,1005.382751 2390.162354,1024.272217 
	C2377.815918,1024.272217 2365.611816,1024.272339 2353.407715,1024.272339 
	C2341.428223,1024.272339 2329.448730,1024.272217 2316.895264,1024.272217 
	C2315.052246,1016.031067 2311.207031,1009.361145 2303.337402,1005.793640 
	C2294.097412,1001.604858 2284.638184,1001.494324 2275.050781,1004.239746 
	C2273.156250,1004.782227 2271.278320,1005.636292 2269.617432,1006.698303 
	C2260.625000,1012.447998 2260.924072,1023.664368 2270.666504,1028.054688 
	C2276.945557,1030.884277 2283.894531,1032.443237 2290.690430,1033.868042 
	C2307.618164,1037.416992 2324.687988,1040.301514 2341.581787,1043.996216 
	C2348.678955,1045.548340 2355.709229,1047.941406 2362.369141,1050.864868 
	C2391.834473,1063.799683 2401.783447,1087.166626 2394.941406,1118.750366 
	C2391.403320,1135.083374 2381.680176,1147.588013 2367.679932,1157.731201 
z"/>
<path fill="#FCFDFD" opacity="1.000000" stroke="none" 
	d="
M2481.422852,1174.598633 
	C2450.629639,1167.145386 2434.972900,1149.056763 2434.006348,1117.863892 
	C2433.047363,1086.909424 2433.609131,1055.908081 2433.507324,1024.927246 
	C2433.495605,1021.322205 2433.505615,1017.717102 2433.505615,1013.024597 
	C2423.662842,1013.024597 2414.501465,1013.024597 2404.799805,1013.024597 
	C2404.799805,993.128540 2404.799805,974.311951 2404.799805,954.327026 
	C2414.045898,954.327026 2423.472412,954.327026 2433.464844,954.327026 
	C2433.464844,937.959961 2433.464844,922.733521 2433.464844,906.762939 
	C2460.504639,906.762939 2486.969238,906.762939 2514.699707,906.762939 
	C2515.520508,921.777710 2514.668701,937.282837 2515.198242,953.793518 
	C2527.793701,953.793518 2540.259277,953.793518 2553.178711,953.793518 
	C2553.178711,973.726746 2553.178711,992.596313 2553.178711,1012.393188 
	C2540.725586,1012.393188 2528.183350,1012.393188 2515.168457,1012.393188 
	C2514.798340,1015.431458 2514.304199,1017.621643 2514.299316,1019.812805 
	C2514.244873,1043.799438 2514.265625,1067.786255 2514.270508,1091.772949 
	C2514.270752,1093.105347 2514.271240,1094.439697 2514.340332,1095.769653 
	C2515.172363,1111.760620 2521.951904,1118.577637 2538.021240,1119.190796 
	C2542.637451,1119.366943 2547.281006,1118.816162 2552.577148,1118.567505 
	C2552.577148,1137.247559 2552.577148,1155.711426 2552.577148,1174.972900 
	C2528.999023,1178.851929 2505.636475,1179.525635 2481.422852,1174.598633 
z"/>
<path fill="#FCFDFD" opacity="1.000000" stroke="none" 
	d="
M1587.737305,980.012085 
	C1587.737305,971.066895 1587.737305,963.118347 1587.737305,954.147827 
	C1597.330811,954.147827 1606.463623,954.147827 1616.141235,954.147827 
	C1616.141235,937.926147 1616.141235,922.718262 1616.141235,907.678955 
	C1623.708984,905.649536 1684.459229,905.197937 1697.401733,907.005432 
	C1697.401733,922.125366 1697.401733,937.346924 1697.401733,953.738770 
	C1710.341919,953.738770 1722.774048,953.738770 1735.628174,953.738770 
	C1735.628174,973.756714 1735.628174,992.605286 1735.628174,1012.276123 
	C1723.413696,1012.276123 1711.225098,1012.276123 1698.442993,1012.276123 
	C1698.175293,1015.584900 1697.795288,1018.130615 1697.790527,1020.677002 
	C1697.745239,1044.649414 1697.754272,1068.621826 1697.778198,1092.594238 
	C1697.780762,1095.254883 1697.782715,1097.939087 1698.110718,1100.571777 
	C1699.422485,1111.102661 1704.597656,1116.932251 1715.181152,1118.293701 
	C1721.658325,1119.127075 1728.329956,1118.447754 1735.583862,1118.447754 
	C1735.583862,1137.255859 1735.583862,1155.695801 1735.583862,1175.016602 
	C1730.927734,1175.666382 1726.103149,1176.547729 1721.238892,1176.981934 
	C1701.258545,1178.765381 1681.316528,1178.870483 1661.696289,1173.972778 
	C1635.745117,1167.494629 1621.115967,1151.039185 1617.866089,1124.631348 
	C1616.933594,1117.054810 1616.443237,1109.380859 1616.391235,1101.747070 
	C1616.214233,1075.778076 1616.323608,1049.807251 1616.323608,1023.837097 
	C1616.323608,1020.548157 1616.323608,1017.259155 1616.323608,1012.917603 
	C1606.634277,1012.917603 1597.515869,1012.917603 1587.737305,1012.917603 
	C1587.737305,1001.584290 1587.737305,991.296448 1587.737305,980.012085 
z"/>
<path fill="#FDFEFE" opacity="1.000000" stroke="none" 
	d="
M1837.534302,1173.567139 
	C1812.605469,1173.567383 1788.638062,1173.567383 1764.026855,1173.567383 
	C1764.026855,1100.346924 1764.026855,1027.573853 1764.026855,954.482117 
	C1790.477539,954.482117 1816.703735,954.482117 1843.875000,954.482117 
	C1843.875000,966.638855 1843.875000,978.692810 1843.875000,990.746765 
	C1844.590698,991.029480 1845.306396,991.312195 1846.022217,991.594910 
	C1850.410645,977.047058 1856.028442,963.310303 1869.920410,955.632507 
	C1883.874878,947.920166 1898.498901,948.259033 1913.843750,952.400085 
	C1913.843750,974.831909 1913.843750,997.028625 1913.843750,1019.972534 
	C1908.858276,1019.056702 1904.124512,1017.515076 1899.374023,1017.461304 
	C1890.792847,1017.364136 1881.941284,1016.987549 1873.670776,1018.829407 
	C1858.260620,1022.261414 1848.997681,1032.785400 1846.087646,1048.291260 
	C1844.868042,1054.789307 1844.451782,1061.517578 1844.416504,1068.145020 
	C1844.250000,1099.456055 1844.342285,1130.768311 1844.341187,1162.080200 
	C1844.341187,1164.411865 1844.220825,1166.749878 1844.350220,1169.073975 
	C1844.598267,1173.526611 1841.753662,1173.775757 1837.534302,1173.567139 
z"/>
<path fill="#020303" opacity="1.000000" stroke="none" 
	d="
M1335.574463,1185.232910 
	C1284.368042,1185.289673 1234.113037,1185.289673 1183.153320,1185.289673 
	C1183.153320,1141.210327 1183.153320,1097.831177 1183.153320,1053.566528 
	C1186.732422,1053.566528 1189.989258,1053.566895 1193.246094,1053.566650 
	C1236.888184,1053.562744 1280.530151,1053.562988 1324.172241,1053.552490 
	C1339.510742,1053.548828 1354.822754,1053.821533 1369.760986,1057.933960 
	C1372.963135,1058.815552 1376.169800,1059.716553 1379.299683,1060.820557 
	C1421.838013,1075.825562 1426.627930,1114.599609 1417.244141,1143.396118 
	C1413.168335,1155.903198 1404.442627,1165.041016 1393.184448,1171.729248 
	C1381.238770,1178.825806 1368.139648,1182.367920 1354.465454,1183.919312 
	C1348.514648,1184.594604 1342.507446,1184.772461 1335.574463,1185.232910 
z"/>
<path fill="#020202" opacity="1.000000" stroke="none" 
	d="
M1186.689697,849.700500 
	C1233.919678,849.674805 1280.209473,849.705933 1326.499146,849.654968 
	C1339.566895,849.640564 1352.349609,850.965637 1364.704712,855.639709 
	C1387.705566,864.341003 1400.098267,880.898682 1401.274048,905.373108 
	C1402.423950,929.309875 1393.491089,948.166687 1371.940186,960.155212 
	C1358.541626,967.608643 1343.874146,971.285217 1328.903076,971.464417 
	C1280.641235,972.042114 1232.367920,971.679626 1183.529785,971.679626 
	C1183.273438,969.419495 1182.805786,967.204224 1182.802979,964.988342 
	C1182.757568,929.355286 1182.726196,893.722046 1182.856323,858.089417 
	C1182.866943,855.177246 1180.945312,851.156799 1186.689697,849.700500 
z"/>
</svg>