<svg width="199" height="123" viewBox="0 0 199 123" fill="none" xmlns="http://www.w3.org/2000/svg">
<path d="M0.0350421 99.5232H7.84895C9.46078 99.5232 10.9675 99.8386 12.3691 100.469C13.7707 101.1 15.0321 101.941 16.1184 102.992C17.2046 104.078 18.0456 105.305 18.6412 106.741C19.272 108.143 19.5873 109.685 19.5873 111.262C19.5873 112.873 19.272 114.38 18.6412 115.782C18.0105 117.183 17.1696 118.445 16.1184 119.531C15.0672 120.617 13.8057 121.458 12.3691 122.054C10.9325 122.685 9.42574 123 7.8139 123H0V99.5232H0.0350421ZM7.84895 119.04C8.93518 119.04 9.95134 118.83 10.8974 118.445C11.8435 118.024 12.6844 117.464 13.3852 116.763C14.086 116.027 14.6467 115.221 15.0672 114.275C15.4876 113.329 15.6628 112.313 15.6628 111.262C15.6628 110.21 15.4526 109.194 15.0672 108.248C14.6467 107.302 14.086 106.461 13.3852 105.76C12.6494 105.024 11.8435 104.464 10.8974 104.078C9.95134 103.658 8.93518 103.483 7.88398 103.483H3.95951V119.075H7.84895V119.04Z" fill="#FCFCFC"/>
<path d="M50.7027 99.5232V103.448H38.9644V109.334H50.7027V113.224H38.9644V119.075H50.7027V123H35.11V99.5583H50.7027V99.5232Z" fill="#FCFCFC"/>
<path d="M70.1499 108.949V122.965H66.2605V99.5232L77.9989 111.262L89.7372 99.5232V122.965H85.7777V108.949L77.9638 116.763L70.1499 108.949Z" fill="#FCFCFC"/>
<path d="M122.394 119.04H111.602L109.605 122.965H105.26L116.998 99.5232L128.737 122.965H124.392L122.394 119.04ZM113.529 115.151H120.432L116.998 108.248L113.529 115.151Z" fill="#FCFCFC"/>
<path d="M144.259 99.4882L159.852 113.539V99.4882H163.777V122.93V122.895V122.965L148.149 108.914V122.93H144.259V99.4882Z" fill="#FCFCFC"/>
<path d="M179.299 99.5232H187.113C188.725 99.5232 190.232 99.8386 191.633 100.469C193.035 101.1 194.296 101.941 195.383 102.992C196.469 104.078 197.31 105.305 197.905 106.741C198.536 108.143 198.852 109.685 198.852 111.262C198.852 112.873 198.536 114.38 197.905 115.782C197.275 117.183 196.434 118.445 195.383 119.531C194.331 120.617 193.07 121.458 191.633 122.054C190.197 122.685 188.69 123 187.078 123H179.264V99.5232H179.299ZM187.113 119.04C188.199 119.04 189.216 118.83 190.162 118.445C191.108 118.024 191.949 117.464 192.649 116.763C193.35 116.027 193.911 115.221 194.331 114.275C194.752 113.329 194.927 112.313 194.927 111.262C194.927 110.21 194.717 109.194 194.331 108.248C193.911 107.302 193.35 106.461 192.649 105.76C191.914 105.024 191.108 104.464 190.162 104.078C189.216 103.658 188.199 103.483 187.148 103.483H183.189V119.075H187.113V119.04Z" fill="#FCFCFC"/>
<path d="M81.0474 49.9319H100.6L110.972 32.0966H71.4114L63.5275 44.2905L73.4788 61.5651L81.0474 49.9319Z" fill="#FF0042"/>
<path d="M150.286 39.7002L127.37 0L57.3604 0.0700841L67.7672 17.9054L117.103 17.8353L129.718 39.7002L117.103 61.5301H73.4787L83.7805 79.3654H127.37L150.286 39.7002Z" fill="#FF0042"/>
</svg>
