<svg width="612" height="258" viewBox="0 0 612 258" fill="none" xmlns="http://www.w3.org/2000/svg">
<g clip-path="url(#clip0_317_118)">
<path d="M147.34 31.0103C138.82 18.9403 127.52 10.5203 113.75 6.00027C105.78 3.37027 95.74 1.95027 83.84 1.78027H0V195.05H83.84C98.46 195.05 111.4 191.97 122.31 185.9C133.26 179.81 142.37 170.58 149.42 158.47C159.62 140.84 164.79 119.11 164.79 93.9003C164.79 83.9503 163.58 73.3503 161.18 62.3903C158.73 51.2003 154.08 40.6503 147.34 31.0203V31.0103ZM117.21 89.1003C117.21 91.3403 117.21 93.7903 117.21 96.5303C117.21 109.58 115.32 120.93 111.61 130.26C105.05 146.66 93.83 154.64 77.3 154.64H45.8V42.1903H77.3C93.22 42.1903 103.89 46.5703 108.99 55.2003C109.65 56.3303 110.25 57.3703 110.81 58.3503C114.47 66.1703 116.61 76.4703 117.2 89.1003H117.21Z" fill="#EF3A2E"/>
<path d="M607.64 62.39C605.19 51.2 600.54 40.65 593.8 31.02C585.28 18.95 573.98 10.53 560.21 6.01004C552.24 3.38004 542.2 1.96004 530.3 1.79004H446.46V195.05H530.3C544.92 195.05 557.86 191.97 568.77 185.9C579.72 179.81 588.84 170.58 595.88 158.47C606.08 140.84 611.25 119.11 611.25 93.9C611.25 83.95 610.04 73.35 607.64 62.39ZM563.67 89.1C563.67 91.34 563.67 93.79 563.67 96.53C563.67 109.58 561.78 120.93 558.07 130.26C551.51 146.66 540.29 154.64 523.76 154.64H492.26V42.19H523.76C539.68 42.19 550.35 46.57 555.45 55.2C556.11 56.33 556.71 57.37 557.27 58.35C560.93 66.17 563.07 76.47 563.66 89.1H563.67Z" fill="#EF3A2E"/>
<path d="M383.07 114.94L357.88 3.54V0H311.48V194.88H357.88V82.52L383.01 193.66H383.07V194.88H429.47V0H383.07V114.94Z" fill="#EF3A2E"/>
<path d="M429.47 211.56H311.99V257.96H429.47V211.56Z" fill="#EF3A2E"/>
<path d="M247.84 0.1H247.8L235.32 59.03L222.66 0.97V0H176.25V194.88H222.66V84.05L234.72 164.54L247.84 83.85V194.88H294.25V0H247.84V0.1Z" fill="#EF3A2E"/>
</g>
<defs>
<clipPath id="clip0_317_118">
<rect width="611.25" height="257.96" fill="white"/>
</clipPath>
</defs>
</svg>
