<svg width="231" height="111" viewBox="0 0 231 111" fill="none" xmlns="http://www.w3.org/2000/svg">
<mask id="mask0_3_275" style="mask-type:luminance" maskUnits="userSpaceOnUse" x="0" y="13" width="85" height="85">
<path d="M84.1143 13.4739H0.114258V97.3118H84.1143V13.4739Z" fill="white"/>
</mask>
<g mask="url(#mask0_3_275)">
<path d="M12.4139 25.8956H71.8125V85.8793C79.4125 78.2036 84.1143 67.6008 84.1143 55.8882C84.1143 32.4625 65.3085 13.4739 42.1154 13.4739C18.9219 13.4739 0.114258 32.4632 0.114258 55.8882C0.114258 67.6004 4.81605 78.2017 12.416 85.8767L12.4139 25.8956Z" fill="white"/>
<path d="M11.5664 85.8793V97.3118H72.6573V85.8793H11.5664Z" fill="white"/>
</g>
<path d="M115.543 56.7994C115.543 58.9895 115.924 60.6384 116.685 61.7464C117.46 62.8414 118.557 63.3825 119.977 63.3696C121.422 63.3696 122.526 62.8543 123.288 61.8237C124.049 60.7931 124.436 59.2536 124.449 57.2053C124.475 55.1054 124.107 53.4821 123.346 52.3356C122.597 51.189 121.513 50.6093 120.093 50.5964C118.596 50.5578 117.46 51.0796 116.685 52.1617C115.924 53.2309 115.543 54.7768 115.543 56.7994ZM130.161 66.8093C130.174 68.0976 129.967 69.2634 129.541 70.307C129.128 71.3634 128.496 72.2586 127.644 72.993C126.792 73.7273 125.727 74.2941 124.449 74.6935C123.171 75.0928 121.693 75.2925 120.015 75.2925C118.699 75.3054 117.466 75.1831 116.317 74.9254C115.169 74.6678 114.168 74.2748 113.316 73.7466C112.464 73.2184 111.767 72.542 111.225 71.7176C110.696 70.906 110.386 69.9591 110.296 68.877C110.283 68.7481 110.322 68.6258 110.412 68.5097C110.515 68.4067 110.632 68.3552 110.761 68.3552H115.582C115.749 68.3552 115.885 68.4003 115.988 68.4904C116.091 68.5807 116.163 68.7095 116.201 68.877C116.356 69.6628 116.769 70.2747 117.44 70.7127C118.124 71.1508 119.047 71.3698 120.209 71.3698C121.487 71.3698 122.532 70.9961 123.346 70.2489C124.172 69.5017 124.585 68.3295 124.585 66.7319V64.3938C123.913 65.2827 123.081 65.9849 122.087 66.5002C121.106 67.0026 119.983 67.2538 118.718 67.2538C117.208 67.2538 115.872 66.9897 114.71 66.4614C113.549 65.9332 112.581 65.2119 111.806 64.2972C111.032 63.3825 110.444 62.3004 110.044 61.0507C109.657 59.8011 109.463 58.4613 109.463 57.0313C109.463 55.6143 109.67 54.2808 110.083 53.0313C110.496 51.7688 111.083 50.6737 111.845 49.7462C112.619 48.8186 113.562 48.0843 114.672 47.5432C115.795 46.9893 117.047 46.7123 118.428 46.7123C119.693 46.7123 120.822 46.9248 121.816 47.35C122.81 47.7751 123.649 48.3934 124.333 49.205L124.255 47.5046C124.243 47.3757 124.288 47.2598 124.391 47.1567C124.494 47.0408 124.611 46.9829 124.74 46.9829H129.657C129.786 46.9829 129.903 47.0408 130.006 47.1567C130.109 47.2598 130.161 47.3757 130.161 47.5046L130.006 57.4758L130.161 66.8093ZM139.048 56.9154C139.048 59.2085 139.428 60.9348 140.19 62.0942C140.964 63.2537 142.062 63.8269 143.481 63.8141C144.927 63.8141 146.031 63.2666 146.792 62.1716C147.554 61.0765 147.941 59.4597 147.954 57.3211C147.98 55.1569 147.612 53.495 146.85 52.3356C146.102 51.1632 145.017 50.5707 143.598 50.5578C142.1 50.5192 140.964 51.0474 140.19 52.1423C139.428 53.2373 139.048 54.8284 139.048 56.9154ZM153.279 67.3697H148.283C148.154 67.3697 148.038 67.3182 147.934 67.215C147.831 67.112 147.78 66.9897 147.78 66.848L147.838 64.9929C147.141 65.856 146.282 66.5324 145.263 67.0219C144.243 67.5115 143.094 67.7562 141.816 67.7562C140.371 67.7562 139.093 67.4856 137.983 66.9445C136.886 66.4035 135.963 65.6627 135.214 64.7224C134.478 63.7819 133.917 62.674 133.53 61.3985C133.155 60.1102 132.968 58.7254 132.968 57.2439C132.968 55.7752 133.175 54.3904 133.588 53.0893C134.001 51.7881 134.588 50.6608 135.35 49.7075C136.124 48.7543 137.066 48.0006 138.176 47.4467C139.299 46.8797 140.551 46.5963 141.933 46.5963C143.197 46.5963 144.327 46.8218 145.321 47.2727C146.315 47.7108 147.154 48.3419 147.838 49.1664L147.76 47.5046C147.747 47.3757 147.793 47.2598 147.896 47.1567C147.999 47.0408 148.115 46.9829 148.244 46.9829H153.279C153.408 46.9829 153.523 47.0408 153.627 47.1567C153.73 47.2598 153.781 47.3757 153.781 47.5046L153.549 57.2053L153.781 66.848C153.781 66.9897 153.73 67.112 153.627 67.215C153.523 67.3182 153.408 67.3697 153.279 67.3697ZM162.804 67.3697H157.809C157.68 67.3697 157.557 67.3182 157.441 67.215C157.338 67.112 157.293 66.9897 157.305 66.848L157.576 53.5143L157.305 40.1808C157.293 40.0519 157.338 39.936 157.441 39.833C157.557 39.717 157.68 39.659 157.809 39.659H162.804C162.933 39.659 163.05 39.717 163.152 39.833C163.255 39.936 163.308 40.0519 163.308 40.1808L163.036 53.5143L163.308 66.848C163.308 66.9897 163.255 67.112 163.152 67.215C163.05 67.3182 162.933 67.3697 162.804 67.3697ZM172.311 56.9154C172.311 59.2085 172.692 60.9348 173.452 62.0942C174.228 63.2537 175.324 63.8269 176.745 63.8141C178.189 63.8141 179.293 63.2666 180.055 62.1716C180.816 61.0765 181.204 59.4597 181.216 57.3211C181.242 55.1569 180.874 53.495 180.112 52.3356C179.364 51.1632 178.281 50.5707 176.86 50.5578C175.363 50.5192 174.228 51.0474 173.452 52.1423C172.692 53.2373 172.311 54.8284 172.311 56.9154ZM186.541 67.3697H181.546C181.417 67.3697 181.3 67.3182 181.197 67.215C181.093 67.112 181.042 66.9897 181.042 66.848L181.101 64.9929C180.403 65.856 179.545 66.5324 178.525 67.0219C177.505 67.5115 176.356 67.7562 175.08 67.7562C173.634 67.7562 172.356 67.4856 171.246 66.9445C170.148 66.4035 169.225 65.6627 168.477 64.7224C167.742 63.7819 167.179 62.674 166.792 61.3985C166.419 60.1102 166.231 58.7254 166.231 57.2439C166.231 55.7752 166.437 54.3904 166.851 53.0893C167.263 51.7881 167.851 50.6608 168.612 49.7075C169.387 48.7543 170.329 48.0006 171.439 47.4467C172.563 46.8797 173.814 46.5963 175.195 46.5963C176.46 46.5963 177.589 46.8218 178.584 47.2727C179.577 47.7108 180.417 48.3419 181.101 49.1664L181.023 47.5046C181.011 47.3757 181.056 47.2598 181.159 47.1567C181.261 47.0408 181.378 46.9829 181.507 46.9829H186.541C186.67 46.9829 186.786 47.0408 186.889 47.1567C186.993 47.2598 187.044 47.3757 187.044 47.5046L186.813 57.2053L187.044 66.848C187.044 66.9897 186.993 67.112 186.889 67.215C186.786 67.3182 186.67 67.3697 186.541 67.3697ZM208.09 67.3697H202.437C202.282 67.3697 202.134 67.3246 201.991 67.2344C201.849 67.1442 201.747 67.0348 201.682 66.9059L198.313 60.2005L194.731 66.9059C194.667 67.0477 194.563 67.1635 194.421 67.2538C194.28 67.3311 194.131 67.3697 193.975 67.3697H188.865C188.748 67.3697 188.664 67.3182 188.613 67.215C188.562 67.112 188.562 67.0155 188.613 66.9252L194.575 56.7608L188.904 47.4272C188.851 47.3371 188.851 47.2405 188.904 47.1374C188.955 47.0344 189.039 46.9829 189.154 46.9829H194.77C194.925 46.9829 195.073 47.0279 195.214 47.1181C195.357 47.2083 195.46 47.3178 195.525 47.4467L198.855 53.8429L202.05 47.4467C202.114 47.3178 202.21 47.2083 202.339 47.1181C202.482 47.0279 202.63 46.9829 202.785 46.9829H207.742C207.858 46.9829 207.942 47.0344 207.993 47.1374C208.045 47.2405 208.045 47.3371 207.993 47.4272L202.515 56.7994L208.362 66.9252C208.413 67.0155 208.413 67.112 208.362 67.215C208.309 67.3182 208.219 67.3697 208.09 67.3697ZM229.446 47.466L220.462 73.6114C220.411 73.753 220.32 73.8691 220.191 73.9592C220.062 74.0493 219.921 74.0944 219.765 74.0944H215.137C215.008 74.0944 214.905 74.0429 214.828 73.9399C214.75 73.8498 214.738 73.7402 214.789 73.6114L216.88 67.563L208.749 47.466C208.696 47.35 208.704 47.2405 208.768 47.1374C208.833 47.0344 208.929 46.9829 209.058 46.9829H214.731C214.887 46.9829 215.028 47.0344 215.157 47.1374C215.286 47.2277 215.377 47.3371 215.428 47.466L219.804 60.0459L223.425 47.4853C223.476 47.3435 223.56 47.2277 223.677 47.1374C223.806 47.0344 223.941 46.9829 224.083 46.9829H229.098C229.227 46.9829 229.323 47.0344 229.387 47.1374C229.465 47.2405 229.485 47.35 229.446 47.466Z" fill="white"/>
</svg>
