<svg width="647" height="342" viewBox="0 0 647 342" fill="none" xmlns="http://www.w3.org/2000/svg">
<g opacity="0.45">
<mask id="mask0_636_5340" style="mask-type:alpha" maskUnits="userSpaceOnUse" x="0" y="0" width="647" height="342">
<rect x="0.657794" y="0.48006" width="645.373" height="340.388" fill="url(#paint0_linear_636_5340)" stroke="white" stroke-width="0.953284"/>
</mask>
<g mask="url(#mask0_636_5340)">
<g opacity="0.45">
<line x1="26.2428" y1="-4.37256" x2="26.2428" y2="345.721" stroke="#C4C4C4" stroke-opacity="0.48" stroke-width="0.953284"/>
<line x1="61.2511" y1="-4.37256" x2="61.2511" y2="345.721" stroke="#C4C4C4" stroke-opacity="0.48" stroke-width="0.953284"/>
<line x1="96.2594" y1="-4.37256" x2="96.2594" y2="345.721" stroke="#C4C4C4" stroke-opacity="0.48" stroke-width="0.953284"/>
<line x1="131.269" y1="-4.37256" x2="131.269" y2="345.721" stroke="#C4C4C4" stroke-opacity="0.48" stroke-width="0.953284"/>
<line x1="166.279" y1="-4.37256" x2="166.279" y2="345.721" stroke="#C4C4C4" stroke-opacity="0.48" stroke-width="0.953284"/>
<line x1="201.289" y1="-4.37256" x2="201.289" y2="345.721" stroke="#C4C4C4" stroke-opacity="0.48" stroke-width="0.953284"/>
<line x1="236.297" y1="-4.37256" x2="236.297" y2="345.721" stroke="#C4C4C4" stroke-opacity="0.48" stroke-width="0.953284"/>
<line x1="271.307" y1="-4.37231" x2="271.307" y2="345.721" stroke="#C4C4C4" stroke-opacity="0.48" stroke-width="0.953284"/>
<line x1="306.316" y1="-4.37256" x2="306.316" y2="345.721" stroke="#C4C4C4" stroke-opacity="0.48" stroke-width="0.953284"/>
<line x1="341.325" y1="-4.37256" x2="341.325" y2="345.721" stroke="#C4C4C4" stroke-opacity="0.48" stroke-width="0.953284"/>
<line x1="376.336" y1="-4.37256" x2="376.336" y2="345.721" stroke="#C4C4C4" stroke-opacity="0.48" stroke-width="0.953284"/>
<line x1="411.345" y1="-4.37256" x2="411.345" y2="345.721" stroke="#C4C4C4" stroke-opacity="0.48" stroke-width="0.953284"/>
<line x1="446.353" y1="-4.37231" x2="446.353" y2="345.721" stroke="#C4C4C4" stroke-opacity="0.48" stroke-width="0.953284"/>
<line x1="481.363" y1="-4.37256" x2="481.363" y2="345.721" stroke="#C4C4C4" stroke-opacity="0.48" stroke-width="0.953284"/>
<line x1="516.371" y1="-4.37256" x2="516.371" y2="345.721" stroke="#C4C4C4" stroke-opacity="0.48" stroke-width="0.953284"/>
<line x1="551.381" y1="-4.37256" x2="551.381" y2="345.721" stroke="#C4C4C4" stroke-opacity="0.48" stroke-width="0.953284"/>
<line x1="621.399" y1="-4.37256" x2="621.4" y2="345.721" stroke="#C4C4C4" stroke-opacity="0.48" stroke-width="0.953284"/>
<line x1="586.391" y1="-4.37256" x2="586.391" y2="345.721" stroke="#C4C4C4" stroke-opacity="0.48" stroke-width="0.953284"/>
<line x1="655.933" y1="136.142" x2="-9.24481" y2="136.142" stroke="#C4C4C4" stroke-opacity="0.48" stroke-width="0.953284"/>
<line x1="655.933" y1="276.179" x2="-9.24481" y2="276.179" stroke="#C4C4C4" stroke-opacity="0.48" stroke-width="0.953284"/>
<line x1="655.933" y1="31.1136" x2="-9.24481" y2="31.1136" stroke="#C4C4C4" stroke-opacity="0.48" stroke-width="0.953284"/>
<line x1="655.933" y1="171.151" x2="-9.24481" y2="171.151" stroke="#C4C4C4" stroke-opacity="0.48" stroke-width="0.953284"/>
<line x1="655.933" y1="311.188" x2="-9.24481" y2="311.188" stroke="#C4C4C4" stroke-opacity="0.48" stroke-width="0.953284"/>
<line x1="655.933" y1="66.1226" x2="-9.24481" y2="66.1226" stroke="#C4C4C4" stroke-opacity="0.48" stroke-width="0.953284"/>
<line x1="655.933" y1="206.16" x2="-9.24481" y2="206.16" stroke="#C4C4C4" stroke-opacity="0.48" stroke-width="0.953284"/>
<line x1="655.933" y1="101.133" x2="-9.24481" y2="101.133" stroke="#C4C4C4" stroke-opacity="0.48" stroke-width="0.953284"/>
<line x1="655.933" y1="241.17" x2="-9.24481" y2="241.17" stroke="#C4C4C4" stroke-opacity="0.48" stroke-width="0.953284"/>
</g>
</g>
</g>
<defs>
<linearGradient id="paint0_linear_636_5340" x1="323.344" y1="170.674" x2="323.344" y2="341.345" gradientUnits="userSpaceOnUse">
<stop stop-color="#E9E9E9" stop-opacity="0.75"/>
<stop offset="0.861" stop-color="#E9E9E9" stop-opacity="0"/>
</linearGradient>
</defs>
</svg>
